<svg width="415" height="379" viewBox="0 0 415 379" fill="none" xmlns="http://www.w3.org/2000/svg">
<path d="M231.392 373.918C231.392 373.918 224.18 377.096 243.86 378.074C263.54 379.052 367.684 379.541 378.441 378.074C389.198 376.607 409.978 377.463 382.352 373.918C354.727 370.373 326.246 372.451 298.377 370.373C270.507 368.295 235.548 370.251 231.392 373.918Z" fill="#1B1C1E"/>
<path d="M375.752 312.678C375.752 312.678 386.753 307.667 388.587 281.997C390.42 256.328 379.174 235.67 378.074 203.155C376.974 170.641 395.309 152.305 409.489 162.818C423.668 173.33 402.399 193.865 406.311 236.281C410.222 278.575 411.322 321.357 377.708 332.358C377.83 332.358 372.085 324.413 375.752 312.678Z" fill="#513F3B"/>
<path d="M287.009 374.04C287.009 374.04 244.593 374.04 242.026 374.04C239.459 374.04 236.281 354.727 258.772 354.361C281.264 353.994 294.832 354.361 294.832 354.361L287.009 374.04Z" fill="#513F3B"/>
<path d="M248.016 374.04C248.016 374.04 246.793 369.396 250.216 366.095" stroke="#1B1C1E" stroke-miterlimit="10"/>
<path d="M256.083 374.04C256.083 374.04 256.083 370.251 257.795 368.54" stroke="#1B1C1E" stroke-miterlimit="10"/>
<path d="M271.974 98.8885C271.974 98.8885 257.061 76.8861 247.405 78.9641C237.748 81.0421 236.403 126.391 244.838 129.203C253.15 132.137 271.974 98.8885 271.974 98.8885Z" fill="#513F3B"/>
<path d="M315.734 100.478C315.734 100.478 335.414 86.2982 347.393 87.1539C359.494 87.8873 347.149 123.58 338.226 132.748C329.302 141.915 315.734 100.478 315.734 100.478Z" fill="#513F3B"/>
<path d="M260.728 175.897C260.728 175.897 244.96 166.24 242.393 146.071C239.826 125.903 248.994 93.9991 292.998 93.9991C337.003 93.9991 345.315 130.792 342.137 149.738C339.203 167.707 330.158 173.33 330.158 173.33C330.158 173.33 339.937 195.454 344.826 208.411C348.616 218.435 350.449 228.703 348.982 240.682C348.982 240.682 363.65 262.44 372.818 280.53C381.619 297.888 388.953 341.404 381.008 370.862C380.519 372.818 378.685 374.163 376.73 374.163H260.973C250.705 374.163 238.726 357.294 248.138 290.431C248.138 290.431 243.249 278.941 247.527 255.105C251.805 231.269 260.728 175.897 260.728 175.897Z" fill="#FFE6BD"/>
<path d="M362.55 374.04C362.55 374.04 355.094 374.04 352.894 374.04H298.988C292.754 357.783 311.7 351.671 321.357 351.671C328.813 351.671 345.926 351.671 345.926 351.671C345.926 351.671 355.094 352.038 359.006 358.394C363.65 365.851 362.795 373.674 362.55 374.04Z" fill="#513F3B"/>
<path d="M273.807 294.465C269.285 297.643 265.129 299.477 262.195 300.577C259.017 301.677 255.472 300.944 253.15 298.377C249.972 294.954 248.016 290.309 248.016 290.309C248.016 290.309 244.838 282.853 245.816 267.573C245.816 267.573 246.182 257.55 260.117 254.494C270.507 252.172 276.13 257.183 276.13 257.183C275.885 259.139 275.519 261.095 275.152 263.295C273.93 270.629 275.396 283.342 276.13 289.209C276.374 291.165 275.519 293.243 273.807 294.465Z" fill="#513F3B"/>
<path d="M260.728 175.897C260.728 175.897 262.684 177.119 263.295 177.241" stroke="#1B1C1E" stroke-miterlimit="10"/>
<path d="M248.016 290.431C248.016 290.431 249.972 295.076 253.15 298.499C255.472 300.944 259.017 301.799 262.195 300.577C265.129 299.477 269.285 297.643 273.807 294.465C275.519 293.243 276.374 291.287 276.008 289.209C275.274 283.342 273.93 270.629 275.03 263.295C276.619 253.516 277.597 245.571 277.597 245.571" stroke="#1B1C1E" stroke-miterlimit="10"/>
<path d="M262.806 300.21C262.806 300.21 257.917 296.421 257.306 289.576" stroke="#1B1C1E" stroke-miterlimit="10"/>
<path d="M270.507 296.543C270.507 296.543 266.84 293.121 266.473 287.131" stroke="#1B1C1E" stroke-miterlimit="10"/>
<path d="M331.258 264.029C322.702 269.285 318.301 272.341 318.79 278.208C319.401 285.053 314.145 285.664 311.823 286.275C308.4 287.131 301.922 287.742 296.91 287.131C294.71 286.887 290.431 282.853 290.431 273.807C290.431 265.495 297.154 251.316 310.111 244.104C310.111 244.104 320.746 242.026 327.836 250.216C332.48 255.717 331.258 264.029 331.258 264.029Z" fill="#513F3B"/>
<path d="M348.982 240.682C348.982 240.682 347.393 253.883 335.781 261.217C324.168 268.551 318.057 271.485 318.668 278.33C319.279 285.175 314.023 285.787 311.7 286.398C308.278 287.253 301.799 287.865 296.788 287.253C294.587 287.009 290.309 282.975 290.309 273.93C290.309 265.618 297.032 251.438 309.989 244.226" stroke="#1B1C1E" stroke-miterlimit="10"/>
<path d="M304.366 287.253C304.366 287.253 298.377 285.909 298.743 276.741" stroke="#1B1C1E" stroke-miterlimit="10"/>
<path d="M311.823 286.275C311.823 286.275 307.911 283.586 308.4 276.741" stroke="#1B1C1E" stroke-miterlimit="10"/>
<path d="M361.206 283.464C361.206 283.464 350.205 269.896 332.969 279.675C317.079 288.72 313.167 330.402 326.735 351.549" stroke="#1B1C1E" stroke-miterlimit="10"/>
<path d="M299.11 374.04C292.876 357.783 311.823 351.671 321.479 351.671C328.936 351.671 346.049 351.671 346.049 351.671" stroke="#1B1C1E" stroke-miterlimit="10"/>
<path d="M307.789 374.04C307.789 374.04 304.733 369.273 307.789 366.095" stroke="#1B1C1E" stroke-miterlimit="10"/>
<path d="M314.756 374.04C314.756 374.04 314.023 368.662 316.101 366.829" stroke="#1B1C1E" stroke-miterlimit="10"/>
<path d="M292.143 172.23C292.143 172.23 270.385 167.463 260.728 154.139C251.072 140.815 256.572 121.747 258.895 118.568C261.217 115.513 263.662 104.389 295.321 105.856C320.135 107.078 329.18 120.402 330.647 129.325C331.991 137.393 329.913 152.428 320.746 159.762C307.789 170.152 292.143 172.23 292.143 172.23Z" fill="#513F3B"/>
<path d="M280.897 129.692C281.264 129.081 281.264 128.469 280.897 127.858C279.675 126.025 276.741 121.746 272.83 121.991C268.185 122.235 264.762 127.247 264.762 128.836C264.762 130.914 267.94 135.559 272.707 136.048C276.374 136.292 279.675 131.648 280.897 129.692Z" fill="#9BBEDC"/>
<path d="M272.707 133.97C274.868 133.97 276.619 131.617 276.619 128.714C276.619 125.811 274.868 123.458 272.707 123.458C270.547 123.458 268.796 125.811 268.796 128.714C268.796 131.617 270.547 133.97 272.707 133.97Z" fill="#1B1C1E"/>
<path d="M288.842 134.826C288.842 134.826 282.364 134.337 278.697 138.126C275.03 141.915 275.641 148.149 279.308 150.472C282.608 152.672 284.32 147.416 288.842 147.172C293.365 146.927 292.876 143.627 293.121 140.326C293.243 137.148 288.842 134.826 288.842 134.826Z" stroke="#1B1C1E" stroke-miterlimit="10"/>
<path d="M292.754 144.605C292.754 144.605 292.509 146.805 294.954 147.905C297.399 149.127 299.477 148.761 302.044 151.694C304.611 154.506 309.622 151.205 309.622 145.827C309.622 139.715 305.589 135.437 298.255 135.192C290.92 134.948 293.365 137.637 293.365 137.637L292.754 144.605Z" stroke="#1B1C1E" stroke-miterlimit="10"/>
<path d="M283.22 150.105C283.22 150.105 286.275 154.383 291.409 154.872C296.176 155.361 300.455 152.428 301.188 150.961" stroke="#1B1C1E" stroke-miterlimit="10"/>
<path d="M293.121 140.449C293.121 140.449 287.864 137.148 287.131 134.337C286.398 131.648 287.864 129.936 293.976 130.181C298.988 130.425 301.188 132.381 299.232 135.559C297.277 138.371 293.121 140.449 293.121 140.449Z" fill="#1B1C1E" stroke="#1B1C1E" stroke-miterlimit="10"/>
<g opacity="0.88">
<path d="M335.414 170.518C335.536 170.641 335.659 170.763 335.781 170.885C335.781 170.885 335.659 170.763 335.414 170.518Z" fill="#443730"/>
<path d="M328.079 175.774L327.958 175.652L328.079 175.774Z" fill="#443730"/>
<path d="M328.08 175.53L327.836 174.919C327.958 175.163 327.958 175.408 328.08 175.53Z" fill="#443730"/>
<path d="M338.592 173.574C338.714 173.697 338.959 173.819 339.203 174.063L338.592 173.574Z" fill="#443730"/>
<path d="M339.203 176.263C339.203 176.386 339.326 176.508 339.326 176.508C339.326 176.508 339.203 176.386 339.203 176.263Z" fill="#443730"/>
<path d="M340.426 164.284C340.303 164.284 340.303 164.162 340.181 164.162C340.303 164.162 340.303 164.162 340.426 164.284Z" fill="#443730"/>
<path d="M341.648 164.529C341.648 164.407 341.648 164.407 341.648 164.529H341.893C341.893 164.651 341.648 164.529 341.648 164.529Z" fill="#443730"/>
<path d="M350.571 166.851L351.06 167.218C350.938 167.096 350.693 166.974 350.571 166.851Z" fill="#443730"/>
<path d="M339.815 163.796C339.937 163.918 340.059 164.04 340.304 164.162C340.059 164.04 339.937 164.04 339.815 163.796Z" fill="#443730"/>
<path d="M335.292 170.274C335.414 170.396 335.414 170.396 335.414 170.518C335.414 170.396 335.292 170.396 335.292 170.274Z" fill="#443730"/>
<path d="M324.78 176.508C324.657 176.508 324.535 176.386 324.535 176.386C324.535 176.019 324.657 176.141 324.78 176.508Z" fill="#443730"/>
<path d="M339.815 166.729C341.037 168.196 340.059 166.607 341.281 167.952C340.915 167.829 340.548 167.585 341.159 168.44C342.015 169.174 341.404 168.074 342.504 169.296L341.893 169.052C342.259 169.785 343.359 170.518 343.115 170.518C341.526 169.052 343.115 171.741 342.626 171.619L342.87 171.741L343.237 172.841C343.237 172.841 343.237 172.841 343.359 172.963C343.237 172.841 343.237 172.841 343.115 172.719C343.726 173.697 343.971 174.43 343.482 174.43C342.626 173.574 342.382 174.797 341.526 174.063C341.77 174.186 341.893 174.186 341.893 173.819L340.915 172.719C340.67 172.963 341.77 173.819 340.915 173.33C339.692 171.741 341.281 173.085 341.281 172.719C340.915 172.352 340.548 172.108 340.304 172.108C340.67 171.741 340.426 171.007 342.015 172.352C341.77 171.985 341.281 171.374 341.037 171.252C342.015 171.985 340.426 170.274 341.404 170.885C340.181 169.541 340.304 170.518 339.448 169.907C340.059 171.252 338.837 170.518 338.348 170.518C339.203 171.619 340.181 172.352 340.548 173.085C340.792 174.063 339.692 172.719 339.081 172.23C339.081 172.841 340.426 174.063 340.059 174.43L340.792 174.919C341.648 176.63 340.059 174.43 340.181 174.919C339.937 174.43 339.692 174.063 339.937 173.941C339.57 173.33 339.203 173.208 339.081 173.208V173.085C338.47 172.352 337.859 171.619 337.859 172.108C338.714 172.963 338.226 172.963 338.47 173.452L338.714 173.574C338.348 173.452 338.226 173.697 337.981 173.574L338.103 173.819C337.737 173.574 336.881 172.352 336.759 172.719C337.125 173.208 338.226 174.308 337.859 174.308C338.348 175.041 338.714 174.919 338.714 174.552C338.714 174.919 339.326 176.141 339.692 176.141C340.181 177.119 339.203 175.897 339.326 176.386C339.203 176.141 338.959 175.775 338.714 175.53C339.57 176.752 338.226 176.019 337.737 175.041L338.47 175.53C337.859 174.552 337.125 174.063 336.881 173.452C337.737 175.163 335.781 173.085 336.392 174.552L336.025 173.697C335.781 174.552 334.314 172.963 333.581 172.841C334.07 173.208 335.047 175.041 335.047 174.186C334.803 174.797 335.903 176.019 336.27 176.997C336.27 177.975 335.17 175.408 334.681 174.919C334.803 175.041 335.047 175.041 335.17 175.041C333.703 173.208 334.314 176.019 333.092 175.041C333.336 175.652 333.336 175.286 333.581 175.53C333.947 176.752 333.214 175.408 332.847 175.041C332.725 175.286 332.603 176.019 333.458 177.241C333.336 177.73 333.092 176.386 332.725 176.019L332.847 176.386L331.869 175.041C331.869 175.652 331.869 176.508 332.358 177.853C331.625 177.853 330.769 174.797 330.158 174.552C330.28 175.408 330.647 175.652 330.891 176.141H330.402C331.136 177.608 331.136 176.752 331.869 178.586C330.769 176.875 331.136 178.219 330.28 177.241V177.119C329.547 175.897 329.547 176.997 329.18 176.875C329.547 177.608 329.914 177.608 330.158 177.73C330.158 178.464 329.18 178.097 328.324 176.63C328.202 176.997 328.08 177.73 328.569 178.342C328.08 178.83 327.591 176.019 327.224 176.752L327.591 177.975C327.591 179.931 326.002 176.63 326.002 178.464L325.513 176.875C325.635 177.608 325.391 177.975 325.513 178.586L325.88 179.075C326.002 180.42 325.269 177.853 325.269 178.83C325.146 178.342 325.146 177.241 325.024 176.752C325.635 177.119 326.124 176.63 326.613 176.264C327.102 175.897 327.469 175.53 328.324 176.019C328.324 176.264 328.324 176.386 328.447 176.752C328.447 176.386 328.813 176.63 328.447 175.897L328.324 175.775C328.691 176.019 328.324 174.063 328.447 174.063C328.936 175.041 328.813 173.452 329.425 175.163L329.18 173.941C329.547 174.552 329.791 175.408 330.036 175.652C330.158 175.408 329.914 174.797 329.547 174.43C330.036 173.574 330.769 173.208 331.747 173.452L331.136 172.719C331.136 172.23 332.48 173.819 331.258 171.863C331.992 172.474 331.869 170.885 332.969 172.963C332.114 170.885 333.214 171.619 333.947 171.619C334.925 173.33 334.558 171.863 335.17 172.596C334.436 171.252 333.947 171.496 333.458 170.641C335.17 172.352 333.703 168.44 336.148 171.619C336.148 171.496 336.025 171.374 335.903 171.252C336.025 171.13 335.781 170.518 335.659 170.396C336.148 170.885 336.148 171.374 336.392 171.374C336.514 171.13 335.781 170.274 335.536 169.785C336.392 170.274 337.003 170.274 338.103 171.496C337.981 171.13 337.492 170.274 337.248 170.152C338.47 170.763 337.614 169.663 338.592 169.907C338.348 170.03 337.492 168.685 337.614 169.296C336.392 167.34 338.592 169.052 338.226 167.829L339.326 168.807C339.692 168.807 338.837 167.707 338.348 167.463C338.103 166.485 338.959 166.974 339.203 166.729C339.081 166.607 338.837 166.362 338.959 166.485L339.326 166.118C339.57 166.362 340.304 166.729 340.792 167.463C340.059 166.485 339.692 166.118 339.815 166.729Z" fill="#443730"/>
<path d="M340.67 166.974L340.792 167.095C340.792 167.095 340.792 167.095 340.67 166.974Z" fill="#443730"/>
<path d="M340.426 175.408C340.303 175.041 340.181 174.919 340.181 174.797C340.303 174.919 340.303 175.163 340.426 175.408Z" fill="#443730"/>
<path d="M346.415 164.773C348.004 166.24 345.926 164.773 346.171 165.385C346.538 165.385 347.515 166.24 348.004 166.729C345.682 165.14 348.127 167.34 347.393 167.463C348.127 168.074 348.371 167.951 349.227 168.563C348.493 168.318 347.882 168.44 346.66 167.463C346.293 167.829 346.415 168.563 345.926 168.563C346.66 168.685 347.149 169.663 348.371 170.274C346.66 169.296 344.46 168.44 342.504 167.218C343.726 168.563 343.726 168.685 344.948 169.785C345.315 171.13 343.726 168.807 343.604 169.541V169.174C342.993 168.929 341.893 167.829 341.037 166.974C341.281 166.851 341.526 166.851 341.648 166.729C340.792 165.873 340.67 166.24 340.304 166.118C339.203 165.14 339.815 165.14 339.081 164.407C339.815 165.018 339.815 164.651 340.181 164.773L339.815 164.284C339.57 163.551 340.792 164.651 340.915 164.407C340.792 164.284 340.67 164.162 340.67 164.04C341.281 164.529 341.893 165.018 342.259 165.018H342.137C343.359 165.873 344.582 166.118 345.437 167.585L345.56 166.729C344.215 165.629 342.259 164.04 341.893 164.162L341.404 163.673C340.915 162.818 342.87 164.04 343.848 165.14C347.026 167.585 344.704 164.407 346.293 165.14C345.437 164.407 344.948 164.284 344.337 163.918C344.093 163.918 344.093 164.04 344.704 164.651C343.848 164.773 342.137 162.206 342.015 163.062C342.259 163.673 343.604 163.918 343.359 164.407L340.915 162.573C341.159 162.451 341.77 162.573 342.137 162.573C343.359 162.695 343.848 162.329 343.971 161.84C344.093 161.351 343.971 160.984 343.971 160.984C345.56 159.517 347.026 158.05 348.249 156.461C348.982 156.095 348.86 155.85 351.794 156.95C352.283 157.317 351.794 157.561 352.772 157.928C351.794 157.439 351.06 157.439 350.938 157.806C351.916 158.417 351.549 157.806 351.794 157.928V158.05C352.283 158.295 352.649 158.417 352.772 158.295C353.994 159.517 353.26 160.128 351.305 159.273C352.038 160.128 352.894 160.006 353.749 160.251C353.872 161.84 353.138 162.451 352.527 163.673C350.938 162.573 351.427 163.062 350.205 162.451L350.694 162.94C350.449 162.695 349.227 162.084 349.104 161.595C349.96 163.062 346.538 160.74 345.56 160.617L346.415 161.229C346.049 161.473 345.926 161.473 345.315 161.473C346.415 163.062 345.926 161.229 347.76 162.818L347.271 162.695C348.127 163.184 349.471 164.162 350.205 164.407C348.493 163.918 350.205 165.507 348.738 165.262C349.716 165.873 350.694 165.873 350.938 165.873C350.816 166.118 349.96 165.996 350.816 166.607L349.716 165.751C349.349 165.996 350.816 166.485 351.427 167.218C350.327 168.074 347.515 164.651 346.415 164.773Z" fill="#443730"/>
<path d="M340.181 171.985C340.181 171.863 340.303 171.863 340.426 171.863C340.426 171.863 340.303 171.985 340.181 171.985Z" fill="#443730"/>
<path d="M343.359 172.719C343.482 172.841 343.604 172.963 343.726 173.085C343.604 173.085 343.482 172.963 343.359 172.719Z" fill="#443730"/>
<path d="M344.826 174.063C344.46 173.574 344.337 173.574 343.726 173.085C344.093 173.33 344.337 173.208 344.826 174.063Z" fill="#443730"/>
<path d="M313.778 184.698C313.778 184.331 313.412 183.842 313.534 183.475L313.901 183.964L313.778 184.698Z" fill="#443730"/>
<path d="M314.512 183.231L314.879 182.62L315.123 184.576C314.756 184.576 315.001 183.231 314.512 183.231Z" fill="#443730"/>
<path d="M315.612 182.131L315.49 181.642C315.612 181.886 315.612 182.009 315.612 182.131Z" fill="#443730"/>
<path d="M315.612 182.864L315.734 184.209L315.245 183.231L315.49 182.987C315.49 182.498 315.612 182.253 315.612 182.131L315.856 183.109C315.734 182.987 315.612 182.742 315.612 182.864Z" fill="#443730"/>
<path d="M316.101 182.986C316.101 183.109 316.101 183.231 316.101 183.353C315.979 183.231 315.979 183.109 316.101 182.986Z" fill="#443730"/>
<path d="M316.834 180.42C316.712 180.908 316.957 181.642 317.079 182.253C316.712 182.742 316.59 180.786 316.345 181.397C316.834 182.498 316.223 182.253 316.101 182.986C316.223 181.642 316.345 180.786 316.712 180.42L316.834 181.275C316.834 181.275 316.712 180.786 316.834 180.42Z" fill="#443730"/>
<path d="M318.912 182.375L318.546 181.153C318.546 181.764 318.057 181.764 318.179 183.109C318.057 182.986 317.934 182.375 317.812 182.009C317.69 182.742 317.69 183.231 317.445 182.253C318.057 181.275 317.812 181.031 318.423 180.664C318.423 180.42 318.301 180.42 318.301 180.542L318.668 179.808C318.668 181.275 319.279 181.397 318.912 182.375Z" fill="#443730"/>
<path d="M319.401 181.397C319.035 181.397 318.79 180.175 318.912 179.319L319.646 180.297C319.401 180.175 319.157 180.053 319.401 181.397Z" fill="#443730"/>
<path d="M319.89 181.275C319.89 180.542 320.012 179.075 320.379 180.42C319.89 180.175 320.379 182.131 319.89 181.275Z" fill="#443730"/>
<path d="M321.968 179.686L321.479 180.664C321.601 182.375 321.846 181.153 322.213 181.886C321.724 182.253 321.846 181.764 321.235 180.786C321.113 180.908 320.746 180.053 320.501 179.564C321.479 180.786 320.868 176.752 321.968 179.686Z" fill="#443730"/>
<path d="M320.99 181.642L320.746 180.909L321.113 181.397L320.99 181.642Z" fill="#443730"/>
<path d="M322.946 177.73C322.824 175.652 323.802 178.708 324.046 177.73C323.924 177.608 323.924 177.486 323.802 177.241L324.168 177.364L324.046 176.875C324.291 178.097 324.78 178.464 325.146 179.319C325.146 180.664 324.657 177.853 324.657 179.319C324.902 179.808 325.146 180.664 325.269 181.031C324.902 180.542 324.657 179.808 324.413 179.197C324.168 179.075 324.413 179.808 324.413 180.175C324.046 179.564 323.557 177.853 323.313 178.341C323.313 179.442 323.802 179.931 323.313 179.564C323.191 177.608 322.946 179.931 322.579 178.83C322.335 179.197 322.335 180.419 322.457 181.153C322.213 179.686 321.724 178.464 321.357 178.097L322.09 179.197L321.968 177.486C322.579 178.219 322.824 178.097 322.946 177.73Z" fill="#443730"/>
<path d="M325.269 181.031C325.391 181.153 325.391 181.275 325.513 181.275C325.513 181.397 325.391 181.275 325.269 181.031Z" fill="#443730"/>
<path d="M322.579 181.642L322.824 182.009V182.498L322.579 181.642Z" fill="#443730"/>
<path d="M325.88 182.131C325.758 182.253 325.635 181.642 325.758 181.52L326.124 182.253L325.88 182.131Z" fill="#443730"/>
<path d="M326.002 181.031L325.88 179.931L326.246 180.786L326.002 181.031Z" fill="#443730"/>
<path d="M332.847 177.486C332.847 178.097 332.358 176.997 331.992 176.264C332.236 175.897 332.48 177.241 332.847 177.486Z" fill="#443730"/>
<path d="M337.859 176.386C337.981 177.241 337.248 176.386 337.003 176.508C336.881 175.897 337.37 176.019 337.859 176.386Z" fill="#443730"/>
<path d="M342.015 178.586C341.77 178.342 341.526 178.219 341.526 177.975L340.059 176.386C340.059 175.652 341.526 177.853 342.015 178.586Z" fill="#443730"/>
<path d="M344.215 177.241L343.359 176.875L343.482 176.752C342.87 176.141 342.626 175.897 342.015 175.408C342.626 175.53 343.359 176.019 344.215 177.241Z" fill="#443730"/>
<path d="M341.526 175.286C341.526 175.286 341.648 175.286 341.77 175.286C341.893 175.53 342.015 175.775 341.526 175.286Z" fill="#443730"/>
<path d="M341.893 175.286C342.015 175.408 342.015 175.408 342.137 175.408C342.015 175.408 341.893 175.286 341.77 175.286C341.648 175.163 341.648 174.919 341.893 175.286Z" fill="#443730"/>
<path d="M343.848 176.264L344.582 176.019V176.508C343.726 175.53 344.826 177.364 343.848 176.264Z" fill="#443730"/>
<path d="M345.926 172.963L345.071 171.985C345.193 171.496 347.515 173.085 346.293 171.496C346.66 172.23 347.515 172.23 347.393 172.963C346.538 172.23 345.926 172.596 345.926 172.963Z" fill="#443730"/>
<path d="M345.804 170.518C345.437 170.274 345.437 170.029 345.193 169.785C345.193 169.541 345.682 169.907 346.049 170.274C344.704 169.174 346.66 171.13 345.804 170.518Z" fill="#443730"/>
<path d="M347.271 169.174C347.149 169.296 346.904 169.296 346.782 168.929C347.149 168.685 348.127 169.785 348.86 170.274C349.227 171.007 347.638 169.785 347.271 169.174Z" fill="#443730"/>
<path d="M341.893 160.984C342.748 161.717 342.381 161.84 342.137 161.595C342.381 161.595 342.137 161.229 341.893 160.984Z" fill="#443730"/>
<path d="M348.982 166.729L349.104 166.974L347.76 165.996L348.982 166.729Z" fill="#443730"/>
<path d="M351.06 165.507L352.16 165.873L351.794 166.118L351.06 165.507Z" fill="#443730"/>
<path d="M351.182 165.018L351.427 164.773L351.671 165.14C351.916 165.385 351.305 164.896 351.182 165.018Z" fill="#443730"/>
<path d="M352.038 164.162C351.916 164.162 352.038 164.284 352.16 164.407L351.427 164.284L352.038 164.162Z" fill="#443730"/>
<path d="M348.982 155.85C348.004 155.361 348.738 155.484 348.493 155.361C348.738 155.484 349.96 156.217 348.982 155.85Z" fill="#443730"/>
</g>
<g opacity="0.88">
<path d="M341.281 257.55C341.404 257.55 341.404 257.55 341.526 257.672C341.526 257.672 341.404 257.672 341.281 257.55Z" fill="#443730"/>
<path d="M334.192 263.051L333.947 262.806C334.192 262.928 334.192 263.051 334.192 263.051Z" fill="#443730"/>
<path d="M345.682 250.827C345.56 250.705 345.56 250.705 345.682 250.827C345.56 250.705 345.56 250.705 345.682 250.827Z" fill="#443730"/>
<path d="M346.293 250.46C346.293 250.46 346.293 250.338 346.415 250.338L346.293 250.46C346.536 250.338 346.415 250.46 346.293 250.46Z" fill="#443730"/>
<path d="M351.305 248.138L351.549 248.26C351.427 248.26 351.305 248.26 351.305 248.138Z" fill="#443730"/>
<path d="M345.315 250.705C345.437 250.705 345.437 250.705 345.56 250.705C345.437 250.705 345.315 250.827 345.315 250.705Z" fill="#443730"/>
<path d="M341.159 257.428C341.281 257.55 341.281 257.55 341.159 257.428C341.281 257.55 341.281 257.55 341.159 257.428Z" fill="#443730"/>
<path d="M330.891 264.273C330.769 264.273 330.769 264.273 330.647 264.273C330.769 264.151 330.891 264.273 330.891 264.273Z" fill="#443730"/>
<path d="M344.948 253.027C345.56 253.516 345.193 252.783 345.804 253.272C345.56 253.272 345.437 253.394 345.682 253.639C346.171 253.761 345.804 253.272 346.415 253.639L346.049 253.761C346.293 254.127 346.782 254.25 346.66 254.25C345.804 253.883 346.537 255.105 346.293 255.228H346.415L346.538 255.839C346.538 255.839 346.415 255.839 346.415 255.717C346.66 256.083 346.782 256.572 346.538 256.817C346.049 256.572 345.682 257.55 345.315 257.306C345.56 257.306 345.56 257.183 345.56 256.939L345.071 256.572C344.826 256.817 345.56 256.939 345.071 256.939C344.459 256.328 345.315 256.572 345.437 256.328C345.193 256.205 345.071 256.205 344.826 256.328C345.071 255.961 345.071 255.472 345.926 255.839C345.804 255.594 345.56 255.472 345.437 255.472C346.049 255.594 345.193 254.983 345.682 255.105C344.948 254.739 344.948 255.35 344.459 255.228C344.704 255.961 343.971 255.961 343.604 256.205C344.093 256.572 344.582 256.694 344.826 257.061C344.826 257.672 344.337 257.183 343.848 257.183C343.848 257.55 344.582 257.917 344.337 258.283H344.826C345.315 259.139 344.337 258.283 344.337 258.528C344.215 258.283 344.093 258.161 344.215 258.039C343.971 257.795 343.726 257.917 343.726 257.917V257.795C343.359 257.55 342.993 257.306 342.993 257.672C343.482 257.917 343.115 258.161 343.237 258.283H343.359C343.115 258.283 342.993 258.528 342.748 258.528L342.87 258.65C342.626 258.65 342.137 258.161 342.015 258.528C342.259 258.65 342.87 259.017 342.626 259.139C342.87 259.384 343.115 259.261 343.237 258.895C343.115 259.139 343.482 259.75 343.726 259.506C343.971 259.873 343.359 259.506 343.359 259.873C343.237 259.75 343.115 259.628 342.993 259.506C343.482 259.995 342.626 259.995 342.259 259.628H342.748C342.381 259.261 341.893 259.261 341.77 258.895C342.259 259.628 340.915 259.139 341.281 259.75L341.037 259.384C340.792 259.995 339.815 259.506 339.203 259.75C339.57 259.873 340.059 260.484 340.181 260.117C339.815 260.606 340.548 260.973 340.67 261.339C340.548 261.828 339.937 260.85 339.692 260.728H340.059C339.081 260.117 339.203 261.584 338.348 261.462C338.47 261.706 338.592 261.462 338.714 261.584C338.837 262.195 338.47 261.706 338.226 261.584C338.103 261.828 337.859 262.195 338.348 262.684C338.225 263.051 338.103 262.317 337.859 262.195V262.317C337.614 262.195 337.37 262.073 337.248 261.828C337.125 262.195 337.003 262.562 337.248 263.173C336.636 263.417 336.27 261.951 335.781 261.951C335.781 262.317 336.025 262.317 336.27 262.562L335.903 262.684C336.392 263.295 336.514 262.806 336.881 263.54C336.147 262.928 336.392 263.54 335.659 263.295V263.173C335.17 262.806 334.925 263.295 334.681 263.417C334.925 263.662 335.17 263.54 335.414 263.54C335.292 263.906 334.436 264.029 333.947 263.54C333.825 263.784 333.581 264.151 333.947 264.273C333.458 264.64 333.214 263.417 332.847 263.784L333.092 264.273C332.847 265.251 331.747 264.029 331.503 264.884L331.258 264.273C331.258 264.64 331.136 264.762 331.136 265.129L331.503 265.251C331.503 265.862 331.014 264.762 330.891 265.373C330.769 265.129 330.891 264.64 330.769 264.395C331.991 264.395 332.725 263.051 333.947 263.173C333.947 263.295 333.947 263.417 334.069 263.54C334.069 263.295 334.436 263.417 334.192 263.051C334.558 263.051 334.436 262.195 334.558 262.073C334.925 262.439 335.047 261.584 335.292 262.439L335.17 261.951C335.414 262.195 335.536 262.562 335.659 262.684C335.781 262.562 335.659 262.195 335.414 262.195C335.903 261.584 336.759 261.217 337.614 260.973L337.248 260.728C337.248 260.484 338.225 260.85 337.492 260.117C337.981 260.239 338.226 259.261 338.837 260.117C338.47 259.139 339.326 259.261 339.815 259.017C340.303 259.75 340.304 258.895 340.67 259.139C340.304 258.528 339.937 258.895 339.57 258.528C340.67 258.895 340.181 256.939 341.526 258.039C341.526 257.917 341.526 257.917 341.404 257.917C341.526 257.795 341.404 257.55 341.404 257.428C341.648 257.55 341.648 257.917 341.893 257.795C342.015 257.55 341.526 257.306 341.526 257.183C342.137 257.183 342.626 256.817 343.237 257.306C343.115 257.061 342.993 256.694 342.748 256.694C343.604 256.572 342.993 256.205 343.726 255.961C343.604 256.083 343.115 255.594 343.115 255.961C342.504 255.105 343.848 255.35 343.726 254.616L344.337 254.861C344.582 254.739 344.093 254.25 343.848 254.372C343.848 253.761 344.215 253.761 344.459 253.394C344.459 253.272 344.337 253.272 344.337 253.394L344.582 252.905C344.704 252.905 345.071 252.905 345.437 253.15C345.193 252.661 344.948 252.661 344.948 253.027Z" fill="#443730"/>
<path d="M344.337 258.772C344.215 258.65 344.215 258.528 344.215 258.528C344.337 258.528 344.337 258.65 344.337 258.772Z" fill="#443730"/>
<path d="M348.982 248.382C349.838 248.871 348.738 248.627 348.86 248.994C349.104 248.871 349.593 249.116 349.838 249.238C348.616 248.994 349.96 249.727 349.471 250.094C349.838 250.216 349.96 250.094 350.449 250.216C350.082 250.338 349.716 250.827 348.982 250.583C348.738 251.072 348.738 251.561 348.493 251.805C348.982 251.561 349.104 252.05 349.838 252.05C348.982 252.05 347.638 252.416 346.538 252.416C347.149 252.905 347.149 252.905 347.882 253.272C348.004 254.128 347.149 253.027 347.026 253.639V253.272C346.66 253.394 346.049 253.027 345.56 252.783L346.049 252.294C345.56 252.05 345.437 252.416 345.193 252.416C344.582 252.294 345.071 251.927 344.582 251.683C344.948 251.805 345.071 251.561 345.315 251.438L345.071 251.316C344.948 250.949 345.682 251.072 345.804 250.827L345.682 250.705C346.049 250.827 346.415 250.827 346.538 250.827L346.415 250.949C347.149 251.072 347.76 250.705 348.249 251.438L348.371 250.705C347.638 250.46 346.66 250.094 346.293 250.338L346.049 250.216C345.804 249.727 346.904 249.727 347.393 250.216C349.104 250.705 347.882 249.238 348.738 249.116C348.371 248.871 348.004 249.116 347.638 249.116C347.515 249.238 347.515 249.36 347.882 249.483C347.393 249.972 346.537 248.749 346.415 249.483C346.415 249.849 347.271 249.483 347.149 249.972L345.804 249.727C345.926 249.483 346.293 249.36 346.538 249.116C347.271 248.627 347.515 248.016 347.638 247.649C347.76 247.282 347.638 246.916 347.638 246.916C348.493 244.96 349.104 242.882 349.593 240.804C349.838 240.193 349.838 239.948 351.182 239.826C351.427 239.948 351.305 240.437 351.794 240.315C351.305 240.315 351.06 240.559 351.06 240.926C351.549 241.048 351.305 240.682 351.427 240.682V240.804C351.671 240.804 351.794 240.804 351.916 240.682C352.527 241.171 352.283 242.026 351.305 242.148C351.671 242.515 352.038 242.026 352.527 241.904C352.649 243.126 352.405 243.982 352.16 245.204C351.305 244.96 351.549 245.204 351.06 245.204L351.305 245.449C351.182 245.327 350.571 245.327 350.449 245.082C350.938 245.938 349.104 245.571 348.616 245.816L349.104 245.938C348.86 246.304 348.86 246.427 348.493 246.549C349.104 247.405 348.738 246.06 349.716 246.549L349.471 246.671C349.838 246.671 350.571 246.793 350.938 246.671C350.082 247.038 350.938 247.649 350.205 248.016C350.694 248.138 351.182 247.649 351.305 247.527C351.305 247.771 350.816 248.016 351.182 248.26L350.571 248.138C350.327 248.505 351.182 248.26 351.427 248.505C351.182 249.238 349.716 247.894 348.982 248.382Z" fill="#443730"/>
<path d="M344.582 256.572C344.582 256.45 344.704 256.45 344.826 256.328C344.704 256.45 344.704 256.45 344.582 256.572Z" fill="#443730"/>
<path d="M346.66 255.839C346.782 255.839 346.782 255.961 346.904 255.961C346.782 255.839 346.782 255.839 346.66 255.839Z" fill="#443730"/>
<path d="M347.515 256.083C347.271 255.839 347.271 255.961 346.904 255.839C347.149 255.961 347.271 255.594 347.515 256.083Z" fill="#443730"/>
<path d="M320.257 269.651C320.135 269.529 319.89 269.285 320.012 269.162L320.379 269.285L320.257 269.651Z" fill="#443730"/>
<path d="M320.99 268.918L321.357 268.674L321.724 269.529C321.235 269.407 321.357 268.796 320.99 268.918Z" fill="#443730"/>
<path d="M321.968 268.307L321.846 268.062C321.846 268.185 321.968 268.185 321.968 268.307Z" fill="#443730"/>
<path d="M321.968 268.673L322.213 269.285L321.724 268.918L321.846 268.796C321.846 268.551 321.968 268.429 321.968 268.429L322.213 268.796C322.09 268.673 321.968 268.551 321.968 268.673Z" fill="#443730"/>
<path d="M323.068 267.329C323.068 267.573 323.191 267.818 323.313 268.062C322.946 268.307 322.824 267.451 322.579 267.818C323.068 268.185 322.457 268.185 322.335 268.551C322.335 267.94 322.457 267.573 322.824 267.329L322.946 267.696C323.068 267.818 322.946 267.573 323.068 267.329Z" fill="#443730"/>
<path d="M325.024 268.062L324.657 267.573C324.657 267.818 324.168 267.94 324.291 268.429C324.168 268.429 324.046 268.062 323.924 267.94C323.802 268.307 323.802 268.429 323.557 268.062C324.168 267.573 323.924 267.451 324.535 267.207C324.535 267.084 324.413 267.084 324.413 267.207L324.78 266.84C324.902 267.573 325.391 267.573 325.024 268.062Z" fill="#443730"/>
<path d="M325.513 267.573C325.269 267.573 324.902 267.084 325.024 266.718C325.269 266.84 325.513 266.962 325.757 267.084C325.635 267.084 325.391 267.084 325.513 267.573Z" fill="#443730"/>
<path d="M326.002 267.451C326.002 267.084 326.124 266.473 326.491 266.962C326.124 266.962 326.369 267.818 326.002 267.451Z" fill="#443730"/>
<path d="M327.958 266.351L327.469 266.84C327.591 267.573 327.835 266.962 328.08 267.329C327.591 267.573 327.713 267.329 327.224 266.962C327.102 267.084 326.735 266.718 326.613 266.596C327.469 266.962 327.102 265.251 327.958 266.351Z" fill="#443730"/>
<path d="M326.98 267.451L326.858 267.084L327.224 267.329L326.98 267.451Z" fill="#443730"/>
<path d="M329.18 265.251C329.302 264.273 330.036 265.618 330.28 265.129C330.28 265.129 330.28 265.006 330.158 264.884H330.525V264.64C330.647 265.129 331.014 265.251 331.38 265.495C331.258 266.107 331.014 264.884 330.891 265.618C331.014 265.862 331.258 266.107 331.38 266.351C331.136 266.229 330.891 265.862 330.769 265.618C330.525 265.618 330.647 265.862 330.769 266.107C330.402 265.862 330.158 265.129 329.913 265.373C329.791 265.862 330.28 265.984 329.791 265.984C329.791 265.129 329.425 266.229 329.058 265.74C328.813 265.984 328.691 266.473 328.813 266.84C328.691 266.229 328.202 265.74 327.958 265.618L328.569 265.984V265.251C328.691 265.618 328.936 265.495 329.18 265.251Z" fill="#443730"/>
<path d="M331.136 266.473L331.257 266.595L331.136 266.473Z" fill="#443730"/>
<path d="M328.569 267.207L328.691 267.329V267.451L328.569 267.207Z" fill="#443730"/>
<path d="M331.503 266.84C331.38 266.84 331.38 266.718 331.38 266.595L331.503 266.84Z" fill="#443730"/>
<path d="M331.625 266.229L331.747 265.74L331.869 266.107L331.625 266.229Z" fill="#443730"/>
<path d="M338.226 262.684C338.226 263.051 337.859 262.562 337.614 262.317C337.859 261.951 337.859 262.684 338.226 262.684Z" fill="#443730"/>
<path d="M342.382 260.362C342.382 260.85 341.893 260.606 341.648 260.728C341.648 260.362 342.015 260.362 342.382 260.362Z" fill="#443730"/>
<path d="M345.071 260.239C344.948 260.117 344.826 260.117 344.826 259.995L343.971 259.506C344.093 259.017 344.826 259.873 345.071 260.239Z" fill="#443730"/>
<path d="M346.782 258.528L346.293 258.65L346.415 258.528C346.049 258.406 345.926 258.283 345.56 258.161C345.926 258.039 346.293 258.039 346.782 258.528Z" fill="#443730"/>
<path d="M345.193 258.161C345.193 258.161 345.315 258.161 345.315 258.039C345.437 258.283 345.437 258.406 345.193 258.161Z" fill="#443730"/>
<path d="M345.437 258.039C345.437 258.039 345.558 258.039 345.437 258.039C345.437 258.039 345.437 258.161 345.437 258.039C345.315 258.039 345.315 258.039 345.437 258.039Z" fill="#443730"/>
<path d="M346.66 257.917L347.149 257.428V257.795C346.66 257.55 347.149 258.283 346.66 257.917Z" fill="#443730"/>
<path d="M348.371 254.861L347.882 254.494C348.004 254.127 349.349 254.25 348.738 253.639C348.982 254.005 349.471 253.639 349.349 254.127C348.738 254.005 348.371 254.494 348.371 254.861Z" fill="#443730"/>
<path d="M348.493 253.15C348.371 253.15 348.249 253.027 348.127 252.905C348.127 252.783 348.493 252.783 348.616 252.905C347.882 252.538 348.86 253.272 348.493 253.15Z" fill="#443730"/>
<path d="M349.349 251.438C349.227 251.561 349.104 251.683 349.104 251.438C349.349 251.194 349.838 251.561 350.205 251.561C350.449 251.927 349.593 251.805 349.349 251.438Z" fill="#443730"/>
<path d="M346.66 247.405C347.149 247.649 346.904 247.771 346.782 247.771C346.904 247.771 346.782 247.527 346.66 247.405Z" fill="#443730"/>
<path d="M350.449 248.749V248.871L349.838 248.749H350.449Z" fill="#443730"/>
<path d="M351.549 246.916L352.038 246.793L351.916 247.16L351.549 246.916Z" fill="#443730"/>
<path d="M351.549 246.427L351.671 246.06L351.794 246.182C351.916 246.549 351.549 246.304 351.549 246.427Z" fill="#443730"/>
<path d="M351.916 245.449C351.916 245.449 351.916 245.571 352.038 245.571L351.671 245.816L351.916 245.449Z" fill="#443730"/>
<path d="M349.96 239.581C349.471 239.581 349.838 239.337 349.716 239.337C349.838 239.215 350.449 239.459 349.96 239.581Z" fill="#443730"/>
</g>
<path d="M306.2 130.181C305.955 129.57 305.955 128.836 306.444 128.347C307.789 126.636 311.211 122.724 315.123 123.336C319.646 124.069 322.579 129.447 322.457 130.914C322.213 132.992 318.668 137.27 313.778 137.148C309.867 137.27 307.178 132.259 306.2 130.181Z" fill="#9BBEDC"/>
<path d="M318.214 130.498C318.525 127.612 317.035 125.085 314.887 124.853C312.739 124.622 310.746 126.775 310.436 129.661C310.125 132.547 311.615 135.075 313.763 135.306C315.911 135.537 317.904 133.384 318.214 130.498Z" fill="#1B1C1E"/>
</svg>
