<svg width="300" height="296" viewBox="0 0 300 296" fill="none" xmlns="http://www.w3.org/2000/svg">
<path d="M131.793 275.471C131.793 275.471 127.135 283.042 145.069 268.302C163.002 253.562 255.091 172.929 263.75 163.697C272.409 154.466 291.251 138.791 264.952 158.105C238.653 177.419 214.646 200.845 188.915 221.258C163.044 241.661 133.485 269.98 131.793 275.471Z" fill="#1B1C1E"/>
<path d="M155.02 202.613C155.02 202.613 152.22 208.813 148.911 209.596C145.603 210.379 142.606 214.087 141.515 216.782C140.424 219.476 131.496 219.48 131.041 221.081C130.52 222.607 134.017 224.457 134.017 224.457C134.017 224.457 134.113 225.171 128.432 225.38C122.751 225.589 119.093 228.546 121.535 230.259C121.535 230.259 121.001 230.863 115.665 230.102C110.262 229.265 109.043 232.872 110.692 233.685C110.692 233.685 101.548 233.746 99.2887 235.871C97.0292 237.996 97.328 239.998 97.328 239.998C97.328 239.998 91.8007 241.138 90.3613 243.739C88.922 246.341 92.1682 246.546 91.034 247.679C89.8999 248.811 86.4973 252.21 89.3328 253.31C92.1684 254.41 93.2187 253.484 91.8277 256.443C90.4367 259.402 90.9288 262.834 93.964 261.892C96.9991 260.949 97.3335 262.388 98.4437 265.008C99.5538 267.629 100.797 268.132 103.868 266.625C106.873 265.044 107.468 265.719 107.229 267.262C106.99 268.806 108.396 270.099 111.092 268.923C113.787 267.747 113.401 272.753 118.28 271.785C123.159 270.817 126.204 267.467 126.313 269.103C126.423 270.74 128.76 271.879 131.019 269.754C133.279 267.629 134.704 266.373 136.345 267.327C137.91 268.346 141.722 266.32 142.984 264.274C144.172 262.294 144.903 264.182 148.093 261.903C151.284 259.625 151.704 256.321 154.17 256.548C156.636 256.774 159.298 251.628 161.469 250.914C163.639 250.201 166.038 250.352 168.405 246.534C170.846 242.649 172.949 244.128 176.043 241.135C179.136 238.141 179.623 234.913 182.319 233.737C185.09 232.494 184.905 230.924 185.846 228.362C186.862 225.734 192.355 222.892 192.816 217.819C193.287 212.606 166.617 191.724 155.02 202.613Z" fill="#F6EBEF"/>
<path d="M145.107 263.203C144.251 263.291 143.695 263.114 142.984 264.274C141.797 266.253 137.985 268.28 136.345 267.327C134.779 266.307 133.279 267.629 131.019 269.754C128.76 271.879 126.423 270.74 126.313 269.103C126.204 267.467 123.159 270.817 118.28 271.785C116.127 272.216 114.901 271.43 114.108 270.53C114.108 270.53 114.281 268.911 115.042 263.575C115.729 258.304 119.893 257.433 124.068 254.154C128.242 250.874 129.642 247.774 136.227 247.835C142.887 247.83 152.888 253.278 145.107 263.203Z" fill="#D4DADD"/>
<g opacity="0.61">
<path d="M178.711 216.789C178.636 216.855 178.561 216.921 178.552 217.062C178.552 217.062 178.627 216.996 178.711 216.789Z" fill="#353737"/>
<path d="M188.202 219.087L188.295 218.739C188.22 218.805 188.211 218.946 188.202 219.087Z" fill="#353737"/>
<path d="M177.447 221.102C177.372 221.168 177.438 221.243 177.505 221.318C177.438 221.243 177.447 221.102 177.447 221.102Z" fill="#353737"/>
<path d="M170.633 212.312C170.567 212.237 170.567 212.237 170.567 212.237L170.492 212.303C170.417 212.369 170.558 212.378 170.633 212.312Z" fill="#353737"/>
<path d="M170.522 212.942L170.381 212.933C170.456 212.867 170.522 212.942 170.522 212.942Z" fill="#353737"/>
<path d="M172.014 211.761C171.939 211.827 171.864 211.893 171.714 212.025C171.789 211.959 171.93 211.968 172.014 211.761Z" fill="#353737"/>
<path d="M178.795 216.581C178.72 216.647 178.786 216.722 178.711 216.789C178.786 216.722 178.786 216.722 178.795 216.581Z" fill="#353737"/>
<path d="M191.965 218.97C192.04 218.904 192.181 218.913 192.256 218.847C191.982 218.688 191.907 218.754 191.965 218.97Z" fill="#353737"/>
<path d="M173.067 214.165C172.497 215.334 172.718 214.073 172.158 215.1C172.449 214.977 172.74 214.853 172.422 215.4C171.963 215.938 172.083 215.166 171.531 216.052L171.972 215.797C171.87 216.286 171.261 216.957 171.402 216.965C172.32 215.89 171.914 217.848 172.271 217.8L172.121 217.932L172.209 218.787C172.209 218.787 172.209 218.787 172.134 218.854C172.209 218.787 172.284 218.721 172.217 218.646C172.032 219.343 172.137 219.917 172.561 219.943C173.029 219.264 173.747 220.231 174.14 219.618C173.924 219.675 173.783 219.666 173.726 219.45L174.136 218.555C174.41 218.714 173.801 219.384 174.326 218.921C174.829 217.677 173.911 218.753 173.788 218.462C174.013 218.264 174.238 218.065 174.388 217.933C174.048 217.699 173.802 217.117 172.959 218.126C172.977 217.844 173.219 217.363 173.436 217.306C172.835 217.835 173.555 216.534 172.955 217.063C173.591 215.97 173.895 216.768 174.42 216.305C174.424 217.368 175.24 216.782 175.738 216.743C175.403 217.572 174.869 218.176 174.833 218.74C175.071 219.464 175.49 218.428 175.866 218.097C176.055 218.463 175.353 219.482 175.834 219.725L175.309 220.187C175.154 221.524 175.759 219.791 175.948 220.157C176.041 219.808 176.059 219.526 175.852 219.442C176.019 219.028 176.244 218.829 176.386 218.838L176.319 218.763C176.637 218.216 176.889 217.595 177.145 218.036C176.677 218.715 177.175 218.675 177.157 218.958L177.007 219.09C177.299 218.967 177.572 219.126 177.722 218.993L177.638 219.201C177.938 218.936 178.274 218.107 178.472 218.332C178.379 218.681 177.686 219.558 178.044 219.51C177.867 220.065 177.519 219.972 177.32 219.747C177.519 219.972 177.315 220.952 177.033 220.934C176.913 221.706 177.399 220.744 177.447 221.102C177.531 220.894 177.615 220.687 177.699 220.48C177.43 221.384 178.321 220.732 178.498 220.176L178.048 220.573C178.308 219.81 178.758 219.413 178.785 218.99C178.564 220.251 179.8 218.628 179.662 219.683L179.773 219.052C180.377 219.586 181.163 218.36 181.811 218.188C181.577 218.528 181.215 219.78 180.959 219.339C181.506 219.657 180.804 220.676 180.901 221.39C181.289 221.981 181.471 220.222 181.638 219.807L181.272 219.997C182.001 218.555 182.441 220.566 183.275 219.698C183.248 220.121 183.05 219.896 183.041 220.037C183.204 220.827 183.332 219.914 183.632 219.649C183.906 219.808 184.236 220.183 183.892 221.154C184.156 221.454 183.927 220.589 184.161 220.25L184.218 220.466L184.713 219.363C184.977 219.663 185.29 220.321 185.303 221.243C186.018 221.146 185.794 219.077 186.31 218.755C186.557 219.338 186.19 219.527 186.098 219.876C186.239 219.885 186.455 219.827 186.53 219.761C186.318 220.881 185.93 220.29 185.85 221.56C186.353 220.317 186.366 221.239 186.984 220.427L186.993 220.286C187.262 219.382 187.716 220.049 188.007 219.925C187.831 220.481 187.548 220.463 187.323 220.661C187.579 221.103 188.453 220.733 188.806 219.621C189.004 219.846 189.401 220.296 189.092 220.702C189.789 220.888 189.406 219.092 189.953 219.41L189.9 220.257C190.534 221.431 191.1 219.199 191.743 220.232L191.739 219.169C191.854 219.601 192.127 219.76 192.242 220.192L191.933 220.598C192.303 221.471 192.202 219.694 192.515 220.351C192.467 219.994 192.154 219.336 192.181 218.913C190.932 219.614 189.751 218.122 188.484 219.105C188.475 219.246 188.608 219.396 188.524 219.603C188.4 219.312 188.166 219.652 188.202 219.087L188.277 219.021C187.977 219.286 187.709 217.923 187.492 217.98C187.307 218.677 186.805 217.653 186.941 218.866L186.778 218.076C186.676 218.566 186.641 219.131 186.557 219.338C186.349 219.254 186.385 218.689 186.544 218.416C185.799 217.873 184.736 217.877 183.871 218.106L184.189 217.559C184.066 217.268 183.28 218.494 183.726 217.034C183.267 217.572 182.699 216.473 182.394 217.942C182.416 216.455 181.525 217.108 180.952 217.213C180.73 218.475 180.369 217.46 180.051 218.007C180.255 217.028 180.744 217.129 180.93 216.432C180.462 217.111 180.132 216.736 179.792 216.502C179.453 216.268 179.179 216.11 178.676 217.353C178.609 217.278 178.618 217.137 178.693 217.071C178.552 217.062 178.588 216.497 178.522 216.422C178.354 216.837 178.477 217.128 178.12 217.176C177.988 217.026 178.314 216.338 178.332 216.056C177.807 216.519 177.101 216.474 176.616 217.436C176.634 217.153 176.744 216.523 176.894 216.391C176.012 216.902 176.347 216.073 175.558 216.235C175.765 216.319 176.043 215.274 176.224 215.781C176.529 214.313 175.245 215.578 175.016 214.713L174.398 215.525C174.041 215.573 174.451 214.678 174.743 214.554C174.58 213.765 173.989 214.153 173.715 213.994C173.724 213.853 173.874 213.72 173.94 213.795L173.394 213.478C173.244 213.61 172.793 214.006 172.551 214.487C172.727 213.931 173.027 213.667 173.067 214.165Z" fill="#353737"/>
<path d="M175.997 220.514C176.014 220.232 175.948 220.157 176.023 220.091C175.939 220.298 175.93 220.439 175.997 220.514Z" fill="#353737"/>
<path d="M166.672 212.204C165.82 213.354 167.162 212.305 167.06 212.795C166.703 212.843 166.169 213.447 165.935 213.787C167.426 212.605 166.04 214.36 166.812 214.48C166.428 214.951 166.155 214.792 165.696 215.33C166.269 215.225 166.825 215.402 167.584 214.599C168.056 214.983 168.236 215.49 168.585 215.583C168.011 215.689 167.967 216.395 167.084 216.906C167.6 216.584 168.333 216.205 168.99 215.892C169.723 215.513 170.455 215.134 171.121 214.68C170.561 215.708 170.552 215.849 169.934 216.66C170.154 217.666 170.693 215.858 171.006 216.515L170.816 216.149C171.249 216.035 171.8 215.148 172.268 214.469L171.571 214.284C172.039 213.605 172.304 213.905 172.52 213.848C173.204 213.111 172.498 213.067 173.032 212.463C172.648 212.935 172.525 212.643 172.234 212.767L172.468 212.427C172.428 211.929 171.744 212.665 171.471 212.506C171.48 212.365 171.555 212.299 171.63 212.233C171.255 212.563 170.871 213.035 170.589 213.017L170.73 213.026C169.979 213.687 169.049 213.841 168.695 214.953L168.241 214.286C169 213.484 170.143 212.21 170.492 212.303L170.801 211.897C170.911 211.266 169.588 212.033 169.177 212.928C167.284 214.864 168.225 212.301 167.06 212.795C167.519 212.257 167.876 212.209 168.318 211.953C168.459 211.962 168.591 212.112 168.207 212.584C168.979 212.703 169.527 210.754 169.981 211.42C170.02 211.919 168.948 212.064 169.279 212.439L170.779 211.116C170.506 210.957 170.074 211.072 169.65 211.045C168.653 211.124 168.115 210.665 167.851 210.365C167.595 209.924 167.547 209.566 167.547 209.566C165.792 208.18 164.121 206.587 162.676 204.796C161.997 204.328 161.939 204.112 160.117 204.918C159.883 205.257 160.289 205.566 159.565 205.804C160.223 205.491 160.721 205.452 160.911 205.818C160.386 206.281 160.421 205.716 160.337 205.924L160.628 205.8C160.262 205.99 160.046 206.047 159.98 205.972C159.353 206.924 160.023 207.533 161.329 207.049C160.927 207.803 160.239 207.476 159.732 207.657C159.829 208.371 160.15 208.888 160.472 209.404C160.794 209.92 161.124 210.295 161.587 210.82C162.562 209.961 162.254 210.366 163.061 209.921L162.752 210.327C162.836 210.12 163.643 209.675 163.736 209.326C163.515 210.588 165.607 208.877 166.246 208.847L165.721 209.31C166.061 209.544 166.202 209.552 166.625 209.579C166.188 210.898 166.144 209.336 165.076 210.544L165.434 210.496C164.917 210.818 164.092 211.545 163.585 211.726C164.807 211.448 164.021 212.674 165.084 212.67C164.559 213.133 163.637 213.146 163.43 213.062C163.553 213.353 164.268 213.256 163.809 213.794L164.484 213.199C164.823 213.433 163.809 213.794 163.566 214.275C164.386 214.752 165.618 212.066 166.672 212.204Z" fill="#353737"/>
<path d="M174.803 218.101C174.736 218.026 174.595 218.017 174.454 218.008C174.595 218.017 174.661 218.092 174.803 218.101Z" fill="#353737"/>
<path d="M172.209 218.787C172.134 218.854 172.125 218.995 172.05 219.061C172.125 218.995 172.2 218.929 172.209 218.787Z" fill="#353737"/>
<path d="M171.507 219.806C171.675 219.391 171.741 219.466 172.05 219.061C171.825 219.259 171.41 219.091 171.507 219.806Z" fill="#353737"/>
<path d="M204.702 221.474C204.644 221.257 204.653 221.116 204.671 220.834L204.632 220.336L204.649 220.053L204.658 219.912C204.658 219.912 204.658 219.912 204.592 219.837C204.46 219.687 204.469 219.546 204.403 219.471C204.421 219.189 204.504 218.981 204.579 218.915L203.335 220.679L204.496 219.123C204.271 219.321 204.253 219.603 204.376 219.894C204.442 219.969 204.367 220.036 204.433 220.111L204.499 220.186C204.499 220.186 204.499 220.186 204.566 220.261L204.557 220.402L204.644 221.257L204.635 221.399C204.719 221.191 204.71 221.332 204.702 221.474Z" fill="#353737"/>
<path d="M203.974 220.648L203.494 220.406L203.555 221.685C203.987 221.57 203.617 220.697 203.974 220.648Z" fill="#353737"/>
<path d="M202.797 220.22L202.815 219.938C202.74 220.004 202.806 220.079 202.797 220.22Z" fill="#353737"/>
<path d="M202.911 220.652L202.924 221.574L203.26 220.745L203.052 220.661C202.929 220.37 202.863 220.295 202.806 220.079L202.761 220.785C202.761 220.785 202.845 220.577 202.911 220.652Z" fill="#353737"/>
<path d="M202.545 220.842C202.611 220.917 202.602 221.058 202.668 221.133C202.602 221.058 202.611 220.917 202.545 220.842Z" fill="#353737"/>
<path d="M201.148 219.407C201.271 219.699 201.235 220.263 201.284 220.62C201.764 220.863 201.421 219.566 201.893 219.95C201.557 220.779 202.214 220.467 202.47 220.908C202.166 220.109 201.844 219.593 201.43 219.425L201.535 219.999C201.394 219.99 201.346 219.633 201.148 219.407Z" fill="#353737"/>
<path d="M199.479 221.144L199.608 220.231C199.722 220.664 200.23 220.483 200.383 221.414C200.533 221.282 200.485 220.924 200.578 220.576C200.834 221.017 200.957 221.308 201.001 220.603C200.106 220.192 200.331 219.994 199.634 219.808C199.577 219.592 199.718 219.601 199.784 219.676L199.313 219.292C199.524 220.439 199.017 220.619 199.479 221.144Z" fill="#353737"/>
<path d="M198.8 220.676C199.092 220.553 199.145 219.706 198.889 219.265L198.346 220.01C198.563 219.953 198.713 219.821 198.8 220.676Z" fill="#353737"/>
<path d="M198.302 220.716C198.112 220.35 197.676 219.401 197.623 220.248C198.055 220.134 198.041 221.479 198.302 220.716Z" fill="#353737"/>
<path d="M195.845 220.348L196.524 220.816C196.81 221.897 196.215 221.222 196.114 221.712C196.669 221.888 196.48 221.522 196.74 220.759C196.882 220.768 197.058 220.212 197.151 219.864C196.59 220.891 196.195 218.174 195.845 220.348Z" fill="#353737"/>
<path d="M197.278 221.218L197.305 220.795L196.996 221.2L197.278 221.218Z" fill="#353737"/>
<path d="M194.214 219.254C193.729 217.948 193.596 220.065 193.133 219.54C193.208 219.474 193.142 219.399 193.226 219.191L192.86 219.381L192.877 219.099C192.899 219.879 192.59 220.285 192.413 220.841C192.858 221.648 192.476 219.853 192.987 220.735C192.894 221.084 192.858 221.648 192.841 221.93C193.009 221.516 193.11 221.026 193.137 220.603C193.428 220.48 193.326 220.969 193.384 221.185C193.626 220.705 193.557 219.567 193.971 219.734C194.284 220.392 193.9 220.863 194.35 220.467C193.932 219.236 194.84 220.568 194.959 219.797C195.299 220.031 195.677 220.763 195.651 221.186C195.497 220.256 195.766 219.352 195.925 219.078L195.515 219.973L195.162 218.818C194.695 219.497 194.487 219.413 194.214 219.254Z" fill="#353737"/>
<path d="M192.7 221.921C192.624 221.988 192.691 222.063 192.616 222.129C192.616 222.129 192.691 222.063 192.7 221.921Z" fill="#353737"/>
<path d="M195.624 221.61L195.465 221.883L195.655 222.249L195.624 221.61Z" fill="#353737"/>
<path d="M192.505 222.759C192.571 222.834 192.598 222.411 192.532 222.336L192.43 222.826L192.505 222.759Z" fill="#353737"/>
<path d="M192.126 222.027L191.813 221.37L191.778 221.934L192.126 222.027Z" fill="#353737"/>
<path d="M184.033 221.163C184.288 221.604 184.267 220.823 184.443 220.267C184.038 219.958 184.333 220.898 184.033 221.163Z" fill="#353737"/>
<path d="M178.793 221.116C178.898 221.689 179.366 221.01 179.715 221.103C179.534 220.595 179.168 220.785 178.793 221.116Z" fill="#353737"/>
<path d="M175.77 222.98C175.929 222.706 176.07 222.715 175.938 222.565L176.724 221.339C176.411 220.682 175.947 222.424 175.77 222.98Z" fill="#353737"/>
<path d="M173.199 222.18L173.857 221.867L173.649 221.783C173.958 221.378 174.117 221.104 174.426 220.699C173.994 220.813 173.544 221.21 173.199 222.18Z" fill="#353737"/>
<path d="M174.859 220.584L174.717 220.575C174.633 220.782 174.625 220.924 174.859 220.584Z" fill="#353737"/>
<path d="M174.51 220.491C174.435 220.557 174.435 220.557 174.36 220.624C174.435 220.557 174.576 220.566 174.651 220.5C174.726 220.434 174.66 220.359 174.51 220.491Z" fill="#353737"/>
<path d="M173.178 221.399L172.481 221.214L172.67 221.58C172.931 220.817 172.701 222.219 173.178 221.399Z" fill="#353737"/>
<path d="M169.999 219.002L170.4 218.248C170.07 217.873 168.644 219.13 169.157 217.745C169.055 218.234 168.341 218.331 168.662 218.847C169.187 218.384 169.809 218.636 169.999 219.002Z" fill="#353737"/>
<path d="M169.201 217.039C169.426 216.841 169.435 216.7 169.453 216.417C169.396 216.201 169.021 216.532 168.862 216.805C169.621 216.003 168.676 217.502 169.201 217.039Z" fill="#353737"/>
<path d="M167.363 215.861C167.429 215.936 167.711 215.953 167.654 215.737C167.314 215.503 166.838 216.323 166.321 216.645C166.352 217.285 167.327 216.425 167.363 215.861Z" fill="#353737"/>
<path d="M169.126 209.241C168.667 209.779 168.941 209.938 169.166 209.739C169.016 209.872 169.033 209.589 169.126 209.241Z" fill="#353737"/>
<path d="M165.088 213.733L165.079 213.874L165.904 213.147L165.088 213.733Z" fill="#353737"/>
<path d="M162.901 212.462L162.243 212.775L162.583 213.009L162.901 212.462Z" fill="#353737"/>
<path d="M162.786 212.029L162.447 211.796L162.288 212.069C162.27 212.351 162.654 211.879 162.786 212.029Z" fill="#353737"/>
<path d="M161.843 211.261C161.984 211.27 161.909 211.336 161.759 211.469L162.399 211.438L161.843 211.261Z" fill="#353737"/>
<path d="M161.891 203.754C162.548 203.441 161.984 203.406 162.068 203.199C161.918 203.331 161.243 203.926 161.891 203.754Z" fill="#353737"/>
</g>
<path d="M254.722 161.924C254.722 161.924 256.311 159.19 254.219 153.036C252.127 146.881 252.441 145.272 250.225 141.094C248.009 136.915 246.45 132.424 242.743 127.16C239.036 121.896 235.684 113.253 234.067 110.813C232.449 108.373 200.828 117.716 203.4 131.977C206.048 146.173 244.943 160.811 254.722 161.924Z" fill="#F6EBEF"/>
<path d="M244.237 129.309C246.943 133.589 248.405 137.365 250.225 141.094C251.93 144.389 252.04 146.026 253.03 149.418C253.03 149.418 247.19 149.9 245.066 145.374C243.009 140.922 243.951 143.957 241.308 138.689C238.862 133.646 244.012 129.507 244.237 129.309Z" fill="#B3B9BC"/>
<g opacity="0.61">
<path d="M231.208 137.061C231.274 137.136 231.34 137.211 231.481 137.219C231.481 137.219 231.415 137.144 231.208 137.061Z" fill="#353737"/>
<path d="M233.753 128.152L233.405 128.059C233.471 128.134 233.612 128.143 233.753 128.152Z" fill="#353737"/>
<path d="M235.181 138.09C235.247 138.165 235.322 138.099 235.397 138.033C235.322 138.099 235.247 138.165 235.181 138.09Z" fill="#353737"/>
<path d="M227.349 144.327C227.283 144.252 227.283 144.252 227.283 144.252C227.208 144.319 227.274 144.394 227.349 144.327Z" fill="#353737"/>
<path d="M227.644 145.267C227.569 145.333 227.569 145.333 227.635 145.408L227.701 145.483C227.776 145.417 227.644 145.267 227.644 145.267Z" fill="#353737"/>
<path d="M228.217 145.162L228.208 145.303C228.208 145.303 228.208 145.303 228.217 145.162Z" fill="#353737"/>
<path d="M230.252 151.1L230.591 151.334C230.459 151.184 230.393 151.109 230.252 151.1Z" fill="#353737"/>
<path d="M226.943 144.018C227.009 144.094 227.075 144.169 227.208 144.319C227.141 144.244 227.15 144.102 226.943 144.018Z" fill="#353737"/>
<path d="M231 136.977C231.067 137.052 231.142 136.986 231.208 137.061C231.142 136.986 231.075 136.911 231 136.977Z" fill="#353737"/>
<path d="M233.125 139.236C233.134 139.095 233.134 139.095 233.125 139.236V139.236Z" fill="#353737"/>
<path d="M233.901 124.69C233.834 124.615 233.843 124.474 233.777 124.399C233.693 124.606 233.759 124.681 233.901 124.69Z" fill="#353737"/>
<path d="M229.017 142.591C230.128 142.944 228.924 142.939 229.96 143.359C229.837 143.067 229.705 142.917 230.261 143.094C230.732 143.478 230.027 143.434 230.922 143.844L230.732 143.478C231.297 143.514 231.835 143.973 231.844 143.832C230.684 143.121 232.585 143.311 232.537 142.954L232.669 143.104L233.383 143.008C233.383 143.008 233.383 143.008 233.45 143.083C233.383 143.008 233.308 143.074 233.242 142.999C233.873 143.109 234.446 143.004 234.398 142.646C233.785 142.253 234.535 141.592 233.989 141.274C234.121 141.424 234.112 141.566 233.821 141.689L232.992 141.353C233.151 141.08 233.755 141.614 233.358 141.164C232.247 140.81 233.19 141.578 233.04 141.711C232.767 141.552 232.634 141.402 232.577 141.185C232.409 141.6 231.902 141.781 232.921 142.482C232.638 142.465 232.158 142.222 232.092 142.147C232.696 142.681 231.386 142.102 231.849 142.627C230.887 142.142 231.545 141.829 231.007 141.37C232.004 141.291 231.343 140.541 231.369 140.117C232.132 140.378 232.736 140.912 233.235 140.873C233.883 140.701 232.988 140.29 232.582 139.981C232.948 139.792 233.901 140.419 234.144 139.938L234.54 140.388C235.736 140.534 234.21 140.013 234.501 139.89C234.219 139.872 233.87 139.779 233.853 140.061C233.438 139.894 233.306 139.743 233.315 139.602L233.24 139.668C232.759 139.426 232.137 139.174 232.503 138.984C233.116 139.377 233.077 138.879 233.425 138.972L233.558 139.122C233.434 138.831 233.518 138.623 233.527 138.482L233.734 138.566C233.536 138.341 232.707 138.005 232.932 137.807C233.28 137.9 234.092 138.518 234.043 138.16C234.524 138.403 234.506 138.686 234.215 138.809C234.44 138.611 235.353 138.739 235.26 139.087C235.891 139.198 235.071 138.721 235.428 138.673C235.221 138.589 235.013 138.505 234.872 138.496C235.776 138.766 235.124 137.874 234.493 137.764L234.89 138.214C234.193 138.028 233.872 137.512 233.373 137.551C234.493 137.764 233.003 136.678 233.991 136.74L233.427 136.704C233.886 136.167 232.801 135.39 232.629 134.741C232.894 135.041 234.08 135.329 233.639 135.584C234.023 135.113 234.834 135.73 235.474 135.7C235.99 135.378 234.371 135.205 234.032 134.971L234.221 135.338C232.92 134.618 234.782 134.31 234.055 133.485C234.478 133.512 234.253 133.71 234.319 133.785C235.109 133.622 234.196 133.494 233.997 133.269C234.156 132.995 234.598 132.74 235.427 133.075C235.727 132.811 234.862 133.04 234.664 132.815L234.88 132.758L233.919 132.272C234.285 132.082 234.801 131.761 235.648 131.814C235.617 131.175 233.699 131.266 233.377 130.75C233.884 130.569 234.074 130.936 234.356 130.953L234.383 130.53C235.353 130.874 234.845 131.055 235.966 131.267C234.863 130.773 235.644 130.751 234.974 130.142L234.833 130.133C234.07 129.872 234.736 129.419 234.613 129.127C235.027 129.295 235.076 129.652 235.208 129.803C235.649 129.547 235.345 128.748 234.309 128.329C234.459 128.197 234.975 127.875 235.381 128.184C235.632 127.562 233.921 127.738 234.305 127.266L235.077 127.385C236.242 126.892 234.16 126.194 235.184 125.692L234.196 125.629C234.628 125.515 234.853 125.317 235.21 125.268L235.475 125.568C236.264 125.406 234.712 125.308 235.369 124.995C235.087 124.977 234.438 125.149 234.081 125.197C234.328 125.779 234.076 126.401 233.899 126.957C233.723 127.513 233.546 128.068 233.934 128.659C234.075 128.668 234.15 128.602 234.357 128.686C234.066 128.809 234.33 129.11 233.775 128.933L233.709 128.858C233.898 129.224 232.685 129.36 232.676 129.501C233.298 129.753 232.283 130.114 233.487 130.119L232.773 130.216C233.187 130.384 233.752 130.419 233.884 130.569C233.8 130.777 233.311 130.675 233.037 130.516C232.494 131.261 232.441 132.108 232.595 133.039L232.048 132.721C231.757 132.844 232.842 133.621 231.523 133.184C231.986 133.709 230.896 134.136 232.29 134.507C230.878 134.418 231.531 135.31 231.495 135.874C232.69 136.02 231.676 136.382 232.222 136.699C231.309 136.571 231.42 135.94 230.789 135.83C232.006 136.757 229.439 137.02 231.578 137.934C231.503 138 231.362 137.991 231.295 137.916C231.287 138.057 230.863 138.031 230.647 138.088C231.061 138.256 231.287 138.057 231.335 138.415C231.185 138.547 230.563 138.295 230.281 138.277C230.744 138.803 230.699 139.508 231.528 139.844C231.246 139.826 230.681 139.791 230.549 139.641C231.06 140.523 230.231 140.187 230.469 140.911C230.553 140.704 229.574 140.5 230.081 140.32C228.679 140.089 230.019 141.308 229.154 141.536L229.899 142.079C229.948 142.437 229.119 142.101 228.92 141.876C228.263 142.189 228.66 142.639 228.426 142.978C228.285 142.969 228.218 142.894 228.293 142.828L228.051 143.309C228.183 143.459 228.513 143.834 229.069 144.011C228.849 143.005 228.585 142.705 229.017 142.591Z" fill="#353737"/>
<path d="M234.669 139.475C234.387 139.457 234.312 139.523 234.312 139.523C234.453 139.532 234.594 139.541 234.669 139.475Z" fill="#353737"/>
<path d="M228.259 148.99C229.503 149.494 228.286 148.567 228.643 148.518C228.692 148.876 229.454 149.136 229.803 149.229C228.379 148.218 230.31 149.049 230.214 148.334C230.694 148.577 230.676 148.859 231.223 149.177C230.968 148.736 231.003 148.171 230.183 147.694C230.426 147.214 230.867 146.958 230.885 146.676C231.065 147.183 231.705 147.153 232.375 147.762C231.507 146.928 230.674 145.529 229.748 144.479C230.718 144.823 230.859 144.832 231.68 145.309C232.619 145.014 230.868 144.691 231.385 144.369L231.16 144.568C230.97 144.202 230.075 143.791 229.462 143.398L229.276 144.095C228.588 143.768 228.889 143.504 228.765 143.212C228.02 142.669 228.051 143.309 227.504 142.991C228.051 143.309 227.684 143.498 227.883 143.724L227.534 143.631C227.027 143.811 227.847 144.288 227.688 144.561C227.547 144.553 227.481 144.478 227.481 144.478C227.82 144.712 228.292 145.096 228.349 145.312L228.358 145.171C229.028 145.78 229.332 146.578 230.461 146.649L229.861 147.178C228.975 146.626 227.674 145.907 227.701 145.483L227.361 145.249C226.722 145.28 227.714 146.405 228.552 146.6C230.664 147.937 228.132 147.636 228.784 148.527C228.163 148.276 228.048 147.843 227.709 147.609C227.718 147.468 227.726 147.327 228.207 147.57C228.185 146.789 226.276 146.74 226.81 146.136C227.317 145.955 227.603 147.036 227.846 146.555L226.356 145.469C226.263 145.818 226.452 146.184 226.501 146.541C226.95 148.412 225.428 148.953 225.428 148.953C225.008 149.99 224.513 151.092 224.142 152.486C223.956 153.183 223.762 154.021 223.766 155.084C223.814 155.441 223.796 155.723 223.92 156.014C223.968 156.372 224.091 156.663 224.281 157.029C224.594 157.686 225.123 158.287 225.528 158.596C225.735 158.679 225.802 158.754 226.009 158.838C226.15 158.847 226.216 158.922 226.357 158.931C226.564 159.015 226.781 158.958 226.922 158.967C227.279 158.918 227.588 158.513 228.065 157.693C228.017 157.335 227.593 157.309 227.911 156.762C227.593 157.309 227.152 157.564 226.746 157.255C227.064 156.708 227.245 157.216 227.254 157.075L227.188 157C227.346 156.726 227.571 156.528 227.638 156.603C227.673 156.038 227.757 155.831 227.616 155.822C227.55 155.747 227.475 155.813 227.259 155.871C227.043 155.928 226.76 155.91 226.478 155.892C226.778 155.628 227.06 155.645 227.276 155.588C227.559 155.606 227.775 155.549 228 155.35C228.225 155.152 228.291 155.227 228.384 154.879C228.393 154.738 228.477 154.53 228.486 154.389C228.57 154.182 228.654 153.975 228.737 153.767C227.635 153.273 228.125 153.375 227.446 152.907L227.869 152.933C227.662 152.849 226.983 152.381 226.617 152.571C227.697 152.285 225.501 151.154 225.33 150.506L225.876 150.824C225.903 150.4 225.978 150.334 225.864 149.902C227.143 149.841 225.753 150.533 227.213 150.979L227.089 150.688C227.561 151.072 228.448 151.624 228.712 151.924C228.135 150.966 229.387 151.329 229.092 150.389C229.705 150.782 229.868 151.571 229.859 151.713C230.009 151.58 229.762 150.998 230.384 151.25L229.63 150.848C229.723 150.5 230.243 151.241 230.874 151.351C231.077 150.372 228.347 149.846 228.259 148.99Z" fill="#353737"/>
<path d="M232.472 140.612C232.397 140.678 232.388 140.819 232.454 140.894C232.529 140.828 232.538 140.687 232.472 140.612Z" fill="#353737"/>
<path d="M233.317 142.932C233.383 143.008 233.525 143.016 233.591 143.091C233.525 143.016 233.458 142.941 233.317 142.932Z" fill="#353737"/>
<path d="M234.411 143.568C234.062 143.475 234.071 143.334 233.657 143.166C233.789 143.316 233.705 143.524 234.411 143.568Z" fill="#353737"/>
<path d="M237.894 113.038C237.612 113.021 237.414 112.796 237.197 112.853L237.528 113.228L237.894 113.038Z" fill="#353737"/>
<path d="M237.06 113.907L236.751 114.313L237.946 114.459C237.832 114.027 237.108 114.264 237.06 113.907Z" fill="#353737"/>
<path d="M236.499 114.934L236.217 114.917C236.358 114.926 236.424 115.001 236.499 114.934Z" fill="#353737"/>
<path d="M236.998 114.895L237.845 114.948L237.232 114.555L237.082 114.688C236.799 114.67 236.716 114.877 236.574 114.868L237.205 114.979C236.989 115.036 236.923 114.961 236.998 114.895Z" fill="#353737"/>
<path d="M237.046 115.252C237.121 115.186 237.187 115.261 237.262 115.195C237.187 115.261 237.112 115.327 237.046 115.252Z" fill="#353737"/>
<path d="M235.564 116.292C235.855 116.169 236.269 116.337 236.693 116.364C237.002 115.958 235.789 116.094 236.098 115.688C236.777 116.156 236.605 115.508 237.046 115.252C236.257 115.415 235.749 115.596 235.581 116.01L236.08 115.971C236.137 116.187 235.789 116.094 235.564 116.292Z" fill="#353737"/>
<path d="M236.868 118.075L236.105 117.814C236.463 117.766 236.489 117.343 237.27 117.321C237.138 117.171 236.855 117.153 236.582 116.994C237.014 116.88 237.306 116.757 236.675 116.646C236.132 117.391 235.934 117.166 235.757 117.722C235.616 117.713 235.55 117.638 235.625 117.572L235.175 117.968C236.238 117.964 236.352 118.397 236.868 118.075Z" fill="#353737"/>
<path d="M236.334 118.679C236.286 118.322 235.514 118.202 235.007 118.383L235.677 118.992C235.686 118.851 235.562 118.56 236.334 118.679Z" fill="#353737"/>
<path d="M236.307 119.103C235.875 119.217 235.011 119.446 235.848 119.64C235.8 119.283 236.995 119.429 236.307 119.103Z" fill="#353737"/>
<path d="M235.676 121.259L236.21 120.655C237.207 120.576 236.549 120.889 237.03 121.132C237.273 120.651 236.906 120.841 236.227 120.373C236.236 120.232 235.756 119.989 235.482 119.83C236.21 120.655 233.726 120.711 235.676 121.259Z" fill="#353737"/>
<path d="M236.669 120.117L236.245 120.091L236.585 120.324L236.669 120.117Z" fill="#353737"/>
<path d="M234.524 122.674C233.302 122.952 235.185 123.424 234.669 123.746C234.602 123.671 234.527 123.737 234.32 123.653L234.443 123.945L234.161 123.927C234.867 123.971 235.131 124.271 235.687 124.448C236.486 124.144 234.783 124.179 235.648 123.95C235.996 124.042 236.486 124.144 236.693 124.228C236.353 123.994 235.93 123.967 235.515 123.8C235.458 123.583 235.882 123.61 236.164 123.628C235.758 123.319 234.695 123.323 234.929 122.983C235.578 122.812 235.908 123.187 235.653 122.745C234.506 122.957 235.821 122.331 235.124 122.145C235.358 121.806 236.081 121.568 236.496 121.736C235.574 121.749 234.811 121.488 234.546 121.188L235.292 121.731L234.22 121.876C234.766 122.194 234.683 122.401 234.524 122.674Z" fill="#353737"/>
<path d="M236.759 124.303C236.825 124.378 236.825 124.378 236.966 124.387C236.966 124.387 236.9 124.312 236.759 124.303Z" fill="#353737"/>
<path d="M236.853 121.688L237.06 121.771L237.351 121.648L236.853 121.688Z" fill="#353737"/>
<path d="M237.447 124.63C237.522 124.564 237.098 124.537 237.098 124.537L237.588 124.639L237.447 124.63Z" fill="#353737"/>
<path d="M236.79 124.943L236.216 125.048L236.631 125.216L236.79 124.943Z" fill="#353737"/>
<path d="M235.339 132.22C235.705 132.03 234.999 131.986 234.585 131.818C234.285 132.082 235.074 131.92 235.339 132.22Z" fill="#353737"/>
<path d="M235.111 136.952C235.619 136.772 235.006 136.379 235.09 136.172C234.732 136.22 234.847 136.652 235.111 136.952Z" fill="#353737"/>
<path d="M236.927 139.617C236.72 139.534 236.663 139.317 236.513 139.45L235.419 138.814C234.837 139.061 236.371 139.441 236.927 139.617Z" fill="#353737"/>
<path d="M236.361 141.849L236.04 141.333L235.956 141.54C235.475 141.297 235.343 141.147 234.937 140.838C235.052 141.271 235.523 141.655 236.361 141.849Z" fill="#353737"/>
<path d="M234.748 140.472L234.739 140.613C235.021 140.631 235.162 140.64 234.748 140.472Z" fill="#353737"/>
<path d="M234.796 140.829C234.862 140.904 234.862 140.904 234.928 140.979C234.862 140.904 234.871 140.763 234.871 140.763C234.739 140.613 234.598 140.604 234.796 140.829Z" fill="#353737"/>
<path d="M235.647 141.946L235.536 142.576L235.827 142.453C235.139 142.126 236.401 142.348 235.647 141.946Z" fill="#353737"/>
<path d="M233.757 144.944L232.994 144.683C232.694 144.948 234.035 146.166 232.782 145.804C233.347 145.839 233.452 146.413 233.827 146.082C233.356 145.698 233.466 145.067 233.757 144.944Z" fill="#353737"/>
<path d="M232.142 145.834C232.01 145.684 231.794 145.741 231.587 145.657C231.437 145.79 231.701 146.09 231.984 146.108C231.097 145.556 232.614 146.218 232.142 145.834Z" fill="#353737"/>
<path d="M231.396 147.558C231.405 147.417 231.414 147.276 231.198 147.333C231.105 147.682 231.934 148.017 232.34 148.326C232.838 148.287 231.895 147.519 231.396 147.558Z" fill="#353737"/>
<path d="M225.027 147.44C225.649 147.692 225.667 147.41 225.534 147.26C225.667 147.41 225.309 147.458 225.027 147.44Z" fill="#353737"/>
<path d="M229.966 150.019L230.182 149.962L229.296 149.41L229.966 150.019Z" fill="#353737"/>
<path d="M229.55 152.118L230.013 152.643L230.039 152.22L229.55 152.118Z" fill="#353737"/>
<path d="M229.25 152.383L229.157 152.731L229.439 152.749C229.589 152.617 229.175 152.449 229.25 152.383Z" fill="#353737"/>
<path d="M228.98 153.287C228.914 153.212 229.055 153.221 229.121 153.296C228.989 153.146 228.998 153.004 228.866 152.854C228.857 152.996 228.848 153.137 228.98 153.287Z" fill="#353737"/>
<path d="M227.552 159.077C227.235 159.624 227.742 159.444 227.874 159.594C227.883 159.452 227.87 158.531 227.552 159.077Z" fill="#353737"/>
</g>
<path d="M135.655 73.7182C135.655 73.7182 131.529 77.3549 126.068 78.5693C120.607 79.7837 113.987 85.8847 113.337 88.3235C112.763 90.6962 115.189 90.4241 115.189 90.4241C115.189 90.4241 106.783 96.7667 106.41 100.427C106.038 104.088 108.098 104.006 108.098 104.006C108.098 104.006 100.895 112.62 102.239 114.901C103.583 117.183 105.208 113.884 103.14 119.705C101.073 125.527 98.7857 138.206 101.458 138.517C104.131 138.827 104.607 140.274 103.567 146.656C102.602 152.971 105.38 153.855 106.779 153.022C106.779 153.022 105.148 159.792 107.982 163.159C110.816 166.526 111.713 164.669 112.478 168.26C113.244 171.851 113.985 179.195 117.416 180.97C120.78 182.67 122.793 179.963 123.457 184.044C124.121 188.124 126.085 192.924 129.539 193.213C133.059 193.576 134.214 193.224 135.258 195.77C136.227 198.381 138.308 201.346 142.185 201.662C146.062 201.977 148.502 208.224 152.913 207.935C157.249 207.713 156.711 207.254 159.647 210.131C162.583 213.009 164.455 210.292 168.705 212.544C172.956 214.796 179.927 219.983 181.52 218.312C183.038 216.707 192.612 221.066 195.735 220.979C198.791 220.818 257.476 166.561 258.301 165.834C259.126 165.106 255.825 160.151 251.821 158.482C247.817 156.812 244.956 153.869 240.757 153.037C236.559 152.206 232.31 145.42 229.832 144.272C228.39 143.543 228.002 142.952 228.002 142.952C228.002 142.952 230.889 139.874 231.279 135.931C231.669 131.988 235.184 125.692 235.451 121.457C235.717 117.223 238.727 114.437 237.653 111.252C236.653 108.001 235.415 106.293 237.131 104.913C238.848 103.534 240.498 102.079 237.542 96.1537C234.585 90.2284 237.914 92.4929 234.415 87.3127C230.915 82.1326 233.748 79.9022 229.812 76.0406C225.875 72.179 222.144 70.6685 223.027 70.1574C223.909 69.6462 223.042 66.5449 217.472 63.8557C211.969 61.2416 211.66 61.6472 208.64 58.977C205.62 56.3068 183.805 38.2107 168.81 51.2939C153.635 63.8697 135.655 73.7182 135.655 73.7182Z" fill="#F6EBEF"/>
<g opacity="0.61">
<path d="M213.447 69.27C213.381 69.195 213.314 69.12 213.248 69.045C213.173 69.1111 213.239 69.1861 213.447 69.27Z" fill="#353737"/>
<path d="M207.66 76.7697C207.651 76.9108 207.651 76.9108 207.66 76.7697L207.726 76.8447L207.66 76.7697Z" fill="#353737"/>
<path d="M211.578 67.4518C211.511 67.3767 211.454 67.1606 211.322 67.0106L211.578 67.4518Z" fill="#353737"/>
<path d="M209.866 67.6273C209.8 67.5522 209.725 67.6183 209.725 67.6183C209.8 67.5522 209.866 67.6273 209.866 67.6273Z" fill="#353737"/>
<path d="M217.103 60.715C217.179 60.6489 217.179 60.6489 217.112 60.5739L217.046 60.4989C216.971 60.565 217.103 60.715 217.103 60.715Z" fill="#353737"/>
<path d="M216.596 60.8956L216.605 60.7544C216.605 60.7544 216.53 60.8206 216.596 60.8956Z" fill="#353737"/>
<path d="M213.445 55.8082L213.097 55.7154C213.238 55.7243 213.304 55.7993 213.445 55.8082Z" fill="#353737"/>
<path d="M217.954 61.8314C217.888 61.7564 217.822 61.6814 217.681 61.6725C217.747 61.7475 217.738 61.8886 217.954 61.8314Z" fill="#353737"/>
<path d="M205.497 79.6091C205.422 79.6752 205.413 79.8163 205.404 79.9575C205.554 79.8252 205.63 79.7591 205.497 79.6091Z" fill="#353737"/>
<path d="M215.995 63.6917C214.95 63.4133 216.088 63.3433 215.042 63.0648C215.241 63.2899 215.298 63.5061 214.742 63.3293C214.196 63.0115 214.901 63.056 214.147 62.6542L214.337 63.0204C213.838 63.0598 213.234 62.5258 213.291 62.7419C214.385 63.3777 212.55 63.262 212.674 63.5532L212.607 63.4782L211.959 63.6498C211.959 63.6498 211.959 63.6498 211.893 63.5748C211.959 63.6498 212.034 63.5837 212.1 63.6587C211.469 63.5481 211.037 63.6625 211.019 63.9448C211.632 64.3377 210.891 64.8578 211.363 65.2418C211.23 65.0918 211.239 64.9506 211.53 64.8273L212.284 65.2291C212.126 65.5024 211.522 64.9684 211.918 65.4186C212.955 65.8381 212.086 65.004 212.302 64.9468C212.576 65.1057 212.708 65.2558 212.765 65.4719C212.999 65.1324 213.44 64.8768 212.488 64.25C212.77 64.2678 213.185 64.4356 213.317 64.5856C212.779 64.1266 214.023 64.6301 213.485 64.1711C214.446 64.6568 213.789 64.9696 214.327 65.4287C213.405 65.4414 213.925 66.1827 213.964 66.6811C213.276 66.3544 212.738 65.8954 212.249 65.7936C211.6 65.9653 212.429 66.301 212.826 66.7511C212.46 66.9406 211.583 66.2476 211.349 66.5871L210.952 66.137C209.832 65.9246 211.283 66.5121 210.991 66.6354C211.274 66.6532 211.547 66.8122 211.631 66.6049C212.045 66.7727 212.103 66.9889 212.094 67.13L212.169 67.0639C212.574 67.3729 213.121 67.6908 212.755 67.8802C212.217 67.4212 212.19 67.8446 211.908 67.8268L211.776 67.6768C211.899 67.968 211.674 68.1663 211.806 68.3164L211.599 68.2325C211.798 68.4575 212.477 68.9254 212.185 69.0488C211.912 68.8898 211.176 68.2058 211.224 68.5631C210.818 68.2541 210.902 68.0468 211.127 67.8485C210.836 67.9718 210.073 67.7112 210.157 67.5039C209.535 67.2521 210.347 67.8701 209.923 67.8434C210.131 67.9273 210.263 68.0774 210.47 68.1613C209.716 67.7595 210.161 68.5669 210.708 68.8848L210.452 68.4435C211.074 68.6953 211.321 69.2777 211.669 69.3705C210.633 68.9509 211.757 70.2262 210.853 69.9567L211.408 70.1334C210.817 70.5213 211.677 71.4965 211.632 72.2022C211.443 71.836 210.415 71.2753 210.923 71.0947C210.473 71.4914 209.82 70.6001 209.19 70.4895C208.616 70.5951 209.992 71.2486 210.256 71.5487L210.208 71.1914C211.134 72.2416 209.449 71.9937 209.744 72.9334C209.471 72.7744 209.687 72.7172 209.555 72.5672C208.783 72.4477 209.537 72.8495 209.66 73.1406C209.435 73.339 208.937 73.3784 208.333 72.8444C208.042 72.9677 208.813 73.0873 208.937 73.3785L208.729 73.2945L209.316 74.1108C208.958 74.1592 208.319 74.1897 207.631 73.8629C207.379 74.4847 209.103 75.2311 209.143 75.7295C208.578 75.6939 208.671 75.3455 208.406 75.0454C208.398 75.1866 208.248 75.3188 208.239 75.46C207.502 74.7759 208.142 74.7454 207.256 74.1935C207.974 75.1599 207.22 74.7581 207.599 75.4905L207.665 75.5655C208.194 76.1657 207.413 76.1873 207.396 76.4696C207.065 76.0945 207.224 75.8211 207.167 75.6049C206.668 75.6444 206.549 76.4162 207.135 77.2325C206.919 77.2897 206.354 77.2541 206.24 76.8218C205.724 77.1435 207.232 77.9471 206.583 78.1188L205.979 77.5848C204.793 77.2974 205.956 79.0712 204.911 78.7927L205.581 79.4018C205.167 79.234 204.95 79.2912 204.611 79.0572L204.563 78.6999C203.875 78.3732 204.942 79.4323 204.386 79.2556C204.584 79.4807 205.206 79.7324 205.404 79.9575C205.767 78.705 207.602 78.8207 207.633 77.1931C207.492 77.1842 207.426 77.1092 207.294 76.9591C207.576 76.9769 207.528 76.6196 207.858 76.9947L207.925 77.0697C207.951 76.6463 209.054 77.1409 209.129 77.0748C208.732 76.6247 209.72 76.687 208.759 76.2013L209.38 76.453C209.116 76.1529 208.635 75.9101 208.578 75.6939C208.728 75.5617 209.134 75.8706 209.257 76.1618C210.065 75.7168 210.475 74.8216 210.67 73.9836L210.925 74.4249C211.283 74.3765 210.639 73.3441 211.583 74.1121C211.411 73.4636 212.483 73.3186 211.323 72.6078C212.567 73.1113 212.281 72.0305 212.391 71.3998C211.355 70.9803 212.286 70.8264 211.955 70.4513C212.784 70.787 212.541 71.2676 213.013 71.6516C212.096 70.4602 214.703 70.6954 212.798 69.4417C212.939 69.4506 212.939 69.4506 213.006 69.5256C213.081 69.4595 213.504 69.4862 213.579 69.42C213.239 69.1861 212.948 69.3094 212.966 69.0271C213.116 68.8949 213.663 69.2128 214.011 69.3056C213.765 68.7232 213.809 68.0175 212.989 67.5407C213.271 67.5585 213.761 67.6602 213.893 67.8103C213.523 66.9367 214.277 67.3385 214.114 66.5489C214.03 66.7561 214.934 67.0257 214.427 67.2063C215.058 67.3169 215.142 67.1096 215.093 66.7523C215.045 66.395 214.997 66.0377 215.429 65.9233L214.75 65.4554C214.702 65.0981 215.465 65.3587 215.654 65.7249C216.311 65.4121 215.915 64.962 216.083 64.5474C216.224 64.5563 216.29 64.6314 216.29 64.6314L216.542 64.0096C216.409 63.8595 216.004 63.5506 215.514 63.4489C216.238 63.2111 216.436 63.4361 215.995 63.6917Z" fill="#353737"/>
<path d="M210.436 66.4587C210.643 66.5426 210.718 66.4765 210.859 66.4854C210.718 66.4765 210.577 66.4676 210.436 66.4587Z" fill="#353737"/>
<path d="M215.831 57.3048C214.569 57.0836 215.945 57.7371 215.513 57.8515C215.389 57.5604 214.684 57.5159 214.335 57.4231C215.852 58.0855 213.894 57.6786 214.141 58.261C213.651 58.1593 213.669 57.877 213.038 57.7664C213.369 58.1415 213.483 58.5738 214.312 58.9095C214.211 59.399 213.77 59.6546 213.818 60.0119C213.562 59.5707 212.989 59.6762 212.31 59.2083C213.262 59.8352 214.254 60.9605 215.33 61.8785C214.351 61.6751 214.285 61.6001 213.38 61.3305C212.507 61.7006 214.201 61.8073 213.75 62.2041L213.976 62.0057C214.165 62.3719 215.069 62.6414 215.616 62.9593L215.735 62.1875C216.357 62.4393 216.123 62.7787 216.255 62.9288C216.934 63.3967 216.904 62.7571 217.526 63.0089C217.045 62.766 217.345 62.5015 217.147 62.2765L217.495 62.3693C217.936 62.1137 217.116 61.6369 217.2 61.4296C217.341 61.4385 217.341 61.4385 217.482 61.4474C217.143 61.2135 216.662 60.9706 216.605 60.7545L216.596 60.8956C215.776 60.4188 215.472 59.6203 214.4 59.7652L214.859 59.2274C215.763 59.4969 217.148 60.0093 217.187 60.5078L217.602 60.6756C218.25 60.5039 217.1 59.652 216.253 59.5986C214.114 58.6844 216.465 58.4784 215.654 57.8604C216.285 57.971 216.474 58.3372 216.889 58.5051C216.88 58.6462 216.871 58.7874 216.381 58.6857C216.544 59.4753 218.414 59.0264 217.947 59.7054C217.505 59.961 217.069 59.0124 216.826 59.4931L218.4 60.3717C218.493 60.0233 218.238 59.5821 218.114 59.2909C217.744 58.4173 217.855 57.7867 218.098 57.306C218.266 56.8915 218.566 56.627 218.566 56.627L218.854 53.1735L218.861 49.7022C218.623 48.9787 218.782 48.7053 217.031 48.3824C216.665 48.5718 216.854 48.938 216.157 48.7524C216.788 48.863 217.127 49.0969 217.035 49.4454C216.395 49.4759 216.77 49.1453 216.554 49.2025L216.479 49.2686C216.131 49.1758 215.923 49.0919 215.998 49.0258C214.984 49.3869 215.155 50.0354 216.333 50.4639C215.675 50.7767 215.363 50.1193 214.873 50.0176C214.312 51.045 214.334 51.8257 214.122 52.946C215.242 53.1583 214.818 53.1316 215.506 53.4584L215.083 53.4317C215.299 53.3744 215.987 53.7012 216.287 53.4367C215.263 53.939 217.57 54.4387 218.033 54.9638L217.477 54.7871C217.526 55.1444 217.517 55.2855 217.772 55.7267C216.541 56.1451 217.667 55.1533 216.255 55.0643L216.454 55.2894C215.898 55.1126 214.994 54.8431 214.654 54.6091C215.457 55.3682 214.111 55.3543 214.773 56.1045C214.151 55.8527 213.763 55.2615 213.772 55.1203C213.688 55.3276 214.085 55.7777 213.454 55.6671L214.292 55.8616C214.34 56.2189 213.595 55.676 213.031 55.6404C212.893 56.6945 215.461 56.4312 215.831 57.3048Z" fill="#353737"/>
<path d="M212.681 65.6792C212.756 65.6131 212.831 65.547 212.699 65.3969C212.624 65.4631 212.69 65.5381 212.681 65.6792Z" fill="#353737"/>
<path d="M211.902 63.4337C211.836 63.3587 211.694 63.3498 211.628 63.2748C211.694 63.3498 211.761 63.4248 211.902 63.4337Z" fill="#353737"/>
<path d="M210.94 62.948C211.289 63.0408 211.28 63.182 211.694 63.3498C211.421 63.1909 211.514 62.8424 210.94 62.948Z" fill="#353737"/>
<path d="M194.411 83.5155C194.393 83.7977 194.225 84.2123 194.432 84.2962C194.516 84.0889 194.6 83.8817 194.825 83.6833C194.684 83.6744 194.543 83.6655 194.411 83.5155Z" fill="#353737"/>
<path d="M195.597 83.8029L196.087 83.9046L195.659 82.8149C195.359 83.0793 195.888 83.6795 195.597 83.8029Z" fill="#353737"/>
<path d="M196.66 83.799L196.784 84.0902C196.792 83.949 196.726 83.874 196.66 83.799Z" fill="#353737"/>
<path d="M196.471 83.4328L196.092 82.7004L196.047 83.4061L196.255 83.49C196.453 83.7151 196.594 83.724 196.66 83.799L196.48 83.2917C196.546 83.3667 196.537 83.5078 196.471 83.4328Z" fill="#353737"/>
<path d="M198.213 83.8969C197.939 83.738 197.9 83.2395 197.702 83.0144C197.278 82.9877 197.93 83.8791 197.441 83.7774C197.419 82.9967 197.035 83.4684 196.63 83.1594C197.092 83.6846 197.564 84.0686 197.922 84.0202L197.666 83.579C197.882 83.5218 198.005 83.813 198.213 83.8969Z" fill="#353737"/>
<path d="M198.902 81.9565L199.14 82.68C198.875 82.3799 198.575 82.6444 198.112 82.1193C198.028 82.3265 198.227 82.5516 198.284 82.7677C197.944 82.5338 197.746 82.3087 197.927 82.8161C198.773 82.8695 198.69 83.0767 199.263 82.9711C199.395 83.1212 199.254 83.1123 199.179 83.1784L199.669 83.2801C199.224 82.4727 199.457 82.1332 198.902 81.9565Z" fill="#353737"/>
<path d="M199.608 82.001C199.382 82.1993 199.695 82.8567 200.101 83.1657L200.154 82.3189C200.145 82.46 200.062 82.6672 199.608 82.001Z" fill="#353737"/>
<path d="M199.974 81.8115C200.313 82.0455 200.992 82.5134 200.679 81.856C200.521 82.1294 199.877 81.0969 199.974 81.8115Z" fill="#353737"/>
<path d="M202.012 80.9481L201.231 80.9697C200.495 80.2856 201.258 80.5463 201.068 80.1801C200.561 80.3607 200.91 80.4535 201.006 81.1681C200.865 81.1592 201.046 81.6665 201.094 82.0238C201.165 80.8947 202.752 82.6952 202.012 80.9481Z" fill="#353737"/>
<path d="M200.526 80.9252L200.715 81.2914L200.742 80.868L200.526 80.9252Z" fill="#353737"/>
<path d="M203.723 80.7726C204.751 81.3333 203.711 79.8507 204.416 79.8952C204.483 79.9702 204.549 80.0452 204.54 80.1864L204.699 79.913L204.897 80.1381C204.359 79.6791 204.386 79.2556 204.13 78.8144C203.367 78.5537 204.65 79.5557 203.821 79.22C203.623 78.995 203.367 78.5537 203.169 78.3287C203.283 78.761 203.548 79.0611 203.812 79.3612C203.729 79.5684 203.464 79.2684 203.266 79.0433C203.38 79.4756 204.116 80.1597 203.684 80.2742C203.062 80.0224 203.098 79.4578 202.996 79.9474C203.949 80.5742 202.564 80.0618 203.018 80.7281C202.66 80.7764 202.048 80.3835 201.783 80.0834C202.378 80.7586 202.691 81.416 202.673 81.6983L202.585 80.8425L203.397 81.4605C203.216 80.9532 203.366 80.8209 203.723 80.7726Z" fill="#353737"/>
<path d="M203.178 78.1876C203.112 78.1126 203.187 78.0464 203.121 77.9714C203.121 77.9714 203.112 78.1126 203.178 78.1876Z" fill="#353737"/>
<path d="M201.444 79.8495L201.386 79.6333L201.179 79.5494L201.444 79.8495Z" fill="#353737"/>
<path d="M202.865 77.5302C202.79 77.5963 202.988 77.8214 203.063 77.7553L202.808 77.314L202.865 77.5302Z" fill="#353737"/>
<path d="M203.562 77.7158L204.043 77.9587L203.778 77.6586L203.562 77.7158Z" fill="#353737"/>
<path d="M208.2 72.6944C207.777 72.6677 208.39 73.0606 208.796 73.3696C209.087 73.2462 208.249 73.0517 208.2 72.6944Z" fill="#353737"/>
<path d="M209.663 68.6064C209.164 68.6458 209.627 69.1709 209.477 69.3032C209.9 69.3299 209.852 68.9726 209.663 68.6064Z" fill="#353737"/>
<path d="M208.411 65.9769C208.544 66.1269 208.676 66.2769 208.826 66.1447L209.844 66.8466C210.343 66.8071 208.892 66.2197 208.411 65.9769Z" fill="#353737"/>
<path d="M209.092 64.1776L209.347 64.6188L209.497 64.4866C209.903 64.7955 210.11 64.8795 210.375 65.1795C210.251 64.8884 209.921 64.5133 209.092 64.1776Z" fill="#353737"/>
<path d="M210.489 65.6118L210.498 65.4707C210.291 65.3868 210.15 65.3779 210.489 65.6118Z" fill="#353737"/>
<path d="M210.507 65.3296C210.441 65.2546 210.441 65.2546 210.441 65.2546C210.507 65.3296 210.498 65.4707 210.498 65.4707C210.573 65.4046 210.639 65.4796 210.507 65.3296Z" fill="#353737"/>
<path d="M209.797 64.2221C209.881 64.0148 209.89 63.8737 209.833 63.6575L209.542 63.7809C210.23 64.1077 209.043 63.8203 209.797 64.2221Z" fill="#353737"/>
<path d="M211.369 61.7705L212.066 61.9562C212.366 61.6917 211.008 60.7558 212.203 60.9021C211.705 60.9415 211.458 60.3591 211.224 60.6986C211.771 61.0165 211.594 61.5722 211.369 61.7705Z" fill="#353737"/>
<path d="M212.843 60.8715C213.05 60.9554 213.191 60.9643 213.407 60.9071C213.557 60.7748 213.218 60.5409 212.935 60.5231C213.831 60.9338 212.296 60.5536 212.843 60.8715Z" fill="#353737"/>
<path d="M213.232 59.1956C213.223 59.3368 213.214 59.4779 213.505 59.3546C213.523 59.0723 212.685 58.8777 212.279 58.5688C211.772 58.7493 212.733 59.235 213.232 59.1956Z" fill="#353737"/>
<path d="M219.125 57.8667C218.495 57.7561 218.543 58.1134 218.75 58.1973C218.684 58.1223 218.909 57.924 219.125 57.8667Z" fill="#353737"/>
<path d="M214.022 56.7657L213.881 56.7568L214.785 57.0263L214.022 56.7657Z" fill="#353737"/>
<path d="M213.865 54.7719L213.252 54.379L213.3 54.7364L213.865 54.7719Z" fill="#353737"/>
<path d="M214.099 54.4324L214.117 54.1501L213.9 54.2073C213.543 54.2557 214.108 54.2913 214.099 54.4324Z" fill="#353737"/>
<path d="M214.161 53.4444C214.227 53.5195 214.086 53.5105 213.945 53.5016L214.275 53.8767L214.161 53.4444Z" fill="#353737"/>
<path d="M218.574 48.6214C219.205 48.732 218.799 48.423 218.95 48.2908C218.808 48.2819 217.953 48.3696 218.574 48.6214Z" fill="#353737"/>
</g>
<path d="M148.442 90.0407C146.843 103.047 146.81 106.942 134.725 113.194C122.707 119.522 124.809 123.268 114.371 127.002C103.999 130.812 101.766 124.649 101.766 124.649C102.239 122.766 102.778 120.958 103.149 119.564C105.217 113.743 103.592 117.041 102.248 114.76C100.829 112.545 108.107 103.864 108.107 103.864C108.107 103.864 106.047 103.947 106.419 100.286C106.792 96.6255 115.198 90.2829 115.198 90.2829C115.198 90.2829 112.772 90.5551 113.346 88.1824C113.921 85.8097 120.541 79.7087 126.077 78.4281C131.538 77.2137 135.664 73.577 135.664 73.577C135.664 73.577 136.838 72.9425 138.828 71.7218C146.016 74.5839 149.355 82.3046 148.442 90.0407Z" fill="#D4DADD"/>
<path d="M236.744 185.234C236.744 185.234 237.601 182.879 234.506 180.275C231.411 177.671 225.658 179.009 218.784 182.401C211.844 185.719 206.901 192.209 206.921 195.257" stroke="#1B1C1E" stroke-miterlimit="10"/>
<path d="M233.593 188.011C233.593 188.011 232.148 183.952 228.668 184.087" stroke="#1B1C1E" stroke-miterlimit="10"/>
<path d="M228.417 192.574C228.417 192.574 226.852 189.287 223.844 189.805" stroke="#1B1C1E" stroke-miterlimit="10"/>
<path d="M254.418 168.99C254.418 168.99 251.937 164.511 247.526 164.8" stroke="#1B1C1E" stroke-miterlimit="10"/>
<path d="M248.849 174.165C248.849 174.165 246.856 172.056 243.274 172.68" stroke="#1B1C1E" stroke-miterlimit="10"/>
<path d="M227.888 142.519C227.888 142.519 226.358 140.935 225.375 139.669C224.392 138.402 223.731 137.652 220.988 136.204C218.246 134.756 216.791 133.105 216.791 133.105" stroke="#1B1C1E" stroke-miterlimit="10"/>
<path d="M171.321 139.591C171.073 141.276 171.275 142.564 173.32 146.094C175.364 149.623 177.41 150.886 181.91 149.186C186.41 147.486 185.624 140.847 182.842 138.9C180.06 136.954 172.228 133.059 171.321 139.591Z" fill="#D4DADD"/>
<path d="M129.356 147.786C128.565 150.215 127.959 154.216 131.331 158.042C134.703 161.868 137.365 166.853 143.893 166.698C150.421 166.543 157.211 163.358 160.597 157.974C163.983 152.59 161.542 148.61 161.738 143.238C161.935 137.866 157.973 132.16 151.093 131.16C144.213 130.159 140.215 132.883 136.287 136.745C132.359 140.606 130.333 144.659 129.356 147.786Z" fill="#B3B9BC"/>
<path d="M138.43 47.6783C138.43 47.6783 125.789 48.1566 119.659 54.3593C113.529 60.562 131.65 66.4514 131.65 66.4514C131.65 66.4514 128.911 73.9307 130.678 76.2385C132.446 78.5463 134.23 74.9745 135.398 75.5441C136.492 76.1799 135.126 80.9825 136.342 84.1766C137.483 87.4368 140.403 86.0622 140.8 86.5123C141.197 86.9624 142.013 94.2407 145.841 96.4658C149.668 98.6909 149.896 93.9583 151.121 94.7441C152.347 95.5299 155.393 100.044 158.044 99.5732C160.77 99.0366 160.167 96.2354 161.195 96.7961C162.222 97.3569 166.653 100.116 169.04 99.3454C171.352 98.6409 170.299 96.2365 170.704 96.5454C171.11 96.8544 175.114 98.5239 176.879 97.5015C178.644 96.4792 178.579 94.137 179.36 94.1154C180.14 94.0937 189.846 90.7379 195.935 86.3039C202.025 81.87 204.17 71.4484 206.027 70.0776C207.96 68.6407 209.177 69.5677 210.977 67.9807C212.853 66.3277 210.928 62.0261 212.167 61.4666C213.407 60.9071 215 59.2363 213.913 55.1292C212.685 51.0133 211.362 49.5129 212.875 49.1123C214.322 48.6367 214.05 46.2106 212.367 43.6956C210.683 41.1805 208.994 39.8696 208.994 39.8696C208.994 39.8696 210.975 38.79 210.328 36.6945C209.681 34.599 203.693 30.679 203.693 30.679C203.693 30.679 205.088 28.7831 201.486 26.3596C197.883 23.9361 193.54 22.0327 193.54 22.0327C193.54 22.0327 194.718 20.194 191.861 18.3135C189.004 16.433 181.885 16.976 181.885 16.976C181.885 16.976 180.006 7.43443 174.441 5.80824C168.941 4.25707 164.532 18.0076 163.638 23.1942C163.638 23.1942 161.046 21.6138 159.752 23.0201C158.459 24.4265 158.767 26.288 158.088 25.8201C157.343 25.2771 155.535 24.738 154.184 25.9282C152.984 26.9862 153.076 28.9049 153.076 28.9049C153.076 28.9049 150.135 27.2316 148.427 28.4702C145.828 30.361 146.876 33.9696 146.876 33.9696C146.876 33.9696 142.69 34.06 141.484 36.3221C140.279 38.5842 141.632 40.7241 141.632 40.7241C141.632 40.7241 138.316 39.3815 136.987 41.3524C135.941 43.3411 137.549 45.9223 138.43 47.6783Z" fill="#F6EBEF"/>
<path d="M173.075 60.0649C173.075 60.0649 168.836 61.0021 167.381 59.3517C165.926 57.7013 167.268 56.6522 169.143 54.9992C171.019 53.3461 172.4 52.7955 173.612 54.9266C174.369 56.3914 173.075 60.0649 173.075 60.0649Z" fill="#1B1C1E" stroke="#1B1C1E" stroke-miterlimit="10"/>
<path d="M182.529 65.1954C180.286 69.3051 177.503 69.6255 177.503 69.6255C177.355 65.2235 174.265 61.4153 173.34 60.365C174.34 61.3491 177.616 64.4605 182.529 65.1954Z" fill="#B3B9BC" stroke="#1B1C1E" stroke-miterlimit="10"/>
<path d="M182.529 65.1954C183.301 65.3149 184.214 65.4433 185.07 65.3555C192.52 65.1875 196.302 60.2539 195.978 56.4075" stroke="#1B1C1E" stroke-miterlimit="10"/>
<path d="M173.075 60.0649C173.075 60.0649 173.141 60.1399 173.34 60.365" stroke="#1B1C1E" stroke-miterlimit="10"/>
<path d="M166.725 80.9907C170.39 82.4262 176.506 77.5688 177.453 71.5354C177.564 70.9047 177.599 70.3401 177.569 69.7005" stroke="#1B1C1E" stroke-miterlimit="10"/>
<path d="M150.84 68.8657C150.84 68.8657 148.064 63.4477 152.415 59.6126C157.066 55.5131 160.951 57.9544 160.951 57.9544C160.951 57.9544 163.489 62.6489 159.91 66.6034C156.255 70.6241 150.84 68.8657 150.84 68.8657Z" fill="#CCE2CF" stroke="#1B1C1E" stroke-miterlimit="10"/>
<path d="M158.819 66.0985C159.969 64.9835 159.561 62.6975 157.908 60.9925C156.254 59.2876 153.982 58.8093 152.832 59.9243C151.682 61.0393 152.09 63.3253 153.744 65.0303C155.397 66.7352 157.669 67.2135 158.819 66.0985Z" fill="#1B1C1E"/>
<path d="M183.43 38.5413C183.43 38.5413 178.404 35.107 174.052 38.9421C169.401 43.0416 171.335 47.2021 171.335 47.2021C171.335 47.2021 175.674 50.3096 180.047 47.2553C184.419 44.2009 183.43 38.5413 183.43 38.5413Z" fill="#CCE2CF" stroke="#1B1C1E" stroke-miterlimit="10"/>
<path d="M179.139 40.9012C177.655 39.0469 175.438 38.355 174.188 39.3557C172.937 40.3564 173.126 42.6708 174.61 44.5251C176.094 46.3794 178.31 47.0714 179.561 46.0707C180.812 45.0699 180.622 42.7555 179.139 40.9012Z" fill="#1B1C1E"/>
<path d="M167.809 34.5808C166.076 41.84 159.028 49.1185 150.832 51.0107C142.636 52.9029 138.364 47.6032 138.364 47.6032C137.483 45.8472 135.875 43.266 137.203 41.2951C138.457 39.3903 141.848 40.6669 141.848 40.6669C141.848 40.6669 140.429 38.4519 141.701 36.2648C142.906 34.0027 147.092 33.9124 147.092 33.9124C147.092 33.9124 146.044 30.3038 148.643 28.4129C150.351 27.1744 153.292 28.8477 153.292 28.8477C153.292 28.8477 153.2 26.929 154.401 25.871C155.751 24.6808 157.559 25.2199 158.304 25.7629C159.049 26.3058 158.675 24.3692 159.969 22.9629C161.262 21.5565 163.854 23.137 163.854 23.137C163.854 23.137 169.542 27.3215 167.809 34.5808Z" fill="#D4DADD"/>
<path d="M215.447 180.278C214.389 179.078 212.536 179.244 209.82 177.373C207.104 175.501 201.859 176.658 199.972 175.122C198.01 173.652 198.448 170.067 196.335 170.996C195.603 171.375 194.87 171.754 194.015 171.842C194.015 171.842 194.251 166.968 200.357 164.519C206.397 161.995 213.981 165.307 216.671 167.602C219.36 169.897 222.929 176.215 215.447 180.278Z" fill="#B3B9BC"/>
<path d="M220.399 181.511C220.399 181.511 216.505 181.478 215.447 180.278C214.389 179.078 212.611 179.178 209.895 177.307C207.179 175.435 201.934 176.592 200.047 175.056C198.085 173.586 198.523 170 196.41 170.93C194.297 171.86 192.307 173.08 189.319 168.783" stroke="#1B1C1E" stroke-miterlimit="10"/>
<path d="M182.026 16.9849C177.456 17.5471 173.851 19.6579 172.594 20.4997C171.336 21.3414 170.37 22.0599 170.064 15.6641C169.759 9.26821 173.669 5.68873 173.669 5.68873C173.951 5.70653 174.234 5.72432 174.582 5.81713C180.148 7.44332 182.026 16.9849 182.026 16.9849Z" fill="#D4DADD"/>
<path d="M136.803 55.511C138.143 56.7291 133.247 57.9791 133.099 61.4415C132.952 64.9039 131.65 66.4514 131.65 66.4514C131.65 66.4514 122.627 63.4736 119.471 59.5904C119.471 59.5904 118.1 57.7327 123.372 56.1521C128.644 54.5715 135.397 54.2178 136.803 55.511Z" fill="#D4DADD"/>
<path d="M258.178 165.543C259.003 164.815 255.702 159.86 251.698 158.191C247.694 156.521 244.833 153.578 240.634 152.746C236.435 151.915 232.187 145.128 229.709 143.98C228.267 143.252 227.879 142.66 227.879 142.66" stroke="#1B1C1E" stroke-miterlimit="10"/>
</svg>
