<svg width="304" height="311" viewBox="0 0 304 311" fill="none" xmlns="http://www.w3.org/2000/svg">
<path d="M127.401 4.37249C127.401 4.37249 121.202 -2.77851 142.407 10.1062C163.612 22.9909 273.533 94.2549 284.183 102.638C294.832 111.022 317.155 124.755 286.428 108.164C255.7 91.572 226.65 70.5816 196.327 52.8211C165.95 35.1443 130.2 9.78151 127.401 4.37249Z" fill="#1B1C1E"/>
<path d="M157.316 264.636C164.858 264.424 175.124 264.795 175.124 264.795C171.695 282.857 152.993 296.325 151.264 295.316C151.264 295.316 146.312 282.411 157.316 264.636Z" fill="#1B1C1E"/>
<path d="M149.861 265.263C150.855 264.837 153.794 264.726 157.316 264.636C146.45 282.382 151.318 295.232 151.318 295.232C149.589 294.223 148.723 290.792 147.761 283.118C146.853 275.361 149.861 265.263 149.861 265.263Z" fill="#8B2403"/>
<path d="M158.518 262.794C158.081 263.463 157.699 264.05 157.261 264.72" stroke="#1B1C1E" stroke-miterlimit="10"/>
<path d="M134.703 226.83C134.703 226.83 134.637 237.176 134.183 244.642C116.032 254.887 103.416 249.518 103.416 249.518C102.4 247.781 116.507 229.642 134.703 226.83Z" fill="#1B1C1E"/>
<path d="M103.416 249.518C103.416 249.518 116.116 254.942 134.183 244.642C133.967 248.083 133.718 251.026 133.285 252.056C133.285 252.056 123.076 254.707 115.381 253.507C107.686 252.306 104.347 251.201 103.416 249.518Z" fill="#8B2403"/>
<path d="M134.183 244.642C134.817 244.219 135.48 243.936 136.114 243.513" stroke="#1B1C1E" stroke-miterlimit="10"/>
<path d="M158.836 269.808C158.836 269.808 169.277 271.009 177.962 262.826C186.647 254.642 191.305 243.114 193.429 239.127C195.554 235.14 198.775 229.838 204.146 223.074C209.516 216.309 217.363 198.981 216.017 171.951C214.672 144.921 201.127 104.198 209.831 83.7265C218.535 63.2554 131.137 26.2756 131.137 26.2756C131.137 26.2756 115.779 41.2089 101.016 80.2947C93.9588 98.9747 95.7037 118.623 97.5477 125.677C100.945 138.403 108.302 156.221 120.305 169.667C141.335 193.066 140.448 198.816 141.692 212.644C141.692 212.644 133.333 217.219 128.656 229.69C123.575 243.331 129.821 252.423 131.616 254.43C134.281 257.483 148.927 269.072 158.836 269.808Z" fill="#8B2403"/>
<path d="M141.442 209.734C141.442 209.734 167.588 185.959 188.029 197.27C203.645 205.91 197.303 232.46 197.303 232.46C195.663 234.972 194.41 237.259 193.429 239.127C192.613 240.743 191.283 243.696 189.457 247.043C190.257 240.877 189.16 233.593 185.753 228.384C182.542 223.423 177.394 218.869 170.2 214.89C165.291 212.164 160.842 210.932 156.843 210.471C147.652 209.368 141.692 212.644 141.692 212.644C141.627 211.646 141.562 210.648 141.442 209.734Z" fill="#EBDAD2"/>
<path d="M156.788 210.555C160.703 210.961 165.237 212.248 170.145 214.974C177.34 218.953 182.488 223.507 185.698 228.468C186.538 232.121 186.158 235.814 183.575 238.307C177.502 244.136 169.906 241.686 169.906 241.686L150.209 227.039C147.353 218.607 150.899 212.443 156.788 210.555Z" fill="#EBDAD2"/>
<path d="M201.47 145.022C201.47 145.022 203.197 142.925 206.298 139.455C207.587 138.028 209.07 136.488 210.717 134.697C220.436 124.562 236.655 109.592 253.778 102.02C253.778 102.02 259.028 105.685 264.528 103.662C269.944 101.585 271.53 96.4102 271.53 96.4102C271.53 96.4102 252.939 84.2767 249.757 82.1997C246.909 80.3414 230.36 92.7069 207.042 102.087C204.169 103.197 201.295 104.307 198.254 105.307C170.303 114.65 157.245 132.279 157.245 132.279L201.47 145.022Z" fill="#8B2403"/>
<path d="M214.72 98.7396C233.996 90.0642 247.161 80.5054 249.757 82.1998C253.022 84.3313 271.53 96.4102 271.53 96.4102C271.53 96.4102 269.998 101.501 264.528 103.662C259.111 105.74 253.778 102.02 253.778 102.02C246.099 105.368 238.603 110.267 231.831 115.52C231.886 115.436 217.081 107.564 214.72 98.7396Z" fill="#A84E39"/>
<path d="M117.925 36.6392C117.925 36.6392 126.587 31.7841 146.215 45.0724C165.843 58.3608 204.545 90.5457 225.676 95.8591C246.807 101.172 254.362 85.2058 251.18 83.1289C247.914 80.9973 251.18 83.1289 239.875 75.7504C228.57 68.3719 186.029 40.6068 154.542 20.0562C123.055 -0.494309 110.826 28.3044 112.403 39.2448C113.98 50.1853 110.426 58.3744 110.426 58.3744C110.426 58.3744 118.79 42.816 124.78 34.187L117.925 36.6392Z" fill="#8B2403"/>
<path d="M161.145 48.7267C188.786 61.6318 205.875 64.9044 228.115 78.5833C250.299 92.346 238.109 96.5699 238.109 96.5699C234.62 97.1587 230.486 97.0881 225.538 95.8882C204.406 90.5748 165.705 58.3899 146.077 45.1015C144.904 44.3364 143.732 43.5712 142.643 42.8607C142.25 42.3652 134.368 36.146 161.145 48.7267Z" fill="#751A01"/>
<path d="M265.249 92.311C265.249 92.311 264.268 96.9248 259.617 97.83" stroke="#1B1C1E" stroke-miterlimit="10"/>
<path d="M253.467 92.9807C253.467 92.9807 256.698 91.5069 257.628 87.3374" stroke="#1B1C1E" stroke-miterlimit="10"/>
<path d="M163.156 237.758C163.156 237.758 165.308 239.401 167.929 240.873C170.551 242.345 176.21 242.457 178.295 237.25C180.38 232.043 178.072 228.626 175.647 227.401C173.167 226.261 165.778 227.886 165.778 227.886L163.07 231.851C162.961 232.018 160.749 235.59 163.156 237.758Z" fill="#EBDAD2" stroke="#1B1C1E" stroke-miterlimit="10"/>
<path d="M157.796 234.26C157.796 234.26 155.426 232.952 153.023 231.144C150.62 229.337 148.24 224.202 152.167 220.197C156.095 216.192 160.151 216.929 162.248 218.656C164.291 220.467 165.778 227.886 165.778 227.886L163.238 231.96C163.129 232.128 160.749 235.59 157.796 234.26Z" fill="#EBDAD2" stroke="#1B1C1E" stroke-miterlimit="10"/>
<path d="M162.509 245.336C162.509 245.336 166.464 244.216 170.52 247.699C174.492 251.127 173.398 255.548 173.398 255.548C172.6 256.221 169.234 258.085 165.244 255.6C164.825 255.326 164.406 255.053 163.958 254.641C163.707 254.478 163.511 254.23 163.343 254.12C159.674 250.412 162.509 245.336 162.509 245.336Z" fill="#FBAF5E"/>
<path d="M164.728 251.084C166.149 248.906 167.967 247.585 168.804 248.132C169.642 248.678 169.164 250.874 167.743 253.051C166.978 254.224 166.016 255.148 165.327 255.654C164.909 255.381 164.49 255.108 164.042 254.696C163.791 254.532 163.594 254.284 163.427 254.175C163.529 253.287 164.018 252.172 164.728 251.084Z" fill="#1B1C1E" stroke="#1B1C1E" stroke-miterlimit="10"/>
<path d="M151.342 237.929C151.342 237.929 150.775 233.857 146.093 231.517C141.355 229.261 137.72 231.904 137.72 231.904C137.425 232.905 136.99 236.682 140.816 239.418C141.235 239.691 141.654 239.965 142.211 240.209C142.462 240.373 142.768 240.453 142.936 240.562C147.837 242.567 151.342 237.929 151.342 237.929Z" fill="#FBAF5E"/>
<path d="M145.187 238.211C146.608 236.033 147.086 233.837 146.249 233.291C145.411 232.744 143.593 234.066 142.172 236.243C141.407 237.415 140.864 238.613 140.707 239.586C141.126 239.859 141.545 240.132 142.102 240.376C142.353 240.54 142.659 240.62 142.826 240.73C143.624 240.056 144.477 239.299 145.187 238.211Z" fill="#1B1C1E" stroke="#1B1C1E" stroke-miterlimit="10"/>
<path d="M162.961 232.018C162.961 232.018 164.683 235.052 164.711 237.937C164.684 240.905 161.116 239.054 158.939 237.633C156.816 236.128 155.189 234.23 157.618 233.069C160.131 231.963 162.961 232.018 162.961 232.018Z" fill="#1B1C1E" stroke="#1B1C1E" stroke-miterlimit="10"/>
<path d="M140.153 199.817C140.153 199.817 170.026 168.683 189.836 163.58C214.515 157.238 216.19 178.273 216.19 178.273C216.196 201.682 209.133 216.895 204.146 223.074C201.267 226.569 199.107 229.696 197.358 232.376C197.358 232.376 203.616 205.771 188.083 197.186C167.642 185.875 141.497 209.65 141.497 209.65C141.185 206.103 140.96 202.971 140.153 199.817Z" fill="#A84E39"/>
<path d="M133.8 256.572C135.097 255.866 139.595 253.548 145.609 250.188C150.326 247.535 154.848 250.487 154.158 256.484C153.541 261.455 153.371 266.838 153.36 268.502C145.957 265.939 137.856 260.055 133.8 256.572Z" fill="#751A01"/>
<path d="M117.925 36.6392C117.925 36.6392 126.587 31.7841 146.215 45.0724C165.844 58.3608 204.545 90.5457 225.676 95.8591" stroke="#1B1C1E" stroke-miterlimit="10"/>
<path d="M206.959 102.033C204.085 103.142 201.211 104.252 198.17 105.253C170.22 114.595 157.161 132.224 157.161 132.224" stroke="#1B1C1E" stroke-miterlimit="10"/>
<path d="M201.47 145.022C201.47 145.022 203.197 142.925 206.298 139.455C207.587 138.028 209.07 136.488 210.717 134.697" stroke="#1B1C1E" stroke-miterlimit="10"/>
<g opacity="0.78">
<path d="M148.427 209.278C148.373 209.361 148.402 209.5 148.402 209.5C148.485 209.554 148.402 209.5 148.427 209.278Z" fill="#290B01"/>
<path d="M155.085 209.324L155.165 209.018C155.11 209.101 155.139 209.24 155.085 209.324Z" fill="#290B01"/>
<path d="M148.226 211.415C148.172 211.499 148.117 211.583 148.091 211.805L148.226 211.415Z" fill="#290B01"/>
<path d="M149.042 212.544L149.071 212.683C149.071 212.683 148.987 212.628 149.042 212.544Z" fill="#290B01"/>
<path d="M142.276 209.92C142.331 209.836 142.331 209.836 142.276 209.92C142.247 209.782 142.331 209.836 142.276 209.92Z" fill="#290B01"/>
<path d="M142.032 210.477C141.894 210.506 141.894 210.506 142.032 210.477L141.977 210.561C141.923 210.645 141.977 210.561 142.032 210.477Z" fill="#290B01"/>
<path d="M140.552 215.124L140.61 215.4C140.665 215.317 140.636 215.178 140.552 215.124Z" fill="#290B01"/>
<path d="M142.327 209.476C142.273 209.56 142.356 209.614 142.385 209.753C142.302 209.698 142.356 209.614 142.327 209.476Z" fill="#290B01"/>
<path d="M148.482 209.194L148.511 209.332C148.427 209.278 148.482 209.194 148.482 209.194Z" fill="#290B01"/>
<path d="M157.608 209.299C157.663 209.215 157.747 209.27 157.801 209.186C157.634 209.077 157.579 209.161 157.608 209.299Z" fill="#290B01"/>
<path d="M144.108 210.041C144.366 210.926 143.915 210.154 144.089 210.984C144.115 210.762 144.224 210.594 144.395 211.064C144.428 211.563 144.118 211.122 144.264 211.814L144.344 211.509C144.57 211.895 144.548 212.477 144.602 212.394C144.453 211.341 145.243 212.692 145.269 212.47L145.214 212.554L145.524 212.995L145.494 212.856C145.665 213.326 145.946 213.629 146.139 213.516C146.077 212.878 146.718 213.177 146.769 212.733C146.66 212.901 146.66 212.901 146.492 212.791L146.347 212.099C146.569 212.125 146.492 212.791 146.598 212.263C146.395 211.294 146.321 212.321 146.154 212.212C146.179 211.99 146.205 211.768 146.26 211.684C145.983 211.742 145.619 211.385 145.684 212.383C145.571 212.19 145.484 211.775 145.539 211.691C145.517 212.274 145.284 211.167 145.178 211.695C145.058 210.78 145.506 211.192 145.528 210.609C145.95 211.243 146.165 210.548 146.413 210.351C146.558 211.043 146.453 211.571 146.678 211.957C147.042 212.314 146.952 211.539 146.948 211.178C147.199 211.342 147.181 212.285 147.458 212.227L147.406 212.671C147.803 213.527 147.541 212.282 147.709 212.391C147.596 212.198 147.538 211.921 147.399 211.95C147.341 211.673 147.367 211.451 147.505 211.422C147.473 210.923 147.385 210.508 147.637 210.672C147.615 211.255 147.862 211.058 147.975 211.251L147.92 211.335C148.03 211.167 148.252 211.193 148.307 211.109L148.336 211.248C148.361 211.026 148.354 210.304 148.522 210.414C148.58 210.691 148.448 211.441 148.641 211.328C148.729 211.743 148.452 211.801 148.284 211.692C148.452 211.801 148.597 212.493 148.459 212.522C148.575 213.076 148.623 212.271 148.736 212.464C148.707 212.326 148.732 212.104 148.703 211.965C148.849 212.657 149.064 211.962 149.031 211.463L148.896 211.852C148.78 211.299 148.969 210.825 148.857 210.632C149.115 211.517 149.323 210.101 149.552 210.848L149.381 210.378C149.854 210.567 150.066 209.511 150.452 209.286C150.372 209.591 150.437 210.589 150.157 210.287C150.546 210.422 150.36 211.256 150.531 211.726C150.895 212.083 150.55 210.782 150.63 210.476L150.382 210.673C150.51 209.562 151.216 210.859 151.57 210.134C151.628 210.411 151.461 210.302 151.49 210.44C151.744 210.965 151.683 210.327 151.763 210.022C151.93 210.131 152.265 210.35 152.134 211.1C152.385 211.264 152.047 210.685 152.211 210.433L152.24 210.572L152.426 209.738C152.622 209.985 152.903 210.288 153.048 210.98C153.518 210.809 153.143 209.37 153.446 209.09C153.671 209.476 153.424 209.673 153.398 209.895L153.675 209.837C153.627 210.641 153.402 210.255 153.383 211.198C153.54 210.226 153.685 210.918 153.984 210.277L153.955 210.139C154.032 209.472 154.425 209.968 154.618 209.855C154.567 210.299 154.345 210.274 154.236 210.441C154.432 210.689 154.957 210.434 155.143 209.6C155.31 209.71 155.536 210.096 155.317 210.431C155.707 210.566 155.5 209.236 155.835 209.455L155.813 210.038C156.209 210.894 156.581 209.226 156.978 210.082L157.026 209.277C157.084 209.554 157.28 209.801 157.255 210.024L157.091 210.275C157.236 210.967 157.251 209.663 157.506 210.187C157.532 209.965 157.415 209.412 157.357 209.135C156.501 209.532 155.686 208.402 154.917 209.214C154.946 209.353 155.03 209.407 154.921 209.575C154.808 209.382 154.644 209.633 154.695 209.189L154.75 209.105C154.502 209.301 154.298 208.333 154.16 208.362C154.054 208.89 153.686 208.172 153.806 209.086L153.69 208.533C153.693 208.893 153.697 209.254 153.671 209.476C153.504 209.367 153.5 209.006 153.61 208.839C153.024 208.456 152.277 208.685 151.752 208.94L151.887 208.55C151.774 208.357 151.479 209.359 151.469 208.277C151.195 208.696 150.635 208.091 150.784 209.144C150.496 208.12 149.975 208.735 149.673 209.016C149.877 209.985 149.371 209.296 149.319 209.74C149.174 209.048 149.589 208.961 149.473 208.408C149.207 209.547 148.246 207.726 148.292 209.667C148.209 209.612 148.263 209.529 148.18 209.474C148.096 209.419 147.899 209.172 147.816 209.117C147.819 209.478 147.987 209.587 147.877 209.754C147.71 209.645 147.677 209.146 147.564 208.953C147.375 209.426 146.934 209.736 147.079 210.428C146.967 210.235 146.741 209.849 146.85 209.681C146.551 210.322 146.406 209.63 145.994 210.078C146.133 210.049 145.904 209.302 146.239 209.521C145.813 208.526 145.576 209.805 145.128 209.393L145.135 210.114C144.942 210.227 144.742 209.619 144.906 209.367C144.403 209.039 144.352 209.484 144.075 209.542C143.992 209.487 143.962 209.349 144.101 209.32L143.686 209.407C143.715 209.545 143.58 209.935 143.751 210.405C143.831 210.099 143.857 209.877 144.108 210.041Z" fill="#290B01"/>
<path d="M148.128 212.664C148.098 212.526 148.015 212.471 147.931 212.417C148.015 212.471 148.044 212.61 148.128 212.664Z" fill="#290B01"/>
<path d="M140.502 212.822C140.927 213.816 140.666 212.571 141.001 212.789C140.891 212.957 141.091 213.565 141.288 213.813C141.081 212.483 141.623 214.031 141.896 213.613C141.983 214.028 141.874 214.195 142.045 214.665C142.18 214.276 142.344 214.024 142.198 213.332C142.53 213.19 142.865 213.409 142.974 213.242C142.839 213.631 143.12 213.934 143.127 214.655C143.145 213.711 143.411 212.572 143.456 211.406C143.768 212.208 143.714 212.291 143.943 213.038C144.475 213.504 143.852 212.262 144.326 212.452L144.158 212.342C144.238 212.037 144.093 211.345 144.031 210.707L143.561 210.878C143.445 210.325 143.806 210.321 143.776 210.183C143.769 209.462 143.412 209.826 143.296 209.272C143.329 209.771 143.077 209.607 143.052 209.829L142.994 209.552C142.659 209.334 142.75 210.11 142.527 210.084C142.444 210.029 142.498 209.946 142.415 209.891C142.418 210.252 142.505 210.667 142.396 210.834L142.451 210.75C142.458 211.472 142.213 212.029 142.719 212.717L142.191 212.611C142.017 211.781 141.7 210.619 142.032 210.477L141.974 210.2C141.61 209.843 141.566 211.009 141.904 211.588C142.228 213.471 141.241 211.872 141.139 212.76C140.968 212.29 141.048 211.985 141.045 211.624C141.099 211.54 141.238 211.511 141.325 211.926C141.737 211.479 140.699 210.324 141.282 210.346C141.617 210.564 141.18 211.234 141.678 211.202L141.526 209.789C141.333 209.902 141.169 210.153 141.005 210.404C140.269 211.715 139.293 211.197 139.293 211.197C137.858 211.932 136.423 212.668 135.017 213.541C134.66 213.905 134.467 214.018 134.951 215.289C135.202 215.453 135.366 215.202 135.482 215.756C135.311 215.286 135.308 214.925 135.584 214.867C135.894 215.308 135.504 215.173 135.588 215.227L135.672 215.282C135.73 215.559 135.843 215.752 135.704 215.781C136.265 216.386 136.677 215.938 136.473 214.969C136.921 215.381 136.648 215.8 136.735 216.215C137.678 216.233 138.064 216.008 138.782 215.64C138.385 214.784 138.665 215.087 138.465 214.478L138.662 214.726C138.549 214.533 138.433 213.979 138.181 213.815C138.935 214.307 138.251 212.428 138.441 211.954L138.612 212.424C138.859 212.228 138.859 212.228 139.078 211.893C139.806 212.607 138.776 212.173 139.285 213.222L139.311 213C139.398 213.415 139.572 214.246 139.576 214.606C139.678 213.718 140.242 214.683 140.457 213.987C140.574 214.541 140.384 215.014 140.33 215.098C140.468 215.069 140.603 214.679 140.774 215.149L140.574 214.541C140.822 214.344 140.774 215.149 141 215.535C141.357 215.171 140.119 213.408 140.502 212.822Z" fill="#290B01"/>
<path d="M146.729 211.513C146.646 211.458 146.591 211.542 146.536 211.626C146.536 211.626 146.675 211.597 146.729 211.513Z" fill="#290B01"/>
<path d="M145.746 213.02C145.775 213.159 145.775 213.159 145.804 213.297C145.859 213.213 145.775 213.159 145.746 213.02Z" fill="#290B01"/>
<path d="M145.866 213.935C145.807 213.658 145.807 213.658 145.804 213.297C145.778 213.519 145.64 213.548 145.866 213.935Z" fill="#290B01"/>
<path d="M164.861 213.555C164.971 213.388 165.08 213.22 165.105 212.998L164.858 213.195L164.861 213.555Z" fill="#290B01"/>
<path d="M164.548 212.754L164.406 212.422L164.082 213.285C164.304 213.311 164.326 212.728 164.548 212.754Z" fill="#290B01"/>
<path d="M163.907 212.455L163.747 213.067L164.159 212.619L164.046 212.426C164.071 212.204 164.042 212.065 164.097 211.982L163.907 212.455C163.853 212.539 163.907 212.455 163.907 212.455Z" fill="#290B01"/>
<path d="M163.631 212.513C163.576 212.597 163.66 212.651 163.605 212.735C163.66 212.651 163.631 212.513 163.631 212.513Z" fill="#290B01"/>
<path d="M163.285 211.213C163.343 211.49 163.125 211.825 163.099 212.047C163.296 212.295 163.453 211.322 163.595 211.654C163.183 212.101 163.682 212.069 163.685 212.429C163.707 211.847 163.675 211.348 163.478 211.1L163.343 211.49C163.234 211.657 163.314 211.351 163.285 211.213Z" fill="#290B01"/>
<path d="M161.934 212.003L162.178 211.446C162.181 211.806 162.404 211.832 162.382 212.414C162.52 212.385 162.6 212.079 162.709 211.912C162.713 212.272 162.771 212.549 162.961 212.076C162.568 211.58 162.761 211.468 162.342 211.194C162.397 211.111 162.397 211.111 162.48 211.165L162.255 210.779C162.04 211.475 161.817 211.449 161.934 212.003Z" fill="#290B01"/>
<path d="M161.595 211.423C161.817 211.449 161.978 210.837 161.974 210.477L161.479 210.87C161.563 210.925 161.756 210.812 161.595 211.423Z" fill="#290B01"/>
<path d="M161.373 211.398C161.37 211.037 161.308 210.4 161.064 210.957C161.286 210.983 161.1 211.817 161.373 211.398Z" fill="#290B01"/>
<path d="M159.924 210.691L160.233 211.132C160.186 211.936 160.069 211.383 159.851 211.718C160.186 211.936 160.128 211.66 160.372 211.103C160.455 211.157 160.674 210.822 160.838 210.571C160.317 211.186 160.493 209.271 159.924 210.691Z" fill="#290B01"/>
<path d="M160.681 211.543L160.761 211.237L160.514 211.434L160.681 211.543Z" fill="#290B01"/>
<path d="M159.054 209.645C158.85 208.677 158.588 210.177 158.278 209.736C158.333 209.652 158.249 209.598 158.358 209.43L158.082 209.488L158.107 209.266C158.085 209.849 157.837 210.046 157.786 210.49C157.986 211.098 157.918 209.74 158.147 210.486C158.067 210.792 158.07 211.153 157.961 211.32C158.125 211.069 158.121 210.708 158.256 210.319C158.395 210.29 158.314 210.596 158.289 210.818C158.507 210.483 158.555 209.678 158.806 209.842C158.923 210.396 158.675 210.592 159.006 210.45C158.886 209.536 159.258 210.614 159.418 210.002C159.615 210.25 159.731 210.804 159.651 211.11C159.727 210.443 159.888 209.831 160.136 209.635L159.753 210.221L159.717 209.362C159.334 209.948 159.251 209.893 159.054 209.645Z" fill="#290B01"/>
<path d="M157.851 211.488C157.797 211.571 157.797 211.571 157.742 211.655C157.881 211.626 157.881 211.626 157.851 211.488Z" fill="#290B01"/>
<path d="M159.6 211.554L159.574 211.776L159.548 211.998L159.6 211.554Z" fill="#290B01"/>
<path d="M157.691 212.1C157.775 212.154 157.717 211.877 157.717 211.877L157.582 212.267L157.691 212.1Z" fill="#290B01"/>
<path d="M157.491 211.491L157.404 211.076L157.323 211.382L157.491 211.491Z" fill="#290B01"/>
<path d="M152.578 211.151C152.775 211.399 152.659 210.845 152.71 210.401C152.488 210.375 152.826 210.954 152.578 211.151Z" fill="#290B01"/>
<path d="M149.675 212.122C149.901 212.508 149.978 211.842 150.2 211.868C149.949 211.704 149.839 211.871 149.675 212.122Z" fill="#290B01"/>
<path d="M148.753 214.267C148.779 214.045 148.834 213.961 148.75 213.906L148.739 212.825C148.404 212.606 148.666 213.852 148.753 214.267Z" fill="#290B01"/>
<path d="M147.398 214.696L147.533 214.307L147.395 214.336C147.391 213.975 147.417 213.753 147.413 213.392C147.304 213.56 147.169 213.95 147.398 214.696Z" fill="#290B01"/>
<path d="M147.632 213.057L147.577 213.141C147.607 213.28 147.636 213.418 147.632 213.057Z" fill="#290B01"/>
<path d="M147.439 213.17C147.439 213.17 147.384 213.254 147.468 213.309C147.468 213.309 147.523 213.225 147.439 213.17C147.494 213.087 147.41 213.032 147.439 213.17Z" fill="#290B01"/>
<path d="M147.089 214.255L146.703 214.481L146.87 214.59C146.809 213.953 147.151 214.893 147.089 214.255Z" fill="#290B01"/>
<path d="M144.981 214.193L144.78 213.585C144.475 213.504 144.543 214.863 144.147 214.007C144.372 214.393 144.154 214.728 144.46 214.808C144.398 214.171 144.729 214.029 144.981 214.193Z" fill="#290B01"/>
<path d="M143.837 213.566C143.863 213.344 143.779 213.289 143.666 213.096C143.582 213.042 143.502 213.347 143.699 213.595C143.524 212.765 143.87 214.065 143.837 213.566Z" fill="#290B01"/>
<path d="M142.675 213.883C142.73 213.799 142.868 213.77 142.701 213.66C142.508 213.773 142.792 214.436 142.795 214.797C143.021 215.183 142.956 214.185 142.675 213.883Z" fill="#290B01"/>
<path d="M139.45 210.225C139.621 210.695 139.814 210.582 139.84 210.36C139.785 210.444 139.617 210.334 139.45 210.225Z" fill="#290B01"/>
<path d="M140.905 214.399L140.989 214.454L140.814 213.623L140.905 214.399Z" fill="#290B01"/>
<path d="M139.776 215.214L139.754 215.797L140.002 215.6L139.776 215.214Z" fill="#290B01"/>
<path d="M139.416 215.218L139.222 215.331L139.335 215.524C139.557 215.549 139.416 215.218 139.416 215.218Z" fill="#290B01"/>
<path d="M138.836 215.556C138.891 215.473 138.92 215.611 138.92 215.611L138.971 215.167L138.836 215.556Z" fill="#290B01"/>
<path d="M134.052 214.105C133.881 213.635 133.746 214.025 133.662 213.97C133.691 214.109 134.168 214.659 134.052 214.105Z" fill="#290B01"/>
</g>
<g opacity="0.78">
<path d="M116.087 44.3956C116.171 44.4502 116.2 44.5886 116.2 44.5886C116.254 44.5049 116.171 44.4502 116.087 44.3956Z" fill="#290B01"/>
<path d="M120.142 39.2803L119.945 39.0326C119.92 39.2547 120.004 39.3094 120.142 39.2803Z" fill="#290B01"/>
<path d="M117.434 45.9912C117.463 46.1296 117.547 46.1843 117.66 46.3773L117.434 45.9912Z" fill="#290B01"/>
<path d="M118.767 46.1446C118.85 46.1992 118.85 46.1993 118.934 46.2539C118.905 46.1155 118.905 46.1155 118.767 46.1446Z" fill="#290B01"/>
<path d="M112.28 49.3143L112.225 49.398L112.309 49.4527C112.392 49.5074 112.363 49.369 112.28 49.3143Z" fill="#290B01"/>
<path d="M112.724 49.3654C112.753 49.5038 112.753 49.5038 112.724 49.3654V49.3654Z" fill="#290B01"/>
<path d="M111.938 48.3746C112.021 48.4292 112.05 48.5677 112.134 48.6223C111.967 48.513 112.021 48.4292 111.938 48.3746Z" fill="#290B01"/>
<path d="M121.454 37.2705C121.508 37.1868 121.425 37.1321 121.479 37.0484C121.286 37.1612 121.286 37.1612 121.454 37.2705Z" fill="#290B01"/>
<path d="M113.595 47.665C114.349 48.1569 113.486 47.8325 114.239 48.3244C114.126 48.1314 114.097 47.9929 114.487 48.1278C114.851 48.4848 114.294 48.2407 114.909 48.7617L114.767 48.4302C115.157 48.5651 115.55 49.0605 115.521 48.9221C114.793 48.2081 116.129 48.722 116.155 48.4999L116.184 48.6383L116.712 48.7441C116.712 48.7441 116.712 48.7441 116.796 48.7987C116.712 48.7441 116.712 48.7441 116.628 48.6894C117.101 48.879 117.546 48.9301 117.571 48.708C117.124 48.2963 117.786 48.0124 117.422 47.6554C117.451 47.7938 117.481 47.9322 117.258 47.9067L116.672 47.5241C116.781 47.3566 117.258 47.9066 116.949 47.4659C116.112 46.9193 116.785 47.7171 116.647 47.7462C116.534 47.5531 116.366 47.4438 116.337 47.3054C116.173 47.5567 115.674 47.5893 116.402 48.3033C116.18 48.2777 115.9 47.9754 115.816 47.9207C116.209 48.4161 115.259 47.6765 115.652 48.1719C114.953 47.5963 115.452 47.5637 115.143 47.1229C115.838 47.338 115.554 46.6751 115.551 46.3146C116.137 46.6972 116.447 47.1379 116.836 47.2728C117.335 47.2402 116.749 46.8576 116.523 46.4715C116.8 46.4134 117.444 47.0728 117.608 46.8215L117.834 47.2076C118.697 47.532 117.608 46.8215 117.831 46.8471C117.663 46.7378 117.412 46.5738 117.302 46.7413C117.051 46.5773 116.938 46.3843 116.993 46.3005C116.629 45.9435 116.294 45.7249 116.571 45.6667C116.935 46.0237 117.015 45.7178 117.266 45.8818L117.295 46.0202C117.237 45.7434 117.376 45.7143 117.347 45.5759L117.43 45.6306C117.318 45.4375 116.786 44.9712 116.924 44.9421C117.176 45.1061 117.652 45.6562 117.678 45.434C118.013 45.6526 117.904 45.8201 117.711 45.9329C117.987 45.8748 118.49 46.2027 118.464 46.4248C118.883 46.6981 118.406 46.1481 118.628 46.1736C118.461 46.0643 118.377 46.0097 118.21 45.9004C118.796 46.2829 118.512 45.62 118.093 45.3468L118.319 45.7329C117.816 45.4049 117.675 45.0735 117.34 44.8549C118.148 45.263 117.278 44.2175 117.919 44.5164L117.445 44.3268C117.915 44.1558 117.296 43.2743 117.264 42.7754C117.46 43.0231 118.243 43.6534 117.799 43.6022C118.185 43.3766 118.691 44.0651 119.164 44.2546C119.663 44.222 118.52 43.5952 118.323 43.3475L118.382 43.6243C117.624 42.7719 119.07 43.1183 118.702 42.4008C118.954 42.5647 118.815 42.5938 118.899 42.6485C119.511 42.8089 118.925 42.4263 118.812 42.2333C119.005 42.1205 119.365 42.1169 119.897 42.5832C120.174 42.5251 119.562 42.3647 119.365 42.1169L119.533 42.2262L118.972 41.6215C119.249 41.5633 119.693 41.6145 120.334 41.9133C120.469 41.5237 119.104 40.8713 119.016 40.4562C119.461 40.5073 119.435 40.7294 119.632 40.9772L119.712 40.6713C120.327 41.1922 119.883 41.1411 120.636 41.633C119.992 40.9736 120.549 41.2178 120.211 40.6387L120.127 40.584C119.679 40.1723 120.233 40.056 120.204 39.9176C120.484 40.2199 120.375 40.3874 120.488 40.5805C120.848 40.577 120.87 39.9943 120.31 39.3896C120.448 39.3605 120.947 39.3279 121.089 39.6593C121.391 39.379 120.193 38.836 120.608 38.7487L121.111 39.0767C122.083 39.2336 120.878 37.9695 121.712 38.1555L121.042 37.7182C121.348 37.7985 121.57 37.824 121.876 37.9042L122.018 38.2357C122.63 38.3962 121.625 37.7403 122.069 37.7914C121.902 37.6821 121.29 37.5217 121.122 37.4123C121.02 38.3009 119.662 38.3697 119.894 39.4768C119.978 39.5315 120.116 39.5024 120.146 39.6408C119.923 39.6152 119.982 39.892 119.701 39.5896L119.618 39.535C119.676 39.8118 118.729 39.4327 118.674 39.5165C119.038 39.8735 118.288 39.7421 119.097 40.1503L118.539 39.9061C118.791 40.07 119.209 40.3433 119.238 40.4817C119.1 40.5108 118.849 40.3468 118.652 40.0991C118.044 40.2992 117.745 40.9401 117.668 41.6065L117.443 41.2204C117.221 41.1948 117.756 42.0217 116.973 41.3914C117.144 41.8612 116.339 41.8136 117.206 42.4986C116.175 42.0649 116.404 42.8115 116.408 43.172C117.3 43.6349 116.495 43.5872 116.775 43.8896C116.189 43.507 116.269 43.2011 115.935 42.9825C116.637 43.9187 114.663 43.4664 116.061 44.6177C115.978 44.5631 115.894 44.5084 115.894 44.5084C115.839 44.5921 115.533 44.5119 115.45 44.4572C115.646 44.7049 115.923 44.6468 115.897 44.8689C115.759 44.898 115.34 44.6247 115.173 44.5154C115.344 44.9853 115.293 45.4295 115.824 45.8959C115.602 45.8703 115.212 45.7354 115.1 45.5424C115.329 46.289 114.797 45.8227 114.775 46.4054C114.885 46.2379 114.16 45.8844 114.52 45.8809C113.49 45.4471 114.305 46.5764 113.639 46.4997L114.116 47.0497C114.09 47.2719 113.588 46.9439 113.391 46.6962C112.838 46.8126 113.063 47.1987 112.954 47.3662C112.87 47.3115 112.786 47.2569 112.786 47.2569L112.568 47.5918C112.735 47.7011 112.877 48.0326 113.296 48.3059C113.431 47.9163 113.318 47.7232 113.595 47.665Z" fill="#290B01"/>
<path d="M118.275 46.8982C118.107 46.7889 117.969 46.818 117.969 46.818C118.107 46.7889 118.191 46.8435 118.275 46.8982Z" fill="#290B01"/>
<path d="M112.555 52.002C113.393 52.5486 112.552 51.6415 112.858 51.7217C112.916 51.9985 113.473 52.2427 113.724 52.4067C112.745 51.5286 114.085 52.4031 114.052 51.9042C114.387 52.1228 114.362 52.345 114.78 52.6182C114.638 52.2868 114.69 51.8425 114.02 51.4053C114.238 51.0703 114.599 51.0668 114.624 50.8446C114.712 51.2598 115.24 51.3656 115.633 51.861C115.043 51.1179 114.534 50.0689 113.831 49.1327C114.501 49.57 114.585 49.6246 115.255 50.0619C115.976 50.0548 114.639 49.5409 115.109 49.3699L114.832 49.428C114.774 49.1512 114.104 48.714 113.657 48.3023L113.467 48.7757C112.965 48.4478 113.212 48.2512 113.183 48.1128C112.706 47.5627 112.655 48.007 112.236 47.7337C112.517 48.0361 112.324 48.1489 112.437 48.342L112.185 48.178C111.825 48.1815 112.302 48.7316 112.192 48.8991C112.109 48.8444 112.025 48.7898 112.025 48.7898C112.221 49.0375 112.585 49.3945 112.615 49.5329L112.669 49.4492C113.146 49.9992 113.346 50.6075 114.125 50.8772L113.685 51.1866C113.069 50.6656 112.119 49.926 112.199 49.6202L111.948 49.4562C111.42 49.3504 112.123 50.2866 112.764 50.5854C114.191 51.8751 112.381 51.1716 112.832 51.9438C112.414 51.6706 112.355 51.3938 112.075 51.0914C112.046 50.953 112.101 50.8693 112.519 51.1425C112.541 50.5599 111.096 50.2134 111.536 49.904C111.897 49.9005 112.042 50.5925 112.29 50.3959L111.282 49.3795C111.172 49.547 111.314 49.8784 111.289 50.1006C111.441 51.5136 110.389 51.6626 110.389 51.6626L108.126 55.6787C108.02 56.2067 107.827 56.3195 108.89 57.2522C109.196 57.3324 109.276 57.0265 109.64 57.3836C109.276 57.0265 109.134 56.6951 109.244 56.5276C109.662 56.8009 109.302 56.8044 109.469 56.9137C109.72 57.0777 109.749 57.2161 109.779 57.3545C110.558 57.6242 110.802 57.0671 110.074 56.3531C110.602 56.4589 110.635 56.9578 110.915 57.2602C111.687 56.8089 111.96 56.3902 112.452 55.6365C111.699 55.1446 112.004 55.2248 111.557 54.8131L111.863 54.8933C111.695 54.784 111.247 54.3724 111.025 54.3468C111.83 54.3944 110.348 53.1885 110.177 52.7186L110.596 52.9919C110.676 52.686 110.676 52.686 110.673 52.3255C111.645 52.4824 110.538 52.7151 111.597 53.2872L111.484 53.0942C111.765 53.3966 112.38 53.9175 112.66 54.2199C112.209 53.4477 113.239 53.8814 112.956 53.2185C113.32 53.5755 113.436 54.1291 113.465 54.2675C113.604 54.2384 113.433 53.7686 113.851 54.0419L113.32 53.5755C113.4 53.2696 113.767 53.9872 114.157 54.1221C114.594 53.4521 112.562 52.7231 112.555 52.002Z" fill="#290B01"/>
<path d="M116.501 47.0542C116.363 47.0833 116.447 47.1379 116.392 47.2217C116.392 47.2217 116.447 47.1379 116.501 47.0542Z" fill="#290B01"/>
<path d="M117.524 49.5128C117.272 49.3488 117.327 49.2651 116.992 49.0465C117.16 49.1558 117.05 49.3233 117.524 49.5128Z" fill="#290B01"/>
<path d="M128.426 32.626C128.258 32.5167 128.2 32.2399 128.033 32.1306L128.091 32.4074L128.426 32.626Z" fill="#290B01"/>
<path d="M127.483 32.6075L127.122 32.611L127.821 33.1866C128.014 33.0738 127.457 32.8296 127.483 32.6075Z" fill="#290B01"/>
<path d="M126.736 32.8365L126.623 32.6435C126.652 32.7819 126.736 32.8365 126.736 32.8365Z" fill="#290B01"/>
<path d="M127.071 33.0552L127.602 33.5215L127.348 32.997L127.071 33.0552C126.958 32.8621 126.82 32.8912 126.736 32.8365L127.1 33.1936C127.1 33.1936 127.016 33.1389 127.071 33.0552Z" fill="#290B01"/>
<path d="M125.574 33.153C125.796 33.1786 126.022 33.5647 126.273 33.7286C126.634 33.7251 125.796 33.1786 126.157 33.175C126.411 33.6996 126.546 33.3099 126.936 33.4448C126.379 33.2006 125.989 33.0657 125.712 33.1239L126.047 33.3425C125.993 33.4263 125.796 33.1786 125.574 33.153Z" fill="#290B01"/>
<path d="M125.839 34.7592L125.446 34.2637C125.697 34.4277 125.861 34.1765 126.364 34.5044C126.335 34.366 126.084 34.202 126.054 34.0636C126.36 34.1439 126.612 34.3079 126.248 33.9508C125.639 34.1509 125.581 33.8741 125.195 34.0998C125.111 34.0451 125.166 33.9614 125.166 33.9614L124.751 34.0487C125.337 34.4312 125.257 34.7371 125.839 34.7592Z" fill="#290B01"/>
<path d="M125.202 34.8208C125.311 34.6533 124.864 34.2416 124.474 34.1068L124.674 34.715C124.729 34.6313 124.754 34.4091 125.202 34.8208Z" fill="#290B01"/>
<path d="M125.038 35.0721C124.732 34.9918 124.091 34.693 124.484 35.1884C124.565 34.8825 125.264 35.4582 125.038 35.0721Z" fill="#290B01"/>
<path d="M123.716 36.0003L124.269 35.8839C124.994 36.2374 124.411 36.2154 124.608 36.4631C124.939 36.3212 124.633 36.2409 124.379 35.7164C124.433 35.6327 124.153 35.3303 124.095 35.0535C124.353 35.9386 122.678 34.8455 123.716 36.0003Z" fill="#290B01"/>
<path d="M124.823 35.7676L124.626 35.5198L124.768 35.8513L124.823 35.7676Z" fill="#290B01"/>
<path d="M122.47 36.2621C121.523 35.883 122.616 36.954 122.171 36.9029C122.088 36.8482 122.088 36.8483 122.058 36.7099L122.033 36.932L121.865 36.8227C122.368 37.1506 122.426 37.4274 122.706 37.7298C123.318 37.8902 122.175 37.2634 122.87 37.4785C123.067 37.7262 123.402 37.9449 123.569 38.0542C123.373 37.8065 123.176 37.5588 122.841 37.3401C122.867 37.118 123.147 37.4204 123.315 37.5297C123.173 37.1982 122.419 36.7063 122.696 36.6481C123.224 36.7539 123.311 37.1692 123.308 36.8086C122.499 36.4005 123.555 36.6121 123.191 36.255C123.468 36.1969 123.996 36.3026 124.276 36.605C123.69 36.2224 123.297 35.727 123.184 35.534L123.468 36.1968L122.743 35.8433C122.802 36.1201 122.692 36.2876 122.47 36.2621Z" fill="#290B01"/>
<path d="M123.376 38.1671C123.46 38.2217 123.46 38.2217 123.489 38.3601C123.544 38.2764 123.46 38.2217 123.376 38.1671Z" fill="#290B01"/>
<path d="M124.36 36.6596L124.473 36.8526L124.779 36.9329L124.36 36.6596Z" fill="#290B01"/>
<path d="M123.769 38.6624C123.769 38.6624 123.573 38.4147 123.518 38.4984L123.799 38.8008L123.769 38.6624Z" fill="#290B01"/>
<path d="M123.241 38.5567L122.768 38.3671L123.048 38.6695L123.241 38.5567Z" fill="#290B01"/>
<path d="M120.145 42.3867C120.505 42.3832 119.948 42.139 119.668 41.8366C119.42 42.0332 120.086 42.1099 120.145 42.3867Z" fill="#290B01"/>
<path d="M119.036 45.3653C119.481 45.4164 119.033 45.0047 119.142 44.8373C118.836 44.757 118.84 45.1176 119.036 45.3653Z" fill="#290B01"/>
<path d="M119.862 47.5762C119.695 47.4669 119.666 47.3285 119.527 47.3576L118.799 46.6435C118.439 46.647 119.444 47.3029 119.862 47.5762Z" fill="#290B01"/>
<path d="M119.126 48.887L118.955 48.4171L118.901 48.5008C118.62 48.1985 118.453 48.0892 118.256 47.8415C118.314 48.1183 118.54 48.5044 119.126 48.887Z" fill="#290B01"/>
<path d="M118.198 47.5646C118.198 47.5646 118.143 47.6484 118.198 47.5646C118.311 47.7577 118.449 47.7286 118.198 47.5646Z" fill="#290B01"/>
<path d="M118.089 47.7322L118.173 47.7869C118.173 47.7869 118.227 47.7031 118.089 47.7322C118.06 47.5938 118.06 47.5938 118.089 47.7322Z" fill="#290B01"/>
<path d="M118.653 48.6974L118.518 49.087L118.795 49.0288C118.238 48.7846 119.184 49.1637 118.653 48.6974Z" fill="#290B01"/>
<path d="M116.948 50.2117L116.446 49.8838C116.198 50.0804 117.123 51.0421 116.176 50.6631C116.565 50.798 116.653 51.2131 116.984 51.0712C116.536 50.6595 116.755 50.3246 116.948 50.2117Z" fill="#290B01"/>
<path d="M115.648 50.5574C115.48 50.4481 115.397 50.3934 115.229 50.2841C115.091 50.3132 115.287 50.5609 115.539 50.7249C114.923 50.2039 116.012 50.9144 115.648 50.5574Z" fill="#290B01"/>
<path d="M114.992 51.5623C115.047 51.4786 115.018 51.3402 114.879 51.3692C114.77 51.5367 115.356 51.9193 115.636 52.2217C116.026 52.3566 115.298 51.6425 114.992 51.5623Z" fill="#290B01"/>
<path d="M110.211 50.4717C110.629 50.745 110.739 50.5775 110.571 50.4682C110.655 50.5228 110.462 50.6357 110.211 50.4717Z" fill="#290B01"/>
<path d="M113.786 53.044L113.924 53.0149L113.309 52.4939L113.786 53.044Z" fill="#290B01"/>
<path d="M113.356 54.4351L113.665 54.8759L113.745 54.57L113.356 54.4351Z" fill="#290B01"/>
<path d="M113.024 54.577L112.915 54.7444L113.137 54.77C113.359 54.7956 113.053 54.7154 113.024 54.577Z" fill="#290B01"/>
<path d="M112.726 55.2178C112.726 55.2178 112.725 55.2178 112.864 55.1887L112.722 54.8573L112.726 55.2178Z" fill="#290B01"/>
<path d="M107.911 56.3742C107.547 56.0172 107.689 56.3487 107.55 56.3778C107.634 56.4324 108.275 56.7312 107.911 56.3742Z" fill="#290B01"/>
</g>
<g opacity="0.78">
<path d="M193.657 108.875C193.627 108.736 193.598 108.598 193.54 108.321C193.486 108.405 193.515 108.543 193.657 108.875Z" fill="#290B01"/>
<path d="M184.788 112.4C184.871 112.455 184.788 112.4 184.788 112.4L184.9 112.594L184.788 112.4Z" fill="#290B01"/>
<path d="M184.9 112.594L185.155 113.118C185.181 112.896 185.068 112.703 184.9 112.594Z" fill="#290B01"/>
<path d="M192.562 104.697C192.587 104.475 192.558 104.337 192.471 103.921L192.562 104.697Z" fill="#290B01"/>
<path d="M190.436 102.832C190.352 102.777 190.323 102.639 190.239 102.584C190.323 102.639 190.352 102.777 190.436 102.832Z" fill="#290B01"/>
<path d="M202.041 106.824C202.07 106.962 202.07 106.962 202.099 107.1C202.153 107.017 202.07 106.962 202.041 106.824Z" fill="#290B01"/>
<path d="M202.223 105.629C202.307 105.684 202.362 105.6 202.362 105.6L202.332 105.462C202.303 105.323 202.278 105.545 202.223 105.629Z" fill="#290B01"/>
<path d="M203.188 96.4667L202.988 95.8584C203.046 96.1352 203.075 96.2736 203.188 96.4667Z" fill="#290B01"/>
<path d="M202.215 107.654C202.186 107.516 202.157 107.377 202.099 107.1C202.128 107.239 202.073 107.322 202.215 107.654Z" fill="#290B01"/>
<path d="M193.715 109.151C193.686 109.013 193.602 108.958 193.657 108.875C193.686 109.013 193.769 109.068 193.715 109.151Z" fill="#290B01"/>
<path d="M182.092 114.701C182.037 114.785 181.983 114.869 182.012 115.007C182.234 115.033 182.205 114.894 182.092 114.701Z" fill="#290B01"/>
<path d="M199.291 106.462C198.414 104.695 199.539 106.265 198.829 104.608C198.778 105.053 198.836 105.329 198.301 104.502C198.014 103.479 198.717 104.415 198.12 102.951L198.127 103.672C197.621 102.984 197.359 101.738 197.25 101.905C197.908 104.007 196.219 101.472 196.084 101.861L196.11 101.639L195.298 100.871C195.298 100.871 195.214 100.816 195.269 100.732C195.298 100.871 195.382 100.925 195.411 101.064C194.792 100.182 194.232 99.5773 194.013 99.9123C194.413 101.129 193.244 100.724 193.532 101.748C193.528 101.387 193.666 101.358 193.918 101.522L194.485 102.848C194.154 102.99 193.863 101.606 193.983 102.52C194.86 104.286 194.369 102.294 194.62 102.458C194.791 102.928 194.795 103.288 194.769 103.511C195.184 103.423 195.854 103.861 195.309 101.952C195.589 102.254 195.902 103.056 195.876 103.278C195.698 102.087 196.579 104.214 196.346 103.107C197.001 104.848 196.164 104.301 196.313 105.354C195.275 104.199 195.428 105.612 195.238 106.086C194.616 104.843 194.438 103.653 193.877 103.048C193.094 102.418 193.775 103.936 193.866 104.712C193.363 104.384 192.847 102.614 192.377 102.785L192.257 101.871C191.132 100.301 192.348 102.647 192.013 102.428C192.322 102.869 192.548 103.255 192.741 103.142C193.079 103.721 193.028 104.166 192.973 104.249L193.057 104.304C193.399 105.244 193.796 106.1 193.293 105.772C192.977 104.61 192.649 105.112 192.34 104.672L192.282 104.395C192.23 104.839 192.008 104.813 191.928 105.119L191.87 104.843C191.902 105.341 192.47 106.667 192.135 106.449C191.88 105.924 191.422 104.431 191.342 104.737C191.029 103.935 191.277 103.739 191.612 103.957C191.222 103.823 190.461 102.61 190.709 102.413C190.145 101.448 190.687 102.996 190.239 102.584C190.436 102.832 190.523 103.247 190.719 103.495C190.013 102.198 190.111 103.695 190.592 104.605L190.472 103.691C190.981 104.74 191.017 105.6 191.494 106.15C190.508 104.551 191.228 107.29 190.384 106.022L190.919 106.849C190.085 106.663 190.659 108.71 190.39 109.489C190.328 108.852 189.313 107.114 189.982 107.551C189.316 107.475 188.829 105.843 188.155 105.045C187.347 104.637 188.894 106.841 189.094 107.449L189.2 106.921C189.971 109.216 187.925 107.044 188.052 108.68C187.659 108.184 187.965 108.264 187.99 108.042C187.149 107.135 187.855 108.432 187.943 108.847C187.582 108.851 186.996 108.468 186.428 107.142C185.955 106.953 186.88 107.914 187.051 108.384L186.854 108.137L187.48 109.739C186.977 109.411 186.224 108.919 185.408 107.79C185.026 108.376 186.991 110.853 186.915 111.52C186.299 110.999 186.351 110.555 186.096 110.03L185.877 110.365C185.058 108.875 185.812 109.367 184.826 107.768C185.51 109.647 184.694 108.518 184.985 109.902L185.153 110.012C185.691 111.199 184.799 110.736 184.719 111.042C184.351 110.324 184.599 110.128 184.595 109.767C184.009 109.385 183.63 110.332 184.394 111.905C184.143 111.741 183.419 111.388 183.189 110.641C182.497 110.786 184.376 112.848 183.626 112.717L182.894 111.642C181.274 110.465 182.886 113.667 181.433 112.6L182.362 113.922C181.83 113.456 181.44 113.321 181.047 112.825L180.986 112.188C180.006 111.31 181.524 113.375 180.687 112.829C180.996 113.27 181.863 113.954 182.172 114.395C182.602 113.004 184.805 114.203 184.897 112.233C184.729 112.124 184.617 111.931 184.42 111.683C184.755 111.901 184.722 111.403 185.174 112.175L185.203 112.313C185.254 111.869 186.572 113.326 186.765 113.213C186.339 112.219 187.57 113.261 186.39 111.775L187.231 112.682C186.893 112.103 186.441 111.33 186.354 110.915C186.576 110.941 186.998 111.575 187.169 112.044C188.225 112.256 188.94 111.528 189.402 110.636L189.661 111.521C190.079 111.794 189.45 109.831 190.524 111.845C190.458 110.847 191.827 111.86 190.67 109.791C191.991 111.609 191.977 110.167 192.305 109.664C191.29 107.927 192.437 108.914 192.178 108.029C192.968 109.381 192.527 109.69 192.924 110.546C192.346 108.139 195.123 111.384 193.562 107.738C193.73 107.848 193.759 107.986 193.788 108.124C193.926 108.095 194.319 108.591 194.487 108.7C194.203 108.037 193.868 107.819 194.032 107.567C194.254 107.593 194.68 108.587 194.989 109.028C194.924 108.03 195.307 107.444 194.71 105.98C194.99 106.282 195.525 107.109 195.584 107.386C195.653 105.998 196.221 107.324 196.516 106.323C196.323 106.436 197.142 107.925 196.527 107.404C197.655 109.335 197.295 106.592 198.275 107.47L197.846 106.116C198.064 105.781 198.603 106.968 198.581 107.551C199.418 108.097 199.298 107.183 199.713 107.096C199.826 107.289 199.939 107.482 199.801 107.511L200.409 107.311C200.267 106.98 200.26 106.258 199.863 105.403C199.706 106.375 199.823 106.928 199.291 106.462Z" fill="#290B01"/>
<path d="M199.477 105.628L199.448 105.49C199.448 105.49 199.448 105.49 199.477 105.628Z" fill="#290B01"/>
<path d="M191.761 102.264C191.958 102.512 192.071 102.705 192.155 102.76C192.042 102.566 191.929 102.373 191.761 102.264Z" fill="#290B01"/>
<path d="M203.787 101.037C202.936 99.0486 203.598 101.511 203.066 101.044C203.201 100.655 202.662 99.4673 202.408 98.9428C203.128 101.682 201.821 98.5602 201.468 99.2848C201.071 98.4289 201.319 98.2323 201.032 97.2089C200.984 98.0137 200.656 98.5161 201.114 100.009C200.59 100.264 200.004 99.8816 199.785 100.217C199.916 99.4664 199.243 98.6686 199.036 97.3393C199.359 99.2222 199.355 101.608 199.682 103.851C198.918 102.277 198.888 102.139 198.292 100.675C197.258 99.8806 198.695 102.252 197.916 101.982L198.306 102.117C198.284 102.7 198.881 104.164 199.197 105.326L199.747 104.849C200.202 105.982 199.758 105.93 199.761 106.291C200.136 107.73 200.518 107.143 200.944 108.138C200.686 107.253 201.075 107.388 200.988 106.972L201.243 107.497C201.774 107.963 201.316 106.47 201.648 106.328C201.76 106.521 201.789 106.66 201.873 106.714C201.728 106.022 201.469 105.137 201.55 104.831L201.44 104.999C201.12 103.476 201.387 102.337 200.375 100.96L201.209 101.146C201.751 102.694 202.551 105.127 202.278 105.545L202.562 106.208C203.151 106.951 202.879 104.624 202.118 103.411C200.943 99.5396 203.084 102.847 203.011 101.128C203.437 102.122 203.331 102.65 203.422 103.426C203.313 103.594 203.258 103.677 202.861 102.821C202.453 103.63 204.252 105.998 203.363 105.895C202.777 105.513 203.123 104.067 202.57 104.183L203.348 107.199C203.596 107.002 203.756 106.391 203.807 105.946C204.533 103.554 206.153 104.731 206.153 104.731C208.083 103.603 210.182 102.584 212.225 101.648C212.746 101.033 213.052 101.113 212.412 98.0686C212.073 97.4895 211.8 97.9082 211.596 96.9394C211.829 98.0466 211.752 98.713 211.392 98.7165C211.021 97.6384 211.552 98.1047 211.356 97.857L211.272 97.8024C211.156 97.2488 211.068 96.8336 211.207 96.8045C210.333 95.3985 209.645 95.9044 209.943 98.0095C209.24 97.0733 209.648 96.265 209.558 95.4892C208.167 95.059 207.394 95.5104 206.149 95.7721C206.749 97.5969 206.411 97.0177 206.672 98.2633L206.388 97.6004C206.53 97.9318 206.876 99.2321 207.156 99.5344C206.035 98.325 207.21 102.197 207.053 103.169L206.711 102.229C206.409 102.51 206.354 102.593 206.194 103.205C204.93 101.664 206.605 102.757 205.612 100.437L205.561 100.881C205.302 99.9963 204.87 98.2809 204.808 97.6435C204.742 99.3916 203.807 97.3482 203.515 98.7101C203.144 97.632 203.439 96.6307 203.603 96.3794C203.381 96.3539 203.279 97.2424 202.853 96.2481L203.282 97.6029C202.98 97.8833 202.882 96.3865 202.431 95.6142C201.91 96.2295 204.221 100.007 203.787 101.037Z" fill="#290B01"/>
<path d="M194.663 104.039C194.831 104.148 194.886 104.064 194.911 103.842C194.773 103.871 194.773 103.871 194.663 104.039Z" fill="#290B01"/>
<path d="M195.298 100.871C195.185 100.678 195.156 100.539 195.127 100.401C195.156 100.539 195.185 100.678 195.298 100.871Z" fill="#290B01"/>
<path d="M194.669 98.9074C195.007 99.4866 194.869 99.5157 195.098 100.262C195.095 99.9018 195.342 99.7052 194.669 98.9074Z" fill="#290B01"/>
<path d="M168.449 117.858C168.729 118.16 168.791 118.797 169.151 118.794C169.093 118.517 169.119 118.295 169.06 118.018L168.449 117.858Z" fill="#290B01"/>
<path d="M170.226 118.062L170.892 118.139L169.658 116.736C169.356 117.017 170.444 117.727 170.226 118.062Z" fill="#290B01"/>
<path d="M171.723 117.964L171.948 118.35C171.89 118.074 171.806 118.019 171.723 117.964Z" fill="#290B01"/>
<path d="M171.162 117.36L170.292 116.314L170.663 117.392L171.024 117.389C171.388 117.746 171.61 117.771 171.777 117.88L171.188 117.137C171.133 117.221 171.246 117.414 171.162 117.36Z" fill="#290B01"/>
<path d="M173.86 118.165C173.442 117.892 173.019 117.258 172.626 116.763C171.96 116.686 173.416 118.114 172.72 117.899C172.266 116.766 172.051 117.462 171.326 117.108C172.36 117.903 173.114 118.394 173.613 118.362L173.052 117.757C173.216 117.506 173.525 117.947 173.86 118.165Z" fill="#290B01"/>
<path d="M173.748 115.226L174.425 116.385C173.978 115.973 173.621 116.337 172.696 115.375C172.67 115.597 173.063 116.093 173.205 116.424C172.619 116.042 172.2 115.768 172.79 116.512C173.901 116.639 173.988 117.055 174.68 116.909C174.877 117.157 174.793 117.102 174.655 117.131L175.434 117.401C174.451 116.163 174.724 115.744 173.748 115.226Z" fill="#290B01"/>
<path d="M174.834 115.576C174.67 115.828 175.317 116.847 176.071 117.339L175.893 116.148C175.784 116.316 175.62 116.567 174.834 115.576Z" fill="#290B01"/>
<path d="M175.22 115.351C175.806 115.733 176.869 116.666 176.137 115.591C176.057 115.897 174.794 114.356 175.22 115.351Z" fill="#290B01"/>
<path d="M177.765 114.743L176.764 114.448C175.559 113.184 176.648 113.894 176.28 113.177C175.643 113.239 176.145 113.567 176.516 114.645C176.378 114.674 176.691 115.475 176.862 115.945C176.542 114.422 179.29 117.53 177.765 114.743Z" fill="#290B01"/>
<path d="M175.708 114.236L176.046 114.816L175.93 114.262L175.708 114.236Z" fill="#290B01"/>
<path d="M179.99 115.36C181.501 116.704 179.783 114.03 180.675 114.493C180.704 114.632 180.872 114.741 180.93 115.018L181.065 114.628L181.345 114.93C180.643 113.994 180.581 113.357 180.184 112.501C179.15 111.707 180.89 113.798 179.827 112.865C179.573 112.34 179.15 111.707 178.925 111.321C179.125 111.929 179.463 112.508 179.886 113.142C179.722 113.393 179.383 112.814 179.157 112.428C179.387 113.174 180.399 114.551 179.87 114.445C179.004 113.761 178.997 113.039 178.836 113.651C180.209 115.025 178.338 113.684 178.931 114.788C178.403 114.682 177.591 113.913 177.114 113.363C178.068 114.463 178.606 115.65 178.723 116.204L178.377 114.904L179.582 116.168C179.324 115.283 179.601 115.225 179.99 115.36Z" fill="#290B01"/>
<path d="M178.925 111.32C178.896 111.182 178.812 111.127 178.783 110.989C178.783 110.989 178.812 111.127 178.925 111.32Z" fill="#290B01"/>
<path d="M176.75 113.006L176.608 112.674L176.244 112.317L176.75 113.006Z" fill="#290B01"/>
<path d="M178.386 110.133C178.248 110.162 178.641 110.658 178.696 110.574L178.328 109.856L178.386 110.133Z" fill="#290B01"/>
<path d="M179.336 110.873L180.064 111.587L179.697 110.869L179.336 110.873Z" fill="#290B01"/>
<path d="M186.21 107.477C185.678 107.011 186.271 108.115 186.723 108.887C187.167 108.938 186.242 107.976 186.21 107.477Z" fill="#290B01"/>
<path d="M189.641 103.866C189.026 103.345 189.397 104.423 189.066 104.565C189.652 104.947 189.787 104.558 189.641 103.866Z" fill="#290B01"/>
<path d="M189.708 99.3719C189.796 99.7871 189.825 99.9255 189.992 100.035L190.705 102.053C191.43 102.406 190.16 100.144 189.708 99.3719Z" fill="#290B01"/>
<path d="M191.803 97.9924L191.784 98.9356L192.007 98.9612C192.32 99.7625 192.407 100.178 192.552 100.87C192.574 100.287 192.454 99.3728 191.803 97.9924Z" fill="#290B01"/>
<path d="M192.334 101.205C192.388 101.121 192.388 101.121 192.443 101.037C192.33 100.844 192.134 100.596 192.334 101.205Z" fill="#290B01"/>
<path d="M192.581 101.008C192.552 100.87 192.552 100.87 192.523 100.731C192.552 100.87 192.498 100.953 192.443 101.037C192.556 101.23 192.669 101.423 192.581 101.008Z" fill="#290B01"/>
<path d="M192.476 98.7901L193.027 98.3132L192.608 98.0399C193.092 99.3111 191.993 97.519 192.476 98.7901Z" fill="#290B01"/>
<path d="M196.078 98.3945L196.672 99.4981C197.2 99.6039 196.618 96.836 197.579 98.6572C197.073 97.9687 197.342 97.1895 196.731 97.029C197.047 98.1909 196.468 98.5294 196.078 98.3945Z" fill="#290B01"/>
<path d="M198.281 99.5934C198.368 100.009 198.536 100.118 198.762 100.504C198.929 100.613 198.867 99.9759 198.558 99.5352C199.1 101.083 197.994 98.5699 198.281 99.5934Z" fill="#290B01"/>
<path d="M199.964 98.6615C199.909 98.7453 199.8 98.9128 199.997 99.1605C200.244 98.9639 199.677 97.6381 199.502 96.8077C199.025 96.2577 199.487 98.1115 199.964 98.6615Z" fill="#290B01"/>
<path d="M205.948 106.508C205.523 105.514 205.359 105.765 205.362 106.125C205.388 105.903 205.723 106.122 205.948 106.508Z" fill="#290B01"/>
<path d="M202.841 97.9124L202.59 97.7484L203.077 99.3801L202.841 97.9124Z" fill="#290B01"/>
<path d="M204.546 96.3979L204.452 95.2617L204.15 95.542L204.546 96.3979Z" fill="#290B01"/>
<path d="M204.99 96.4492L205.322 96.3073L205.096 95.9211C204.816 95.6188 205.129 96.4201 204.99 96.4492Z" fill="#290B01"/>
<path d="M205.956 95.885C205.985 96.0234 205.872 95.8304 205.759 95.6373L205.712 96.4421L205.956 95.885Z" fill="#290B01"/>
<path d="M213.463 100.666C213.696 101.773 213.827 101.023 213.94 101.216C213.882 100.939 213.314 99.6131 213.463 100.666Z" fill="#290B01"/>
</g>
</svg>
