<svg width="305" height="301" viewBox="0 0 305 301" fill="none" xmlns="http://www.w3.org/2000/svg">
<path d="M21.0222 199.577C21.0222 199.577 12.3037 197.846 32.364 209.527C52.4244 221.209 160.332 279.616 172.088 284.568C183.757 289.472 205.098 301.728 177.75 283.749C150.402 265.77 119.996 251.37 91.9041 234.353C63.8594 217.248 26.8466 199.3 21.0222 199.577Z" fill="#1B1C1E"/>
<path d="M82.7549 141.697C82.7549 141.697 71.2894 204.893 69.0231 213.551C69.0231 213.551 59.51 209.918 55.1506 218.246C55.1506 218.246 66.8677 224.539 68.1892 225.249C69.5107 225.959 75.6679 220.412 75.6679 220.412C75.6679 220.412 101.821 167.487 109.592 157.245C117.363 147.003 87.5809 132.71 82.7549 141.697Z" fill="#637189"/>
<g opacity="0.88">
<path d="M87.4745 153.199L87.7992 152.805C87.7927 153.029 87.6573 153.07 87.4745 153.199Z" fill="#080809"/>
<path d="M93.3085 161.78C93.3493 161.916 93.2547 162.092 93.1127 162.356L93.3085 161.78Z" fill="#080809"/>
<path d="M91.2642 162.839C91.2169 162.927 91.0815 162.968 91.0815 162.968C91.1288 162.88 91.2169 162.927 91.2642 162.839Z" fill="#080809"/>
<path d="M102.169 163.247C102.257 163.294 102.257 163.294 102.257 163.294L102.21 163.382C102.115 163.559 102.21 163.382 102.169 163.247Z" fill="#080809"/>
<path d="M101.573 163.722L101.614 163.857C101.662 163.769 101.662 163.769 101.573 163.722Z" fill="#080809"/>
<path d="M102.35 161.642C102.303 161.73 102.208 161.906 102.202 162.129C102.208 161.906 102.12 161.859 102.35 161.642Z" fill="#080809"/>
<path d="M85.3585 150.586C85.3178 150.451 85.3651 150.363 85.3243 150.228C85.6359 150.281 85.5413 150.458 85.3585 150.586Z" fill="#080809"/>
<path d="M99.5668 161.963C98.6809 163.19 99.7838 162.193 98.986 163.467C99.0398 163.156 99.0937 162.844 98.539 163.454C98.2485 164.206 98.8914 163.643 98.2355 164.653L98.2959 164.118C97.8358 164.552 97.4507 165.48 97.41 165.345C98.2616 163.759 96.4213 165.495 96.2989 165.089L96.2924 165.312L95.4734 165.781L95.4261 165.869C95.4734 165.781 95.5207 165.692 95.568 165.604C94.9252 166.167 94.377 166.554 94.2074 166.236C94.6805 165.355 93.5629 165.322 93.9415 164.617C93.8876 164.929 93.9757 164.976 94.2465 164.895L94.9024 163.885C94.6381 163.743 94.2058 164.759 94.4081 163.96C95.4294 162.692 94.7131 164.237 94.984 164.156C95.1732 163.803 95.2271 163.492 95.2336 163.268C95.586 163.457 96.2631 163.253 95.5941 164.71C95.9123 164.541 96.2435 163.924 96.25 163.7C95.9531 164.676 96.9401 163.049 96.6905 163.937C97.4883 162.663 96.6285 162.996 96.8782 162.108C95.9172 162.841 96.0853 161.682 95.8748 161.229C95.1782 162.103 94.8812 163.079 94.333 163.465C93.5613 163.846 94.3526 162.795 94.5076 162.084C94.0133 162.159 93.3917 163.527 92.9512 163.291L92.7489 164.09C91.5987 165.175 92.9039 163.379 92.5857 163.549C92.8631 163.244 93.1404 162.938 93.2693 163.121C93.6413 162.64 93.6478 162.416 93.6071 162.281L93.6951 162.328C94.0737 161.624 94.5403 160.966 94.0867 161.177C93.6609 161.969 93.4504 161.516 93.1731 161.821L93.0785 161.997C93.0442 161.638 92.868 161.544 92.8272 161.408L92.7326 161.584C92.8337 161.185 93.5304 160.31 93.1715 160.344C92.8468 160.738 92.3671 161.842 92.2856 161.571C91.8663 162.141 92.0833 162.371 92.4422 162.336C92.0833 162.371 91.2985 163.198 91.5155 163.428C90.9608 164.038 91.5286 162.981 91.2104 163.151C91.4405 162.934 91.5824 162.669 91.677 162.493C90.933 163.456 91.1484 162.209 91.7031 161.599L91.5481 162.31C92.1502 161.612 92.3052 160.901 92.7179 160.555C91.7031 161.599 92.6152 159.478 91.695 160.346L92.2905 159.871C91.4846 159.892 92.2954 158.171 92.0915 157.494C91.943 157.982 90.8336 159.202 91.5107 158.998C90.8874 158.891 90.3605 160.083 89.6296 160.599C88.8644 160.755 90.4274 159.325 90.7113 158.796L90.6982 159.243C91.6853 157.617 89.5937 158.763 89.9445 157.476C89.5317 157.822 89.8025 157.741 89.796 157.964C88.9297 158.52 89.7618 157.605 89.8629 157.205C89.5513 157.152 88.9689 157.179 88.313 158.189C87.866 158.176 88.8204 157.667 89.0096 157.315L88.8269 157.444L89.5774 156.258C89.0831 156.333 88.406 156.536 87.5332 157.316C87.2819 156.727 89.3392 155.222 89.3115 154.639C88.7226 154.89 88.7095 155.337 88.4321 155.642L88.2625 155.324C87.3831 156.328 88.0602 156.124 86.9981 157.256C87.8432 155.894 87.0176 156.585 87.45 155.569L87.5854 155.528C88.194 154.606 87.3815 154.851 87.3472 154.492C86.9753 154.974 87.1449 155.292 87.0911 155.603C86.4613 155.719 86.352 154.866 87.1906 153.727C86.9671 153.721 86.2493 153.789 86.0062 154.453C85.4776 154.169 87.2575 152.968 86.6343 152.861L85.8088 153.552C84.2719 154.089 86.0372 151.859 84.6831 152.267L85.6914 151.446C85.1905 151.745 84.8789 151.691 84.4253 151.901L84.2768 152.389C83.3224 152.898 84.8854 151.467 84.161 151.759C84.5265 151.502 85.2982 151.122 85.6636 150.864C85.8006 152.3 87.9607 151.87 87.7323 153.564C87.5969 153.605 87.4141 153.734 87.2314 153.862C87.5022 153.781 87.4011 154.181 87.9085 153.659L87.9558 153.57C87.9427 154.017 89.2218 153.115 89.398 153.21C88.796 153.908 90.1093 153.365 88.9183 154.314L89.7374 153.846C89.4127 154.239 88.8172 154.714 88.7634 155.026C88.9869 155.032 89.3996 154.686 89.5889 154.334C90.5237 154.496 91.0392 155.226 91.3247 156.174L91.6559 155.558C92.0622 155.435 91.3459 156.98 92.3738 155.489C92.1715 156.289 93.4375 155.833 92.2334 157.23C93.6545 156.063 93.4391 157.31 93.6495 157.763C92.5874 158.896 93.6773 158.346 93.2988 159.051C94.1308 158.135 93.7377 157.811 94.2924 157.201C93.5223 159.057 96.3105 157.036 94.5321 159.713C94.6675 159.672 94.7149 159.584 94.8095 159.408C94.8976 159.455 95.3104 159.109 95.5339 159.116C95.25 159.645 94.8911 159.679 94.9726 159.95C95.1961 159.956 95.7101 159.211 95.9401 158.994C95.8259 159.84 96.0771 160.429 95.4213 161.439C95.7394 161.27 96.2468 160.747 96.3006 160.436C96.2207 161.642 96.8765 160.632 96.9858 161.485C96.857 161.302 97.689 160.387 97.1474 160.55C98.3922 159.289 97.751 161.328 98.6581 160.907L98.1784 162.012C98.3481 162.33 98.9567 161.408 99.0578 161.009C99.8703 160.764 99.7153 161.475 100.068 161.664C100.115 161.576 100.257 161.312 100.21 161.4L100.738 161.684C100.596 161.948 100.489 162.572 100.069 163.141C99.9192 162.152 100.02 161.753 99.5668 161.963Z" fill="#080809"/>
<path d="M92.403 163.678C92.633 163.461 92.7685 163.42 92.8158 163.332C92.633 163.461 92.5384 163.637 92.403 163.678Z" fill="#080809"/>
<path d="M103.257 167.35C102.317 168.889 103.047 166.897 102.634 167.243C102.668 167.601 102.107 168.435 101.87 168.876C102.782 166.755 101.281 169.127 101.077 168.45C100.746 169.066 100.828 169.337 100.449 170.042C100.469 169.372 100.17 168.871 100.785 167.725C100.392 167.401 99.8033 167.652 99.6809 167.246C99.7968 167.875 99.0658 168.391 98.7216 169.455C99.167 167.991 99.3139 166.027 99.8131 164.252C98.9745 165.391 98.9272 165.479 98.224 166.577C97.1815 167.039 98.751 165.384 98.0332 165.453L98.3921 165.418C98.4052 164.971 99.1083 163.873 99.5815 162.992L100.104 163.5C100.665 162.666 100.13 162.606 100.184 162.294C100.663 161.19 100.914 161.779 101.34 160.986C100.962 161.691 101.368 161.568 101.355 162.015L101.68 161.622C102.18 161.324 101.653 162.516 101.918 162.658C101.965 162.57 102.012 162.482 102.06 162.394C101.864 162.97 101.533 163.586 101.614 163.857L101.573 163.722C101.182 164.874 101.244 165.815 100.188 166.724L100.947 166.791C101.562 165.645 102.556 163.795 102.298 163.43L102.582 162.901C103.177 162.426 102.766 164.249 101.981 165.076C100.555 167.942 102.856 165.773 102.593 167.107C103.107 166.362 102.985 165.955 103.18 165.379C103.14 165.244 102.963 165.149 102.632 165.766C102.34 165.042 104.133 163.394 103.375 163.327C102.833 163.49 103.065 164.75 102.489 164.554L103.448 162.345C103.665 162.575 103.74 163.069 103.774 163.428C103.965 164.552 104.494 164.836 104.982 164.985C105.381 165.086 105.835 164.875 105.835 164.875C106.757 165.484 107.543 166.133 108.465 166.742L111.189 168.432C111.664 169.028 111.888 169.034 111.193 171.385C110.868 171.778 110.522 171.365 110.408 172.212C110.745 171.372 110.718 170.79 110.318 170.688C109.892 171.481 110.481 171.23 110.298 171.359L110.163 171.4C110.062 171.799 109.92 172.064 110.049 172.246C109.169 173.25 108.559 172.695 109.011 171.008C108.321 171.659 108.613 172.383 108.505 173.007C107.117 173.056 106.46 172.589 105.308 172.197C105.929 170.829 105.693 171.269 105.99 170.293L105.618 170.775C105.76 170.51 106.145 169.582 106.51 169.324C105.326 170.05 106.799 167.096 106.642 166.331L106.264 167.035C105.959 166.758 105.918 166.623 105.843 166.128C104.605 167.166 106.189 166.541 105.154 168.256L105.032 167.849C104.742 168.602 104.215 169.794 104.107 170.417C104.194 168.988 103.078 170.432 103.022 169.267C102.684 170.107 102.794 170.961 102.923 171.143C102.699 171.137 102.678 170.331 102.164 171.076L102.684 170.107C102.379 169.83 102.211 170.988 101.745 171.646C101.141 170.868 103.543 168.298 103.257 167.35Z" fill="#080809"/>
<path d="M95.1994 162.909C95.3348 162.868 95.3756 163.004 95.4163 163.139C95.3282 163.092 95.2401 163.045 95.1994 162.909Z" fill="#080809"/>
<path d="M94.6756 167.055C95.0002 166.662 94.9121 166.614 95.2433 165.998C95.1422 166.397 95.3592 166.627 94.6756 167.055Z" fill="#080809"/>
<path d="M74.6024 143.561C74.9205 143.392 75.069 142.904 75.3806 142.958C75.286 143.134 75.2795 143.357 75.1848 143.533L74.6024 143.561Z" fill="#080809"/>
<path d="M76.025 143.871L76.6009 144.067L75.3218 144.969C75.1114 144.516 76.1947 144.189 76.025 143.871Z" fill="#080809"/>
<path d="M77.2176 144.398L77.5358 144.229C77.4411 144.405 77.3057 144.446 77.2176 144.398Z" fill="#080809"/>
<path d="M76.6694 144.785L75.7558 145.429L76.2697 144.684L76.5813 144.738C76.8995 144.568 77.123 144.574 77.2584 144.534L76.6629 145.008C76.6221 144.873 76.8049 144.744 76.6694 144.785Z" fill="#080809"/>
<path d="M76.8391 145.103C76.7037 145.144 76.6564 145.232 76.521 145.273C76.5683 145.185 76.7037 145.144 76.8391 145.103Z" fill="#080809"/>
<path d="M79.0334 145.033C78.6272 145.155 78.1671 145.589 77.8017 145.847C77.2666 145.787 78.7218 144.979 78.0986 144.871C77.5374 145.705 77.4689 144.987 76.7918 145.191C77.787 144.817 78.4641 144.614 78.9046 144.85L78.2683 145.189C78.3564 145.237 78.7218 144.979 79.0334 145.033Z" fill="#080809"/>
<path d="M78.4265 147.431L79.1639 146.692C78.7104 146.903 78.4526 146.537 77.5863 147.093C77.5928 146.87 78.0464 146.659 78.1883 146.395C77.6467 146.558 77.2404 146.681 77.8359 146.206C78.8115 146.503 78.9127 146.103 79.4821 146.522C79.6648 146.394 79.5767 146.346 79.4886 146.299L80.1591 146.318C79.1574 146.916 79.3678 147.369 78.4265 147.431Z" fill="#080809"/>
<path d="M79.4086 147.505C79.3271 147.234 80.0172 146.583 80.6942 146.379L80.3092 147.307C80.2684 147.172 80.1869 146.901 79.4086 147.505Z" fill="#080809"/>
<path d="M79.6664 147.87C80.208 147.707 81.2506 147.245 80.5131 147.984C80.4789 147.625 79.1998 148.528 79.6664 147.87Z" fill="#080809"/>
<path d="M81.7335 149.094L80.8867 148.979C79.7023 149.705 80.7382 149.467 80.2782 149.901C79.7496 149.617 80.2439 149.542 80.6697 148.749C80.4935 148.655 81.0009 148.133 81.1902 147.78C80.6159 149.061 83.3976 147.263 81.7335 149.094Z" fill="#080809"/>
<path d="M79.9046 148.906L80.3174 148.56L80.0808 149.001L79.9046 148.906Z" fill="#080809"/>
<path d="M83.6504 149.329C85.1465 148.656 83.3062 150.392 84.1594 150.283C84.2067 150.195 84.3421 150.154 84.4368 149.978L84.471 150.337L84.7892 150.167C84.011 150.771 83.9506 151.306 83.4432 151.828C82.448 152.202 84.2752 150.913 83.2327 151.374C82.9554 151.679 82.448 152.202 82.2179 152.419C82.4545 151.978 82.9146 151.544 83.2392 151.151C83.1577 150.88 82.833 151.273 82.4676 151.531C82.7514 151.002 83.8951 150.141 83.36 150.081C82.5002 150.413 82.3925 151.037 82.3648 150.454C83.6847 149.687 81.9243 150.218 82.6144 149.567C82.2147 149.466 81.3076 149.886 80.8948 150.232C81.8558 149.5 82.5051 148.713 82.6944 148.361L82.1739 149.33L83.4465 148.651C83.1153 149.268 83.2915 149.363 83.5558 149.505L83.6504 149.329Z" fill="#080809"/>
<path d="M82.2179 152.419C82.1706 152.507 82.1233 152.595 82.076 152.683C81.9879 152.636 82.0352 152.547 82.2179 152.419Z" fill="#080809"/>
<path d="M80.624 150.314L80.4821 150.578L80.0758 150.701L80.624 150.314Z" fill="#080809"/>
<path d="M81.5686 153.205C81.4805 153.158 81.846 152.9 81.9341 152.947L81.474 153.381L81.5686 153.205Z" fill="#080809"/>
<path d="M82.5165 152.919L83.2409 152.627L82.7808 153.061L82.5165 152.919Z" fill="#080809"/>
<path d="M88.0552 157.824C87.5136 157.987 88.2037 157.336 88.7111 156.814C89.0227 156.868 88.0683 157.377 88.0552 157.824Z" fill="#080809"/>
<path d="M90.6672 161.837C90.0309 162.177 90.504 161.296 90.2397 161.154C90.7406 160.855 90.8156 161.349 90.6672 161.837Z" fill="#080809"/>
<path d="M90.2445 165.583C90.3865 165.319 90.393 165.095 90.6165 165.102L91.4209 163.604C92.0979 163.4 90.6638 165.014 90.2445 165.583Z" fill="#080809"/>
<path d="M91.8988 167.153L91.9657 166.394L92.1419 166.489C92.4731 165.872 92.6151 165.608 92.8108 165.032C92.8859 165.526 92.7309 166.237 91.8988 167.153Z" fill="#080809"/>
<path d="M92.7766 164.673L92.8174 164.808C92.6346 164.937 92.54 165.113 92.7766 164.673Z" fill="#080809"/>
<path d="M92.9936 164.903C92.9463 164.991 92.9463 164.991 92.8989 165.079C92.8582 164.944 92.9055 164.855 92.8174 164.808C92.9528 164.767 93.0474 164.591 92.9936 164.903Z" fill="#080809"/>
<path d="M92.6297 166.637L93.0164 167.185L92.6101 167.308C93.2595 166.521 92.0619 167.694 92.6297 166.637Z" fill="#080809"/>
<path d="M95.9024 167.941L96.5518 167.154C96.9988 167.167 96.2222 169.247 97.3316 168.027C96.8715 168.461 96.94 169.179 96.4049 169.119C96.7426 168.278 96.3087 167.818 95.9024 167.941Z" fill="#080809"/>
<path d="M97.9744 167.464C98.1164 167.2 98.2991 167.071 98.441 166.807C98.5764 166.766 98.5161 167.301 98.2387 167.606C98.9011 166.373 97.684 168.216 97.9744 167.464Z" fill="#080809"/>
<path d="M99.5537 168.539C99.4656 168.492 99.3367 168.309 99.6548 168.14C99.8718 168.37 99.2632 169.292 99.0201 169.956C98.472 170.342 99.0528 168.838 99.5537 168.539Z" fill="#080809"/>
<path d="M105.657 163.304C105.143 164.05 105.014 163.867 105.115 163.467C105.109 163.691 105.38 163.609 105.657 163.304Z" fill="#080809"/>
<path d="M102.115 169.688L101.932 169.817L102.459 168.624L102.115 169.688Z" fill="#080809"/>
<path d="M103.587 171.386L103.384 172.186L103.079 171.909L103.587 171.386Z" fill="#080809"/>
<path d="M104.034 171.4L104.339 171.677L104.021 171.847C103.75 171.928 104.122 171.447 104.034 171.4Z" fill="#080809"/>
<path d="M104.867 171.961C104.915 171.873 104.732 172.001 104.685 172.09L104.704 171.419L104.867 171.961Z" fill="#080809"/>
<path d="M112.145 169.4C112.483 168.559 112.463 169.23 112.646 169.101C112.552 169.277 111.943 170.199 112.145 169.4Z" fill="#080809"/>
</g>
<path d="M240.94 159.114C240.94 159.114 260.366 154.223 274.361 137.675C288.357 121.128 278.757 106.664 265.88 104.856C251.357 102.732 242.879 117.249 237.455 123.757C233.93 127.993 232.09 123.6 232.211 122.53C232.728 118.608 254.808 81.089 281.475 102.449C297.649 115.449 292.474 133.328 283.241 144.601C274.009 155.874 259.464 165.203 244.399 169.371C233.755 172.281 240.94 159.114 240.94 159.114Z" fill="#637189"/>
<g opacity="0.88">
<path d="M242.126 159.864C242.215 159.912 242.262 159.824 242.35 159.871C242.35 159.871 242.35 159.871 242.126 159.864Z" fill="#080809"/>
<path d="M239.79 154.069L239.519 154.151C239.655 154.11 239.743 154.157 239.79 154.069Z" fill="#080809"/>
<path d="M244.28 159.659C244.368 159.706 244.503 159.665 244.727 159.672L244.28 159.659Z" fill="#080809"/>
<path d="M245.207 158.567L245.342 158.527C245.254 158.479 245.207 158.567 245.207 158.567Z" fill="#080809"/>
<path d="M243.216 165.444C243.216 165.444 243.128 165.397 243.081 165.485C243.081 165.485 243.169 165.532 243.216 165.444Z" fill="#080809"/>
<path d="M243.745 165.728C243.833 165.775 243.786 165.863 243.745 165.728L243.833 165.775C243.921 165.823 243.833 165.775 243.745 165.728Z" fill="#080809"/>
<path d="M248.298 167.606L248.657 167.572C248.522 167.612 248.386 167.653 248.298 167.606Z" fill="#080809"/>
<path d="M242.769 165.431C242.857 165.478 242.993 165.437 242.993 165.437C242.993 165.437 242.905 165.39 242.769 165.431Z" fill="#080809"/>
<path d="M241.991 159.905L242.126 159.864C242.079 159.952 242.079 159.952 241.991 159.905Z" fill="#080809"/>
<path d="M238.461 152.107C238.373 152.059 238.373 152.059 238.284 152.012C238.237 152.1 238.325 152.147 238.461 152.107Z" fill="#080809"/>
<path d="M243.445 163.75C244.304 163.418 243.573 163.933 244.386 163.689C244.162 163.682 243.986 163.587 244.44 163.377C244.934 163.302 244.433 163.6 245.198 163.444L244.887 163.39C245.252 163.132 245.835 163.104 245.747 163.057C244.758 163.207 245.99 162.393 245.814 162.299L245.902 162.346L246.226 161.953L246.091 161.993C246.544 161.783 246.869 161.39 246.605 161.248C245.975 161.364 246.13 160.652 245.636 160.727C245.812 160.822 245.812 160.822 245.717 160.998L245.04 161.202C244.999 161.067 245.629 160.951 245.182 160.938C244.275 161.359 245.264 161.209 245.169 161.385C244.946 161.378 244.722 161.372 244.634 161.325C244.716 161.595 244.479 162.036 245.468 161.886C245.285 162.015 244.879 162.137 244.791 162.09C245.373 162.062 244.29 162.388 244.825 162.449C243.924 162.646 244.249 162.253 243.714 162.192C244.309 161.718 243.551 161.651 243.334 161.421C243.923 161.17 244.593 161.189 244.871 160.884C245.195 160.491 244.383 160.736 244.071 160.682C244.213 160.417 245.114 160.22 245.032 159.949L245.479 159.962C246.345 159.406 245.032 159.949 245.174 159.685C244.991 159.814 244.72 159.895 244.849 160.078C244.531 160.248 244.355 160.153 244.267 160.106C243.773 160.181 243.319 160.391 243.461 160.127C244.043 160.099 243.738 159.822 244.056 159.652L244.192 159.611C244.016 159.517 243.975 159.381 243.799 159.287L243.934 159.246C243.711 159.239 243.034 159.443 243.128 159.267C243.399 159.186 244.164 159.029 243.988 158.934C244.394 158.812 244.523 158.995 244.428 159.171C244.523 158.995 245.071 158.608 245.2 158.791C245.701 158.492 244.889 158.737 245.119 158.52C244.983 158.561 244.8 158.69 244.665 158.73C245.301 158.391 244.543 158.324 244.089 158.535L244.536 158.548C243.947 158.799 243.547 158.698 243.317 158.915C244.136 158.447 242.701 158.584 243.384 158.156L243.019 158.414C243.167 157.926 241.955 158.07 241.65 157.792C242.009 157.758 242.869 157.425 242.68 157.778C242.693 157.331 243.546 157.221 243.911 156.964C244.148 156.523 242.963 157.249 242.74 157.243L243.004 157.384C241.833 157.663 242.895 156.531 242.001 156.505C242.231 156.288 242.224 156.512 242.36 156.471C242.82 156.037 242.184 156.376 241.96 156.37C241.967 156.146 242.109 155.882 242.833 155.59C242.887 155.278 242.467 155.848 242.156 155.794L242.339 155.665L241.573 155.822C241.715 155.557 241.952 155.117 242.5 154.73C242.107 154.405 241.004 155.402 240.604 155.301C240.882 154.996 241.105 155.003 241.376 154.921L241.159 154.691C241.883 154.399 241.694 154.751 242.513 154.283C241.565 154.569 242.114 154.182 241.443 154.162L241.396 154.25C240.719 154.454 241.002 153.926 240.826 153.831C241.233 153.709 241.361 153.891 241.585 153.898C241.774 153.546 241.246 153.262 240.433 153.506C240.528 153.33 240.629 152.931 240.988 152.896C240.865 152.49 239.898 153.446 239.911 152.999L240.412 152.7C240.973 151.867 239.254 152.532 239.767 151.787L239.084 152.214C239.314 151.997 239.32 151.774 239.55 151.557L239.862 151.611C240.37 151.089 239.185 151.815 239.51 151.421C239.327 151.55 238.955 152.032 238.772 152.16C239.565 152.586 239.126 153.826 240.149 154.035C240.197 153.947 240.244 153.859 240.379 153.818C240.285 153.994 240.508 154.001 240.143 154.259L240.055 154.211C240.319 154.353 239.541 154.957 239.629 155.004C240.082 154.794 239.616 155.451 240.347 154.936L239.887 155.37C240.205 155.2 240.523 155.03 240.746 155.037C240.787 155.172 240.469 155.342 240.198 155.423C240.179 156.094 240.613 156.554 241.094 156.926L240.599 157.001C240.457 157.265 241.446 157.115 240.451 157.489C240.986 157.549 240.472 158.295 241.515 157.833C240.601 158.478 241.312 158.633 241.617 158.91C242.436 158.442 241.97 159.099 242.464 159.024C241.828 159.363 241.658 159.045 241.205 159.256C242.417 159.112 240.854 160.543 242.662 159.925C242.614 160.013 242.526 159.965 242.479 160.054C242.52 160.189 242.201 160.359 242.154 160.447C242.425 160.365 242.567 160.101 242.696 160.284C242.737 160.419 242.195 160.582 242.012 160.711C242.547 160.771 242.805 161.137 243.618 160.892C243.435 161.021 243.069 161.279 242.846 161.272C243.557 161.427 242.833 161.719 243.361 162.003C243.321 161.868 242.549 162.248 242.826 161.943C241.872 162.452 243.213 162.491 242.841 162.972L243.559 162.904C243.688 163.086 243.146 163.25 242.834 163.196C242.598 163.636 242.998 163.737 243.079 164.008C243.032 164.096 242.808 164.09 242.856 164.002L242.978 164.408C243.201 164.414 243.513 164.468 243.967 164.258C243.479 164.109 243.167 164.056 243.445 163.75Z" fill="#080809"/>
<path d="M245.492 159.515C245.309 159.644 245.309 159.644 245.262 159.732C245.398 159.691 245.445 159.603 245.492 159.515Z" fill="#080809"/>
<path d="M246.022 167.405C247.058 167.167 245.805 167.175 246.035 166.958C246.211 167.053 246.841 166.937 247.112 166.855C245.724 166.904 247.389 166.55 246.996 166.226C247.402 166.103 247.531 166.286 248.026 166.211C247.626 166.11 247.368 165.744 246.603 165.901C246.481 165.495 246.711 165.278 246.494 165.048C246.846 165.237 247.259 164.891 247.929 164.911C246.947 164.837 245.836 164.581 244.631 164.501C245.443 164.256 245.49 164.168 246.256 164.012C246.675 163.442 245.402 164.121 245.551 163.633L245.456 163.809C245.192 163.667 244.379 163.912 243.885 163.987L244.096 164.441C243.554 164.604 243.52 164.245 243.384 164.286C242.666 164.354 242.971 164.632 242.43 164.795C242.924 164.72 242.782 164.984 243.006 164.99L242.735 165.072C242.458 165.377 243.311 165.268 243.304 165.491C243.169 165.532 243.169 165.532 243.122 165.62C243.48 165.586 243.927 165.599 244.016 165.646L243.927 165.599C244.733 165.578 245.262 165.862 245.946 165.434L245.885 165.969C245.12 166.126 243.861 166.358 243.691 166.039L243.332 166.074C242.919 166.42 244.037 166.452 244.761 166.16C246.691 165.948 245.053 166.885 245.9 166.999C245.358 167.162 245.141 166.932 244.782 166.966C244.694 166.919 244.653 166.783 245.148 166.708C244.755 166.384 243.523 167.198 243.583 166.663C243.772 166.31 244.43 166.777 244.531 166.377L243.007 166.467C243.136 166.65 243.4 166.792 243.577 166.886C244.193 167.217 244.268 167.712 244.215 168.023C244.161 168.335 244.019 168.599 244.019 168.599C244.427 169.953 244.787 171.396 245.012 172.879C245.223 173.332 245.175 173.42 246.645 173.642C246.916 173.561 246.835 173.29 247.37 173.35C246.835 173.29 246.57 173.148 246.577 172.924C247.071 172.849 246.794 173.154 246.929 173.114L246.977 173.025C247.2 173.032 247.424 173.039 247.464 173.174C248.277 172.929 248.073 172.252 247.003 172.131C247.504 171.833 247.849 172.246 248.249 172.347C248.587 171.507 248.471 170.877 248.45 170.071C247.508 170.133 247.867 170.099 247.244 169.991L247.562 169.821C247.427 169.862 246.756 169.842 246.526 170.059C247.169 169.497 245.239 169.709 244.71 169.425L245.205 169.35C245.123 169.079 245.035 169.032 244.771 168.89C245.637 168.333 244.941 169.208 246.112 168.929L245.936 168.834C246.383 168.847 247.236 168.738 247.588 168.927C246.748 168.59 247.832 168.263 247.127 167.885C247.709 167.857 248.19 168.229 248.279 168.276C248.285 168.053 247.885 167.952 248.339 167.741L247.621 167.81C247.54 167.539 248.251 167.694 248.657 167.572C248.453 166.894 246.504 167.777 246.022 167.405Z" fill="#080809"/>
<path d="M244.64 161.101C244.593 161.189 244.681 161.236 244.769 161.284C244.769 161.284 244.729 161.148 244.64 161.101Z" fill="#080809"/>
<path d="M246.274 161.865C246.409 161.824 246.409 161.824 246.544 161.783C246.497 161.871 246.409 161.824 246.274 161.865Z" fill="#080809"/>
<path d="M247.262 161.715C246.991 161.796 246.903 161.749 246.544 161.783C246.721 161.878 246.849 162.06 247.262 161.715Z" fill="#080809"/>
<path d="M236.108 143.806C235.926 143.935 235.702 143.928 235.607 144.104L235.919 144.158L236.108 143.806Z" fill="#080809"/>
<path d="M235.994 144.652L235.94 144.964L236.759 144.496C236.495 144.354 236.123 144.835 235.994 144.652Z" fill="#080809"/>
<path d="M235.968 145.546L235.785 145.675C235.921 145.635 235.968 145.546 235.968 145.546Z" fill="#080809"/>
<path d="M236.333 145.289L236.882 144.902L236.252 145.018L236.333 145.289C236.11 145.282 236.103 145.506 236.056 145.594L236.51 145.383C236.421 145.336 236.286 145.377 236.333 145.289Z" fill="#080809"/>
<path d="M236.023 146.711C236.165 146.447 236.572 146.325 236.754 146.196C236.808 145.884 236.03 146.488 236.131 146.088C236.761 145.972 236.32 145.736 236.598 145.431C236.138 145.865 235.901 146.305 235.983 146.576L236.348 146.318C236.301 146.406 236.118 146.535 236.023 146.711Z" fill="#080809"/>
<path d="M237.669 147.028L237.081 147.279C237.311 147.062 237.094 146.832 237.554 146.398C237.466 146.351 237.147 146.52 237.012 146.561C237.154 146.297 237.384 146.08 236.93 146.29C236.911 146.961 236.687 146.954 236.81 147.361C236.674 147.401 236.674 147.401 236.722 147.313L236.62 147.713C237.169 147.326 237.386 147.556 237.669 147.028Z" fill="#080809"/>
<path d="M237.474 147.604C237.298 147.509 236.797 147.808 236.519 148.113L237.19 148.132C237.102 148.085 236.926 147.99 237.474 147.604Z" fill="#080809"/>
<path d="M237.691 147.834C237.461 148.051 237.041 148.62 237.63 148.369C237.319 148.315 238.185 147.759 237.691 147.834Z" fill="#080809"/>
<path d="M238.092 149.411L238.152 148.876C238.795 148.313 238.511 148.842 238.87 148.808C238.748 148.402 238.606 148.666 238.064 148.829C238.023 148.694 237.617 148.816 237.346 148.897C238.2 148.788 236.643 149.995 238.092 149.411Z" fill="#080809"/>
<path d="M238.26 148.253L237.942 148.423L238.301 148.389L238.26 148.253Z" fill="#080809"/>
<path d="M237.965 150.705C237.315 151.492 238.723 150.772 238.487 151.213C238.399 151.165 238.351 151.253 238.216 151.294L238.392 151.389L238.209 151.518C238.71 151.219 239.022 151.273 239.475 151.063C239.895 150.493 238.839 151.402 239.258 150.832C239.529 150.751 239.895 150.493 240.03 150.452C239.671 150.487 239.353 150.656 239.035 150.826C238.859 150.731 239.177 150.562 239.36 150.433C239.001 150.467 238.27 150.983 238.324 150.671C238.648 150.278 239.007 150.243 238.696 150.19C238.006 150.841 238.661 149.831 238.072 150.082C238.126 149.77 238.451 149.377 238.769 149.208C238.174 149.682 237.632 149.845 237.273 149.88L237.991 149.811L237.436 150.421C237.93 150.346 237.971 150.482 237.965 150.705Z" fill="#080809"/>
<path d="M240.118 150.5L240.254 150.459C240.254 150.459 240.118 150.5 240.118 150.5Z" fill="#080809"/>
<path d="M238.999 148.99L239.223 148.997L239.317 148.821L238.999 148.99Z" fill="#080809"/>
<path d="M240.66 150.337C240.66 150.337 240.389 150.418 240.477 150.465L240.795 150.296L240.66 150.337Z" fill="#080809"/>
<path d="M240.376 150.865L240.051 151.258L240.417 151L240.376 150.865Z" fill="#080809"/>
<path d="M242.569 155.448C242.711 155.184 242.21 155.482 241.892 155.652C241.885 155.875 242.304 155.306 242.569 155.448Z" fill="#080809"/>
<path d="M244.596 158.013C244.874 157.708 244.291 157.735 244.251 157.6C244.021 157.817 244.285 157.959 244.596 158.013Z" fill="#080809"/>
<path d="M246.954 158.484C246.73 158.478 246.642 158.43 246.636 158.654L245.6 158.892C245.411 159.244 246.636 158.654 246.954 158.484Z" fill="#080809"/>
<path d="M247.714 160.028L247.226 159.879L247.267 160.015C246.861 160.137 246.637 160.13 246.279 160.165C246.59 160.218 247.037 160.232 247.714 160.028Z" fill="#080809"/>
<path d="M246.062 159.935L246.15 159.982C246.285 159.941 246.42 159.9 246.062 159.935Z" fill="#080809"/>
<path d="M246.19 160.117C246.19 160.117 246.278 160.165 246.326 160.077C246.19 160.117 246.19 160.117 246.19 160.117C246.102 160.07 245.967 160.111 246.19 160.117Z" fill="#080809"/>
<path d="M247.301 160.373L247.559 160.739L247.701 160.475C247.024 160.679 247.979 160.17 247.301 160.373Z" fill="#080809"/>
<path d="M247.5 162.751L246.911 163.002C246.858 163.313 248.246 163.264 247.339 163.685C247.704 163.428 248.098 163.752 248.199 163.353C247.616 163.38 247.406 162.927 247.5 162.751Z" fill="#080809"/>
<path d="M246.926 164.031C246.703 164.025 246.655 164.113 246.473 164.242C246.425 164.33 246.737 164.384 246.92 164.255C246.202 164.323 247.42 163.956 246.926 164.031Z" fill="#080809"/>
<path d="M247.293 165.25C247.252 165.115 247.164 165.067 247.07 165.243C247.151 165.514 247.876 165.222 248.275 165.323C248.6 164.93 247.571 164.945 247.293 165.25Z" fill="#080809"/>
<path d="M243.232 167.95C243.774 167.787 243.598 167.692 243.51 167.645C243.551 167.78 243.368 167.909 243.232 167.95Z" fill="#080809"/>
<path d="M247.593 167.227L247.688 167.051L246.835 167.16L247.593 167.227Z" fill="#080809"/>
<path d="M248.272 168.5L248.76 168.648L248.678 168.377L248.272 168.5Z" fill="#080809"/>
<path d="M248.171 168.9L248.252 169.17L248.435 169.042C248.577 168.777 248.171 168.9 248.171 168.9Z" fill="#080809"/>
<path d="M248.375 169.577C248.287 169.529 248.422 169.489 248.51 169.536L248.158 169.347L248.375 169.577Z" fill="#080809"/>
<path d="M245.352 173.515C244.816 173.455 245.169 173.644 245.033 173.685C245.122 173.732 245.839 173.663 245.352 173.515Z" fill="#080809"/>
</g>
<path d="M153.405 193.602C153.405 193.602 150.213 210.957 157.468 230.631L136.533 248.9C136.533 248.9 122.321 240.7 117.131 251.42L132.989 259.937C132.989 259.937 142.461 257.305 143.416 256.796C144.417 256.199 173.944 234.826 173.944 234.826L181.231 196.741C181.184 196.829 154.041 187.133 153.405 193.602Z" fill="#637189"/>
<path d="M123.949 249.293C123.949 249.293 121.553 250.162 121.096 253.549" stroke="#1B1C1E" stroke-miterlimit="10"/>
<path d="M63.9198 216.713C63.9198 216.713 61.1577 217.84 60.4838 220.997" stroke="#1B1C1E" stroke-miterlimit="10"/>
<path d="M95.7875 30.9868C95.7875 30.9868 98.3528 -1.68822 105.962 1.26325C112.155 3.68121 118.369 31.4229 118.369 31.4229C118.369 31.4229 97.1987 33.2204 95.7875 30.9868Z" fill="#637189"/>
<path d="M132.35 39.8398C132.35 39.8398 144.36 34.5981 156.685 33.8397C169.011 33.0813 164.5 38.9447 158.635 45.216C151.897 52.2671 141.778 58.6378 141.778 58.6378C141.778 58.6378 132.362 44.0458 132.729 39.135" fill="#637189"/>
<path d="M85.3781 62.6274C67.11 92.204 58.8051 128.38 80.8247 148.038C102.844 167.696 154.55 194.217 154.55 194.217C153.956 214.556 162.749 229.041 162.749 229.041L139.014 251.254C126.824 245.842 123.691 255.057 123.691 255.057L140.694 264.189C140.694 264.189 226.284 215.148 239.871 191.117C253.458 167.085 245.324 148.415 206.029 124.36C166.734 100.304 128.189 87.3222 128.189 87.3222L127.809 80.421C127.809 80.421 138.587 75.9934 142.351 68.1396C143.878 64.8734 144.571 61.046 144.106 57.0505C143.751 53.9083 142.636 50.6992 140.716 47.5112C139.176 45.095 137.23 42.8011 134.654 40.6231C129.502 36.2669 123.741 32.8326 118.171 30.5223C116.891 29.948 115.651 29.5091 114.363 29.1583C112.636 28.571 110.949 28.119 109.391 27.8498C107.209 27.4729 105.069 27.2314 103.098 27.308C92.9325 27.6374 83.8516 35.2464 82.2705 44.9537C80.7302 54.7963 85.3781 62.6274 85.3781 62.6274Z" fill="#637189"/>
<path d="M154.55 194.217C153.956 214.556 162.749 229.041 162.749 229.041L139.014 251.254" stroke="#1B1C1E" stroke-miterlimit="10"/>
<path d="M118.083 30.475C116.802 29.9007 115.563 29.4618 114.275 29.111C112.548 28.5236 110.861 28.0717 109.303 27.8024" stroke="#1B1C1E" stroke-miterlimit="10"/>
<path d="M85.3781 62.6274L86.3961 64.5363" stroke="#1B1C1E" stroke-miterlimit="10"/>
<path d="M104.778 70.8895C104.778 70.8895 105.579 72.5683 107.917 73.7104C110.255 74.8525 111.663 74.133 111.663 74.133C111.663 74.133 111.855 70.6042 109.883 69.2043C107.958 67.7164 104.778 70.8895 104.778 70.8895Z" fill="#B8BDC4"/>
<path d="M105.979 54.2812C108.066 54.8343 110.164 53.4639 110.493 51.3708C110.87 49.1895 110.772 46.4127 108.779 44.2069C106.738 42.0893 104.258 41.2115 102.388 40.8884C100.519 40.5653 98.6505 41.7188 98.192 43.6292C97.7809 45.4516 97.9326 47.9167 99.7842 50.3868C101.466 52.5387 103.94 53.64 105.979 54.2812Z" fill="#B4D3CD"/>
<path d="M123.855 62.633C121.747 61.2739 121.703 58.1856 123.625 56.7205C125.547 55.2555 128.356 54.0401 131.418 54.8902C133.681 55.5379 135.22 56.4777 136.176 57.4451C137.83 59.0146 137.569 61.8257 135.654 63.0672C134.239 64.0101 132.201 64.8454 129.79 64.6855C127.379 64.5256 125.346 63.6608 123.855 62.633Z" fill="#B4D3CD"/>
<path d="M154.55 194.217C154.55 194.217 154.498 189.875 155.058 187.565" stroke="#1B1C1E" stroke-miterlimit="10"/>
<path d="M128.408 257.476C128.408 257.476 129.604 254.827 132.224 253.964" stroke="#1B1C1E" stroke-miterlimit="10"/>
<path d="M138.397 257.052C138.397 257.052 135.743 257.557 134.31 260.646" stroke="#1B1C1E" stroke-miterlimit="10"/>
<path d="M103.829 51.3102C104.607 51.7283 105.98 50.6867 106.894 48.9837C107.809 47.2808 107.919 45.5614 107.141 45.1433C106.362 44.7252 104.99 45.7667 104.075 47.4697C103.16 49.1726 103.05 50.8921 103.829 51.3102Z" fill="#1B1C1E"/>
<path d="M126.99 62.501C127.769 62.9191 129.141 61.8775 130.056 60.1745C130.971 58.4716 131.081 56.7522 130.302 56.3341C129.524 55.916 128.151 56.9575 127.237 58.6605C126.322 60.3634 126.212 62.0829 126.99 62.501Z" fill="#1B1C1E"/>
<path d="M110.728 67.842L109.782 69.604C109.782 69.604 109.132 70.3903 105.842 71.2337C103.675 71.8863 98.4656 71.0182 98.407 66.9004C98.3483 62.7826 104.461 60.2768 109.307 62.879C114.152 65.4813 110.728 67.842 110.728 67.842Z" fill="#B8BDC4"/>
<path d="M109.782 69.6041C109.782 69.6041 110.286 72.2585 110.964 73.531C111.473 74.4855 112.723 77.6538 115.27 77.7729C117.857 78.0275 120.13 75.2752 120.249 72.7285C120.368 70.1818 118.265 67.1228 115.386 66.1438C112.553 65.0768 111.268 66.2025 109.782 69.6041Z" fill="#B8BDC4"/>
<path d="M110.728 67.8421C110.728 67.8421 107.974 64.0929 108.568 62.1417C109.162 60.1904 112.97 61.5544 115.024 63.2251C117.694 65.227 117.04 67.7133 110.728 67.8421Z" fill="#1B1C1E"/>
<path d="M96.5277 145.007C96.5277 145.007 95.4296 150.433 93.7311 158.034C90.7926 171.326 86.1882 191.101 83.1356 199.11C78.4286 211.678 75.1427 216.951 75.1427 216.951C75.1427 216.951 63.3571 209.941 58.5457 219.956C58.5457 219.956 75.2844 228.946 76.2535 229.466C77.2226 229.987 87.2905 220.751 87.2905 220.751C87.2905 220.751 107.977 191.111 119.378 174.532C123.347 168.832 126.106 164.752 126.626 163.783" fill="#637189"/>
<path d="M93.7311 158.034C90.7926 171.326 86.1882 191.101 83.1356 199.11C78.4286 211.678 75.1427 216.951 75.1427 216.951C75.1427 216.951 63.3571 209.941 58.5457 219.956" stroke="#1B1C1E" stroke-miterlimit="10"/>
<path d="M62.1365 221.09C62.1365 221.09 63.3798 218.352 66.3866 218.038" stroke="#1B1C1E" stroke-miterlimit="10"/>
<path d="M70.258 221.82C70.258 221.82 69.005 221.828 67.5317 224.782" stroke="#1B1C1E" stroke-miterlimit="10"/>
<path d="M96.5277 145.007C96.5277 145.007 95.4296 150.433 93.7311 158.034" stroke="#1B1C1E" stroke-miterlimit="10"/>
<path d="M119.242 174.573C123.212 168.873 125.97 164.793 126.491 163.823" stroke="#1B1C1E" stroke-miterlimit="10"/>
<g opacity="0.88">
<path d="M124.77 81.8533C124.858 81.9006 124.899 82.036 124.899 82.036C124.851 82.1241 124.81 81.9887 124.77 81.8533Z" fill="#080809"/>
<path d="M118.594 83.4178L118.513 83.147C118.689 83.2416 118.642 83.3297 118.594 83.4178Z" fill="#080809"/>
<path d="M125.788 83.7622C125.876 83.8095 125.917 83.9449 126.045 84.1277L125.788 83.7622Z" fill="#080809"/>
<path d="M125.525 85.0967L125.566 85.2321C125.478 85.1848 125.478 85.1848 125.525 85.0967Z" fill="#080809"/>
<path d="M129.806 79.4502C129.806 79.4502 129.718 79.4029 129.765 79.3148C129.853 79.3621 129.853 79.3621 129.806 79.4502Z" fill="#080809"/>
<path d="M130.423 79.7814C130.47 79.6933 130.47 79.6933 130.423 79.7814L130.511 79.8287C130.599 79.876 130.423 79.7814 130.423 79.7814Z" fill="#080809"/>
<path d="M130.41 80.2285C130.545 80.1877 130.41 80.2285 130.41 80.2285V80.2285Z" fill="#080809"/>
<path d="M134.645 82.2761L134.815 82.5943C134.686 82.4115 134.598 82.3642 134.645 82.2761Z" fill="#080809"/>
<path d="M129.636 79.1321C129.724 79.1794 129.765 79.3148 129.765 79.3148C129.677 79.2675 129.677 79.2675 129.636 79.1321Z" fill="#080809"/>
<path d="M124.729 81.7179L124.77 81.8533C124.682 81.806 124.682 81.806 124.729 81.7179Z" fill="#080809"/>
<path d="M126.241 83.5517C126.106 83.5925 126.153 83.5044 126.241 83.5517V83.5517Z" fill="#080809"/>
<path d="M116.265 83.5288C116.177 83.4814 116.177 83.4814 116.089 83.4341C116.183 83.2579 116.224 83.3933 116.265 83.5288Z" fill="#080809"/>
<path d="M128.609 80.6233C128.806 81.5238 128.832 80.6298 129.077 81.4423C128.901 81.3476 128.772 81.1649 128.847 81.6593C129.057 82.1128 129.029 81.5304 129.321 82.2547L129.104 82.0247C129.139 82.3836 129.525 82.9318 129.302 82.9253C128.793 81.9709 128.883 83.4946 128.706 83.4L128.794 83.4473L128.734 83.9825L128.693 83.8471C128.768 84.3414 128.667 84.7411 128.444 84.7346C128.192 84.1456 127.638 84.7558 127.427 84.3022C127.603 84.3968 127.603 84.3968 127.698 84.2206L127.494 83.5436C127.311 83.6725 127.698 84.2206 127.352 83.8079C127.067 82.86 127.623 83.7263 127.718 83.5501C127.589 83.3674 127.46 83.1847 127.372 83.1373C127.643 83.0558 127.791 82.568 128.3 83.5224C128.307 83.2989 128.184 82.8926 128.096 82.8453C128.53 83.3054 128.068 82.2629 128.414 82.6756C128.082 81.8159 127.886 82.3918 127.587 81.8909C127.52 82.6495 126.998 82.1421 126.687 82.0883C126.891 82.7653 127.236 83.1781 127.223 83.6251C127.075 84.113 126.783 83.3886 126.613 83.0704C126.471 83.3347 126.939 84.1537 126.533 84.2761L126.791 84.6415C126.853 85.5829 126.486 84.3642 126.391 84.5404C126.398 84.3169 126.316 84.046 126.452 84.0053C126.417 83.6463 126.241 83.5517 126.153 83.5044C125.943 83.0508 125.82 82.6446 125.678 82.9089C125.977 83.4098 125.665 83.3559 125.659 83.5794L125.7 83.7148C125.523 83.6202 125.388 83.661 125.3 83.6137L125.341 83.7491C125.212 83.5664 125.008 82.8893 124.825 83.0182C124.907 83.289 125.334 83.9726 125.022 83.9188C125.145 84.325 125.368 84.3315 125.463 84.1553C125.368 84.3315 125.437 85.0494 125.66 85.0559C125.735 85.5503 125.396 84.914 125.39 85.1375C125.349 85.0021 125.308 84.8667 125.314 84.6432C125.518 85.3202 124.908 84.7655 124.833 84.2712L125.091 84.6366C124.928 84.095 124.67 83.7295 124.636 83.3706C124.745 84.2239 124.019 83.0394 124.04 83.8453L124.053 83.3983C123.729 83.7915 123.132 82.7898 122.732 82.6886C122.949 82.9186 123.099 83.9073 123.288 83.5549C122.923 83.8127 123.35 84.4963 123.29 85.0314C123.053 85.4719 122.957 84.1716 122.787 83.8535L123.052 83.9954C122.59 82.9529 122.28 84.3755 121.805 83.78C121.839 84.139 121.934 83.9628 122.022 84.0101C121.915 84.6333 121.846 83.9154 121.717 83.7327C121.534 83.8616 121.345 84.214 121.549 84.8911C121.319 85.108 121.562 84.444 121.345 84.214L121.339 84.4375L120.958 83.6658C120.817 83.9301 120.58 84.3706 120.648 85.0885C120.249 84.9873 120.247 83.5108 119.942 83.2335C119.841 83.6332 120.017 83.7278 120.051 84.0867L119.74 84.0329C119.896 84.798 120.086 84.4456 120.195 85.2989C119.862 84.4391 119.843 85.1096 119.503 84.4734L119.551 84.3853C119.347 83.7082 119.063 84.2368 118.887 84.1422C119.009 84.5484 119.232 84.5549 119.409 84.6496C119.219 85.002 118.691 84.7181 118.446 83.9056C118.351 84.0818 118.074 84.3869 118.332 84.7523C117.878 84.9628 118.053 83.5809 117.687 83.8387L117.803 84.4684C117.418 85.3967 116.976 83.6837 116.638 84.5239L116.617 83.7179C116.563 84.0295 116.381 84.1584 116.415 84.5174L116.632 84.7474C116.524 85.3706 116.381 84.1584 116.232 84.6462C116.239 84.4227 116.387 83.9349 116.353 83.576C117.146 84.0018 117.849 82.9039 118.723 83.6005C118.676 83.6886 118.717 83.824 118.758 83.9594C118.852 83.7832 118.981 83.966 118.994 83.5189L118.906 83.4716C119.17 83.6136 119.244 82.6314 119.332 82.6787C119.495 83.2204 119.697 82.421 119.759 83.3623L119.82 82.8272C119.854 83.1861 119.976 83.5924 120.017 83.7278C120.153 83.687 120.118 83.3281 119.949 83.0099C120.497 82.6233 121.079 82.5956 121.655 82.7914L121.397 82.4259C121.492 82.2497 121.96 83.0687 121.722 82.0327C122.068 82.4455 122.406 81.6053 122.596 82.7294C122.629 81.6118 123.151 82.1192 123.551 82.2204C123.701 83.2091 123.903 82.4096 124.114 82.8632C124.045 82.1453 123.686 82.1796 123.523 81.6379C124.12 82.6397 124.314 80.5873 124.933 82.395C124.98 82.3069 124.892 82.2596 124.939 82.1715C125.075 82.1307 125.04 81.7718 125.088 81.6837C125.257 82.0018 125.075 82.1307 125.339 82.2726C125.474 82.2318 125.223 81.6429 125.23 81.4194C125.623 81.744 126.023 81.8452 126.315 82.5696C126.321 82.3461 126.334 81.899 126.158 81.8044C126.727 82.2237 126.523 81.5466 127.052 81.8305C126.917 81.8713 126.76 81.1061 126.571 81.4585C126.468 80.3818 127.241 81.4781 127.396 80.7668L127.736 81.4031C127.959 81.4096 127.796 80.868 127.579 80.6379C127.728 80.1501 128.121 80.4748 128.392 80.3932C128.351 80.2578 128.31 80.1224 128.263 80.2105L128.581 80.0408C128.71 80.2236 128.927 80.4536 129.049 80.8598C128.927 80.4536 128.71 80.2236 128.609 80.6233Z" fill="#080809"/>
<path d="M126.337 84.852C126.344 84.6285 126.344 84.6285 126.391 84.5404C126.432 84.6758 126.385 84.7639 126.337 84.852Z" fill="#080809"/>
<path d="M133.038 80.6184C133.412 81.6136 132.726 80.5646 132.672 80.8762C132.849 80.9708 133.1 81.5598 133.182 81.8306C132.456 80.6461 133.08 82.2303 132.593 82.0818C132.715 82.4881 132.938 82.4946 133.149 82.9481C132.796 82.7589 132.397 82.6577 132.057 82.0215C131.739 82.1911 131.55 82.5435 131.374 82.4489C131.726 82.6381 131.666 83.1733 132.188 83.6807C131.584 82.9024 130.622 82.1585 129.93 81.3329C130.175 82.1454 130.215 82.2808 130.555 82.9171C130.312 83.5811 130.127 82.2335 129.803 82.6267L129.897 82.4505C129.633 82.3085 129.341 81.5842 129.09 80.9952L129.584 80.9202C129.421 80.3785 129.103 80.5482 129.015 80.5009C128.675 79.8646 129.075 79.9657 128.865 79.5122C129.075 79.9657 129.217 79.7014 129.346 79.8842L129.264 79.6134C129.366 79.2136 129.746 79.9853 129.928 79.8564C129.888 79.721 129.888 79.721 129.888 79.721C130.057 80.0392 130.315 80.4046 130.403 80.4519L130.315 80.4046C130.742 81.0882 131.318 81.284 131.34 82.09L131.664 81.6968C131.284 80.9251 130.734 79.8353 130.464 79.9168L130.294 79.5987C130.307 79.1517 130.999 79.9772 131.203 80.6543C132.18 82.4277 131.88 80.4503 132.578 81.0524C132.367 80.5988 132.103 80.4569 131.933 80.1387C131.845 80.0914 131.71 80.1322 131.92 80.5857C131.385 80.5254 131.296 79.0016 130.971 79.3948C130.87 79.7945 131.622 80.0849 131.304 80.2545L130.49 79.0228C130.713 79.0293 130.977 79.1713 131.201 79.1778C131.865 79.4209 132.271 79.2985 132.501 79.0815C132.731 78.8646 132.785 78.553 132.785 78.553C134.187 78.057 135.5 77.5138 136.772 76.8351C137.267 76.7601 137.361 76.5839 138.358 77.6867C138.44 77.9576 138.169 78.0391 138.515 78.4519C138.169 78.0391 137.817 77.8499 137.675 78.1142C137.973 78.615 137.986 78.168 138.027 78.3034L137.98 78.3915C138.197 78.6216 138.285 78.6689 138.373 78.7162C138.618 79.5287 138.029 79.7799 137.337 78.9544C137.453 79.5841 137.9 79.5972 138.205 79.8746C137.691 80.6201 137.19 80.9187 136.459 81.4342C135.991 80.6152 136.113 81.0214 135.727 80.4733L135.896 80.7914C135.856 80.656 135.469 80.1078 135.475 79.8843C135.361 80.731 134.337 79.0457 133.896 78.8091L134.107 79.2627C133.836 79.3442 133.748 79.2969 133.436 79.2431C133.451 80.2725 133.795 79.2088 134.209 80.3395L134.033 80.2448C134.291 80.6103 134.718 81.2939 135.023 81.5712C134.278 81.0573 134.604 82.1406 133.899 81.7621C134.198 82.2629 134.774 82.4587 134.909 82.418C134.815 82.5942 134.374 82.3576 134.585 82.8111L134.245 82.1748C133.974 82.2564 134.544 82.6757 134.619 83.17C134.09 82.8862 133.661 80.7261 133.038 80.6184Z" fill="#080809"/>
<path d="M127.236 83.1782C127.284 83.0901 127.372 83.1374 127.46 83.1847C127.324 83.2255 127.324 83.2255 127.236 83.1782Z" fill="#080809"/>
<path d="M128.822 84.0298C128.863 84.1652 128.863 84.1652 128.904 84.3006C128.863 84.1652 128.863 84.1652 128.822 84.0298Z" fill="#080809"/>
<path d="M129.243 84.9369C129.162 84.6661 129.073 84.6188 128.904 84.3007C129.033 84.4834 129.303 84.4018 129.243 84.9369Z" fill="#080809"/>
<path d="M108.168 86.5582C108.174 86.3347 108.045 86.152 108.052 85.9285L108.269 86.1585L108.168 86.5582Z" fill="#080809"/>
<path d="M108.77 85.8599L109 85.6429L109.062 86.5843C108.886 86.4896 109.081 85.9137 108.77 85.8599Z" fill="#080809"/>
<path d="M109.589 85.3917L109.595 85.1682C109.548 85.2563 109.501 85.3444 109.589 85.3917Z" fill="#080809"/>
<path d="M109.488 85.7914L109.468 86.4619L109.169 85.961L109.488 85.7914C109.359 85.6087 109.494 85.5679 109.501 85.3444L109.576 85.8387C109.576 85.8387 109.535 85.7033 109.488 85.7914Z" fill="#080809"/>
<path d="M109.799 85.8452C109.752 85.9333 109.752 85.9333 109.793 86.0687C109.752 85.9333 109.752 85.9333 109.799 85.8452Z" fill="#080809"/>
<path d="M110.55 84.6592C110.455 84.8354 110.577 85.2416 110.524 85.5532C110.294 85.7702 110.367 84.788 110.09 85.0931C110.341 85.6821 109.9 85.4455 109.799 85.8452C109.907 85.222 110.096 84.8696 110.326 84.6526L110.313 85.0996C110.401 85.147 110.367 84.788 110.55 84.6592Z" fill="#080809"/>
<path d="M111.635 85.8095L111.519 85.1797C111.465 85.4913 111.153 85.4375 111.134 86.108C111.046 86.0607 111.011 85.7018 110.971 85.5664C110.917 85.878 110.775 86.1423 110.7 85.6479C111.248 85.2613 111.119 85.0785 111.437 84.9089C111.396 84.7735 111.396 84.7735 111.349 84.8616L111.626 84.5565C111.607 85.227 112.007 85.3282 111.635 85.8095Z" fill="#080809"/>
<path d="M112.095 85.3754C111.871 85.3689 111.755 84.7391 111.945 84.3867L112.331 84.9349C112.202 84.7522 112.067 84.793 112.095 85.3754Z" fill="#080809"/>
<path d="M112.454 85.3412C112.507 85.0296 112.662 84.3183 112.866 84.9953C112.602 84.8534 112.664 85.7947 112.454 85.3412Z" fill="#080809"/>
<path d="M113.902 84.7571L113.442 85.1911C113.328 86.0378 113.659 85.4211 113.782 85.8274C113.463 85.997 113.517 85.6854 113.307 85.2319C113.171 85.2727 113.049 84.8664 112.968 84.5956C113.483 85.3265 113.542 83.3149 113.902 84.7571Z" fill="#080809"/>
<path d="M113.118 85.5843L113.036 85.3135L113.253 85.5435L113.118 85.5843Z" fill="#080809"/>
<path d="M114.823 83.8892C115.031 82.8662 115.297 84.4847 115.534 84.0442C115.446 83.9969 115.493 83.9088 115.452 83.7734L115.628 83.868L115.635 83.6445C115.663 84.2269 115.88 84.457 116.002 84.8632C115.759 85.5272 115.845 84.098 115.69 84.8094C115.772 85.0802 115.806 85.4391 115.888 85.7099C115.718 85.3918 115.684 85.0329 115.602 84.762C115.426 84.6674 115.46 85.0263 115.454 85.2498C115.284 84.9317 115.31 84.0377 114.945 84.2954C114.796 84.7832 115.054 85.1487 114.749 84.8713C114.911 83.9365 114.431 85.041 114.315 84.4113C114.085 84.6282 113.937 85.116 113.971 85.475C113.99 84.8044 113.787 84.1274 113.658 83.9446L113.997 84.5809L114.111 83.7342C114.592 84.1062 114.728 84.0654 114.823 83.8892Z" fill="#080809"/>
<path d="M115.976 85.7573L116.017 85.8927C116.017 85.8927 115.929 85.8454 115.976 85.7573Z" fill="#080809"/>
<path d="M114.141 85.7931L114.181 85.9285L114.175 86.152L114.141 85.7931Z" fill="#080809"/>
<path d="M116.139 86.2989L116.058 86.0281L116.18 86.4343L116.139 86.2989Z" fill="#080809"/>
<path d="M116.376 85.8585L116.436 85.3234L116.558 85.7296L116.376 85.8585Z" fill="#080809"/>
<path d="M121.326 84.8846C121.184 85.1489 121.109 84.6546 121.034 84.1602C121.304 84.0786 121.197 84.7019 121.326 84.8846Z" fill="#080809"/>
<path d="M124.678 84.9825C124.577 85.3822 124.279 84.8813 124.143 84.9221C124.197 84.6105 124.461 84.7525 124.678 84.9825Z" fill="#080809"/>
<path d="M126.421 86.5993C126.292 86.4166 126.204 86.3693 126.386 86.2404L125.965 85.3333C126.067 84.9336 126.298 86.1931 126.421 86.5993Z" fill="#080809"/>
<path d="M128.039 86.3334L127.646 86.0087L127.781 85.9679C127.612 85.6498 127.53 85.379 127.313 85.1489C127.577 85.2909 127.882 85.5682 128.039 86.3334Z" fill="#080809"/>
<path d="M127.049 85.007L127.137 85.0543C127.225 85.1016 127.218 85.3251 127.049 85.007Z" fill="#080809"/>
<path d="M127.272 85.0135C127.272 85.0135 127.36 85.0608 127.313 85.1489C127.36 85.0608 127.272 85.0135 127.272 85.0135C127.184 84.9662 127.231 84.8781 127.272 85.0135Z" fill="#080809"/>
<path d="M128.099 85.7983L128.546 85.8113L128.404 86.0756C128.289 85.4459 128.351 86.3872 128.099 85.7983Z" fill="#080809"/>
<path d="M130.15 84.516L130.034 83.8863C130.264 83.6693 131.038 84.7657 130.888 83.777C130.922 84.1359 131.362 84.3725 131.085 84.6776C130.739 84.2648 130.38 84.2991 130.15 84.516Z" fill="#080809"/>
<path d="M130.901 83.3299C130.772 83.1472 130.819 83.0591 130.826 82.8356C130.873 82.7475 131.09 82.9775 131.171 83.2484C130.656 82.5175 131.111 83.7835 130.901 83.3299Z" fill="#080809"/>
<path d="M132.031 82.9156C131.896 82.9564 131.808 82.909 131.902 82.7328C132.173 82.6513 132.377 83.3283 132.635 83.6938C132.622 84.1408 132.066 83.2745 132.031 82.9156Z" fill="#080809"/>
<path d="M131.863 77.9445C132.074 78.398 131.85 78.3915 131.762 78.3442C131.85 78.3915 131.945 78.2153 131.863 77.9445Z" fill="#080809"/>
<path d="M133.805 81.9383L133.846 82.0737L133.418 81.3901L133.805 81.9383Z" fill="#080809"/>
<path d="M135.288 81.7133L135.769 82.0852L135.41 82.1195L135.288 81.7133Z" fill="#080809"/>
<path d="M135.518 81.4963L135.789 81.4147L135.782 81.6382C135.687 81.8144 135.565 81.4082 135.518 81.4963Z" fill="#080809"/>
<path d="M136.242 81.2042C136.154 81.1569 136.195 81.2923 136.283 81.3396L135.931 81.1504L136.242 81.2042Z" fill="#080809"/>
<path d="M137.591 76.3669C137.246 75.9541 137.598 76.1434 137.557 76.008C137.598 76.1434 137.937 76.7797 137.591 76.3669Z" fill="#080809"/>
</g>
<g opacity="0.88">
<path d="M123.98 171.669C124.068 171.717 124.109 171.852 124.285 171.947L123.98 171.669Z" fill="#080809"/>
<path d="M125.375 171.397C125.463 171.444 125.463 171.444 125.51 171.356C125.463 171.444 125.375 171.397 125.375 171.397Z" fill="#080809"/>
<path d="M120.26 176.482L120.213 176.57L120.26 176.482C120.389 176.665 120.301 176.617 120.26 176.482Z" fill="#080809"/>
<path d="M123.42 180.109L123.732 180.163C123.596 180.203 123.508 180.156 123.42 180.109Z" fill="#080809"/>
<path d="M119.521 175.744C119.609 175.792 119.697 175.839 119.785 175.886C119.697 175.839 119.745 175.751 119.521 175.744Z" fill="#080809"/>
<path d="M125.507 162.274C125.555 162.185 125.466 162.138 125.514 162.05C125.331 162.179 125.331 162.179 125.507 162.274Z" fill="#080809"/>
<path d="M120.942 174.578C121.877 174.74 120.936 174.802 121.735 175.004C121.606 174.821 121.43 174.727 121.965 174.787C122.406 175.023 121.823 175.051 122.623 175.254L122.406 175.023C122.764 174.989 123.381 175.32 123.34 175.185C122.412 174.8 123.889 174.798 123.76 174.616L123.848 174.663L124.389 174.5C124.389 174.5 124.389 174.5 124.478 174.547C124.389 174.5 124.389 174.5 124.301 174.453C124.836 174.513 125.243 174.391 125.161 174.12C124.633 173.836 125.181 173.449 124.74 173.213C124.869 173.395 124.869 173.395 124.686 173.524L124.022 173.281C124.117 173.105 124.646 173.389 124.341 173.111C123.453 172.862 124.287 173.423 124.151 173.464C123.975 173.369 123.799 173.275 123.758 173.139C123.616 173.403 123.298 173.573 124.091 173.999C123.867 173.992 123.468 173.891 123.427 173.756C123.908 174.128 122.844 173.784 123.285 174.02C122.445 173.682 122.986 173.519 122.505 173.147C123.223 173.079 122.701 172.571 122.667 172.212C123.29 172.32 123.771 172.692 124.218 172.705C124.76 172.542 123.96 172.34 123.655 172.062C123.926 171.981 124.719 172.407 124.82 172.007L125.213 172.332C126.195 172.405 124.908 172.054 125.179 171.973C124.956 171.966 124.691 171.824 124.685 172.048C124.373 171.994 124.244 171.811 124.292 171.723C123.851 171.486 123.451 171.385 123.722 171.304C124.251 171.588 124.169 171.317 124.393 171.323L124.481 171.371C124.352 171.188 124.447 171.012 124.406 170.876L124.494 170.924C124.365 170.741 123.701 170.498 123.884 170.369C124.148 170.511 124.765 170.842 124.724 170.707C125.124 170.808 125.117 171.031 124.934 171.16C125.117 171.031 125.828 171.186 125.734 171.363C126.269 171.423 125.517 171.132 125.876 171.098C125.652 171.092 125.564 171.044 125.388 170.95C126.052 171.193 125.577 170.597 125.089 170.449L125.394 170.726C124.819 170.53 124.513 170.253 124.202 170.199C125.137 170.361 123.951 169.61 124.709 169.677L124.262 169.664C124.675 169.318 123.753 168.71 123.678 168.215C123.895 168.445 124.871 168.742 124.465 168.865C124.742 168.56 125.399 169.026 125.935 169.087C126.388 168.876 125.142 168.661 124.877 168.519L124.959 168.79C123.949 168.134 125.426 168.132 124.863 167.489C125.174 167.543 124.992 167.672 125.08 167.719C125.662 167.692 124.998 167.449 124.822 167.354C125.005 167.225 125.323 167.055 125.939 167.387C126.122 167.258 125.54 167.285 125.323 167.055L125.546 167.062L124.889 166.595C125.16 166.514 125.566 166.391 126.277 166.546C126.29 166.099 124.82 165.877 124.651 165.559C125.01 165.525 125.138 165.708 125.403 165.85L125.457 165.538C126.161 165.917 125.667 165.992 126.643 166.289C125.809 165.727 126.52 165.882 125.998 165.375L125.91 165.328C125.382 165.044 125.835 164.833 125.842 164.61C126.194 164.799 126.187 165.023 126.228 165.158C126.634 165.036 126.471 164.494 125.726 163.98C125.861 163.939 126.267 163.817 126.573 164.094C126.85 163.789 125.515 163.527 125.881 163.269L126.457 163.465C127.398 163.403 125.948 162.51 126.801 162.401L126.049 162.11C126.36 162.164 126.543 162.035 126.855 162.089L127.072 162.319C127.742 162.339 126.591 161.947 127.085 161.872C126.909 161.778 126.326 161.805 126.062 161.663C126.259 162.564 124.905 162.972 125.367 164.014C125.455 164.062 125.59 164.021 125.678 164.068C125.455 164.062 125.672 164.292 125.272 164.191L125.184 164.143C125.266 164.414 124.331 164.253 124.284 164.341C124.724 164.577 123.959 164.734 124.806 164.848L124.271 164.788C124.535 164.93 125.023 165.078 125.063 165.213C124.969 165.39 124.616 165.2 124.487 165.018C124.027 165.452 123.92 166.075 123.9 166.745L123.595 166.468C123.324 166.55 124.111 167.199 123.141 166.679C123.487 167.091 122.587 167.289 123.65 167.633C122.58 167.512 123.008 168.196 123.042 168.555C123.929 168.804 123.164 168.961 123.605 169.198C122.893 169.043 122.995 168.643 122.507 168.494C123.469 169.238 121.363 169.356 123.179 169.99C123.044 170.031 123.044 170.031 122.955 169.984C122.908 170.072 122.597 170.018 122.549 170.106C122.813 170.248 122.996 170.119 123.125 170.302C123.03 170.478 122.502 170.194 122.278 170.188C122.624 170.601 122.611 171.048 123.363 171.338C123.14 171.331 122.693 171.318 122.652 171.183C123.127 171.779 122.463 171.535 122.626 172.077C122.585 171.942 121.874 171.787 122.28 171.664C121.21 171.544 122.26 172.335 121.671 172.586L122.288 172.917C122.37 173.188 121.706 172.945 121.577 172.762C121.076 173.061 121.381 173.338 121.374 173.562C121.286 173.514 121.151 173.555 121.198 173.467L121.097 173.867C121.273 173.961 121.49 174.191 122.025 174.252C120.8 174.842 120.671 174.66 120.942 174.578Z" fill="#080809"/>
<path d="M125.037 172.237C124.814 172.23 124.814 172.23 124.678 172.271C124.902 172.278 124.99 172.325 125.037 172.237Z" fill="#080809"/>
<path d="M121.441 178.932C122.464 179.141 121.36 178.662 121.631 178.58C121.759 178.763 122.383 178.87 122.694 178.924C121.414 178.35 123.012 178.755 122.802 178.301C123.202 178.402 123.242 178.538 123.73 178.686C123.425 178.409 123.391 178.05 122.591 177.847C122.645 177.536 123.011 177.278 122.882 177.095C123.14 177.461 123.546 177.338 124.163 177.67C123.37 177.244 122.502 176.324 121.58 175.715C122.379 175.917 122.515 175.877 123.179 176.12C123.768 175.869 122.427 175.829 122.84 175.483L122.657 175.612C122.44 175.382 121.776 175.139 121.2 174.943L121.187 175.39C120.611 175.195 120.841 174.978 120.665 174.883C120.048 174.552 120.123 175.046 119.683 174.81C120.123 175.046 119.94 175.175 120.069 175.358L119.758 175.304C119.351 175.426 120.104 175.717 120.097 175.94C120.009 175.893 119.962 175.981 119.873 175.934C120.138 176.076 120.578 176.312 120.619 176.448L120.578 176.312C121.195 176.643 121.582 177.192 122.435 177.082L122.11 177.475C121.358 177.185 120.206 176.793 120.213 176.57L119.949 176.428C119.454 176.503 120.376 177.112 121.135 177.179C122.95 177.813 121.068 177.937 121.678 178.492C121.143 178.432 121.061 178.161 120.709 177.971C120.668 177.836 120.715 177.748 121.115 177.849C120.952 177.307 119.469 177.533 119.841 177.051C120.159 176.882 120.586 177.565 120.776 177.213L119.407 176.591C119.4 176.815 119.57 177.133 119.699 177.316C120.378 178.588 119.423 179.097 119.423 179.097C119.242 180.702 119.02 182.172 118.974 183.737C119.049 184.231 118.955 184.408 120.418 184.853C120.689 184.771 120.607 184.501 121.095 184.649C120.607 184.501 120.302 184.223 120.397 184.047C120.932 184.107 120.614 184.277 120.749 184.236L120.797 184.148C121.108 184.202 121.196 184.249 121.237 184.385C122.091 184.275 121.927 183.734 120.999 183.349C121.541 183.186 121.751 183.639 122.104 183.828C122.617 183.083 122.678 182.548 122.833 181.836C121.945 181.587 122.257 181.641 121.681 181.445L122.04 181.411C121.816 181.404 121.288 181.12 121.058 181.337C121.87 181.092 120.007 180.546 119.661 180.133L120.149 180.282C120.068 180.011 120.115 179.923 119.945 179.605C120.934 179.454 119.979 179.963 121.138 180.131L121.009 179.949C121.497 180.097 122.161 180.34 122.513 180.53C121.903 179.975 122.885 180.048 122.498 179.5C122.986 179.649 123.285 180.149 123.326 180.285C123.42 180.109 123.115 179.831 123.515 179.932L122.851 179.689C122.857 179.466 123.427 179.885 123.874 179.898C123.84 179.539 121.781 179.569 121.441 178.932Z" fill="#080809"/>
<path d="M123.494 172.997C123.446 173.085 123.446 173.085 123.487 173.221C123.399 173.173 123.446 173.085 123.494 172.997Z" fill="#080809"/>
<path d="M124.342 174.588C124.43 174.635 124.518 174.683 124.518 174.683C124.478 174.547 124.478 174.547 124.342 174.588Z" fill="#080809"/>
<path d="M125.182 174.926C124.871 174.872 124.918 174.784 124.518 174.682C124.694 174.777 124.688 175.001 125.182 174.926Z" fill="#080809"/>
<path d="M131.366 156.226C131.19 156.131 131.108 155.86 130.885 155.854L131.054 156.172L131.366 156.226Z" fill="#080809"/>
<path d="M130.465 156.423L130.147 156.593L130.893 157.107C131.035 156.842 130.459 156.647 130.465 156.423Z" fill="#080809"/>
<path d="M130.134 157.04L130.751 157.371L130.405 156.958L130.27 156.999C130.093 156.904 129.958 156.945 129.87 156.898L130.134 157.04C130.134 157.04 130.046 156.993 130.134 157.04Z" fill="#080809"/>
<path d="M128.739 157.312C128.963 157.319 129.268 157.596 129.532 157.738C129.85 157.568 129.01 157.231 129.281 157.149C129.579 157.65 129.728 157.162 130.04 157.216C129.464 157.02 129.017 157.007 128.746 157.089L129.098 157.278C129.092 157.502 128.963 157.319 128.739 157.312Z" fill="#080809"/>
<path d="M129.188 158.802L128.707 158.43C129.018 158.484 129.16 158.219 129.689 158.503C129.648 158.368 129.384 158.226 129.296 158.179C129.607 158.232 129.831 158.239 129.526 157.962C128.937 158.213 128.896 158.077 128.53 158.335C128.442 158.288 128.442 158.288 128.49 158.2L128.083 158.322C128.747 158.565 128.694 158.877 129.188 158.802Z" fill="#080809"/>
<path d="M128.599 159.053C128.605 158.83 128.077 158.546 127.765 158.492L128.016 159.081C128.111 158.905 128.07 158.769 128.599 159.053Z" fill="#080809"/>
<path d="M128.592 159.277C128.281 159.223 127.569 159.068 128.139 159.487C128.057 159.216 128.85 159.642 128.592 159.277Z" fill="#080809"/>
<path d="M127.483 160.497L128.025 160.334C128.824 160.536 128.194 160.652 128.547 160.841C128.824 160.536 128.553 160.618 128.119 160.158C128.167 160.069 127.861 159.792 127.733 159.609C128.072 160.246 126.168 159.564 127.483 160.497Z" fill="#080809"/>
<path d="M128.525 160.035L128.173 159.846L128.39 160.076L128.525 160.035Z" fill="#080809"/>
<path d="M126.305 160.999C125.323 160.926 126.644 161.636 126.15 161.711C126.062 161.663 126.062 161.663 125.886 161.569L125.879 161.792L125.703 161.698C126.279 161.893 126.36 162.164 126.801 162.401C127.471 162.42 126.184 162.07 126.855 162.089C127.119 162.231 127.471 162.42 127.648 162.515C127.431 162.285 127.166 162.143 126.814 161.954C126.773 161.818 127.038 161.96 127.349 162.014C127.044 161.737 126.292 161.446 126.61 161.277C127.145 161.337 127.315 161.655 127.281 161.296C126.346 161.135 127.511 161.079 126.982 160.796C127.165 160.667 127.835 160.686 128.1 160.828C127.436 160.585 126.954 160.213 126.825 160.03L127.212 160.579L126.413 160.376C126.623 160.83 126.488 160.871 126.305 160.999Z" fill="#080809"/>
<path d="M127.688 162.65C127.777 162.698 127.777 162.698 127.817 162.833C127.777 162.698 127.777 162.698 127.688 162.65Z" fill="#080809"/>
<path d="M128.229 161.011L128.405 161.105L128.628 161.112L128.229 161.011Z" fill="#080809"/>
<path d="M128.17 163.022C128.217 162.934 127.905 162.88 127.905 162.88L128.258 163.07L128.17 163.022Z" fill="#080809"/>
<path d="M127.587 163.05L127.052 162.99L127.405 163.179L127.587 163.05Z" fill="#080809"/>
<path d="M125.533 167.509C125.892 167.475 125.316 167.279 124.917 167.178C124.734 167.307 125.452 167.238 125.533 167.509Z" fill="#080809"/>
<path d="M125.354 170.591C125.713 170.556 125.319 170.232 125.326 170.008C125.008 170.178 125.089 170.449 125.354 170.591Z" fill="#080809"/>
<path d="M126.778 172.377C126.602 172.283 126.514 172.235 126.466 172.323L125.585 171.85C125.179 171.973 126.378 172.276 126.778 172.377Z" fill="#080809"/>
<path d="M126.556 173.847L126.251 173.57L126.204 173.658C125.851 173.469 125.675 173.374 125.411 173.232C125.452 173.368 125.845 173.692 126.556 173.847Z" fill="#080809"/>
<path d="M125.241 172.914C125.194 173.002 125.194 173.002 125.241 172.914C125.37 173.097 125.505 173.056 125.241 172.914Z" fill="#080809"/>
<path d="M125.235 173.137L125.323 173.185C125.235 173.137 125.282 173.049 125.235 173.137C125.194 173.002 125.058 173.043 125.235 173.137Z" fill="#080809"/>
<path d="M125.974 173.875L125.961 174.322L126.231 174.24C125.655 174.045 126.638 174.118 125.974 173.875Z" fill="#080809"/>
<path d="M124.933 175.813L124.309 175.705C124.079 175.922 125.313 176.585 124.331 176.511C124.69 176.477 124.947 176.843 125.177 176.626C124.649 176.342 124.75 175.942 124.933 175.813Z" fill="#080809"/>
<path d="M123.748 176.539C123.572 176.444 123.437 176.485 123.301 176.526C123.254 176.614 123.43 176.709 123.742 176.763C122.99 176.472 124.236 176.688 123.748 176.539Z" fill="#080809"/>
<path d="M123.58 177.697C123.627 177.609 123.587 177.474 123.404 177.603C123.397 177.826 124.021 177.934 124.461 178.171C124.779 178.001 123.851 177.616 123.58 177.697Z" fill="#080809"/>
<path d="M118.772 178.407C119.307 178.467 119.267 178.332 119.09 178.237C119.178 178.285 118.996 178.414 118.772 178.407Z" fill="#080809"/>
<path d="M122.945 179.513L123.081 179.473L122.329 179.182L122.945 179.513Z" fill="#080809"/>
<path d="M123.082 180.949L123.523 181.185L123.441 180.915L123.082 180.949Z" fill="#080809"/>
<path d="M122.852 181.166L122.846 181.389L123.069 181.396C123.252 181.267 122.852 181.166 122.852 181.166Z" fill="#080809"/>
<path d="M122.833 181.836C122.745 181.789 122.88 181.748 122.833 181.836L122.663 181.518L122.833 181.836Z" fill="#080809"/>
<path d="M118.854 184.807C118.366 184.659 118.671 184.936 118.536 184.977C118.712 185.072 119.341 184.956 118.854 184.807Z" fill="#080809"/>
</g>
<path d="M144.106 57.0505C143.922 55.7029 143.65 54.3079 143.154 52.9065C142.535 51.0988 141.782 49.3319 140.628 47.4639" stroke="#1B1C1E" stroke-miterlimit="10"/>
<path d="M139.102 251.301C126.912 245.89 123.779 255.104 123.779 255.104" stroke="#1B1C1E" stroke-miterlimit="10"/>
</svg>
