<svg width="360" height="438" viewBox="0 0 360 438" fill="none" xmlns="http://www.w3.org/2000/svg">
<path d="M2.79798 429.003C2.79798 429.003 -12.8568 434.221 29.8928 435.827C72.6425 437.432 298.433 438.235 321.714 435.827C344.996 433.418 390.154 434.823 330.144 429.003C270.134 423.182 208.317 426.594 147.906 423.182C87.4945 419.57 11.8296 422.781 2.79798 429.003Z" fill="#1B1C1E"/>
<path d="M139.677 22.1785C139.677 22.1785 120.008 1.70688 101.945 0.101257C82.6776 -1.70507 78.4629 20.7736 95.7233 58.1043C95.7233 58.1043 130.043 45.2593 139.677 22.1785Z" fill="#F6EEEB"/>
<path d="M130.244 35.8263C116.596 50.2769 95.7233 58.1043 95.7233 58.1043C84.6846 34.4214 82.2762 16.7595 86.8924 7.52722C87.2938 7.12582 95.1212 0.90404 109.371 13.3476C118.403 20.9743 125.829 30.0059 130.244 35.8263Z" fill="#EAD6DE"/>
<path d="M222.768 26.1927C222.768 26.1927 254.68 1.10486 269.532 9.13296C284.384 17.1611 266.32 59.1079 261.102 66.9353C256.085 74.562 216.747 39.4391 222.768 26.1927Z" fill="#F6EEEB"/>
<path d="M261.303 66.9354C258.292 71.3508 243.842 61.5164 233.405 49.8757C237.62 42.4497 247.254 26.5942 256.486 20.1717C267.123 12.9464 273.546 16.7597 275.151 17.9639C277.56 33.0166 265.317 60.7136 261.303 66.9354Z" fill="#EAD6DE"/>
<path d="M330.947 424.387C330.746 427.196 328.338 429.404 325.528 429.404C286.19 429.404 38.523 429.203 34.9104 429.203C31.0971 429.203 23.4703 407.126 46.3504 399.098C46.3504 399.098 38.7238 358.556 55.7835 286.504C73.4453 212.645 101.142 170.096 101.142 170.096C101.142 170.096 73.646 153.237 71.639 121.125C69.632 88.8118 93.5156 49.4741 118.804 32.2137C143.892 14.7526 166.973 14.5518 197.881 17.5624C228.789 20.5729 248.659 36.6291 265.919 60.1113C283.982 84.7978 292.01 119.519 283.18 143.604C275.954 163.272 262.106 172.304 262.106 172.304C262.106 172.304 265.919 179.128 271.539 191.371C280.37 210.036 293.616 241.145 305.257 278.476C306.06 281.085 306.862 283.694 307.465 286.303C309.271 292.726 310.676 299.148 312.081 305.37C315.091 320.021 316.697 334.07 317.5 346.715C319.507 377.824 316.295 399.7 316.295 399.7C316.295 399.7 332.753 403.714 330.947 424.387Z" fill="#F6EEEB"/>
<path d="M175.603 129.956C175.603 129.956 167.374 127.146 163.561 122.329C159.547 117.512 162.357 111.893 175.603 111.893C189.652 111.893 190.254 118.114 186.441 122.931C182.628 127.547 175.603 129.956 175.603 129.956Z" fill="#1B1C1E" stroke="#1B1C1E" stroke-width="1.0185" stroke-miterlimit="10"/>
<path d="M175.603 129.956V140.794C173.395 141.396 171.388 142.199 169.381 143.202C157.54 149.625 146.1 134.372 155.533 124.738C157.339 122.731 159.747 121.125 162.758 119.52" stroke="#1B1C1E" stroke-width="1.0185" stroke-miterlimit="10"/>
<path d="M175.603 129.956V140.794C178.212 141.396 180.42 142.4 182.627 143.604C192.863 149.424 204.103 137.181 197.48 127.548C195.071 124.136 191.659 121.326 186.642 119.52" stroke="#1B1C1E" stroke-width="1.0185" stroke-miterlimit="10"/>
<path d="M165.367 145.811C165.367 145.811 169.983 148.219 175.001 148.219C179.617 148.219 186.642 146.212 186.642 146.212" stroke="#1B1C1E" stroke-width="1.0185" stroke-miterlimit="10"/>
<path d="M132.452 93.6287C126.832 93.6287 119.607 95.0336 115.593 100.854C109.973 109.484 116.797 120.322 130.445 120.523C144.093 120.724 151.719 113.699 149.311 104.667C146.902 95.6357 135.864 93.6287 132.452 93.6287Z" fill="#DDC64E" stroke="#1B1C1E" stroke-miterlimit="10"/>
<path d="M132.452 118.114C137.44 118.114 141.483 112.993 141.483 106.674C141.483 100.356 137.44 95.2344 132.452 95.2344C127.464 95.2344 123.42 100.356 123.42 106.674C123.42 112.993 127.464 118.114 132.452 118.114Z" fill="#1B1C1E"/>
<path d="M219.958 93.6287C225.578 93.6287 232.803 95.0336 236.817 100.854C242.437 109.484 235.613 120.322 221.965 120.523C208.317 120.724 200.691 113.699 203.099 104.667C205.508 95.6357 216.546 93.6287 219.958 93.6287Z" fill="#DDC64E" stroke="#1B1C1E" stroke-miterlimit="10"/>
<path d="M219.958 118.114C224.835 118.114 228.789 112.993 228.789 106.674C228.789 100.356 224.835 95.2344 219.958 95.2344C215.081 95.2344 211.127 100.356 211.127 106.674C211.127 112.993 215.081 118.114 219.958 118.114Z" fill="#1B1C1E"/>
<path d="M75.8538 332.063C75.8538 332.063 90.7057 426.594 96.7268 429.404" stroke="#1B1C1E" stroke-miterlimit="10"/>
<path d="M158.543 429.203C158.543 429.203 159.547 415.555 149.913 409.936C140.279 404.517 140.279 400.302 139.276 378.225C138.272 356.348 139.276 255.595 139.276 255.595" stroke="#1B1C1E" stroke-miterlimit="10"/>
<path d="M243.842 429.203C243.842 429.203 251.669 423.784 265.718 327.046" stroke="#1B1C1E" stroke-miterlimit="10"/>
<path d="M144.093 429.404C144.093 429.404 144.695 421.175 139.878 416.96" stroke="#1B1C1E" stroke-miterlimit="10"/>
<path d="M123.22 429.203C123.22 429.203 122.216 424.587 118.804 423.182" stroke="#1B1C1E" stroke-miterlimit="10"/>
<path d="M203.3 429.203C203.3 429.203 202.096 421.577 206.511 416.96" stroke="#1B1C1E" stroke-miterlimit="10"/>
<path d="M220.962 429.203C220.962 429.203 221.564 421.978 224.173 419.77" stroke="#1B1C1E" stroke-miterlimit="10"/>
<path d="M316.095 399.7C316.095 399.7 294.419 394.482 280.57 405.922" stroke="#1B1C1E" stroke-miterlimit="10"/>
<path d="M313.887 414.552C313.887 414.552 316.095 425.591 313.285 429.404" stroke="#1B1C1E" stroke-miterlimit="10"/>
<path d="M296.426 429.204C296.426 429.204 294.218 423.383 296.024 417.362" stroke="#1B1C1E" stroke-miterlimit="10"/>
<path d="M46.1497 399.098C46.1497 399.098 55.9842 395.485 65.0158 399.098" stroke="#1B1C1E" stroke-miterlimit="10"/>
<path d="M44.1427 429.203C44.1427 429.203 42.1357 419.971 46.1497 416.157" stroke="#1B1C1E" stroke-miterlimit="10"/>
<path d="M59.5968 429.203C59.5968 429.203 61.8045 424.386 63.0087 420.171" stroke="#1B1C1E" stroke-miterlimit="10"/>
<path d="M307.464 286.303C284.183 289.514 259.296 272.053 254.88 240.743C251.067 213.849 264.715 197.592 271.338 191.371C280.169 210.036 293.415 241.145 305.056 278.476C305.859 281.085 306.662 283.694 307.464 286.303Z" fill="#513F3B"/>
<path d="M317.299 346.714C309.672 344.306 303.049 337.883 302.447 327.046C301.845 316.007 306.862 309.183 312.081 305.37C314.89 320.021 316.496 334.07 317.299 346.714Z" fill="#DDC64E"/>
<path d="M206.712 255.796C206.712 255.796 205.708 396.288 198.282 404.316C191.057 412.545 184.032 418.566 187.043 429.002" stroke="#1B1C1E" stroke-miterlimit="10"/>
<path d="M135.061 67.9387C119.005 81.1851 95.3219 77.5724 83.079 74.3612C92.1106 56.9001 105.156 41.2452 118.603 32.0129C131.85 22.7806 144.494 18.3651 157.941 16.7595C157.941 16.7595 160.55 46.8649 135.061 67.9387Z" fill="#DDC64E"/>
<g opacity="0.88">
<path d="M249.261 184.949C249.261 184.748 249.261 184.547 249.261 184.346C249.06 184.547 249.06 184.547 249.261 184.949Z" fill="#443730"/>
<path d="M236.214 187.557C236.214 187.557 236.016 187.756 236.214 187.557V187.557Z" fill="#443730"/>
<path d="M246.852 178.727C246.852 178.526 246.652 178.526 246.652 178.526C246.652 178.727 246.852 178.727 246.852 178.727Z" fill="#443730"/>
<path d="M261.504 180.533C261.504 180.533 261.704 180.332 261.504 180.533L261.704 180.332C261.504 180.132 261.504 180.332 261.504 180.533Z" fill="#443730"/>
<path d="M260.701 179.931C260.902 179.73 260.902 179.73 260.701 179.931V179.931Z" fill="#443730"/>
<path d="M262.909 170.699L262.708 170.097C262.708 170.498 262.708 170.699 262.909 170.699Z" fill="#443730"/>
<path d="M261.303 182.54C261.303 182.34 261.303 182.139 261.303 181.938C261.102 182.139 261.102 182.34 261.303 182.54Z" fill="#443730"/>
<path d="M231.398 188.963C231.198 188.963 231.198 189.164 230.997 189.164C231.398 189.364 231.398 189.364 231.398 188.963Z" fill="#443730"/>
<path d="M257.49 181.938C256.687 180.332 257.891 181.737 257.088 180.132C257.088 180.533 256.887 180.934 256.486 180.132C256.285 179.128 257.088 179.931 256.486 178.526V179.128C255.884 178.526 255.683 177.322 255.683 177.522C256.285 179.529 254.479 177.121 254.278 177.723V177.522L253.476 176.92C253.476 176.92 253.476 176.92 253.476 176.72C253.476 176.92 253.476 176.92 253.676 177.121C253.074 176.318 252.472 175.716 252.071 176.118C252.472 177.322 251.067 176.92 251.268 177.924C251.268 177.522 251.468 177.522 251.87 177.723L252.472 179.128C252.071 179.329 251.87 177.924 251.87 178.927C252.673 180.734 252.472 178.727 252.673 178.727C252.673 179.128 252.673 179.529 252.673 179.931C253.275 179.73 254.078 180.132 253.676 178.325C254.078 178.727 254.278 179.329 254.278 179.73C254.278 178.526 255.081 180.533 254.88 179.529C255.483 181.336 254.479 180.734 254.479 181.737C253.476 180.533 253.275 182.139 252.873 182.54C252.271 181.336 252.271 180.132 251.87 179.529C251.067 178.927 251.669 180.332 251.469 181.336C250.866 181.135 250.666 179.329 250.064 179.529V178.526C249.06 176.92 250.064 179.329 249.662 179.128C249.863 179.529 250.064 179.931 250.465 179.73C250.666 180.332 250.666 180.734 250.465 180.734C250.666 181.536 251.067 182.54 250.465 182.339C250.264 181.135 249.863 181.737 249.662 181.135V180.934C249.461 181.336 249.06 181.336 249.06 181.536V181.336C249.06 181.737 249.461 183.142 249.06 182.941C248.859 182.339 248.859 180.934 248.458 181.135C248.257 180.332 248.659 180.132 249.06 180.332C248.659 180.132 248.057 178.927 248.458 178.727C248.057 177.723 248.257 179.329 247.856 178.927C248.057 179.128 248.057 179.529 248.257 179.931C247.856 178.526 247.454 180.132 247.856 180.934L248.057 180.132C248.458 181.135 248.257 182.139 248.659 182.54C247.856 180.934 247.856 183.744 247.254 182.339L247.655 183.142C246.652 182.941 246.652 185.149 246.05 185.751C246.25 185.149 245.648 183.343 246.25 183.744C245.447 183.544 245.447 181.938 244.845 181.135C244.042 180.533 245.046 182.941 245.046 183.544L245.247 183.142C245.447 185.551 243.641 183.142 243.24 184.748C243.039 184.146 243.24 184.346 243.44 184.146C242.638 183.142 243.24 184.547 243.039 184.948C242.638 184.948 242.035 184.547 241.835 183.142C241.233 182.941 242.035 183.945 242.035 184.547L241.835 184.346V185.952C241.433 185.551 240.631 184.948 240.229 183.744C239.426 184.146 240.831 186.955 240.43 187.558C239.828 186.955 240.229 186.554 240.028 185.952L239.426 186.153C239.226 184.547 239.828 185.149 239.226 183.343C239.226 185.35 238.824 183.945 238.423 185.35V185.551C238.423 186.955 237.62 186.153 237.219 186.554C237.219 185.751 237.62 185.551 237.821 185.149C237.219 184.547 236.416 185.551 236.416 187.156C236.215 186.955 235.412 186.353 235.613 185.751C234.81 185.751 235.814 188.16 235.011 187.758L234.81 186.554C233.606 184.948 233.606 188.561 232.602 186.955L232.803 188.561C232.602 187.959 232.201 187.758 232 187.156L232.201 186.554C231.599 185.35 232 187.758 231.599 186.955C231.599 187.357 232.201 188.36 232.402 188.962C233.807 187.758 236.014 189.565 237.219 187.558C237.018 187.357 237.018 187.156 237.018 186.955C237.219 187.357 237.419 186.755 237.62 187.558V187.758C238.021 187.357 238.824 188.962 239.025 188.962C238.824 187.959 240.028 189.163 239.426 187.558L240.028 188.561C240.028 187.959 239.627 187.156 239.828 186.755C240.229 186.755 240.43 187.558 240.229 187.959C241.433 188.36 242.838 187.758 243.842 186.955V187.758C244.243 188.16 244.444 185.952 244.845 188.16C245.046 187.156 246.451 188.36 245.849 186.153C246.852 188.16 247.454 186.554 248.057 186.153C247.254 184.346 248.458 185.35 248.458 184.547C249.06 185.952 248.257 186.153 248.659 187.156C248.659 184.748 251.469 187.959 250.465 184.346C250.666 184.547 250.666 184.547 250.666 184.748C250.866 184.748 251.268 185.149 251.469 185.35C251.268 184.748 250.866 184.547 251.067 184.146C251.468 184.146 251.669 185.149 251.87 185.551C252.071 184.547 252.873 183.945 252.271 182.339C252.673 182.741 253.074 183.343 253.074 183.744C253.476 182.339 253.877 183.544 254.479 182.54C254.278 182.741 254.88 184.146 254.278 183.744C255.483 185.551 255.483 182.941 256.486 183.544L256.285 182.139C256.687 181.737 257.088 182.941 257.088 183.544C258.092 183.945 258.092 183.142 258.694 182.741C258.895 182.941 258.895 183.142 258.694 183.142L259.497 182.741C259.497 182.339 259.497 181.536 259.095 180.934C258.092 181.737 258.092 182.339 257.49 181.938Z" fill="#443730"/>
<path d="M248.659 178.325C248.859 178.526 249.06 178.727 249.06 178.727C248.859 178.526 248.659 178.325 248.659 178.325Z" fill="#443730"/>
<path d="M263.711 175.315C262.708 173.509 263.511 175.917 262.909 175.516C263.109 175.114 262.507 174.111 262.106 173.509C262.909 176.118 261.504 173.308 260.901 174.111C260.5 173.308 260.701 173.107 260.299 172.104C260.299 172.906 259.898 173.509 260.5 174.914C259.898 175.315 259.095 174.914 258.894 175.315C259.095 174.512 258.292 173.91 258.092 172.505C258.493 174.311 258.292 176.72 258.493 179.128C257.69 177.723 257.69 177.523 257.088 176.118C255.884 175.516 257.49 177.723 256.486 177.523L256.887 177.723C256.687 178.325 257.289 179.73 257.69 180.935L258.493 180.333C258.894 181.336 258.292 181.537 258.292 181.737C258.493 183.142 259.095 182.34 259.497 183.343C259.296 182.54 259.697 182.54 259.898 182.139L260.099 182.741C260.902 183.142 260.299 181.537 260.701 181.537C260.902 181.737 260.901 181.737 260.901 181.938C260.701 181.336 260.5 180.332 260.701 180.132L260.5 180.333C260.099 178.928 260.5 177.723 259.296 176.519H260.299C260.902 177.924 261.905 180.332 261.303 180.734L261.504 181.336C262.306 181.938 262.106 179.73 261.102 178.526C259.697 174.914 262.507 177.723 262.306 175.917C262.909 176.921 262.708 177.322 262.909 178.125C262.708 178.325 262.708 178.526 262.306 177.723C261.704 178.727 263.912 180.533 262.909 180.734C262.106 180.533 262.708 178.928 261.905 179.128L262.708 181.938C263.109 181.737 263.31 180.935 263.511 180.533C264.514 177.723 266.722 178.526 266.722 178.526C269.331 176.72 271.94 174.713 274.549 172.706C275.151 171.702 275.553 171.702 274.148 169.093C273.546 168.692 273.345 169.294 272.944 168.29C273.546 169.294 273.546 169.896 272.944 170.097C272.342 169.294 272.944 169.495 272.743 169.294H272.542C272.342 168.892 272.141 168.491 272.342 168.29C270.937 167.287 270.335 168.09 271.137 170.097C270.134 169.495 270.535 168.491 270.134 167.688C268.327 167.889 267.525 168.491 266.12 169.294C267.123 170.899 266.521 170.297 267.123 171.702L266.722 171.1C266.923 171.301 267.324 172.505 267.926 172.706C266.32 171.903 268.127 175.315 267.926 176.519L267.525 175.716C267.123 176.118 266.923 176.318 266.923 176.921C265.317 175.716 267.525 176.318 266.12 174.311V174.713C265.718 173.91 265.116 172.304 265.116 171.702C265.116 173.509 263.912 171.702 263.711 173.107C263.31 172.104 263.511 171.1 263.711 170.699C263.31 170.699 263.31 171.702 262.909 170.899L263.511 172.104C263.109 172.505 262.909 170.899 262.507 170.297C261.303 170.899 264.313 174.111 263.711 175.315Z" fill="#443730"/>
<path d="M251.87 179.931C252.071 179.931 252.071 179.931 252.271 179.73C252.071 179.73 251.87 179.73 251.87 179.931Z" fill="#443730"/>
<path d="M253.074 176.72C253.074 176.519 252.873 176.318 252.873 176.318C253.074 176.318 253.074 176.519 253.074 176.72Z" fill="#443730"/>
<path d="M252.673 174.914C252.873 175.516 252.873 175.516 253.074 176.319C252.873 175.716 253.275 175.516 252.673 174.914Z" fill="#443730"/>
<path d="M215.141 184.346C215.141 184.748 214.74 185.149 214.941 185.551L215.342 184.949L215.141 184.346Z" fill="#443730"/>
<path d="M216.145 185.751L216.546 186.153L216.747 184.346C216.346 184.547 216.546 185.751 216.145 185.751Z" fill="#443730"/>
<path d="M217.55 185.952V184.547L216.948 185.55L217.55 185.952C217.349 186.353 217.55 186.554 217.55 186.755V185.952C217.55 185.952 217.55 186.152 217.55 185.952Z" fill="#443730"/>
<path d="M219.356 188.16C219.155 187.759 219.356 186.956 219.356 186.354C218.754 185.952 218.955 187.759 218.553 187.357C219.155 186.354 218.152 186.555 217.951 185.952C218.152 187.157 218.553 187.959 218.955 188.361V187.558C219.155 187.357 219.155 187.759 219.356 188.16Z" fill="#443730"/>
<path d="M221.564 185.952L221.363 187.156C221.162 186.554 220.56 186.554 220.56 185.35C220.36 185.551 220.36 186.153 220.36 186.554C220.159 185.952 219.958 185.35 219.757 186.354C220.761 187.156 220.56 187.357 221.363 187.759C221.363 187.959 221.363 187.959 221.162 187.959L221.764 188.561C221.564 186.956 222.166 186.755 221.564 185.952Z" fill="#443730"/>
<path d="M222.567 186.755C222.166 186.956 222.166 188.16 222.367 188.762L223.169 187.558C222.768 187.758 222.567 187.959 222.567 186.755Z" fill="#443730"/>
<path d="M222.969 186.755C223.169 187.357 223.772 188.762 223.772 187.357C223.37 187.557 223.37 185.751 222.969 186.755Z" fill="#443730"/>
<path d="M226.18 187.357L225.176 186.755C224.775 185.149 225.377 186.153 225.578 185.35C224.775 185.149 225.176 185.551 224.775 186.755C224.574 186.755 224.374 187.558 224.173 187.959C225.176 186.554 225.779 190.568 226.18 187.357Z" fill="#443730"/>
<path d="M224.374 185.952V186.755L224.574 186.153L224.374 185.952Z" fill="#443730"/>
<path d="M228.388 188.963C229.191 190.769 229.19 187.759 229.793 188.361C229.793 188.561 229.793 188.561 229.793 188.963L230.194 188.762L230.395 189.163C230.194 187.959 230.595 187.558 230.595 186.554C229.793 185.35 230.595 187.959 229.993 186.755C229.993 186.153 229.993 185.35 229.993 184.949C229.793 185.551 229.993 186.354 229.993 186.956C229.793 187.156 229.592 186.554 229.592 185.952C229.391 186.755 229.793 188.361 229.19 188.16C228.588 187.156 229.191 186.554 228.588 187.156C229.191 188.963 227.986 186.956 227.986 188.16C227.585 187.959 226.983 186.755 226.983 186.153C227.183 187.558 226.983 188.762 226.782 189.364L227.384 188.16L227.986 189.766C227.585 188.561 227.986 188.561 228.388 188.963Z" fill="#443730"/>
<path d="M226.381 185.55V185.149L226.18 184.547L226.381 185.55Z" fill="#443730"/>
<path d="M229.793 183.544C229.592 183.544 229.793 184.146 229.793 184.146V183.343V183.544Z" fill="#443730"/>
<path d="M230.395 184.547L230.997 185.55V184.748L230.395 184.547Z" fill="#443730"/>
<path d="M240.229 183.142C239.828 182.741 240.028 183.744 240.229 184.547C240.831 184.547 240.028 183.544 240.229 183.142Z" fill="#443730"/>
<path d="M245.648 179.931C245.046 179.329 245.046 180.533 244.845 180.533C245.247 180.935 245.648 180.533 245.648 179.931Z" fill="#443730"/>
<path d="M246.652 175.315C246.652 175.716 246.652 175.917 246.852 175.917L247.254 177.924C248.057 178.526 247.053 176.118 246.652 175.315Z" fill="#443730"/>
<path d="M249.261 173.91L249.06 174.713H249.261C249.461 175.516 249.461 175.917 249.662 176.519C249.863 176.118 249.863 175.315 249.261 173.91Z" fill="#443730"/>
<path d="M249.462 177.322C249.462 177.121 249.662 177.121 249.462 177.322C249.462 176.92 249.261 176.519 249.462 177.322Z" fill="#443730"/>
<path d="M249.863 176.92V176.72C249.662 176.92 249.662 176.92 249.863 176.92C249.662 177.322 249.863 177.322 249.863 176.92Z" fill="#443730"/>
<path d="M250.064 174.713L250.666 174.111L250.264 173.91C250.666 175.315 249.662 173.509 250.064 174.713Z" fill="#443730"/>
<path d="M254.278 174.11L254.88 175.114C255.483 175.114 254.88 172.505 256.085 174.11C255.483 173.508 255.884 172.705 255.081 172.505C255.483 173.91 254.88 174.311 254.278 174.11Z" fill="#443730"/>
<path d="M256.887 174.913C256.887 175.315 257.088 175.515 257.49 175.716C257.69 175.716 257.69 175.114 257.289 174.713C257.69 176.318 256.687 173.91 256.887 174.913Z" fill="#443730"/>
<path d="M259.095 173.91C258.894 173.91 258.894 174.111 259.095 174.312C259.497 174.111 258.694 172.907 258.493 171.903C257.891 171.502 258.493 173.308 259.095 173.91Z" fill="#443730"/>
<path d="M266.521 180.132C265.919 179.128 265.718 179.53 265.718 179.931C265.718 179.73 266.12 179.931 266.521 180.132Z" fill="#443730"/>
<path d="M262.507 172.505L262.106 172.304L262.909 173.709L262.507 172.505Z" fill="#443730"/>
<path d="M264.514 170.297L264.113 169.294L263.912 169.695L264.514 170.297Z" fill="#443730"/>
<path d="M264.916 170.297L265.317 170.096L264.916 169.896C264.715 169.494 265.116 170.297 264.916 170.297Z" fill="#443730"/>
<path d="M266.12 169.494C266.12 169.695 265.919 169.494 265.919 169.294V170.096L266.12 169.494Z" fill="#443730"/>
<path d="M275.954 170.899C276.556 171.903 276.556 171.1 276.757 171.1C276.757 170.899 275.553 169.896 275.954 170.899Z" fill="#443730"/>
</g>
<g opacity="0.88">
<path d="M114.79 176.92C114.79 177.121 114.589 177.121 114.389 177.322C114.389 177.322 114.589 177.322 114.79 176.92Z" fill="#443730"/>
<path d="M126.431 181.737L126.631 181.135C126.431 181.336 126.431 181.536 126.431 181.737Z" fill="#443730"/>
<path d="M112.181 180.332C111.98 180.332 111.779 180.532 111.579 180.934L112.181 180.332Z" fill="#443730"/>
<path d="M103.751 171.702C103.751 171.501 103.551 171.501 103.751 171.702H103.551C103.35 171.702 103.551 171.702 103.751 171.702Z" fill="#443730"/>
<path d="M95.1212 176.118L94.7198 176.72C94.9205 176.519 95.1212 176.318 95.1212 176.118Z" fill="#443730"/>
<path d="M105.357 170.498C105.156 170.498 105.156 170.698 104.956 170.899C105.156 170.698 105.357 170.699 105.357 170.498Z" fill="#443730"/>
<path d="M114.79 176.72C114.79 176.92 114.79 176.92 114.589 176.92C114.79 176.92 114.79 176.72 114.79 176.72Z" fill="#443730"/>
<path d="M131.047 182.741C131.248 182.741 131.248 182.74 131.448 182.54C131.248 182.339 131.248 182.339 131.047 182.741Z" fill="#443730"/>
<path d="M107.163 173.709C106.561 175.515 106.762 173.508 105.959 175.314C106.361 175.114 106.561 174.913 106.361 175.716C105.758 176.519 105.959 175.515 105.156 176.719L105.758 176.318C105.758 177.121 104.956 178.124 105.156 178.124C106.361 176.318 105.758 179.329 106.16 179.128L105.959 179.329V180.533C105.959 180.533 105.959 180.533 105.959 180.733C105.959 180.533 106.16 180.533 106.16 180.332C105.959 181.336 105.959 182.138 106.561 182.138C107.163 181.135 107.966 182.339 108.568 181.536C108.368 181.737 108.167 181.737 107.966 181.336L108.568 180.131C108.97 180.332 108.167 181.336 108.769 180.733C109.371 178.927 108.167 180.533 107.966 180.131C108.167 179.73 108.568 179.529 108.769 179.329C108.167 179.128 107.966 178.325 106.963 179.931C106.963 179.529 107.364 178.726 107.565 178.726C106.762 179.529 107.765 177.522 106.963 178.325C107.765 176.719 108.167 177.723 108.769 176.92C108.769 178.526 109.772 177.522 110.575 177.322C110.174 178.526 109.371 179.529 109.17 180.332C109.371 181.336 109.973 179.931 110.575 179.329C110.776 179.931 109.772 181.336 110.375 181.737L109.772 182.339C109.371 184.145 110.375 181.737 110.575 182.339C110.575 181.938 110.776 181.336 110.575 181.336C110.776 180.733 111.177 180.533 111.177 180.533C111.579 179.73 111.98 178.927 112.181 179.329C111.579 180.332 112.181 180.131 112.181 180.733L111.98 180.934C112.382 180.733 112.582 180.934 112.984 180.733L112.783 180.934C113.184 180.533 113.787 179.329 113.987 179.73C113.787 180.332 112.783 181.536 113.385 181.336C112.984 182.138 112.582 181.938 112.382 181.536C112.582 181.938 112.382 183.343 111.779 183.142C111.579 184.145 112.382 182.941 112.382 183.343C112.382 182.941 112.582 182.74 112.783 182.339C112.382 183.744 113.586 182.74 113.787 181.737L113.184 182.339C113.586 181.336 114.188 180.733 114.389 180.131C113.987 181.938 115.593 179.73 115.392 181.135L115.593 180.131C116.195 180.934 117.399 179.128 118.403 178.927C118.001 179.329 117.399 181.336 116.998 180.533C117.6 181.135 116.596 182.54 116.596 183.543C116.998 184.346 117.399 181.938 117.801 181.336L117.198 181.536C118.403 179.529 118.603 182.54 119.808 181.336C119.607 181.938 119.607 181.536 119.406 181.737C119.406 182.941 119.808 181.536 120.209 181.336C120.61 181.536 120.811 182.339 120.209 183.543C120.61 183.945 120.41 182.74 120.811 182.339V182.74L121.614 181.336C121.815 181.938 122.015 182.74 121.815 184.145C122.818 184.145 123.019 181.135 123.822 180.733C124.022 181.536 123.42 181.737 123.22 182.339H123.822C123.22 183.744 123.019 182.941 122.417 184.748C123.42 182.941 123.22 184.346 124.022 183.343V183.142C124.624 181.938 125.026 182.941 125.427 182.941C125.026 183.744 124.624 183.543 124.424 183.945C124.624 184.747 125.829 184.346 126.631 182.74C126.832 183.142 127.033 183.744 126.631 184.346C127.434 184.748 127.434 182.138 128.036 182.74L127.635 183.945C128.036 185.952 129.441 182.74 129.843 184.346L130.244 182.941C130.244 183.543 130.445 183.945 130.445 184.547L130.043 184.948C130.043 186.353 130.646 183.744 130.846 184.748C130.846 184.346 130.846 183.142 130.846 182.74C129.04 183.343 128.036 180.934 126.23 181.938C126.23 182.138 126.23 182.339 126.23 182.54C126.23 182.138 125.829 182.54 126.029 181.737C125.628 181.938 125.628 180.131 125.427 179.931C125.026 180.934 124.624 179.329 124.424 181.135V179.931C124.223 180.533 124.022 181.336 123.822 181.737C123.621 181.536 123.822 180.934 124.022 180.533C123.22 179.529 121.815 179.329 120.61 179.529L121.213 178.726C121.012 178.325 119.808 179.931 120.61 177.924C119.808 178.526 119.406 176.92 118.603 179.128C119.005 176.92 117.6 177.924 116.797 177.924C116.396 179.73 115.994 178.124 115.593 178.927C115.994 177.522 116.596 177.723 116.998 176.719C115.593 178.726 115.593 174.512 113.987 177.924C113.987 177.723 113.987 177.522 113.987 177.522C113.787 177.522 113.987 176.719 113.787 176.519C113.385 177.121 113.586 177.522 113.184 177.522C112.984 177.322 113.586 176.318 113.586 175.917C112.783 176.519 111.779 176.519 111.177 177.924C111.177 177.522 111.378 176.519 111.579 176.318C110.375 177.121 110.977 175.716 109.772 176.117C110.174 176.117 110.575 174.712 110.776 175.515C111.177 173.307 109.371 175.314 109.17 174.11L108.368 175.314C107.966 175.314 108.368 174.11 108.769 173.709C108.368 172.705 107.765 173.307 107.364 173.107C107.364 172.906 107.565 172.705 107.565 172.705L106.963 172.304C106.762 172.505 106.16 173.107 105.959 173.91C106.762 173.307 106.963 172.906 107.163 173.709Z" fill="#443730"/>
<path d="M106.361 173.91C106.16 174.11 106.361 174.11 106.361 173.91V173.91Z" fill="#443730"/>
<path d="M98.3324 172.906C97.5296 174.913 98.9345 172.906 98.9345 173.509C98.5331 173.709 97.931 174.713 97.7303 175.315C99.3359 173.107 97.931 176.118 98.9345 175.917C98.5331 176.72 98.1317 176.72 97.7303 177.523C98.3324 177.121 99.1353 177.121 99.9381 175.716C100.54 175.917 100.741 176.72 101.343 176.72C100.54 177.121 100.54 178.125 99.7373 179.128C100.942 177.723 102.949 176.318 104.554 174.713C103.952 176.318 103.952 176.519 103.149 177.723C103.551 179.128 103.952 176.519 104.554 177.121L104.354 176.72C104.956 176.519 105.558 174.913 106.16 174.111L105.156 173.91C105.558 172.906 106.16 173.308 106.361 173.107C107.163 171.903 106.361 172.104 106.762 171.1C106.361 171.903 105.959 171.502 105.758 171.702L105.959 171.1C105.758 170.297 104.956 171.702 104.554 171.502C104.554 171.301 104.554 171.301 104.755 171.1C104.354 171.702 103.751 172.304 103.551 172.505H103.751C102.748 173.709 101.544 174.111 101.343 175.917L100.741 175.114C101.544 173.709 102.748 171.502 103.35 171.702L103.751 171.1C103.751 170.097 102.146 171.702 101.744 173.107C99.5366 176.318 100.339 172.505 98.9345 173.709C99.336 172.706 99.9381 172.505 100.339 171.903C100.54 171.903 100.741 171.903 100.339 172.706C101.343 172.505 101.744 169.695 102.346 170.498C102.547 171.1 100.942 171.702 101.544 172.104L103.35 169.695C102.949 169.495 102.346 169.896 101.945 169.896C99.336 170.699 98.7338 168.491 98.7338 168.491C95.924 167.287 93.3149 166.083 90.7057 164.678C89.7022 164.477 89.5015 164.276 87.4945 166.283C87.2938 166.885 87.8959 167.086 87.2938 167.688C88.0966 166.885 88.6987 166.685 88.8994 166.885C88.2973 167.688 88.2973 167.086 88.2973 167.287V167.487C87.8959 167.889 87.6952 168.09 87.4945 168.09C87.0931 169.695 88.0966 170.097 89.7022 168.692C89.5015 169.896 88.498 169.896 87.8959 170.498C88.8994 172.104 89.9029 172.505 91.3078 173.509C92.3114 171.903 92.1107 172.505 92.9135 171.702L92.7128 172.304C92.9135 171.903 93.7163 170.899 93.5156 170.498C93.5156 172.304 95.7233 168.892 96.7268 168.491L96.1247 169.294C96.7268 169.495 96.7268 169.495 97.5296 169.294C97.3289 171.301 96.7268 169.093 95.7233 171.301L96.1247 171.1C95.5226 171.903 94.7198 173.107 94.1177 173.509C95.5226 172.505 94.9205 174.713 96.3254 174.111C95.7233 174.913 94.5191 175.315 94.3184 175.315C94.5191 175.516 95.3219 175.114 94.9205 176.118L95.5226 174.913C96.1247 175.114 94.9205 175.917 94.5191 176.72C96.1247 177.322 97.1282 173.107 98.3324 172.906Z" fill="#443730"/>
<path d="M109.572 178.927C109.572 178.727 109.371 178.727 109.17 178.927C109.17 178.927 109.371 178.927 109.572 178.927Z" fill="#443730"/>
<path d="M106.16 180.332C106.16 180.532 105.959 180.733 105.959 180.733C106.16 180.733 106.16 180.532 106.16 180.332Z" fill="#443730"/>
<path d="M105.357 181.938C105.558 181.336 105.758 181.336 106.16 180.734C105.758 181.135 105.357 180.935 105.357 181.938Z" fill="#443730"/>
<path d="M145.698 191.571C145.899 191.17 146.1 190.769 146.1 190.568L145.498 190.969L145.698 191.571Z" fill="#443730"/>
<path d="M144.895 189.966L144.494 189.364L144.093 191.17C144.494 191.17 144.293 189.966 144.895 189.966Z" fill="#443730"/>
<path d="M143.491 188.762L143.691 188.36C143.691 188.561 143.491 188.762 143.491 188.762Z" fill="#443730"/>
<path d="M143.491 189.565L143.089 190.969L143.892 189.966L143.491 189.565C143.691 189.163 143.491 188.962 143.491 188.762L143.089 189.765C143.29 189.565 143.491 189.364 143.491 189.565Z" fill="#443730"/>
<path d="M142.086 186.955C142.086 187.357 141.885 188.16 141.684 188.762C142.086 189.364 142.286 187.357 142.688 187.959C141.885 188.962 142.888 188.762 142.888 189.564C142.888 188.36 142.688 187.357 142.286 186.955L142.086 187.758C141.885 187.959 142.086 187.357 142.086 186.955Z" fill="#443730"/>
<path d="M139.276 188.762L139.878 187.558C139.878 188.16 140.48 188.16 140.279 189.565C140.48 189.364 140.681 188.762 140.881 188.561C140.881 189.163 141.082 189.765 141.283 188.762C140.48 187.758 140.681 187.558 140.079 187.156C140.079 186.956 140.279 186.956 140.279 186.956L139.878 186.153C139.476 187.758 138.874 187.758 139.276 188.762Z" fill="#443730"/>
<path d="M138.674 187.758C139.075 187.758 139.476 186.554 139.276 185.751L138.272 186.554C138.674 186.554 138.874 186.554 138.674 187.758Z" fill="#443730"/>
<path d="M138.072 187.558C138.072 186.955 137.871 185.551 137.469 186.755C137.871 186.554 137.469 188.36 138.072 187.558Z" fill="#443730"/>
<path d="M135.262 185.952L135.864 186.955C135.663 188.561 135.462 187.357 135.061 188.159C135.663 188.561 135.663 187.959 136.265 187.156C136.466 187.357 136.867 186.554 137.068 186.152C135.864 187.156 136.466 183.142 135.262 185.952Z" fill="#443730"/>
<path d="M136.667 187.959L136.867 187.156L136.265 187.758L136.667 187.959Z" fill="#443730"/>
<path d="M133.656 183.945C133.455 181.938 132.653 184.747 132.251 183.945C132.251 183.945 132.251 183.744 132.452 183.543L132.05 183.744V183.343C131.85 184.547 131.248 184.747 130.846 185.751C131.047 187.156 131.448 184.346 131.448 185.751C131.248 186.152 131.047 186.955 130.846 187.357C131.248 186.754 131.448 186.152 131.649 185.55C132.05 185.55 131.85 186.152 131.649 186.554C132.05 185.952 132.452 184.346 132.853 184.747C133.054 185.751 132.452 186.353 133.054 185.952C133.054 184.145 133.656 186.353 134.058 185.149C134.459 185.55 134.459 186.754 134.258 187.357C134.459 185.952 135.061 184.747 135.462 184.346L134.459 185.35V183.744C134.258 184.547 134.057 184.346 133.656 183.945Z" fill="#443730"/>
<path d="M131.047 187.156L130.846 187.357C130.846 187.357 130.846 187.357 131.047 187.156Z" fill="#443730"/>
<path d="M134.459 187.759L134.258 188.16V188.561L134.459 187.759Z" fill="#443730"/>
<path d="M130.445 188.159C130.445 188.159 130.646 187.758 130.646 187.557L130.244 188.36L130.445 188.159Z" fill="#443730"/>
<path d="M130.043 187.156V186.153L129.843 186.755L130.043 187.156Z" fill="#443730"/>
<path d="M120.61 183.744C120.811 184.346 121.012 183.343 121.413 182.54C121.012 182.138 121.012 183.343 120.61 183.744Z" fill="#443730"/>
<path d="M114.188 183.142C114.188 183.945 114.991 182.941 115.191 183.142C115.191 182.54 114.589 182.74 114.188 183.142Z" fill="#443730"/>
<path d="M110.174 185.952C110.375 185.551 110.575 185.551 110.375 185.35L111.378 183.544C111.378 182.54 110.575 185.149 110.174 185.952Z" fill="#443730"/>
<path d="M107.163 184.948L107.966 184.346L107.765 184.145C108.167 183.343 108.368 183.142 108.769 182.54C108.368 182.941 107.765 183.543 107.163 184.948Z" fill="#443730"/>
<path d="M109.371 182.54H109.17C109.17 182.74 108.97 183.142 109.371 182.54Z" fill="#443730"/>
<path d="M108.97 182.54C108.97 182.54 108.97 182.741 108.97 182.54C108.97 182.741 109.17 182.54 108.97 182.54C109.17 182.339 109.17 182.339 108.97 182.54Z" fill="#443730"/>
<path d="M107.163 183.945L106.361 183.744L106.561 184.146C106.963 183.142 106.561 185.149 107.163 183.945Z" fill="#443730"/>
<path d="M103.35 181.135L103.751 179.931C103.35 179.53 101.544 181.537 102.146 179.73C102.146 180.533 101.142 180.734 101.544 181.336C102.346 180.533 103.149 180.734 103.35 181.135Z" fill="#443730"/>
<path d="M102.346 178.525C102.547 178.325 102.547 177.923 102.748 177.522C102.547 177.321 102.146 177.723 102.146 178.325C102.748 176.92 101.744 179.529 102.346 178.525Z" fill="#443730"/>
<path d="M99.9381 177.522C100.139 177.522 100.339 177.522 100.339 177.121C99.9381 176.92 99.3359 178.325 98.7338 178.927C98.7338 179.931 99.9381 178.325 99.9381 177.522Z" fill="#443730"/>
<path d="M100.942 167.889C100.54 168.892 100.942 168.892 101.142 168.692C100.942 168.692 100.942 168.29 100.942 167.889Z" fill="#443730"/>
<path d="M96.7268 175.515V175.917L97.5296 174.512L96.7268 175.515Z" fill="#443730"/>
<path d="M93.7163 174.913L92.9135 175.716H93.5156L93.7163 174.913Z" fill="#443730"/>
<path d="M93.3149 174.511L92.9135 174.311V174.712C92.9135 175.114 93.3149 174.311 93.3149 174.511Z" fill="#443730"/>
<path d="M92.1106 173.91C92.3113 173.91 92.1106 174.111 92.1106 174.111L92.9135 173.709L92.1106 173.91Z" fill="#443730"/>
<path d="M89.5015 164.276C90.1036 163.473 89.5015 163.875 89.5015 163.473C89.3008 163.674 88.6987 165.079 89.5015 164.276Z" fill="#443730"/>
</g>
</svg>
