<svg width="49" height="73" viewBox="0 0 49 73" fill="none" xmlns="http://www.w3.org/2000/svg">
<g clip-path="url(#clip0_15_35)">
<path d="M12.1715 73.0001C18.8875 73.0001 24.3382 67.5494 24.3382 60.8334V48.6667H12.1715C5.45553 48.6667 0.00486755 54.1174 0.00486755 60.8334C0.00486755 67.5494 5.45553 73.0001 12.1715 73.0001Z" fill="#0ACF83"/>
<path d="M0.00486755 36.4999C0.00486755 29.7839 5.45553 24.3333 12.1715 24.3333H24.3382V48.6666H12.1715C5.45553 48.6666 0.00486755 43.2159 0.00486755 36.4999Z" fill="#A259FF"/>
<path d="M0.00486755 12.1667C0.00486755 5.45067 5.45553 0 12.1715 0H24.3382V24.3333H12.1715C5.45553 24.3333 0.00486755 18.8827 0.00486755 12.1667Z" fill="#F24E1E"/>
<path d="M24.3382 0H36.5049C43.2209 0 48.6715 5.45067 48.6715 12.1667C48.6715 18.8827 43.2209 24.3333 36.5049 24.3333H24.3382V0Z" fill="#FF7262"/>
<path d="M48.6715 36.4999C48.6715 43.2159 43.2209 48.6666 36.5049 48.6666C29.7889 48.6666 24.3382 43.2159 24.3382 36.4999C24.3382 29.7839 29.7889 24.3333 36.5049 24.3333C43.2209 24.3333 48.6715 29.7839 48.6715 36.4999Z" fill="#1ABCFE"/>
</g>
<defs>
<clipPath id="clip0_15_35">
<rect width="48.6764" height="73" fill="white"/>
</clipPath>
</defs>
</svg>
