<svg width="57" height="57" viewBox="0 0 57 57" fill="none" xmlns="http://www.w3.org/2000/svg">
<path d="M0 4.18051C0 1.9358 1.88679 0.11377 4.21266 0.11377H52.7873C55.1141 0.11377 57 1.9358 57 4.18051V52.8197C57 55.0651 55.1141 56.8858 52.7873 56.8858H4.21266C1.88701 56.8858 0 55.0653 0 52.8204V4.17984V4.18051Z" fill="#E73838"/>
<path d="M17.3218 47.6244V22.0655H8.79225V47.6244H17.3227H17.3218ZM13.0588 18.5764C16.0326 18.5764 17.884 16.6138 17.884 14.1611C17.8283 11.6525 16.0326 9.74463 13.1153 9.74463C10.1961 9.74463 8.28949 11.6525 8.28949 14.1609C8.28949 16.6136 10.1402 18.5762 13.0029 18.5762H13.0581L13.0588 18.5764ZM22.043 47.6244H30.5718V33.3527C30.5718 32.5898 30.6275 31.8249 30.8528 31.2801C31.4691 29.7532 32.8725 28.1727 35.2293 28.1727C38.3149 28.1727 39.55 30.5163 39.55 33.9526V47.6244H48.0786V32.9697C48.0786 25.1194 43.8713 21.4663 38.2597 21.4663C33.6589 21.4663 31.6383 24.0274 30.5157 25.7719H30.5725V22.0664H22.0434C22.1547 24.4641 22.0427 47.6253 22.0427 47.6253L22.043 47.6244Z" fill="black"/>
</svg>
