<svg width="73" height="73" viewBox="0 0 73 73" fill="none" xmlns="http://www.w3.org/2000/svg">
<path d="M33.5953 9.49072L35.1774 12.4621C35.533 13.0105 35.9184 13.4958 36.3722 13.9478C37.7028 15.2619 38.9431 16.6643 40.0846 18.1456C42.7652 21.6654 44.5732 25.5741 45.8644 29.8015C46.6388 32.3839 47.0593 35.033 47.0908 37.7117C47.2205 45.7201 44.4751 52.5966 38.9398 58.3115C38.0394 59.2178 37.0667 60.0492 36.0314 60.7976C35.483 60.7976 35.2237 60.3771 34.9977 59.9899C34.5861 59.2719 34.3122 58.4835 34.19 57.665C33.9955 56.6961 33.8676 55.7273 33.9306 54.7269V54.2749C33.8862 54.1786 33.4027 9.71858 33.5953 9.49072Z" fill="#599636"/>
<path d="M33.5954 9.39259C33.5305 9.26291 33.4657 9.3611 33.4009 9.42408C33.4323 10.0725 33.2063 10.6504 32.8525 11.2025C32.4635 11.7508 31.9485 12.1713 31.4316 12.6234C28.5603 15.1094 26.3002 18.1123 24.4903 21.4709C22.0821 25.991 20.8409 30.8353 20.4889 35.9352C20.3278 37.7748 21.0706 44.2659 21.6504 46.1388C23.2325 51.1109 26.0742 55.2772 29.7551 58.8933C30.6592 59.7639 31.6262 60.5716 32.6265 61.3478C32.9174 61.3478 32.9488 61.0885 33.0155 60.8958C33.143 60.4836 33.2403 60.0625 33.3064 59.6361L33.9548 54.7937L33.5954 9.39259Z" fill="#6CAC48"/>
<path d="M35.1774 62.7649C35.2422 62.0239 35.5979 61.4088 35.985 60.7957C35.596 60.6345 35.307 60.314 35.081 59.9565C34.8861 59.618 34.7248 59.2612 34.5994 58.8913C34.1474 57.5353 34.051 56.1126 33.9214 54.7269V53.8877C33.7602 54.0174 33.7269 55.1141 33.7269 55.2771C33.6326 56.7416 33.4382 58.198 33.1452 59.636C33.0488 60.2177 32.984 60.7975 32.6265 61.3144C32.6265 61.3792 32.6265 61.444 32.658 61.5404C33.2396 63.2521 33.399 64.9953 33.4971 66.7718V67.4202C33.4971 68.1946 33.4656 68.0315 34.1085 68.2909C34.3678 68.3872 34.6568 68.4206 34.9162 68.6132C35.1107 68.6132 35.1422 68.4521 35.1422 68.3224L35.0458 67.2572V64.2858C35.0143 63.7671 35.1107 63.2521 35.1755 62.7667L35.1774 62.7649Z" fill="#C2BFBF"/>
</svg>
