<svg width="73" height="73" viewBox="0 0 73 73" fill="none" xmlns="http://www.w3.org/2000/svg">
<path d="M58.5511 25.7666C57.8221 25.5176 57.0878 25.2857 56.3483 25.0709C56.4709 24.5718 56.584 24.07 56.6876 23.5652C58.3558 15.4525 57.2651 8.91676 53.5424 6.76525C49.9779 4.70072 44.1322 6.85222 38.2352 11.9964C37.6554 12.504 37.0874 13.0268 36.5314 13.5648C36.1607 13.2074 35.7805 12.8576 35.3907 12.5154C29.21 7.01476 23.015 4.69787 19.2965 6.8565C15.7321 8.92531 14.6727 15.069 16.1741 22.7582C16.3242 23.5187 16.493 24.2757 16.6802 25.0295C15.8281 25.2711 14.9832 25.5373 14.1466 25.8279C6.90934 28.3587 2.28125 32.3267 2.28125 36.4415C2.28125 40.6931 7.24867 44.9562 14.7953 47.5412C15.4075 47.7493 16.0253 47.9428 16.6488 48.1215C16.4464 48.9285 16.2672 49.7445 16.1113 50.5695C14.6855 58.1262 15.7977 64.1244 19.355 66.1804C23.0292 68.3034 29.1929 66.122 35.2011 60.8608C35.6764 60.4445 36.1516 60.0049 36.6269 59.542C37.2276 60.1227 37.8455 60.6864 38.4804 61.2329C44.2976 66.2488 50.0421 68.2749 53.5937 66.2132C57.2651 64.0831 58.4585 57.6386 56.9086 49.7982C56.7898 49.1994 56.6529 48.5882 56.498 47.9646C56.9314 47.8363 57.3559 47.7037 57.7712 47.5668C65.613 44.9619 70.7216 40.7502 70.7216 36.4457C70.7188 32.311 65.9424 28.3174 58.5511 25.7666ZM40.1586 14.2064C45.2101 9.79931 49.9323 8.05986 52.0852 9.30314C54.3764 10.6277 55.2676 15.9687 53.8275 22.9735C53.7325 23.4298 53.6298 23.8846 53.5196 24.338C50.5049 23.6523 47.4479 23.1684 44.3689 22.8894C42.606 20.3499 40.6734 17.9325 38.5845 15.6536C39.0959 15.1574 39.6196 14.675 40.1557 14.2064H40.1586ZM22.4888 39.9574C23.1076 41.1551 23.7545 42.338 24.4293 43.5062C25.1166 44.6982 25.8328 45.8725 26.578 47.0293C24.4594 46.799 22.354 46.4597 20.2703 46.0127C20.8749 44.0566 21.6191 42.0248 22.4888 39.9574ZM22.4888 33.0666C21.6334 31.0435 20.9091 29.0531 20.3145 27.1311C22.2679 26.6934 24.3495 26.3355 26.5195 26.0646C25.7924 27.1995 25.0928 28.3511 24.4208 29.5193C23.7488 30.6875 23.1034 31.8699 22.4846 33.0666H22.4888ZM24.0429 36.5128C24.944 34.6336 25.9145 32.7905 26.9544 30.9836C27.9933 29.1776 29.0992 27.4129 30.2722 25.6896C32.3082 25.5357 34.3955 25.4544 36.5043 25.4544C38.613 25.4544 40.7132 25.5357 42.7478 25.6911C43.9084 27.4106 45.0076 29.169 46.0456 30.9665C47.0836 32.7639 48.0669 34.5984 48.9955 36.47C48.0792 38.3558 47.0983 40.2065 46.0527 42.022C45.0157 43.828 43.9226 45.5978 42.7734 47.3316C40.7417 47.4742 38.6387 47.5526 36.5 47.5526C34.3613 47.5526 32.2982 47.4856 30.3036 47.3558C29.1221 45.6268 28.0071 43.8546 26.9587 42.0391C25.9102 40.2236 24.9369 38.3815 24.0387 36.5128H24.0429ZM48.5835 43.4862C49.2726 42.2905 49.9342 41.0791 50.5682 39.8519C51.4373 41.8225 52.2044 43.8365 52.8665 45.8858C50.7583 46.3606 48.6267 46.7246 46.4805 46.9766C47.2048 45.8274 47.9058 44.6639 48.5835 43.4862ZM50.5397 33.0681C49.9085 31.8657 49.2522 30.6775 48.5707 29.5036C47.9053 28.3459 47.2119 27.2024 46.4905 26.0732C48.6733 26.3498 50.7678 26.7176 52.7311 27.1668C52.0999 29.1693 51.3685 31.1389 50.5397 33.0681ZM36.5328 17.748C37.9565 19.3037 39.3008 20.9302 40.5606 22.6214C37.8659 22.493 35.1693 22.493 32.4707 22.6214C33.801 20.862 35.1626 19.2294 36.5328 17.748ZM20.7679 9.39012C23.0577 8.06129 28.1207 9.96043 33.4574 14.704C33.7981 15.0077 34.1418 15.3256 34.4839 15.655C32.3843 17.9336 30.4381 20.3489 28.6582 22.8851C25.586 23.1619 22.535 23.6382 19.5246 24.3109C19.3507 23.6113 19.1939 22.907 19.0541 22.1979C17.7638 15.6065 18.6179 10.6377 20.7679 9.39012ZM17.4302 45.2984C16.8599 45.1359 16.2967 44.9596 15.7406 44.7695C12.4043 43.6288 9.64826 42.1403 7.75625 40.5192C6.06242 39.0663 5.2041 37.6163 5.2041 36.4415C5.2041 33.9449 8.91969 30.7597 15.1161 28.5997C15.8946 28.3288 16.6797 28.0812 17.4715 27.8568C18.3918 30.8143 19.5063 33.7078 20.8079 36.5185C19.4908 39.3679 18.3625 42.3009 17.4302 45.2984ZM33.2749 58.6537C30.6187 60.9806 27.9581 62.6302 25.6127 63.4614C23.5054 64.2071 21.8273 64.2285 20.8136 63.6425C18.6549 62.395 17.7567 57.5772 18.9814 51.1156C19.1269 50.3552 19.2932 49.5948 19.4804 48.8344C22.521 49.4893 25.6026 49.9366 28.7038 50.1732C30.5011 52.7226 32.4634 55.1516 34.578 57.4446C34.1532 57.8624 33.7183 58.2645 33.2749 58.6537ZM36.6141 55.343C35.2282 53.8446 33.8452 52.1864 32.4964 50.4041C33.8072 50.4555 35.1417 50.4811 36.5 50.4811C37.8944 50.4811 39.2746 50.4512 40.6348 50.3899C39.3795 52.1082 38.0376 53.7614 36.6141 55.343ZM54.3679 59.4194C53.9601 61.6208 53.1403 63.0893 52.1266 63.6767C49.9694 64.9286 45.357 63.3018 40.3838 59.0116C39.8135 58.5211 39.2432 57.995 38.6629 57.4432C40.7364 55.1413 42.6527 52.7024 44.3988 50.1432C47.5173 49.879 50.6138 49.4002 53.6664 48.7103C53.8061 49.2749 53.9297 49.8281 54.0371 50.3699C54.7229 53.8346 54.8213 56.9684 54.3679 59.4194ZM56.8488 44.7851C56.4752 44.9092 56.0902 45.0289 55.6996 45.1459C54.7424 42.1744 53.5844 39.2715 52.2335 36.4571C53.5337 33.6803 54.6464 30.8195 55.5641 27.8939C56.2642 28.0978 56.9443 28.3117 57.5987 28.5384C63.932 30.7227 67.7959 33.9563 67.7959 36.4415C67.7959 39.0934 63.6226 42.5353 56.8488 44.7851Z" fill="#7EE5F3"/>
<path d="M36.5 42.5666C37.7134 42.5706 38.9007 42.2144 39.9115 41.5431C40.9224 40.8718 41.7113 39.9157 42.1784 38.7958C42.6455 37.6759 42.7697 36.4426 42.5354 35.252C42.3011 34.0614 41.7188 32.9671 40.8622 32.1077C40.0056 31.2483 38.9132 30.6624 37.7234 30.4242C36.5336 30.186 35.2998 30.3063 34.1784 30.7697C33.057 31.2331 32.0983 32.0189 31.4237 33.0276C30.7492 34.0362 30.3891 35.2223 30.3891 36.4358C30.3874 37.2397 30.5442 38.036 30.8504 38.7793C31.1567 39.5226 31.6064 40.1983 32.174 40.7676C32.7415 41.337 33.4157 41.789 34.158 42.0976C34.9002 42.4063 35.6961 42.5657 36.5 42.5666Z" fill="#7EE5F3"/>
</svg>
