<svg width="73" height="73" viewBox="0 0 73 73" fill="none" xmlns="http://www.w3.org/2000/svg">
<g clip-path="url(#clip0_15_20)">
<path d="M0 0H73V73H0V0Z" fill="#017ACB"/>
<path d="M35.0514 27.0327H38.5531V33.078H29.0859V59.974L28.835 60.0424C28.4928 60.1337 23.9873 60.1337 23.0178 60.031L22.2422 59.9626V33.078H12.775V27.0327L15.7748 26.9985C17.4173 26.9757 21.6376 26.9757 25.1508 26.9985C28.6639 27.0213 33.1123 27.0327 35.0514 27.0327ZM61.7762 57.1224C60.3847 58.5938 58.8905 59.4151 56.4039 60.088C55.3203 60.3846 55.1378 60.396 52.6969 60.3846C50.2559 60.3732 50.062 60.3732 48.8758 60.0652C45.8075 59.2782 43.3323 57.7384 41.6442 55.5598C41.1651 54.9438 40.3781 53.6663 40.3781 53.5066C40.3781 53.461 40.4922 53.3584 40.6405 53.2899C40.7887 53.2215 41.0967 53.0276 41.3476 52.8793C41.5986 52.731 42.0548 52.4573 42.3628 52.2976C42.6708 52.1379 43.5605 51.6132 44.3361 51.1455C45.1117 50.6779 45.8189 50.3015 45.8987 50.3015C45.9786 50.3015 46.1269 50.4612 46.2409 50.6551C46.9253 51.8071 48.5222 53.2785 49.6514 53.7804C50.3472 54.077 51.887 54.4077 52.6284 54.4077C53.3128 54.4077 54.5675 54.1112 55.2405 53.8032C55.9591 53.4724 56.3241 53.1416 56.7575 52.4801C57.0541 52.0124 57.0883 51.887 57.0769 50.9973C57.0769 50.176 57.0312 49.9479 56.8031 49.5715C56.1644 48.5221 55.2975 47.9746 51.7844 46.4234C48.1572 44.8151 46.5261 43.857 45.203 42.568C44.222 41.6099 44.0281 41.3476 43.4122 40.1499C42.6137 38.6101 42.5111 38.1082 42.4997 35.8155C42.4883 34.2073 42.5225 33.6826 42.6936 33.1351C42.9331 32.3138 43.7087 30.7284 44.0623 30.3291C44.7923 29.4737 45.0547 29.2113 45.568 28.7893C47.1192 27.5118 49.5373 26.6677 51.8528 26.5879C52.1152 26.5879 52.982 26.6335 53.7919 26.6905C56.1187 26.8845 57.7042 27.4548 59.2326 28.6752C60.3847 29.5877 62.1298 31.7321 61.9587 32.0173C61.8447 32.1884 57.2936 35.2224 56.997 35.3137C56.8145 35.3707 56.6891 35.3023 56.4381 35.0057C54.8869 33.1465 54.2595 32.7473 52.7539 32.656C51.6817 32.5876 51.1114 32.713 50.3928 33.1921C49.64 33.694 49.275 34.4582 49.275 35.519C49.2864 37.0702 49.8795 37.8002 52.0695 38.8838C53.4839 39.5796 54.693 40.1499 54.7842 40.1499C54.9211 40.1499 57.8525 41.6099 58.6167 42.0662C62.1755 44.1535 63.6241 46.2979 64.0005 49.9935C64.2742 52.7766 63.4872 55.3202 61.7762 57.1224Z" fill="white"/>
</g>
<defs>
<clipPath id="clip0_15_20">
<rect width="73" height="73" fill="white"/>
</clipPath>
</defs>
</svg>
