<svg width="396" height="435" viewBox="0 0 396 435" fill="none" xmlns="http://www.w3.org/2000/svg">
<path d="M183.333 366.573C81.9951 366.573 0 284.478 0 183.286C0 81.9741 82.1168 -6.10352e-05 183.333 -6.10352e-05C284.671 -6.10352e-05 366.667 82.0958 366.667 183.286C366.789 284.599 284.671 366.573 183.333 366.573Z" fill="#E73838"/>
<path d="M310.933 312.682C310.078 313.293 309.1 313.904 308.244 314.515C307.267 315.126 306.411 315.737 305.433 316.225C304.578 316.714 303.844 317.203 302.989 317.692C302.867 317.814 302.744 317.814 302.622 317.936C299.811 319.647 296.878 321.235 293.944 322.702C293.089 323.19 292.111 323.679 291.256 324.046C291.256 324.046 291.133 324.168 291.011 324.168C290.033 324.657 289.056 325.145 288.078 325.634C286.122 326.612 284.044 327.467 282.089 328.322C281.111 328.811 280.011 329.178 279.033 329.544C278.056 329.911 276.956 330.4 275.978 330.766C275 331.133 273.9 331.621 272.922 331.988C272.922 331.988 272.922 331.988 272.8 331.988C271.822 332.355 270.722 332.721 269.744 333.088C267.544 333.821 265.222 334.554 263.022 335.287C262.289 335.532 261.433 335.776 260.7 336.02C258.378 336.753 256.056 337.364 253.733 337.853C252.878 338.098 252.022 338.22 251.044 338.464C248.844 338.953 246.522 339.442 244.322 339.93C243.833 340.053 243.467 340.053 242.978 340.175C242.244 340.297 241.389 340.419 240.656 340.541C239.556 340.664 238.578 340.908 237.478 341.03C236.989 341.152 236.5 341.152 236.011 341.275C235.4 341.397 234.667 341.519 233.933 341.519C231.978 341.763 229.9 342.008 227.944 342.252C227.333 342.374 226.6 342.374 225.989 342.496H225.867C225.011 342.619 224.156 342.619 223.3 342.741C222.444 342.863 221.589 342.863 220.733 342.863C220.244 342.863 219.633 342.985 219.144 342.985C218.167 342.985 217.311 343.107 216.456 343.107C215.233 343.107 214.133 343.23 212.911 343.23C211.689 343.23 210.589 343.23 209.367 343.23C208.511 343.23 207.656 343.23 206.8 343.23C155.344 342.496 108.9 320.624 75.9 285.922C75.9 285.922 75.9 285.8 75.7778 285.8C79.5667 278.346 93.6222 264.905 108.289 253.786C126.867 239.734 153.144 231.058 153.144 231.058C153.144 231.058 170.378 228.248 234.3 241.567C283.067 251.831 303.844 293.498 310.933 312.682Z" fill="#FEE4BF"/>
<path d="M247.867 275.414C245.3 287.999 228.678 295.453 200.689 284.211C166.344 270.282 153.144 231.059 153.144 231.059C151.311 202.956 147.033 178.883 147.033 178.883C186.756 175.461 233.689 221.895 233.689 221.895L239.067 244.866C239.556 246.821 240.533 248.532 242 249.753C244.567 254.152 249.578 267.349 247.867 275.414Z" fill="#FEE4BF"/>
<path d="M242 249.877C218.656 248.655 201.422 245.234 182.967 212.12C198.611 225.927 217.067 231.182 236.5 233.625L239.067 244.867C239.556 246.944 240.533 248.655 242 249.877Z" fill="#EFBDA5"/>
<path d="M290.278 102.636C292.478 112.9 293.578 121.209 287.589 148.581C281.6 175.951 293.089 203.322 264.244 228.371C244.811 245.234 210.833 248.411 183.7 229.96C174.533 223.728 166.1 215.052 159.256 203.689C153.878 194.769 147.644 186.338 140.678 178.64C131.022 168.131 119.411 146.992 125.156 109.601C134.444 48.7499 194.7 41.785 230.267 48.5055C265.833 55.226 284.289 75.5097 290.278 102.636Z" fill="#FEE4BF"/>
<path d="M173.311 150.413C173.311 150.413 169.522 132.085 151.678 134.284C136.278 136.239 130.9 173.141 165.856 183.405" fill="#FEE4BF"/>
<path d="M164.756 166.664C164.756 166.664 160.356 163.853 160.844 158.966C161.578 153.223 160.844 149.679 158.156 148.579C151.433 145.769 150.089 153.589 150.333 154.567" stroke="#423232" stroke-width="3" stroke-miterlimit="10" stroke-linecap="round" stroke-linejoin="round"/>
<path d="M258.011 178.517C258.011 178.517 262.656 178.762 267.056 173.508C269.5 170.575 271.578 166.909 270.233 165.809C268.889 164.588 246.767 168.009 245.3 170.942C243.833 173.874 252.389 178.517 258.011 178.517Z" fill="#EFBDA5"/>
<path d="M261.678 137.46C261.678 137.46 261.922 149.068 269.378 162.02C272.678 167.763 267.667 177.172 256.789 178.761" stroke="#423232" stroke-width="3" stroke-miterlimit="10" stroke-linecap="round" stroke-linejoin="round"/>
<path opacity="0.42" d="M195.433 184.749C202.385 184.749 208.022 180.099 208.022 174.363C208.022 168.626 202.385 163.977 195.433 163.977C188.48 163.977 182.844 168.626 182.844 174.363C182.844 180.099 188.48 184.749 195.433 184.749Z" fill="#F2A5B2"/>
<path opacity="0.42" d="M285.633 164.22C285.267 171.062 285.389 177.783 284.9 184.503C279.522 183.282 275.611 179.249 275.611 174.484C275.611 169.352 279.889 165.197 285.633 164.22Z" fill="#F2A5B2"/>
<path d="M289.917 136.281C293.217 117.708 292.239 110.377 290.284 101.701C289.673 99.0129 288.939 96.4469 288.084 93.8809C280.384 90.4595 274.028 99.9904 263.517 98.5241C235.528 94.7362 214.139 82.7615 190.551 87.8935C175.762 91.0705 173.317 104.389 177.595 128.949C178.817 135.67 178.817 142.146 173.073 148.866C172.095 145.445 167.328 131.515 151.684 133.47C136.895 135.303 131.273 169.517 161.828 181.247C161.584 187.968 155.351 200.431 150.339 203.241C150.339 203.241 149.484 194.322 139.706 182.591C129.928 170.861 110.372 140.435 123.573 95.9582C136.773 51.4807 196.539 28.2643 252.151 50.8696C261.684 54.7797 269.506 60.2785 275.739 66.0214C290.406 79.4625 298.228 99.0129 295.906 118.686C295.417 125.284 293.584 131.638 289.917 136.281Z" fill="#423232"/>
<path d="M164.884 59.3007C164.884 59.3007 168.428 20.0774 147.162 15.3119C125.895 10.5465 133.228 33.7628 139.828 48.3035C139.828 48.3035 114.406 25.576 103.283 40.9721C92.6502 55.7572 119.295 71.8864 119.295 71.8864C119.295 71.8864 79.8168 75.0633 88.1279 97.5465C96.5613 120.03 139.828 90.7038 139.828 90.7038C139.828 90.7038 164.762 67.7319 164.884 59.3007Z" fill="#423232"/>
<path d="M323.528 284.878C306.173 262.517 279.283 253.23 264.494 247.731C263.272 241.622 260.951 234.901 257.284 228.425C251.662 231.847 245.184 234.413 238.462 235.757L239.438 239.789C239.927 241.744 242.372 250.786 238.583 262.394C235.405 272.17 222.573 276.569 200.817 266.671C158.406 247.487 153.516 225.859 153.516 225.859C152.783 214.129 151.56 203.132 150.46 194.212C137.26 197.144 121.983 203.132 113.672 215.717C103.406 231.113 99.6166 246.754 100.594 259.217C82.75 270.581 55.1277 287.81 46.0833 318.602C34.35 358.681 36.3055 383.241 36.3055 383.241H352.127C351.76 383.364 347.117 315.303 323.528 284.878Z" fill="#67676F"/>
<path d="M134.694 246.799C134.694 246.799 142.149 275.758 174.783 295.797" stroke="#423232" stroke-width="3" stroke-miterlimit="10" stroke-linecap="round" stroke-linejoin="round"/>
<path d="M264.372 249.731C264.372 249.731 273.049 287.244 254.105 304.473" stroke="#423232" stroke-width="3" stroke-miterlimit="10" stroke-linecap="round" stroke-linejoin="round"/>
<path d="M205.46 298.73C205.46 298.73 199.105 317.303 200.816 330.133" stroke="#423232" stroke-width="3" stroke-miterlimit="10" stroke-linecap="round" stroke-linejoin="round"/>
<path d="M244.449 297.63C244.449 297.63 249.216 308.017 252.638 324.512" stroke="#423232" stroke-width="3" stroke-miterlimit="10" stroke-linecap="round" stroke-linejoin="round"/>
<path d="M100.35 261.34C100.35 261.34 110.372 302.151 170.016 314.126" stroke="#423232" stroke-width="3" stroke-miterlimit="10" stroke-linecap="round" stroke-linejoin="round"/>
<path d="M201.916 332.944L196.538 332.455C194.583 332.21 193.116 330.378 193.483 328.422L195.316 319.258C195.805 316.692 198.249 314.859 200.816 315.226C203.383 315.47 205.46 317.67 205.46 320.358L205.583 329.767C205.583 331.599 203.872 333.188 201.916 332.944Z" fill="white"/>
<path d="M258.016 327.323L252.883 329.156C250.927 329.889 248.849 328.667 248.483 326.712L246.283 317.67C245.672 315.104 247.016 312.538 249.583 311.56C252.027 310.705 254.838 311.805 255.938 314.126L259.972 322.557C260.827 324.39 259.972 326.59 258.016 327.323Z" fill="white"/>
<path d="M96.1934 385.363C96.1934 385.363 95.0934 358.115 91.4268 350.783" stroke="#544D4D" stroke-width="3" stroke-miterlimit="10" stroke-linecap="round" stroke-linejoin="round"/>
<path d="M311.916 324.512C311.916 324.512 318.76 362.88 316.072 385.363" stroke="#544D4D" stroke-width="3" stroke-miterlimit="10" stroke-linecap="round" stroke-linejoin="round"/>
<path d="M292.238 361.414C292.238 361.414 274.149 364.102 258.26 363.369" stroke="#544D4D" stroke-width="3" stroke-miterlimit="10" stroke-linecap="round" stroke-linejoin="round"/>
<path d="M218.085 149.13C215.151 149.008 212.951 146.564 213.196 143.632L213.318 140.21C213.44 137.278 215.885 135.078 218.818 135.323C221.751 135.445 223.951 137.889 223.707 140.821L223.585 144.243C223.463 147.053 221.018 149.253 218.085 149.13Z" fill="#423232"/>
<path d="M269.54 150.963C266.851 150.841 264.774 148.519 264.896 145.831L265.018 142.654C265.14 139.966 267.463 137.889 270.151 138.011C272.84 138.133 274.918 140.455 274.796 143.143L274.674 146.32C274.551 149.008 272.229 151.085 269.54 150.963Z" fill="#423232"/>
<path d="M229.94 142.043C229.94 142.043 226.763 137.522 221.263 136.667C216.74 135.934 211.729 138.133 210.996 140.699" stroke="#423232" stroke-width="3" stroke-miterlimit="10" stroke-linecap="round" stroke-linejoin="round"/>
<path d="M265.996 143.144C265.996 143.144 265.996 139.234 271.618 139.234C276.263 139.234 278.218 143.511 278.218 143.511" stroke="#423232" stroke-width="3" stroke-miterlimit="10" stroke-linecap="round" stroke-linejoin="round"/>
<path d="M234.951 122.371C237.518 123.226 240.085 120.905 239.596 118.094C239.351 116.628 238.74 115.162 237.518 114.062C233.851 110.763 218.696 107.83 209.529 112.107C201.463 116.017 223.218 118.461 234.951 122.371Z" fill="#423232"/>
<path d="M271.495 124.326C269.417 125.059 267.217 122.859 267.584 120.294C267.706 118.95 268.195 117.606 269.172 116.628C272.106 113.696 282.128 111.374 288.484 115.895C293.984 119.683 281.028 120.783 271.495 124.326Z" fill="#423232"/>
<path opacity="0.6" d="M267.223 165.879C267.223 165.879 268.522 173.244 277.074 176.926C279.239 177.793 281.512 176.385 281.512 174.002C281.404 174.002 267.764 166.745 267.223 165.879Z" fill="#B7AEA9"/>
<path opacity="0.6" d="M246.654 148.117C246.654 148.117 253.582 141.186 257.046 140.427L247.845 142.593L246.654 148.117Z" fill="#B7AEA9"/>
<path opacity="0.6" d="M200.43 165.879C200.43 165.879 204.435 174.977 216.452 177.143C228.468 179.418 239.402 170.753 244.49 156.239C244.49 156.239 240.376 169.669 223.921 172.161C207.575 174.869 200.43 165.879 200.43 165.879Z" fill="#B7AEA9"/>
<path d="M246.762 145.626C246.437 161.114 233.988 173.569 218.94 173.569C203.894 173.569 191.877 161.114 191.877 145.626C191.985 130.031 204.435 117.25 219.698 117.25C234.962 117.25 247.194 130.031 246.762 145.626Z" stroke="#DDC64E" stroke-width="3" stroke-miterlimit="10" stroke-linecap="round" stroke-linejoin="round"/>
<path d="M302.946 145.626C302.296 161.114 292.554 173.569 281.187 173.569C269.82 173.569 260.943 161.114 261.376 145.626C261.81 130.031 271.552 117.25 283.135 117.25C294.718 117.25 303.595 130.031 302.946 145.626Z" stroke="#DDC64E" stroke-width="3" stroke-miterlimit="10" stroke-linecap="round" stroke-linejoin="round"/>
<path d="M192.203 142.593H176.831" stroke="#DDC64E" stroke-width="3" stroke-miterlimit="10" stroke-linecap="round" stroke-linejoin="round"/>
<path d="M246.871 142.593C246.871 142.593 259.753 137.611 261.377 142.593" stroke="#DDC64E" stroke-width="3" stroke-miterlimit="10" stroke-linecap="round" stroke-linejoin="round"/>
<path d="M262.167 196.727C255.2 200.882 242.856 196.361 237.111 189.396" stroke="#423232" stroke-width="3" stroke-miterlimit="10" stroke-linecap="round" stroke-linejoin="round"/>
</svg>
