<svg width="202" height="379" viewBox="0 0 202 379" fill="none" xmlns="http://www.w3.org/2000/svg">
<path d="M18.3917 373.918C18.3917 373.918 11.1798 377.096 30.8597 378.074C50.5396 379.052 154.684 379.541 165.441 378.074C176.198 376.607 196.978 377.463 169.352 373.918C141.727 370.373 113.246 372.451 85.3767 370.373C57.5071 368.295 22.5477 370.251 18.3917 373.918Z" fill="#1B1C1E"/>
<path d="M162.752 312.678C162.752 312.678 173.753 307.667 175.587 281.997C177.42 256.328 166.174 235.67 165.074 203.155C163.974 170.641 182.309 152.305 196.489 162.818C210.668 173.33 189.399 193.865 193.311 236.281C197.222 278.575 198.322 321.357 164.708 332.358C164.83 332.358 159.085 324.413 162.752 312.678Z" fill="#513F3B"/>
<path d="M74.0088 374.04C74.0088 374.04 31.5931 374.04 29.0262 374.04C26.4592 374.04 23.2811 354.727 45.7724 354.361C68.2638 353.994 81.8319 354.361 81.8319 354.361L74.0088 374.04Z" fill="#513F3B"/>
<path d="M35.0157 374.04C35.0157 374.04 33.7934 369.396 37.216 366.095" stroke="#1B1C1E" stroke-miterlimit="10"/>
<path d="M43.0833 374.04C43.0833 374.04 43.0833 370.251 44.7946 368.54" stroke="#1B1C1E" stroke-miterlimit="10"/>
<path d="M58.9739 98.8885C58.9739 98.8885 44.0612 76.8861 34.4046 78.9641C24.748 81.0421 23.4034 126.391 31.8376 129.203C40.1496 132.137 58.9739 98.8885 58.9739 98.8885Z" fill="#513F3B"/>
<path d="M102.734 100.478C102.734 100.478 122.414 86.2982 134.393 87.1539C146.494 87.8873 134.149 123.58 125.226 132.748C116.302 141.915 102.734 100.478 102.734 100.478Z" fill="#513F3B"/>
<path d="M47.7282 175.897C47.7282 175.897 31.9598 166.24 29.3929 146.071C26.826 125.903 35.9936 93.9991 79.9984 93.9991C124.003 93.9991 132.315 130.792 129.137 149.738C126.203 167.707 117.158 173.33 117.158 173.33C117.158 173.33 126.937 195.454 131.826 208.411C135.616 218.435 137.449 228.703 135.982 240.682C135.982 240.682 150.65 262.44 159.818 280.53C168.619 297.888 175.953 341.404 168.008 370.862C167.519 372.818 165.685 374.163 163.73 374.163H47.9727C37.7049 374.163 25.7258 357.294 35.138 290.431C35.138 290.431 30.2485 278.941 34.5268 255.105C38.805 231.269 47.7282 175.897 47.7282 175.897Z" fill="#FFE6BD"/>
<path d="M149.55 374.04C149.55 374.04 142.094 374.04 139.894 374.04H85.9879C79.7539 357.783 98.7004 351.671 108.357 351.671C115.813 351.671 132.926 351.671 132.926 351.671C132.926 351.671 142.094 352.038 146.006 358.394C150.65 365.851 149.795 373.674 149.55 374.04Z" fill="#513F3B"/>
<path d="M60.8074 294.465C56.2847 297.643 52.1287 299.477 49.195 300.577C46.0169 301.677 42.4721 300.944 40.1496 298.377C36.9715 294.954 35.0157 290.309 35.0157 290.309C35.0157 290.309 31.8376 282.853 32.8155 267.573C32.8155 267.573 33.1822 257.55 47.117 254.494C57.5071 252.172 63.1299 257.183 63.1299 257.183C62.8854 259.139 62.5187 261.095 62.152 263.295C60.9297 270.629 62.3965 283.342 63.1299 289.209C63.3743 291.165 62.5187 293.243 60.8074 294.465Z" fill="#513F3B"/>
<path d="M47.7282 175.897C47.7282 175.897 49.684 177.119 50.2952 177.241" stroke="#1B1C1E" stroke-miterlimit="10"/>
<path d="M35.0157 290.431C35.0157 290.431 36.9715 295.076 40.1496 298.499C42.4721 300.944 46.0169 301.799 49.1951 300.577C52.1287 299.477 56.2847 297.643 60.8074 294.465C62.5187 293.243 63.3744 291.287 63.0077 289.209C62.2742 283.342 60.9297 270.629 62.0298 263.295C63.6188 253.516 64.5967 245.571 64.5967 245.571" stroke="#1B1C1E" stroke-miterlimit="10"/>
<path d="M49.8062 300.21C49.8062 300.21 44.9168 296.421 44.3056 289.576" stroke="#1B1C1E" stroke-miterlimit="10"/>
<path d="M57.5071 296.543C57.5071 296.543 53.84 293.121 53.4733 287.131" stroke="#1B1C1E" stroke-miterlimit="10"/>
<path d="M118.258 264.029C109.702 269.285 105.301 272.341 105.79 278.208C106.401 285.053 101.145 285.664 98.8227 286.275C95.4001 287.131 88.9216 287.742 83.9099 287.131C81.7097 286.887 77.4315 282.853 77.4315 273.807C77.4315 265.495 84.1544 251.316 97.1114 244.104C97.1114 244.104 107.746 242.026 114.836 250.216C119.48 255.717 118.258 264.029 118.258 264.029Z" fill="#513F3B"/>
<path d="M135.982 240.682C135.982 240.682 134.393 253.883 122.781 261.217C111.168 268.551 105.057 271.485 105.668 278.33C106.279 285.175 101.023 285.787 98.7004 286.398C95.2778 287.253 88.7993 287.865 83.7877 287.253C81.5874 287.009 77.3092 282.975 77.3092 273.93C77.3092 265.618 84.0322 251.438 96.9891 244.226" stroke="#1B1C1E" stroke-miterlimit="10"/>
<path d="M91.3663 287.253C91.3663 287.253 85.3767 285.909 85.7434 276.741" stroke="#1B1C1E" stroke-miterlimit="10"/>
<path d="M98.8227 286.275C98.8227 286.275 94.9111 283.586 95.4001 276.741" stroke="#1B1C1E" stroke-miterlimit="10"/>
<path d="M148.206 283.464C148.206 283.464 137.205 269.896 119.969 279.675C104.079 288.72 100.167 330.402 113.735 351.549" stroke="#1B1C1E" stroke-miterlimit="10"/>
<path d="M86.1102 374.04C79.8761 357.783 98.8226 351.671 108.479 351.671C115.936 351.671 133.049 351.671 133.049 351.671" stroke="#1B1C1E" stroke-miterlimit="10"/>
<path d="M94.7889 374.04C94.7889 374.04 91.733 369.273 94.7889 366.095" stroke="#1B1C1E" stroke-miterlimit="10"/>
<path d="M101.756 374.04C101.756 374.04 101.023 368.662 103.101 366.829" stroke="#1B1C1E" stroke-miterlimit="10"/>
<path d="M79.1427 172.23C79.1427 172.23 57.3848 167.463 47.7282 154.139C38.0716 140.815 43.5722 121.747 45.8947 118.568C48.2172 115.513 50.6619 104.389 82.3209 105.856C107.135 107.078 116.18 120.402 117.647 129.325C118.991 137.393 116.913 152.428 107.746 159.762C94.7889 170.152 79.1427 172.23 79.1427 172.23Z" fill="#513F3B"/>
<path d="M67.8971 129.692C68.2638 129.081 68.2638 128.469 67.8971 127.858C66.6747 126.025 63.7411 121.746 59.8295 121.991C55.1846 122.235 51.762 127.247 51.762 128.836C51.762 130.914 54.9401 135.559 59.7073 136.048C63.3744 136.292 66.6747 131.648 67.8971 129.692Z" fill="#9BBEDC"/>
<path d="M59.7073 133.97C61.8676 133.97 63.6188 131.617 63.6188 128.714C63.6188 125.811 61.8676 123.458 59.7073 123.458C57.547 123.458 55.7958 125.811 55.7958 128.714C55.7958 131.617 57.547 133.97 59.7073 133.97Z" fill="#1B1C1E"/>
<path d="M75.8424 134.826C75.8424 134.826 69.3639 134.337 65.6968 138.126C62.0298 141.915 62.641 148.149 66.308 150.472C69.6084 152.672 71.3197 147.416 75.8424 147.172C80.3651 146.927 79.8762 143.627 80.1206 140.326C80.2429 137.148 75.8424 134.826 75.8424 134.826Z" stroke="#1B1C1E" stroke-miterlimit="10"/>
<path d="M79.7539 144.605C79.7539 144.605 79.5095 146.805 81.9542 147.905C84.3989 149.127 86.4769 148.761 89.0438 151.694C91.6108 154.506 96.6224 151.205 96.6224 145.827C96.6224 139.715 92.5886 135.437 85.2545 135.192C77.9204 134.948 80.3651 137.637 80.3651 137.637L79.7539 144.605Z" stroke="#1B1C1E" stroke-miterlimit="10"/>
<path d="M70.2195 150.105C70.2195 150.105 73.2754 154.383 78.4093 154.872C83.1765 155.361 87.4547 152.428 88.1882 150.961" stroke="#1B1C1E" stroke-miterlimit="10"/>
<path d="M80.1206 140.449C80.1206 140.449 74.8645 137.148 74.1311 134.337C73.3977 131.648 74.8645 129.936 80.9763 130.181C85.9879 130.425 88.1882 132.381 86.2324 135.559C84.2766 138.371 80.1206 140.449 80.1206 140.449Z" fill="#1B1C1E" stroke="#1B1C1E" stroke-miterlimit="10"/>
<g opacity="0.88">
<path d="M122.414 170.518C122.536 170.641 122.659 170.763 122.781 170.885C122.781 170.885 122.659 170.763 122.414 170.518Z" fill="#443730"/>
<path d="M115.079 175.774L114.958 175.652L115.079 175.774Z" fill="#443730"/>
<path d="M115.08 175.53L114.836 174.919C114.958 175.163 114.958 175.408 115.08 175.53Z" fill="#443730"/>
<path d="M125.592 173.574C125.714 173.697 125.959 173.819 126.203 174.063L125.592 173.574Z" fill="#443730"/>
<path d="M126.203 176.263C126.203 176.386 126.326 176.508 126.326 176.508C126.326 176.508 126.203 176.386 126.203 176.263Z" fill="#443730"/>
<path d="M127.426 164.284C127.303 164.284 127.303 164.162 127.181 164.162C127.303 164.162 127.303 164.162 127.426 164.284Z" fill="#443730"/>
<path d="M128.648 164.529C128.648 164.407 128.648 164.407 128.648 164.529H128.893C128.893 164.651 128.648 164.529 128.648 164.529Z" fill="#443730"/>
<path d="M137.571 166.851L138.06 167.218C137.938 167.096 137.693 166.974 137.571 166.851Z" fill="#443730"/>
<path d="M126.815 163.796C126.937 163.918 127.059 164.04 127.304 164.162C127.059 164.04 126.937 164.04 126.815 163.796Z" fill="#443730"/>
<path d="M122.292 170.274C122.414 170.396 122.414 170.396 122.414 170.518C122.414 170.396 122.292 170.396 122.292 170.274Z" fill="#443730"/>
<path d="M111.78 176.508C111.657 176.508 111.535 176.386 111.535 176.386C111.535 176.019 111.657 176.141 111.78 176.508Z" fill="#443730"/>
<path d="M126.815 166.729C128.037 168.196 127.059 166.607 128.281 167.952C127.915 167.829 127.548 167.585 128.159 168.44C129.015 169.174 128.404 168.074 129.504 169.296L128.893 169.052C129.259 169.785 130.359 170.518 130.115 170.518C128.526 169.052 130.115 171.741 129.626 171.619L129.87 171.741L130.237 172.841C130.237 172.841 130.237 172.841 130.359 172.963C130.237 172.841 130.237 172.841 130.115 172.719C130.726 173.697 130.971 174.43 130.482 174.43C129.626 173.574 129.382 174.797 128.526 174.063C128.77 174.186 128.893 174.186 128.893 173.819L127.915 172.719C127.67 172.963 128.77 173.819 127.915 173.33C126.692 171.741 128.281 173.085 128.281 172.719C127.915 172.352 127.548 172.108 127.304 172.108C127.67 171.741 127.426 171.007 129.015 172.352C128.77 171.985 128.281 171.374 128.037 171.252C129.015 171.985 127.426 170.274 128.404 170.885C127.181 169.541 127.304 170.518 126.448 169.907C127.059 171.252 125.837 170.518 125.348 170.518C126.203 171.619 127.181 172.352 127.548 173.085C127.792 174.063 126.692 172.719 126.081 172.23C126.081 172.841 127.426 174.063 127.059 174.43L127.792 174.919C128.648 176.63 127.059 174.43 127.181 174.919C126.937 174.43 126.692 174.063 126.937 173.941C126.57 173.33 126.203 173.208 126.081 173.208V173.085C125.47 172.352 124.859 171.619 124.859 172.108C125.714 172.963 125.226 172.963 125.47 173.452L125.714 173.574C125.348 173.452 125.226 173.697 124.981 173.574L125.103 173.819C124.737 173.574 123.881 172.352 123.759 172.719C124.125 173.208 125.226 174.308 124.859 174.308C125.348 175.041 125.714 174.919 125.714 174.552C125.714 174.919 126.326 176.141 126.692 176.141C127.181 177.119 126.203 175.897 126.326 176.386C126.203 176.141 125.959 175.775 125.714 175.53C126.57 176.752 125.225 176.019 124.737 175.041L125.47 175.53C124.859 174.552 124.125 174.063 123.881 173.452C124.737 175.163 122.781 173.085 123.392 174.552L123.025 173.697C122.781 174.552 121.314 172.963 120.581 172.841C121.07 173.208 122.047 175.041 122.047 174.186C121.803 174.797 122.903 176.019 123.27 176.997C123.27 177.975 122.17 175.408 121.681 174.919C121.803 175.041 122.047 175.041 122.17 175.041C120.703 173.208 121.314 176.019 120.092 175.041C120.336 175.652 120.336 175.286 120.581 175.53C120.947 176.752 120.214 175.408 119.847 175.041C119.725 175.286 119.603 176.019 120.458 177.241C120.336 177.73 120.092 176.386 119.725 176.019L119.847 176.386L118.869 175.041C118.869 175.652 118.869 176.508 119.358 177.853C118.625 177.853 117.769 174.797 117.158 174.552C117.28 175.408 117.647 175.652 117.891 176.141H117.402C118.136 177.608 118.136 176.752 118.869 178.586C117.769 176.875 118.136 178.219 117.28 177.241V177.119C116.547 175.897 116.547 176.997 116.18 176.875C116.547 177.608 116.914 177.608 117.158 177.73C117.158 178.464 116.18 178.097 115.324 176.63C115.202 176.997 115.08 177.73 115.569 178.342C115.08 178.83 114.591 176.019 114.224 176.752L114.591 177.975C114.591 179.931 113.002 176.63 113.002 178.464L112.513 176.875C112.635 177.608 112.391 177.975 112.513 178.586L112.88 179.075C113.002 180.42 112.269 177.853 112.269 178.83C112.146 178.342 112.146 177.241 112.024 176.752C112.635 177.119 113.124 176.63 113.613 176.264C114.102 175.897 114.469 175.53 115.324 176.019C115.324 176.264 115.324 176.386 115.447 176.752C115.447 176.386 115.813 176.63 115.447 175.897L115.324 175.775C115.691 176.019 115.324 174.063 115.447 174.063C115.936 175.041 115.813 173.452 116.425 175.163L116.18 173.941C116.547 174.552 116.791 175.408 117.036 175.652C117.158 175.408 116.914 174.797 116.547 174.43C117.036 173.574 117.769 173.208 118.747 173.452L118.136 172.719C118.136 172.23 119.48 173.819 118.258 171.863C118.992 172.474 118.869 170.885 119.969 172.963C119.114 170.885 120.214 171.619 120.947 171.619C121.925 173.33 121.558 171.863 122.17 172.596C121.436 171.252 120.947 171.496 120.458 170.641C122.17 172.352 120.703 168.44 123.148 171.619C123.148 171.496 123.025 171.374 122.903 171.252C123.025 171.13 122.781 170.518 122.659 170.396C123.148 170.885 123.148 171.374 123.392 171.374C123.514 171.13 122.781 170.274 122.536 169.785C123.392 170.274 124.003 170.274 125.103 171.496C124.981 171.13 124.492 170.274 124.248 170.152C125.47 170.763 124.614 169.663 125.592 169.907C125.348 170.03 124.492 168.685 124.614 169.296C123.392 167.34 125.592 169.052 125.226 167.829L126.326 168.807C126.692 168.807 125.837 167.707 125.348 167.463C125.103 166.485 125.959 166.974 126.203 166.729C126.081 166.607 125.837 166.362 125.959 166.485L126.326 166.118C126.57 166.362 127.304 166.729 127.792 167.463C127.059 166.485 126.692 166.118 126.815 166.729Z" fill="#443730"/>
<path d="M127.67 166.974L127.792 167.095C127.792 167.095 127.792 167.095 127.67 166.974Z" fill="#443730"/>
<path d="M127.426 175.408C127.303 175.041 127.181 174.919 127.181 174.797C127.303 174.919 127.303 175.163 127.426 175.408Z" fill="#443730"/>
<path d="M133.415 164.773C135.004 166.24 132.926 164.773 133.171 165.385C133.538 165.385 134.515 166.24 135.004 166.729C132.682 165.14 135.127 167.34 134.393 167.463C135.127 168.074 135.371 167.951 136.227 168.563C135.493 168.318 134.882 168.44 133.66 167.463C133.293 167.829 133.415 168.563 132.926 168.563C133.66 168.685 134.149 169.663 135.371 170.274C133.66 169.296 131.46 168.44 129.504 167.218C130.726 168.563 130.726 168.685 131.948 169.785C132.315 171.13 130.726 168.807 130.604 169.541V169.174C129.993 168.929 128.893 167.829 128.037 166.974C128.281 166.851 128.526 166.851 128.648 166.729C127.792 165.873 127.67 166.24 127.304 166.118C126.203 165.14 126.815 165.14 126.081 164.407C126.815 165.018 126.815 164.651 127.181 164.773L126.815 164.284C126.57 163.551 127.792 164.651 127.915 164.407C127.792 164.284 127.67 164.162 127.67 164.04C128.281 164.529 128.893 165.018 129.259 165.018H129.137C130.359 165.873 131.582 166.118 132.437 167.585L132.56 166.729C131.215 165.629 129.259 164.04 128.893 164.162L128.404 163.673C127.915 162.818 129.87 164.04 130.848 165.14C134.026 167.585 131.704 164.407 133.293 165.14C132.437 164.407 131.948 164.284 131.337 163.918C131.093 163.918 131.093 164.04 131.704 164.651C130.848 164.773 129.137 162.206 129.015 163.062C129.259 163.673 130.604 163.918 130.359 164.407L127.915 162.573C128.159 162.451 128.77 162.573 129.137 162.573C130.359 162.695 130.848 162.329 130.971 161.84C131.093 161.351 130.971 160.984 130.971 160.984C132.56 159.517 134.026 158.05 135.249 156.461C135.982 156.095 135.86 155.85 138.794 156.95C139.283 157.317 138.794 157.561 139.772 157.928C138.794 157.439 138.06 157.439 137.938 157.806C138.916 158.417 138.549 157.806 138.794 157.928V158.05C139.283 158.295 139.649 158.417 139.772 158.295C140.994 159.517 140.26 160.128 138.305 159.273C139.038 160.128 139.894 160.006 140.749 160.251C140.872 161.84 140.138 162.451 139.527 163.673C137.938 162.573 138.427 163.062 137.205 162.451L137.694 162.94C137.449 162.695 136.227 162.084 136.104 161.595C136.96 163.062 133.538 160.74 132.56 160.617L133.415 161.229C133.049 161.473 132.926 161.473 132.315 161.473C133.415 163.062 132.926 161.229 134.76 162.818L134.271 162.695C135.127 163.184 136.471 164.162 137.205 164.407C135.493 163.918 137.205 165.507 135.738 165.262C136.716 165.873 137.694 165.873 137.938 165.873C137.816 166.118 136.96 165.996 137.816 166.607L136.716 165.751C136.349 165.996 137.816 166.485 138.427 167.218C137.327 168.074 134.515 164.651 133.415 164.773Z" fill="#443730"/>
<path d="M127.181 171.985C127.181 171.863 127.303 171.863 127.426 171.863C127.426 171.863 127.303 171.985 127.181 171.985Z" fill="#443730"/>
<path d="M130.359 172.719C130.482 172.841 130.604 172.963 130.726 173.085C130.604 173.085 130.482 172.963 130.359 172.719Z" fill="#443730"/>
<path d="M131.826 174.063C131.46 173.574 131.337 173.574 130.726 173.085C131.093 173.33 131.337 173.208 131.826 174.063Z" fill="#443730"/>
<path d="M100.778 184.698C100.778 184.331 100.412 183.842 100.534 183.475L100.901 183.964L100.778 184.698Z" fill="#443730"/>
<path d="M101.512 183.231L101.879 182.62L102.123 184.576C101.756 184.576 102.001 183.231 101.512 183.231Z" fill="#443730"/>
<path d="M102.612 182.131L102.49 181.642C102.612 181.886 102.612 182.009 102.612 182.131Z" fill="#443730"/>
<path d="M102.612 182.864L102.734 184.209L102.245 183.231L102.49 182.987C102.49 182.498 102.612 182.253 102.612 182.131L102.856 183.109C102.734 182.987 102.612 182.742 102.612 182.864Z" fill="#443730"/>
<path d="M103.101 182.986C103.101 183.109 103.101 183.231 103.101 183.353C102.979 183.231 102.979 183.109 103.101 182.986Z" fill="#443730"/>
<path d="M103.834 180.42C103.712 180.908 103.957 181.642 104.079 182.253C103.712 182.742 103.59 180.786 103.345 181.397C103.834 182.498 103.223 182.253 103.101 182.986C103.223 181.642 103.345 180.786 103.712 180.42L103.834 181.275C103.834 181.275 103.712 180.786 103.834 180.42Z" fill="#443730"/>
<path d="M105.912 182.375L105.546 181.153C105.546 181.764 105.057 181.764 105.179 183.109C105.057 182.986 104.934 182.375 104.812 182.009C104.69 182.742 104.69 183.231 104.445 182.253C105.057 181.275 104.812 181.031 105.423 180.664C105.423 180.42 105.301 180.42 105.301 180.542L105.668 179.808C105.668 181.275 106.279 181.397 105.912 182.375Z" fill="#443730"/>
<path d="M106.401 181.397C106.035 181.397 105.79 180.175 105.912 179.319L106.646 180.297C106.401 180.175 106.157 180.053 106.401 181.397Z" fill="#443730"/>
<path d="M106.89 181.275C106.89 180.542 107.012 179.075 107.379 180.42C106.89 180.175 107.379 182.131 106.89 181.275Z" fill="#443730"/>
<path d="M108.968 179.686L108.479 180.664C108.601 182.375 108.846 181.153 109.213 181.886C108.724 182.253 108.846 181.764 108.235 180.786C108.113 180.908 107.746 180.053 107.501 179.564C108.479 180.786 107.868 176.752 108.968 179.686Z" fill="#443730"/>
<path d="M107.99 181.642L107.746 180.909L108.113 181.397L107.99 181.642Z" fill="#443730"/>
<path d="M109.946 177.73C109.824 175.652 110.802 178.708 111.046 177.73C110.924 177.608 110.924 177.486 110.802 177.241L111.168 177.364L111.046 176.875C111.291 178.097 111.78 178.464 112.146 179.319C112.146 180.664 111.657 177.853 111.657 179.319C111.902 179.808 112.146 180.664 112.269 181.031C111.902 180.542 111.657 179.808 111.413 179.197C111.168 179.075 111.413 179.808 111.413 180.175C111.046 179.564 110.557 177.853 110.313 178.341C110.313 179.442 110.802 179.931 110.313 179.564C110.191 177.608 109.946 179.931 109.579 178.83C109.335 179.197 109.335 180.419 109.457 181.153C109.213 179.686 108.724 178.464 108.357 178.097L109.09 179.197L108.968 177.486C109.579 178.219 109.824 178.097 109.946 177.73Z" fill="#443730"/>
<path d="M112.269 181.031C112.391 181.153 112.391 181.275 112.513 181.275C112.513 181.397 112.391 181.275 112.269 181.031Z" fill="#443730"/>
<path d="M109.579 181.642L109.824 182.009V182.498L109.579 181.642Z" fill="#443730"/>
<path d="M112.88 182.131C112.758 182.253 112.635 181.642 112.758 181.52L113.124 182.253L112.88 182.131Z" fill="#443730"/>
<path d="M113.002 181.031L112.88 179.931L113.246 180.786L113.002 181.031Z" fill="#443730"/>
<path d="M119.847 177.486C119.847 178.097 119.358 176.997 118.992 176.264C119.236 175.897 119.48 177.241 119.847 177.486Z" fill="#443730"/>
<path d="M124.859 176.386C124.981 177.241 124.248 176.386 124.003 176.508C123.881 175.897 124.37 176.019 124.859 176.386Z" fill="#443730"/>
<path d="M129.015 178.586C128.77 178.342 128.526 178.219 128.526 177.975L127.059 176.386C127.059 175.652 128.526 177.853 129.015 178.586Z" fill="#443730"/>
<path d="M131.215 177.241L130.359 176.875L130.482 176.752C129.87 176.141 129.626 175.897 129.015 175.408C129.626 175.53 130.359 176.019 131.215 177.241Z" fill="#443730"/>
<path d="M128.526 175.286C128.526 175.286 128.648 175.286 128.77 175.286C128.893 175.53 129.015 175.775 128.526 175.286Z" fill="#443730"/>
<path d="M128.893 175.286C129.015 175.408 129.015 175.408 129.137 175.408C129.015 175.408 128.893 175.286 128.77 175.286C128.648 175.163 128.648 174.919 128.893 175.286Z" fill="#443730"/>
<path d="M130.848 176.264L131.582 176.019V176.508C130.726 175.53 131.826 177.364 130.848 176.264Z" fill="#443730"/>
<path d="M132.926 172.963L132.071 171.985C132.193 171.496 134.515 173.085 133.293 171.496C133.66 172.23 134.515 172.23 134.393 172.963C133.538 172.23 132.926 172.596 132.926 172.963Z" fill="#443730"/>
<path d="M132.804 170.518C132.437 170.274 132.437 170.029 132.193 169.785C132.193 169.541 132.682 169.907 133.049 170.274C131.704 169.174 133.66 171.13 132.804 170.518Z" fill="#443730"/>
<path d="M134.271 169.174C134.149 169.296 133.904 169.296 133.782 168.929C134.149 168.685 135.127 169.785 135.86 170.274C136.227 171.007 134.638 169.785 134.271 169.174Z" fill="#443730"/>
<path d="M128.893 160.984C129.748 161.717 129.381 161.84 129.137 161.595C129.381 161.595 129.137 161.229 128.893 160.984Z" fill="#443730"/>
<path d="M135.982 166.729L136.104 166.974L134.76 165.996L135.982 166.729Z" fill="#443730"/>
<path d="M138.06 165.507L139.16 165.873L138.794 166.118L138.06 165.507Z" fill="#443730"/>
<path d="M138.182 165.018L138.427 164.773L138.671 165.14C138.916 165.385 138.305 164.896 138.182 165.018Z" fill="#443730"/>
<path d="M139.038 164.162C138.916 164.162 139.038 164.284 139.16 164.407L138.427 164.284L139.038 164.162Z" fill="#443730"/>
<path d="M135.982 155.85C135.004 155.361 135.738 155.484 135.493 155.361C135.738 155.484 136.96 156.217 135.982 155.85Z" fill="#443730"/>
</g>
<g opacity="0.88">
<path d="M135.095 257.55C135.144 257.55 135.144 257.55 135.193 257.672C135.193 257.672 135.144 257.672 135.095 257.55Z" fill="#443730"/>
<path d="M132.289 263.051L132.192 262.806C132.289 262.928 132.289 263.051 132.289 263.051Z" fill="#443730"/>
<path d="M136.837 250.827C136.789 250.705 136.789 250.705 136.837 250.827C136.789 250.705 136.789 250.705 136.837 250.827Z" fill="#443730"/>
<path d="M137.079 250.46C137.079 250.46 137.079 250.338 137.127 250.338L137.079 250.46C137.127 250.46 137.175 250.338 137.079 250.46Z" fill="#443730"/>
<path d="M139.063 248.138L139.16 248.26C139.112 248.26 139.063 248.26 139.063 248.138Z" fill="#443730"/>
<path d="M136.692 250.705C136.741 250.705 136.741 250.705 136.789 250.705C136.741 250.705 136.692 250.827 136.692 250.705Z" fill="#443730"/>
<path d="M135.047 257.428C135.095 257.55 135.095 257.55 135.047 257.428C135.095 257.55 135.095 257.55 135.047 257.428Z" fill="#443730"/>
<path d="M130.983 264.273C130.934 264.273 130.934 264.273 130.885 264.273C130.934 264.151 130.983 264.273 130.983 264.273Z" fill="#443730"/>
<path d="M136.547 253.027C136.789 253.516 136.644 252.783 136.885 253.272C136.789 253.272 136.74 253.394 136.837 253.639C137.031 253.761 136.885 253.272 137.127 253.639L136.982 253.761C137.079 254.127 137.273 254.25 137.224 254.25C136.885 253.883 137.176 255.105 137.079 255.228H137.127L137.176 255.839C137.176 255.839 137.127 255.839 137.127 255.717C137.224 256.083 137.273 256.572 137.176 256.817C136.982 256.572 136.837 257.55 136.692 257.306C136.789 257.306 136.789 257.183 136.789 256.939L136.595 256.572C136.498 256.817 136.789 256.939 136.595 256.939C136.353 256.328 136.692 256.572 136.74 256.328C136.644 256.205 136.595 256.205 136.498 256.328C136.595 255.961 136.595 255.472 136.934 255.839C136.885 255.594 136.789 255.472 136.74 255.472C136.982 255.594 136.643 254.983 136.837 255.105C136.547 254.739 136.547 255.35 136.353 255.228C136.45 255.961 136.16 255.961 136.014 256.205C136.208 256.572 136.402 256.694 136.498 257.061C136.498 257.672 136.305 257.183 136.111 257.183C136.111 257.55 136.402 257.917 136.305 258.283H136.498C136.692 259.139 136.305 258.283 136.305 258.528C136.256 258.283 136.208 258.161 136.256 258.039C136.16 257.795 136.063 257.917 136.063 257.917V257.795C135.918 257.55 135.773 257.306 135.773 257.672C135.966 257.917 135.821 258.161 135.869 258.283H135.918C135.821 258.283 135.773 258.528 135.676 258.528L135.724 258.65C135.627 258.65 135.434 258.161 135.385 258.528C135.482 258.65 135.724 259.017 135.627 259.139C135.724 259.384 135.821 259.261 135.869 258.895C135.821 259.139 135.966 259.75 136.063 259.506C136.16 259.873 135.918 259.506 135.918 259.873C135.869 259.75 135.821 259.628 135.773 259.506C135.966 259.995 135.627 259.995 135.482 259.628H135.676C135.531 259.261 135.337 259.261 135.289 258.895C135.482 259.628 134.95 259.139 135.095 259.75L134.998 259.384C134.902 259.995 134.514 259.506 134.273 259.75C134.418 259.873 134.611 260.484 134.66 260.117C134.514 260.606 134.805 260.973 134.853 261.339C134.805 261.828 134.563 260.85 134.466 260.728H134.611C134.224 260.117 134.273 261.584 133.934 261.462C133.982 261.706 134.031 261.462 134.079 261.584C134.127 262.195 133.982 261.706 133.885 261.584C133.837 261.828 133.74 262.195 133.934 262.684C133.885 263.051 133.837 262.317 133.74 262.195V262.317C133.644 262.195 133.547 262.073 133.498 261.828C133.45 262.195 133.402 262.562 133.498 263.173C133.256 263.417 133.111 261.951 132.918 261.951C132.918 262.317 133.015 262.317 133.111 262.562L132.966 262.684C133.16 263.295 133.208 262.806 133.353 263.54C133.063 262.928 133.16 263.54 132.869 263.295V263.173C132.676 262.806 132.579 263.295 132.482 263.417C132.579 263.662 132.676 263.54 132.773 263.54C132.724 263.906 132.385 264.029 132.192 263.54C132.144 263.784 132.047 264.151 132.192 264.273C131.998 264.64 131.902 263.417 131.756 263.784L131.853 264.273C131.756 265.251 131.321 264.029 131.224 264.884L131.127 264.273C131.127 264.64 131.079 264.762 131.079 265.129L131.224 265.251C131.224 265.862 131.031 264.762 130.982 265.373C130.934 265.129 130.982 264.64 130.934 264.395C131.418 264.395 131.708 263.051 132.192 263.173C132.192 263.295 132.192 263.417 132.24 263.54C132.24 263.295 132.385 263.417 132.289 263.051C132.434 263.051 132.385 262.195 132.434 262.073C132.579 262.439 132.627 261.584 132.724 262.439L132.676 261.951C132.773 262.195 132.821 262.562 132.869 262.684C132.918 262.562 132.869 262.195 132.773 262.195C132.966 261.584 133.305 261.217 133.644 260.973L133.498 260.728C133.498 260.484 133.885 260.85 133.595 260.117C133.789 260.239 133.885 259.261 134.127 260.117C133.982 259.139 134.321 259.261 134.514 259.017C134.708 259.75 134.708 258.895 134.853 259.139C134.708 258.528 134.563 258.895 134.418 258.528C134.853 258.895 134.66 256.939 135.192 258.039C135.192 257.917 135.192 257.917 135.144 257.917C135.192 257.795 135.144 257.55 135.144 257.428C135.24 257.55 135.24 257.917 135.337 257.795C135.385 257.55 135.192 257.306 135.192 257.183C135.434 257.183 135.627 256.817 135.869 257.306C135.821 257.061 135.773 256.694 135.676 256.694C136.014 256.572 135.773 256.205 136.063 255.961C136.014 256.083 135.821 255.594 135.821 255.961C135.579 255.105 136.111 255.35 136.063 254.616L136.305 254.861C136.402 254.739 136.208 254.25 136.111 254.372C136.111 253.761 136.256 253.761 136.353 253.394C136.353 253.272 136.305 253.272 136.305 253.394L136.402 252.905C136.45 252.905 136.595 252.905 136.74 253.15C136.644 252.661 136.547 252.661 136.547 253.027Z" fill="#443730"/>
<path d="M136.305 258.772C136.256 258.65 136.256 258.528 136.256 258.528C136.305 258.528 136.305 258.65 136.305 258.772Z" fill="#443730"/>
<path d="M138.143 248.382C138.482 248.871 138.047 248.627 138.095 248.994C138.192 248.871 138.385 249.116 138.482 249.238C137.998 248.994 138.531 249.727 138.337 250.094C138.482 250.216 138.531 250.094 138.724 250.216C138.579 250.338 138.434 250.827 138.143 250.583C138.047 251.072 138.047 251.561 137.95 251.805C138.143 251.561 138.192 252.05 138.482 252.05C138.143 252.05 137.611 252.416 137.176 252.416C137.418 252.905 137.418 252.905 137.708 253.272C137.756 254.128 137.418 253.027 137.369 253.639V253.272C137.224 253.394 136.982 253.027 136.789 252.783L136.982 252.294C136.789 252.05 136.74 252.416 136.643 252.416C136.402 252.294 136.595 251.927 136.402 251.683C136.547 251.805 136.595 251.561 136.692 251.438L136.595 251.316C136.547 250.949 136.837 251.072 136.885 250.827L136.837 250.705C136.982 250.827 137.127 250.827 137.176 250.827L137.127 250.949C137.418 251.072 137.66 250.705 137.853 251.438L137.902 250.705C137.611 250.46 137.224 250.094 137.079 250.338L136.982 250.216C136.885 249.727 137.321 249.727 137.514 250.216C138.192 250.705 137.708 249.238 138.047 249.116C137.902 248.871 137.756 249.116 137.611 249.116C137.563 249.238 137.563 249.36 137.708 249.483C137.514 249.972 137.176 248.749 137.127 249.483C137.127 249.849 137.466 249.483 137.418 249.972L136.885 249.727C136.934 249.483 137.079 249.36 137.176 249.116C137.466 248.627 137.563 248.016 137.611 247.649C137.66 247.282 137.611 246.916 137.611 246.916C137.95 244.96 138.192 242.882 138.385 240.804C138.482 240.193 138.482 239.948 139.014 239.826C139.111 239.948 139.063 240.437 139.256 240.315C139.063 240.315 138.966 240.559 138.966 240.926C139.16 241.048 139.063 240.682 139.111 240.682V240.804C139.208 240.804 139.256 240.804 139.305 240.682C139.547 241.171 139.45 242.026 139.063 242.148C139.208 242.515 139.353 242.026 139.547 241.904C139.595 243.126 139.498 243.982 139.402 245.204C139.063 244.96 139.16 245.204 138.966 245.204L139.063 245.449C139.014 245.327 138.772 245.327 138.724 245.082C138.918 245.938 138.192 245.571 137.998 245.816L138.192 245.938C138.095 246.304 138.095 246.427 137.95 246.549C138.192 247.405 138.047 246.06 138.434 246.549L138.337 246.671C138.482 246.671 138.772 246.793 138.918 246.671C138.579 247.038 138.918 247.649 138.627 248.016C138.821 248.138 139.014 247.649 139.063 247.527C139.063 247.771 138.869 248.016 139.014 248.26L138.772 248.138C138.676 248.505 139.014 248.26 139.111 248.505C139.014 249.238 138.434 247.894 138.143 248.382Z" fill="#443730"/>
<path d="M136.402 256.572C136.402 256.45 136.45 256.45 136.499 256.328C136.45 256.45 136.45 256.45 136.402 256.572Z" fill="#443730"/>
<path d="M137.224 255.839C137.273 255.839 137.273 255.961 137.322 255.961C137.273 255.839 137.273 255.839 137.224 255.839Z" fill="#443730"/>
<path d="M137.563 256.083C137.466 255.839 137.466 255.961 137.321 255.839C137.418 255.961 137.466 255.594 137.563 256.083Z" fill="#443730"/>
<path d="M126.773 269.651C126.724 269.529 126.627 269.285 126.676 269.162L126.821 269.285L126.773 269.651Z" fill="#443730"/>
<path d="M127.063 268.918L127.208 268.674L127.353 269.529C127.16 269.407 127.208 268.796 127.063 268.918Z" fill="#443730"/>
<path d="M127.45 268.307L127.402 268.062C127.402 268.185 127.45 268.185 127.45 268.307Z" fill="#443730"/>
<path d="M127.45 268.673L127.547 269.285L127.353 268.918L127.402 268.796C127.402 268.551 127.45 268.429 127.45 268.429L127.547 268.796C127.498 268.673 127.45 268.551 127.45 268.673Z" fill="#443730"/>
<path d="M127.886 267.329C127.886 267.573 127.934 267.818 127.982 268.062C127.837 268.307 127.789 267.451 127.692 267.818C127.886 268.185 127.644 268.185 127.595 268.551C127.595 267.94 127.644 267.573 127.789 267.329L127.837 267.696C127.886 267.818 127.837 267.573 127.886 267.329Z" fill="#443730"/>
<path d="M128.66 268.062L128.515 267.573C128.515 267.818 128.321 267.94 128.369 268.429C128.321 268.429 128.273 268.062 128.224 267.94C128.176 268.307 128.176 268.429 128.079 268.062C128.321 267.573 128.224 267.451 128.466 267.207C128.466 267.084 128.418 267.084 128.418 267.207L128.563 266.84C128.611 267.573 128.805 267.573 128.66 268.062Z" fill="#443730"/>
<path d="M128.853 267.573C128.756 267.573 128.611 267.084 128.66 266.718C128.757 266.84 128.853 266.962 128.95 267.084C128.902 267.084 128.805 267.084 128.853 267.573Z" fill="#443730"/>
<path d="M129.047 267.451C129.047 267.084 129.095 266.473 129.24 266.962C129.095 266.962 129.192 267.818 129.047 267.451Z" fill="#443730"/>
<path d="M129.821 266.351L129.627 266.84C129.676 267.573 129.773 266.962 129.869 267.329C129.676 267.573 129.724 267.329 129.531 266.962C129.482 267.084 129.337 266.718 129.289 266.596C129.627 266.962 129.482 265.251 129.821 266.351Z" fill="#443730"/>
<path d="M129.434 267.451L129.386 267.084L129.531 267.329L129.434 267.451Z" fill="#443730"/>
<path d="M130.305 265.251C130.353 264.273 130.644 265.618 130.74 265.129C130.74 265.129 130.74 265.006 130.692 264.884H130.837V264.64C130.885 265.129 131.031 265.251 131.176 265.495C131.127 266.107 131.031 264.884 130.982 265.618C131.031 265.862 131.127 266.107 131.176 266.351C131.079 266.229 130.982 265.862 130.934 265.618C130.837 265.618 130.885 265.862 130.934 266.107C130.789 265.862 130.692 265.129 130.595 265.373C130.547 265.862 130.74 265.984 130.547 265.984C130.547 265.129 130.402 266.229 130.256 265.74C130.16 265.984 130.111 266.473 130.16 266.84C130.111 266.229 129.918 265.74 129.821 265.618L130.063 265.984V265.251C130.111 265.618 130.208 265.495 130.305 265.251Z" fill="#443730"/>
<path d="M131.079 266.473L131.127 266.595L131.079 266.473Z" fill="#443730"/>
<path d="M130.063 267.207L130.111 267.329V267.451L130.063 267.207Z" fill="#443730"/>
<path d="M131.224 266.84C131.176 266.84 131.176 266.718 131.176 266.595L131.224 266.84Z" fill="#443730"/>
<path d="M131.273 266.229L131.321 265.74L131.37 266.107L131.273 266.229Z" fill="#443730"/>
<path d="M133.885 262.684C133.885 263.051 133.74 262.562 133.644 262.317C133.74 261.951 133.74 262.684 133.885 262.684Z" fill="#443730"/>
<path d="M135.531 260.362C135.531 260.85 135.337 260.606 135.24 260.728C135.24 260.362 135.385 260.362 135.531 260.362Z" fill="#443730"/>
<path d="M136.595 260.239C136.547 260.117 136.498 260.117 136.498 259.995L136.16 259.506C136.208 259.017 136.498 259.873 136.595 260.239Z" fill="#443730"/>
<path d="M137.273 258.528L137.079 258.65L137.127 258.528C136.982 258.406 136.934 258.283 136.789 258.161C136.934 258.039 137.079 258.039 137.273 258.528Z" fill="#443730"/>
<path d="M136.643 258.161C136.643 258.161 136.692 258.161 136.692 258.039C136.741 258.283 136.741 258.406 136.643 258.161Z" fill="#443730"/>
<path d="M136.74 258.039C136.74 258.039 136.788 258.039 136.74 258.039C136.74 258.039 136.74 258.161 136.74 258.039C136.692 258.039 136.692 258.039 136.74 258.039Z" fill="#443730"/>
<path d="M137.224 257.917L137.418 257.428V257.795C137.224 257.55 137.418 258.283 137.224 257.917Z" fill="#443730"/>
<path d="M137.902 254.861L137.708 254.494C137.756 254.127 138.289 254.25 138.047 253.639C138.143 254.005 138.337 253.639 138.289 254.127C138.047 254.005 137.902 254.494 137.902 254.861Z" fill="#443730"/>
<path d="M137.95 253.15C137.902 253.15 137.853 253.027 137.805 252.905C137.805 252.783 137.95 252.783 137.998 252.905C137.708 252.538 138.095 253.272 137.95 253.15Z" fill="#443730"/>
<path d="M138.289 251.438C138.24 251.561 138.192 251.683 138.192 251.438C138.289 251.194 138.482 251.561 138.627 251.561C138.724 251.927 138.385 251.805 138.289 251.438Z" fill="#443730"/>
<path d="M137.224 247.405C137.419 247.649 137.322 247.771 137.273 247.771C137.322 247.771 137.273 247.527 137.224 247.405Z" fill="#443730"/>
<path d="M138.724 248.749V248.871L138.482 248.749H138.724Z" fill="#443730"/>
<path d="M139.16 246.916L139.353 246.793L139.305 247.16L139.16 246.916Z" fill="#443730"/>
<path d="M139.16 246.427L139.208 246.06L139.257 246.182C139.306 246.549 139.16 246.304 139.16 246.427Z" fill="#443730"/>
<path d="M139.305 245.449C139.305 245.449 139.305 245.571 139.353 245.571L139.208 245.816L139.305 245.449Z" fill="#443730"/>
<path d="M138.531 239.581C138.337 239.581 138.482 239.337 138.434 239.337C138.482 239.215 138.724 239.459 138.531 239.581Z" fill="#443730"/>
</g>
<path d="M93.1998 130.181C92.9553 129.57 92.9553 128.836 93.4443 128.347C94.7889 126.636 98.2114 122.724 102.123 123.336C106.646 124.069 109.579 129.447 109.457 130.914C109.213 132.992 105.668 137.27 100.778 137.148C96.8669 137.27 94.1777 132.259 93.1998 130.181Z" fill="#9BBEDC"/>
<path d="M105.214 130.498C105.525 127.612 104.035 125.085 101.887 124.853C99.7394 124.622 97.7463 126.775 97.4357 129.661C97.1251 132.547 98.6146 135.075 100.763 135.306C102.911 135.537 104.904 133.384 105.214 130.498Z" fill="#1B1C1E"/>
</svg>
