<svg width="303" height="157" viewBox="0 0 303 157" fill="none" xmlns="http://www.w3.org/2000/svg">
<path d="M198.423 154.313C198.423 154.313 210.896 191.162 213.149 196.957C213.149 196.957 227.777 219.652 236.345 228.309C236.345 228.309 246.451 220.717 250.761 229.943C250.761 229.943 236.405 239.047 235.813 239.422C235.222 239.797 222.18 232.674 189.025 184.309" fill="#EFBE9D"/>
<g opacity="0.88">
<path d="M203.523 154.513C203.385 154.482 203.14 154.282 202.971 154.389L203.216 154.589L203.523 154.513Z" fill="#443730"/>
<path d="M202.816 155.079L202.532 155.378L203.445 155.51C203.368 155.203 202.755 155.355 202.816 155.079Z" fill="#443730"/>
<path d="M202.301 155.761L202.025 155.699C202.163 155.73 202.217 155.814 202.301 155.761Z" fill="#443730"/>
<path d="M202.662 155.769L203.298 155.839L202.862 155.524L202.662 155.769C202.47 155.654 202.386 155.707 202.301 155.761L202.769 155.938C202.715 155.853 202.577 155.823 202.662 155.769Z" fill="#443730"/>
<path d="M202.738 156.076C202.823 156.022 202.876 156.107 202.961 156.053C202.823 156.022 202.738 156.076 202.738 156.076Z" fill="#443730"/>
<path d="M201.449 156.657C201.671 156.634 202.085 156.727 202.361 156.789C202.561 156.543 201.618 156.55 201.955 156.335C202.53 156.681 202.347 156.206 202.738 156.076C202.071 156.144 201.679 156.274 201.48 156.519L201.84 156.527C201.894 156.611 201.618 156.55 201.449 156.657Z" fill="#443730"/>
<path d="M202.474 157.901L201.869 157.693C202.176 157.617 202.153 157.394 202.874 157.411C202.82 157.326 202.544 157.264 202.353 157.149C202.66 157.073 202.967 156.997 202.468 156.958C202.069 157.448 201.877 157.332 201.731 157.662C201.593 157.631 201.593 157.631 201.677 157.578L201.339 157.792C201.976 157.862 201.968 158.222 202.474 157.901Z" fill="#443730"/>
</g>
<path d="M161.387 110.659C161.387 110.659 157.284 125.102 152.773 130.686C148.231 136.408 127.456 149.581 119.095 154.883C110.734 160.184 92.0453 168.246 95.8159 193.799C99.5866 219.353 106.436 261.9 120.545 283.03C134.654 304.159 159.925 294.529 173.982 271.88C187.546 250.135 180.406 231.218 177.986 224.227C177.986 224.227 203.169 155.448 206.706 140.298C210.243 125.149 202.488 116.094 194.117 108.495C185.747 100.896 183.382 97.5407 181.045 91.8C178.707 86.0593 158.947 102.141 158.947 102.141L161.387 110.659Z" fill="#EFBE9D"/>
<g opacity="0.88">
<path d="M177.31 101.036C177.31 101.036 177.448 101.067 177.532 101.013C177.448 101.067 177.363 101.12 177.31 101.036Z" fill="#443730"/>
<path d="M174.395 105.963L174.204 105.847C174.342 105.878 174.342 105.878 174.395 105.963Z" fill="#443730"/>
<path d="M178.836 101.015C178.921 100.962 179.005 100.908 179.143 100.939L178.836 101.015Z" fill="#443730"/>
<path d="M177.971 95.1694C178.056 95.1159 178.109 95.2003 178.194 95.1468C178.056 95.1159 178.025 95.2539 177.971 95.1694Z" fill="#443730"/>
<path d="M172.537 107.141C172.453 107.194 172.453 107.194 172.315 107.164C172.484 107.056 172.484 107.056 172.537 107.141Z" fill="#443730"/>
<path d="M178.06 97.3633C178.665 97.5713 178.122 97.0872 178.727 97.2953C178.558 97.4024 178.474 97.456 178.803 97.6022C179.164 97.6105 178.781 97.3798 179.364 97.3654L179.11 97.526C179.355 97.7258 179.747 97.5961 179.716 97.7341C178.995 97.7176 179.953 98.2943 179.784 98.4014L179.868 98.3479L180.167 98.6321C180.167 98.6321 180.082 98.6857 180.029 98.6012C180.358 98.7475 180.519 99.0009 180.404 99.1924C179.959 99.2377 180.111 99.8515 179.751 99.8433C179.835 99.7897 179.92 99.7362 179.813 99.5673L179.314 99.5281C179.337 99.7506 179.728 99.6208 179.475 99.7815C178.869 99.5734 179.537 99.5055 179.429 99.3366C179.291 99.3057 179.123 99.4128 179.038 99.4663C179.1 99.1903 178.886 98.8525 179.607 98.869C179.499 98.7001 179.193 98.7763 179.108 98.8298C179.499 98.7001 178.725 98.5992 179.17 98.5539C178.533 98.4838 178.801 98.9061 178.41 99.0358C178.847 99.351 178.286 99.5878 178.224 99.8638C178.638 99.9565 179.083 99.9112 179.275 100.027C179.489 100.364 178.937 100.241 178.63 100.317C178.791 100.57 179.374 100.556 179.312 100.832L179.619 100.756C180.194 101.102 179.312 100.832 179.419 101.001C179.228 100.886 179.09 100.855 179.205 100.663C179.013 100.548 178.844 100.655 178.76 100.708C178.399 100.7 178.123 100.638 178.231 100.807C178.591 100.815 178.476 101.007 178.583 101.176L178.667 101.122C178.498 101.229 178.467 101.367 178.383 101.421L178.521 101.452C178.299 101.475 177.885 101.382 177.907 101.604C178.045 101.635 178.628 101.621 178.513 101.812C178.789 101.874 178.904 101.683 178.797 101.514C178.82 101.736 179.203 101.967 179.318 101.775C179.648 101.922 179.065 101.936 179.256 102.051C179.203 101.967 178.98 101.99 178.927 101.905C179.394 102.082 178.834 102.319 178.504 102.173L178.811 102.097C178.482 101.95 178.09 102.08 177.983 101.911C178.558 102.257 177.477 102.233 177.913 102.548L177.668 102.348C177.714 102.793 176.855 102.745 176.57 103.044C176.793 103.021 177.367 103.367 177.291 103.061C177.199 103.475 177.781 103.46 178.08 103.744C178.21 104.136 177.475 103.536 177.252 103.559L177.421 103.452C176.593 103.267 177.182 104.196 176.515 104.263C176.706 104.379 176.653 104.294 176.737 104.241C176.951 104.579 176.568 104.348 176.43 104.317C176.399 104.455 176.391 104.815 176.859 104.993C176.797 105.269 176.614 104.793 176.476 104.762L176.529 104.846L175.924 104.638C175.946 104.861 176.022 105.168 176.29 105.59C175.952 105.804 175.332 105.013 175.025 105.089C175.102 105.396 175.324 105.374 175.462 105.405L175.209 105.565C175.645 105.88 175.654 105.52 176.059 105.973C175.4 105.681 175.668 106.103 175.201 105.926L175.147 105.841C174.764 105.61 174.809 106.055 174.587 106.078C174.832 106.278 174.947 106.086 175.17 106.064C175.246 106.371 174.632 106.523 174.195 106.208C174.164 106.346 174.156 106.706 174.432 106.768C174.148 107.067 173.835 106.2 173.604 106.583L173.818 106.92C173.802 107.641 172.959 106.873 172.889 107.51L172.622 107.087C172.644 107.31 172.613 107.448 172.636 107.67L172.912 107.732C172.957 108.177 172.529 107.501 172.521 107.862C172.414 107.693 172.422 107.332 172.315 107.164C173.067 107.042 173.283 106.076 174.173 105.985C174.226 106.07 174.226 106.07 174.28 106.154C174.311 106.016 174.449 106.047 174.288 105.794C174.51 105.771 174.22 105.126 174.305 105.073C174.55 105.273 174.451 104.743 174.857 105.196L174.642 104.859C174.834 104.974 174.995 105.227 175.133 105.258C175.163 105.12 175.056 104.951 174.834 104.974C175.011 104.506 175.326 104.07 175.833 103.748L175.557 103.687C175.45 103.518 176.224 103.619 175.565 103.326C175.926 103.334 175.773 102.721 176.432 103.013C175.889 102.529 176.364 102.346 176.649 102.047C177.223 102.393 176.902 101.886 177.262 101.895C176.879 101.664 176.68 101.909 176.35 101.763C177.209 101.81 176.152 100.704 177.448 101.067C177.394 100.982 177.394 100.982 177.31 101.036C177.394 100.982 177.149 100.782 177.096 100.698C177.372 100.76 177.341 100.898 177.51 100.791C177.541 100.653 177.127 100.56 176.989 100.529C177.38 100.399 177.611 100.016 178.078 100.193C177.971 100.024 177.695 99.9627 177.557 99.9318C178.064 99.6105 177.565 99.5713 177.934 99.2191C177.903 99.3571 177.436 99.18 177.596 99.4333C176.937 99.1408 177.858 98.9122 177.59 98.4899L178.035 98.4446C178.15 98.2531 177.736 98.1604 177.483 98.321C177.269 97.9832 177.522 97.8226 177.584 97.5466L177.446 97.5157L177.454 97.1552C177.539 97.1016 177.846 97.0254 178.122 97.0872C178.122 97.0872 177.899 97.1099 178.06 97.3633Z" fill="#443730"/>
<path d="M179.695 101.063C179.642 100.978 179.504 100.947 179.504 100.947C179.588 100.894 179.642 100.978 179.695 101.063Z" fill="#443730"/>
<path d="M181.409 94.0552C181.784 94.6464 181.102 94.1314 181.125 94.3539C181.347 94.3312 181.561 94.669 181.669 94.8379C180.933 94.2385 181.607 95.1139 181.215 95.2437C181.376 95.4971 181.545 95.3899 181.844 95.6742C181.568 95.6124 181.261 95.6886 180.824 95.3734C180.624 95.6185 180.562 95.8945 180.394 96.0017C180.7 95.9255 180.83 96.3168 181.298 96.494C180.692 96.2859 179.78 96.1541 178.997 96.4136C179.518 96.6752 179.603 96.6216 180.07 96.7988C180.284 97.1366 179.763 96.875 179.648 97.0665C179.648 97.0665 179.563 97.1201 179.617 97.2046L179.51 97.0356C179.256 97.1963 178.758 97.1571 178.398 97.1489L178.513 96.9573C178.544 96.8193 178.628 96.7658 178.659 96.6278C178.383 96.566 178.268 96.7575 178.237 96.8955C178.152 96.9491 178.206 97.0335 178.122 97.0871C177.815 97.1633 177.792 96.9408 177.654 96.9099L177.6 96.8255C177.547 96.741 177.547 96.741 177.462 96.7946C177.854 96.6648 177.778 96.3579 178.031 96.1973L177.732 95.913C177.633 95.3836 178.27 95.4537 178.332 95.1777C178.278 95.0932 178.278 95.0932 178.278 95.0932C178.554 95.155 178.83 95.2168 178.999 95.1097L178.915 95.1633C179.467 95.2869 179.942 95.1036 180.233 95.7483C180.264 95.6103 180.379 95.4187 180.41 95.2807C179.973 94.9656 179.292 94.4506 178.954 94.6648L178.762 94.5495C178.717 94.1045 179.545 94.29 179.813 94.7122C180.387 95.0583 180.556 94.9512 180.587 94.8132C180.703 94.6216 180.764 94.3456 181.04 94.4074C180.826 94.0696 180.604 94.0922 180.328 94.0304C180.243 94.084 180.159 94.1376 180.319 94.3909C179.844 94.5742 179.592 93.431 179.246 94.0057C179.1 94.3353 179.936 94.1602 179.652 94.4589C179.323 94.3126 178.993 94.1664 178.663 94.0201C178.917 93.8594 179.224 93.7832 179.393 93.6761C180.091 93.4702 180.429 93.256 180.713 92.9573C180.913 92.7122 181.028 92.5206 181.028 92.5206C182.433 91.7483 183.891 91.0604 185.319 90.5105C185.848 90.4116 185.932 90.358 186.552 91.149C186.575 91.3715 186.268 91.4477 186.513 91.6475C186.299 91.3097 186.023 91.2479 185.854 91.355C185.984 91.7463 186.13 91.4168 186.099 91.5548C186.206 91.7237 186.26 91.8081 186.344 91.7546C186.359 92.3375 185.829 92.4364 185.37 91.8987C185.277 92.3127 185.776 92.3519 186.021 92.5517C185.452 93.149 184.977 93.3323 184.301 93.7607C183.98 93.254 184.002 93.4765 183.735 93.0542L183.757 93.2767C183.704 93.1922 183.351 92.8235 183.467 92.632C183.312 93.322 182.563 92.1397 182.149 92.047L182.309 92.3003C182.002 92.3765 182.002 92.3765 181.695 92.4527C181.679 93.1736 182.087 92.323 182.431 93.0521L182.293 93.0212C182.538 93.221 182.944 93.6742 183.135 93.7895C182.53 93.5815 182.82 94.2262 182.184 94.1561C182.482 94.4404 182.843 94.4487 182.981 94.4796C182.896 94.5331 182.536 94.5249 182.696 94.7782L182.429 94.356C182.206 94.3786 182.727 94.6402 182.803 94.9471C182.404 95.4373 181.992 94.0408 181.409 94.0552Z" fill="#443730"/>
<path d="M179.145 99.6352C179.092 99.5508 179.176 99.4972 179.261 99.4437C179.176 99.4972 179.092 99.5508 179.145 99.6352Z" fill="#443730"/>
<path d="M180.167 98.6321C180.251 98.5785 180.305 98.663 180.305 98.663C180.305 98.663 180.251 98.5785 180.167 98.6321Z" fill="#443730"/>
<path d="M180.834 98.564C180.643 98.4487 180.612 98.5867 180.389 98.6094C180.558 98.5023 180.536 98.2798 180.834 98.564Z" fill="#443730"/>
<path d="M166.111 111.571C166.057 111.487 165.865 111.371 165.896 111.233L166.172 111.295L166.111 111.571Z" fill="#443730"/>
<path d="M166.457 110.997L166.656 110.751L166.893 111.312C166.724 111.419 166.763 110.92 166.457 110.997Z" fill="#443730"/>
<path d="M167.155 110.79L167.338 111.266L166.955 111.036L167.04 110.982C167.07 110.844 167.101 110.706 167.101 110.706L167.262 110.959C167.293 110.821 167.155 110.79 167.155 110.79Z" fill="#443730"/>
<path d="M167.377 110.768C167.377 110.768 167.431 110.852 167.346 110.906C167.431 110.852 167.431 110.852 167.377 110.768Z" fill="#443730"/>
<path d="M167.816 109.779C167.785 109.917 167.946 110.17 168.053 110.339C167.853 110.584 167.732 109.833 167.585 110.162C167.968 110.393 167.524 110.438 167.462 110.714C167.416 110.269 167.478 109.993 167.732 109.833L167.808 110.14C167.892 110.086 167.785 109.917 167.816 109.779Z" fill="#443730"/>
<path d="M169.165 110.226L168.897 109.804C168.92 110.027 168.613 110.103 168.743 110.494C168.605 110.463 168.582 110.241 168.444 110.21C168.467 110.432 168.352 110.624 168.191 110.371C168.56 110.018 168.368 109.903 168.706 109.689C168.652 109.604 168.652 109.604 168.568 109.658L168.768 109.413C168.951 109.889 169.312 109.897 169.165 110.226Z" fill="#443730"/>
<path d="M169.48 109.79C169.258 109.812 169.044 109.474 169.106 109.198L169.627 109.46C169.489 109.429 169.266 109.452 169.48 109.79Z" fill="#443730"/>
<path d="M169.703 109.767C169.68 109.544 169.719 109.046 169.934 109.384C169.711 109.406 170.086 109.998 169.703 109.767Z" fill="#443730"/>
<path d="M170.916 108.879L170.685 109.262C170.784 109.792 170.877 109.378 171.122 109.577C170.784 109.792 170.9 109.6 170.516 109.369C170.432 109.423 170.187 109.223 170.08 109.054C170.739 109.347 170.243 108.004 170.916 108.879Z" fill="#443730"/>
<path d="M170.37 109.699L170.348 109.476L170.539 109.592L170.37 109.699Z" fill="#443730"/>
<path d="M171.546 108.006C171.478 107.338 172.098 108.129 172.245 107.8C172.245 107.8 172.191 107.715 172.138 107.631L172.36 107.608L172.307 107.524C172.521 107.862 172.797 107.923 173.042 108.123C173.003 108.622 172.69 107.755 172.735 108.199C172.842 108.368 173.003 108.622 173.141 108.653C172.949 108.537 172.788 108.284 172.597 108.169C172.459 108.138 172.62 108.391 172.673 108.475C172.482 108.36 172.16 107.853 172.045 108.045C172.037 108.405 172.366 108.552 172.09 108.49C171.938 107.876 171.89 108.735 171.623 108.313C171.507 108.504 171.553 108.949 171.66 109.118C171.476 108.642 171.178 108.358 170.986 108.243C171.178 108.358 171.316 108.389 171.507 108.504L171.355 107.89C171.347 108.251 171.462 108.059 171.546 108.006Z" fill="#443730"/>
<path d="M173.003 108.622C173.003 108.622 173.056 108.706 173.141 108.653C173.11 108.791 173.056 108.706 173.003 108.622Z" fill="#443730"/>
<path d="M171.375 109.417L171.567 109.532L171.536 109.67L171.375 109.417Z" fill="#443730"/>
<path d="M173.439 108.937C173.355 108.99 173.248 108.821 173.332 108.768L173.439 108.937Z" fill="#443730"/>
<path d="M173.394 108.492L173.318 108.185L173.563 108.385L173.394 108.492Z" fill="#443730"/>
<path d="M176.912 105.077C176.935 105.299 176.69 105.1 176.445 104.9C176.506 104.624 176.69 105.1 176.912 105.077Z" fill="#443730"/>
<path d="M178.91 102.626C179.071 102.879 178.626 102.925 178.595 103.063C178.519 102.756 178.688 102.649 178.91 102.626Z" fill="#443730"/>
<path d="M180.706 101.724C180.568 101.693 180.484 101.746 180.43 101.662L179.709 101.646C179.58 101.254 180.43 101.662 180.706 101.724Z" fill="#443730"/>
<path d="M181.269 100.183L180.931 100.397L180.962 100.259C180.686 100.198 180.517 100.305 180.295 100.327C180.41 100.136 180.717 100.06 181.269 100.183Z" fill="#443730"/>
<path d="M180.041 100.488C180.126 100.434 180.126 100.434 180.041 100.488C180.21 100.381 180.264 100.465 180.041 100.488Z" fill="#443730"/>
<path d="M180.157 100.297C180.157 100.297 180.241 100.243 180.157 100.297C180.21 100.381 180.21 100.381 180.157 100.297C180.072 100.35 180.072 100.35 180.157 100.297Z" fill="#443730"/>
<path d="M180.97 99.8989L181.147 99.4313L181.254 99.6002C180.81 99.6455 181.469 99.938 180.97 99.8989Z" fill="#443730"/>
<path d="M180.913 97.5673L180.499 97.4746C180.445 97.3901 180.614 97.283 180.783 97.1759C181.005 97.1532 181.09 97.0997 180.76 96.9534C181.036 97.0152 181.174 97.0461 181.366 97.1615C181.228 97.1306 181.09 97.0997 181.005 97.1532C180.89 97.3448 180.943 97.4293 180.913 97.5673Z" fill="#443730"/>
<path d="M180.515 96.7535C180.377 96.7226 180.323 96.6381 180.185 96.6072C180.132 96.5228 180.408 96.5846 180.546 96.6155C179.994 96.4919 180.791 96.8153 180.515 96.7535Z" fill="#443730"/>
<path d="M181.03 96.0717C180.946 96.1252 180.861 96.1788 180.892 96.0408C181.061 95.9337 181.413 96.3024 181.605 96.4178C181.627 96.6402 181.053 96.2942 181.03 96.0717Z" fill="#443730"/>
<path d="M180.307 92.5044C180.521 92.8422 180.299 92.8648 180.161 92.8339C180.299 92.8648 180.276 92.6424 180.307 92.5044Z" fill="#443730"/>
<path d="M182.167 94.8772L182.136 95.0152L181.73 94.562L182.167 94.8772Z" fill="#443730"/>
<path d="M183.426 94.4345L183.671 94.6343L183.502 94.7414L183.426 94.4345Z" fill="#443730"/>
<path d="M183.541 94.2429L183.71 94.1358L183.679 94.2738C183.732 94.3583 183.625 94.1894 183.541 94.2429Z" fill="#443730"/>
<path d="M184.186 93.9523C184.132 93.8679 184.101 94.0059 184.186 93.9523L183.825 93.9441L184.186 93.9523Z" fill="#443730"/>
<path d="M186.324 90.2283C186.11 89.8905 186.439 90.0368 186.47 89.8988C186.524 89.9832 186.538 90.5662 186.324 90.2283Z" fill="#443730"/>
</g>
<path d="M180.857 165.451C180.857 165.451 183.652 168.178 187.963 172.549C194.173 178.795 203.584 188.221 212.78 197.309C226.885 211.336 240.424 224.657 240.838 224.75C241.781 224.744 245.767 221.506 249.769 222.402C253.771 223.298 254.784 227.511 254.784 227.511C254.784 227.511 243.214 234.847 242.708 235.168C242.285 235.436 200.971 210.244 186.314 200.948C183.525 199.164 181.61 198.01 181.004 197.802" fill="#EFBE9D"/>
<path d="M139.685 71.0174C139.685 71.0174 137.852 66.2593 136.466 65.0069C135.079 63.7545 121.668 61.8385 110.317 57.1954C98.9657 52.5523 93.287 49.759 91.7957 51.8888C90.2199 54.0721 100.283 72.5569 110.86 81.9539C121.437 91.351 124.802 92.177 128.133 90.8939C131.517 89.6952 134.026 89.17 134.026 89.17C134.026 89.17 141.363 76.4656 139.685 71.0174Z" fill="#EFBE9D"/>
<path d="M137.281 82.7252C135.756 86.2969 134.026 89.1702 134.026 89.1702C134.026 89.1702 131.464 89.6109 128.133 90.894C124.749 92.0927 121.437 91.3511 110.86 81.954C103.791 75.6612 96.8973 65.3497 93.641 58.5338C93.641 58.5338 93.641 58.5338 93.5875 58.4494C93.4042 57.9736 93.19 57.6357 93.0602 57.2444C92.6483 55.8478 93.2951 54.2536 100.477 56.8038C111.124 60.7095 130.412 71.3324 131.852 72.6692C132.962 73.8598 135.928 80.031 137.281 82.7252Z" fill="#E2AF8D"/>
<path d="M165.226 60.5051C165.226 60.5051 162.994 56.2372 161.816 54.3792C160.637 52.5213 160.104 50.3729 162.395 42.4078C164.686 34.4427 167.401 20.0511 168.907 13.6494C170.413 7.24767 171.892 3.23115 175.066 3.94188C178.24 4.6526 196.612 40.722 196.902 46.2216C197.139 51.6367 195.6 54.6254 190.109 59.4101C184.617 64.1948 180.71 66.4357 180.31 66.9259C179.772 67.3852 167.103 67.012 165.226 60.5051Z" fill="#EFBE9D"/>
<path d="M181.807 13.6395C188.262 24.9397 196.655 42.4707 196.795 46.0527C197.032 51.4678 195.493 54.4565 190.001 59.2412C184.51 64.0259 180.602 66.2668 180.203 66.757C180.088 66.9486 177.978 66.9835 175.379 66.6188C172.267 60.7772 168.238 52.5565 167.913 49.8026C167.268 45.2381 172.923 10.2736 175.372 8.72057C177.875 7.25203 181.807 13.6395 181.807 13.6395Z" fill="#E2AF8D"/>
<path d="M148.537 103.651C148.537 103.651 140.815 102.864 138.042 100.359C135.323 97.9385 130.559 89.1184 134.358 78.3027C138.157 67.4869 147.123 62.3933 151.935 60.6447C156.746 58.8961 168.769 56.0087 180.053 64.8393C191.336 73.67 189.62 81.9811 186.252 87.3138C182.968 92.5929 177.971 95.1695 177.971 95.1695C177.971 95.1695 177.679 100.684 176.272 102.76C174.865 104.836 171.386 107.752 167.771 109.334C164.156 110.916 157.859 110.883 155.361 109.744C152.862 108.605 149.173 103.721 148.537 103.651Z" fill="#EFBE9D"/>
<path d="M159.416 110.724C159.416 110.724 161.303 110.712 161.806 108.144C162.308 105.575 163.923 102.893 164.438 102.211L163.728 100.531" stroke="#1B1C1E" stroke-miterlimit="10" stroke-linecap="round" stroke-linejoin="round"/>
<path d="M164.438 102.211C164.438 102.211 164.959 102.473 167.474 102.891C170.403 103.402 173.674 105.946 176.463 102.875" stroke="#1B1C1E" stroke-miterlimit="10" stroke-linecap="round" stroke-linejoin="round"/>
<path d="M164.004 100.592C164.004 100.592 163.435 101.19 161.987 100.213C160.539 99.237 158.484 99.3564 157.518 99.1401C156.551 98.9238 155.979 97.2739 158.234 96.9094C160.574 96.4914 162.317 95.5048 163.922 94.4873C166.371 92.9343 166.838 93.1115 167.351 93.7335C167.779 94.4092 167.056 95.6965 165.812 96.7222C164.622 97.8324 165.431 100.043 164.004 100.592Z" fill="#1B1C1E" stroke="#1B1C1E" stroke-miterlimit="10"/>
<path d="M153.608 92.975C153.608 92.975 151.446 88.0706 147.314 86.7831C143.182 85.4956 139.419 88.7108 139.419 88.7108C139.419 88.7108 140.475 94.6718 145.973 95.6854C149.73 96.3818 153.608 92.975 153.608 92.975Z" fill="#FCEA9F"/>
<path d="M167.096 85.4882C167.096 85.4882 164.346 78.351 167.918 75.0205C171.49 71.6899 175.185 72.6623 175.185 72.6623C175.185 72.6623 178.396 79.0333 174.571 82.5245C170.799 86.1001 167.096 85.4882 167.096 85.4882Z" fill="#FCEA9F"/>
<path d="M147.544 90.5258C146.754 88.6412 145.495 87.373 144.731 87.6933C143.967 88.0135 143.988 89.8009 144.778 91.6855C145.568 93.5701 146.827 94.8383 147.591 94.518C148.355 94.1978 148.334 92.4104 147.544 90.5258Z" fill="#1B1C1E"/>
<path d="M171.658 78.8224C170.868 76.9378 169.608 75.6696 168.844 75.9899C168.08 76.3102 168.101 78.0975 168.891 79.9821C169.681 81.8667 170.941 83.1349 171.705 82.8146C172.469 82.4944 172.448 80.707 171.658 78.8224Z" fill="#1B1C1E"/>
</svg>
