<svg width="282" height="281" viewBox="0 0 282 281" fill="none" xmlns="http://www.w3.org/2000/svg">
<path d="M153.452 276.758C153.452 276.758 149.84 284.144 165.339 269.511C180.837 254.877 259.965 174.908 267.239 165.792C274.512 156.676 290.78 141.117 267.757 160.413C244.733 179.709 224.361 202.872 202.053 223.151C179.674 243.361 154.395 271.375 153.452 276.758Z" fill="#1B1C1E"/>
<path d="M56.656 86.0511C56.656 86.0511 42.5119 85.8933 35.6338 91.7526C28.2639 97.9699 34.7814 107.317 54.0765 114.218C54.0765 114.218 61.4953 97.5346 56.656 86.0511Z" fill="#F6EEEB"/>
<path d="M58.2128 94.1694C58.5831 104.066 54.0765 114.218 54.0765 114.218C41.8047 109.871 34.6864 104.56 33.0169 99.6957C33.0144 99.4129 33.5363 94.4583 42.9348 93.7388C48.7992 93.1919 54.6023 93.7063 58.2128 94.1694Z" fill="#EAD6DE"/>
<path d="M87.0968 57.9208C87.0968 57.9208 89.3233 37.8185 97.3628 35.3431C105.402 32.8678 114.003 53.935 114.963 58.5229C115.922 62.9694 89.7023 64.6862 87.0968 57.9208Z" fill="#F6EEEB"/>
<path d="M115.033 58.4515C115.551 61.0634 107.01 62.7653 99.2285 62.4098C98.0609 58.3188 95.7896 49.3583 96.7307 43.8343C97.8771 37.5307 101.475 36.5796 102.464 36.4294C108.655 40.8296 114.224 54.8523 115.033 58.4515Z" fill="#EAD6DE"/>
<path d="M266.397 158.516C267.325 159.569 267.269 161.195 266.288 162.194C252.551 176.175 165.998 264.131 164.737 265.415C163.405 266.77 152.895 261.771 158.031 250.836C158.031 250.836 140.959 239.39 121.307 208.167C101.224 176.099 95.7727 151.398 95.7727 151.398C95.7727 151.398 80.1794 155.284 68.0653 144.784C55.8798 134.214 50.2383 111.989 52.934 96.9739C55.4884 81.96 63.4765 73.6866 75.3393 63.7525C87.202 53.8185 99.8468 52.3631 114.22 54.4281C129.301 56.6283 144.445 65.8992 149.922 77.4478C154.389 86.8839 152.764 94.9596 152.764 94.9596C152.764 94.9596 156.521 95.9871 162.834 98.2648C172.552 101.644 188.234 107.799 205.567 116.697C206.774 117.322 207.982 117.948 209.12 118.645C212.033 120.246 214.806 121.989 217.508 123.662C223.767 127.708 229.321 132.044 234.095 136.173C245.852 146.323 252.506 155.103 252.506 155.103C252.506 155.103 259.68 150.656 266.397 158.516Z" fill="#F6EEEB"/>
<path d="M107.507 110.917C107.507 110.917 103.635 112.86 100.591 112.534C97.4774 112.278 96.4613 109.317 101.087 104.609C105.992 99.616 108.414 101.575 108.795 104.612C109.104 107.579 107.507 110.917 107.507 110.917Z" fill="#1B1C1E" stroke="#1B1C1E" stroke-width="1.0185" stroke-miterlimit="10"/>
<path d="M107.507 110.917L111.359 114.701C110.802 115.696 110.386 116.69 110.042 117.754C108.19 124.205 98.7739 122.945 98.6438 116.228C98.5612 114.885 98.8315 113.468 99.3121 111.838" stroke="#1B1C1E" stroke-width="1.0185" stroke-miterlimit="10"/>
<path d="M107.507 110.917L111.359 114.701C112.484 113.984 113.611 113.55 114.81 113.186C120.453 111.58 120.026 103.31 114.29 102.3C112.236 101.965 110.046 102.197 107.652 103.349" stroke="#1B1C1E" stroke-width="1.0185" stroke-miterlimit="10"/>
<path d="M109.568 120.091C109.568 120.091 112.036 119.292 113.788 117.508C115.4 115.868 117.139 112.67 117.139 112.67" stroke="#1B1C1E" stroke-width="1.0185" stroke-miterlimit="10"/>
<path d="M79.5276 113.568C77.5653 115.566 75.5417 118.624 76.2087 122.083C77.3137 127.094 83.5485 128.453 88.3855 123.673C93.2224 118.892 93.3889 113.729 89.3379 111.431C85.2869 109.133 80.719 112.356 79.5276 113.568Z" fill="#DDC64E" stroke="#1B1C1E" stroke-miterlimit="10"/>
<path d="M88.2303 122.119C89.9721 120.346 89.5636 117.12 87.318 114.914C85.0724 112.708 81.8401 112.356 80.0983 114.129C78.3566 115.902 78.765 119.128 81.0106 121.334C83.2562 123.54 86.4886 123.891 88.2303 122.119Z" fill="#1B1C1E"/>
<path d="M110.084 82.4672C112.046 80.4699 115.068 78.3924 118.539 78.9982C123.568 80.0144 125.037 86.2242 120.343 91.1449C115.649 96.0657 110.489 96.3234 108.12 92.3137C105.751 88.304 108.892 83.6799 110.084 82.4672Z" fill="#DDC64E" stroke="#1B1C1E" stroke-miterlimit="10"/>
<path d="M118.786 91.0173C120.489 89.2838 120.05 86.0901 117.804 83.8839C115.558 81.6777 112.357 81.2944 110.654 83.0278C108.951 84.7613 109.391 87.955 111.637 90.1612C113.882 92.3674 117.083 92.7507 118.786 91.0173Z" fill="#1B1C1E"/>
<path d="M144.508 216.943C144.508 216.943 183.292 244.673 186.393 243.514" stroke="#1B1C1E" stroke-miterlimit="10"/>
<path d="M207.908 221.473C207.908 221.473 203.407 216.351 198.046 217.813C192.756 219.344 191.258 217.873 183.061 210.52C174.935 203.238 139.476 167.7 139.476 167.7" stroke="#1B1C1E" stroke-miterlimit="10"/>
<path d="M237.693 191.157C237.693 191.157 238.5 186.482 209.023 147.709" stroke="#1B1C1E" stroke-miterlimit="10"/>
<path d="M202.933 226.679C202.933 226.679 200.219 223.592 197.039 223.832" stroke="#1B1C1E" stroke-miterlimit="10"/>
<path d="M195.573 234.028C195.573 234.028 193.582 232.773 191.891 233.495" stroke="#1B1C1E" stroke-miterlimit="10"/>
<path d="M223.536 205.566C223.536 205.566 220.405 203.331 220.306 200.15" stroke="#1B1C1E" stroke-miterlimit="10"/>
<path d="M229.703 199.289C229.703 199.289 227.345 196.552 227.472 194.853" stroke="#1B1C1E" stroke-miterlimit="10"/>
<path d="M252.436 155.175C252.436 155.175 243.013 161.056 242.243 169.973" stroke="#1B1C1E" stroke-miterlimit="10"/>
<path d="M256.944 161.145C256.944 161.145 261.638 164.215 262.013 166.545" stroke="#1B1C1E" stroke-miterlimit="10"/>
<path d="M256.054 172.467C256.054 172.467 253.215 171.22 251.705 168.475" stroke="#1B1C1E" stroke-miterlimit="10"/>
<path d="M157.961 250.907C157.961 250.907 160.111 246.151 164.549 244.202" stroke="#1B1C1E" stroke-miterlimit="10"/>
<path d="M167.96 262.133C167.96 262.133 163.978 259.623 164.025 256.864" stroke="#1B1C1E" stroke-miterlimit="10"/>
<path d="M173.357 256.641C173.357 256.641 172.416 254.174 171.338 252.274" stroke="#1B1C1E" stroke-miterlimit="10"/>
<path d="M209.12 118.645C202.131 128.041 187.235 130.789 174.565 121.426C163.675 113.39 162.663 102.863 162.764 98.3361C172.482 101.715 188.164 107.87 205.497 116.768C206.704 117.394 207.912 118.019 209.12 118.645Z" fill="#513F3B"/>
<path d="M234.025 136.245C230.506 138.114 225.91 138.226 221.848 134.655C217.715 131.015 217.041 126.849 217.508 123.662C223.697 127.78 229.251 132.115 234.025 136.245Z" fill="#DDC64E"/>
<path d="M163.095 143.802C163.095 143.802 212.678 193.216 212.939 198.659C213.34 204.1 213.027 208.7 217.788 211.274" stroke="#1B1C1E" stroke-miterlimit="10"/>
<path d="M71.3081 103.671C70.4094 114.003 60.8557 121.159 55.4393 124.389C52.3871 115.081 51.3784 104.978 52.7926 96.9751C54.1368 89.0433 56.9826 83.0075 61.1075 77.6675C61.1075 77.6675 72.7186 87.2526 71.3081 103.671Z" fill="#DDC64E"/>
<g opacity="0.88">
<path d="M152.772 103.94C152.701 103.87 152.63 103.8 152.558 103.73C152.56 103.871 152.56 103.871 152.772 103.94Z" fill="#443730"/>
<path d="M149.144 109.488C149.144 109.488 149.146 109.629 149.144 109.488V109.488Z" fill="#443730"/>
<path d="M149.72 102.624C149.649 102.553 149.579 102.625 149.579 102.625C149.65 102.695 149.72 102.624 149.72 102.624Z" fill="#443730"/>
<path d="M155.478 98.047C155.478 98.047 155.477 97.9055 155.478 98.047L155.477 97.9055C155.335 97.9068 155.407 97.9769 155.478 98.047Z" fill="#443730"/>
<path d="M154.984 98.122C154.982 97.9806 154.982 97.9806 154.984 98.122V98.122Z" fill="#443730"/>
<path d="M152.473 94.1136L152.189 93.9746C152.332 94.1148 152.403 94.1849 152.473 94.1136Z" fill="#443730"/>
<path d="M156.121 98.8191C156.05 98.7491 155.979 98.679 155.907 98.6089C155.909 98.7503 155.98 98.8204 156.121 98.8191Z" fill="#443730"/>
<path d="M147.962 111.69C147.892 111.762 147.963 111.832 147.893 111.903C148.104 111.831 148.104 111.831 147.962 111.69Z" fill="#443730"/>
<path d="M154.576 99.9642C153.725 99.6889 154.645 99.7515 153.794 99.4761C153.936 99.6163 154.009 99.8278 153.583 99.6901C153.157 99.411 153.722 99.406 153.013 99.1295L153.227 99.3397C152.802 99.3435 152.304 98.9943 152.376 99.0644C153.299 99.5512 151.812 99.3522 151.956 99.6338L151.885 99.5637L151.391 99.6388C151.391 99.6388 151.391 99.6388 151.319 99.5687C151.391 99.6388 151.391 99.6388 151.532 99.6375C151.037 99.5712 150.612 99.575 150.615 99.8578C151.183 100.136 150.55 100.495 150.976 100.774C150.834 100.634 150.904 100.562 151.115 100.49L151.825 100.766C151.756 100.979 151.187 100.56 151.543 100.91C152.466 101.256 151.682 100.626 151.752 100.555C151.895 100.695 152.038 100.835 152.18 100.975C152.319 100.691 152.742 100.546 151.96 100.058C152.243 100.056 152.527 100.194 152.67 100.335C152.242 99.9141 153.235 100.33 152.809 100.051C153.661 100.467 153.096 100.614 153.453 100.964C152.675 100.9 153.175 101.532 153.178 101.815C152.54 101.609 152.112 101.188 151.757 101.121C151.263 101.196 151.973 101.472 152.259 101.894C151.978 102.038 151.266 101.478 151.127 101.763L150.77 101.412C149.849 101.208 151.055 101.692 150.844 101.765C151.057 101.834 151.269 101.903 151.338 101.69C151.622 101.829 151.765 101.969 151.695 102.04C152.05 102.249 152.547 102.457 152.265 102.601C151.767 102.252 151.841 102.605 151.557 102.466L151.486 102.396C151.558 102.607 151.418 102.75 151.49 102.82L151.418 102.75C151.561 102.89 152.2 103.238 151.989 103.311C151.705 103.172 151.205 102.681 151.137 102.894C150.781 102.685 150.85 102.472 151.062 102.4C150.85 102.472 150.212 102.266 150.281 102.053C149.784 101.845 150.425 102.334 150.142 102.337C150.283 102.336 150.426 102.476 150.639 102.545C149.999 102.197 150.43 102.9 150.855 103.038L150.64 102.686C151.137 102.894 151.423 103.316 151.706 103.313C150.855 103.038 151.854 104.019 151.144 103.742L151.57 103.88C151.148 104.167 151.933 104.938 151.936 105.362C151.792 105.08 150.94 104.663 151.293 104.59C150.941 104.805 150.371 104.244 149.875 104.178C149.381 104.253 150.587 104.737 150.801 104.948L150.729 104.736C151.655 105.506 150.168 105.307 150.599 106.01C150.314 105.871 150.456 105.87 150.455 105.728C149.818 105.663 150.527 105.94 150.6 106.151C150.46 106.294 150.107 106.368 149.537 105.949C149.256 106.093 149.893 106.158 150.107 106.368L149.965 106.369L150.536 106.93C150.253 106.932 149.759 107.007 149.191 106.73C149.053 107.155 150.542 107.637 150.616 107.99C150.192 107.994 150.189 107.711 149.905 107.572L149.766 107.856C149.126 107.367 149.55 107.363 148.698 106.946C149.411 107.647 148.771 107.299 149.131 107.932L149.202 108.002C149.701 108.493 149.136 108.498 149.138 108.781C148.853 108.5 148.922 108.288 148.849 108.076C148.425 108.08 148.501 108.716 149.072 109.276C148.93 109.278 148.436 109.353 148.292 109.071C148.012 109.356 149.218 109.841 148.795 109.986L148.297 109.637C147.306 109.504 148.59 110.766 147.669 110.562L148.31 111.051C148.025 110.912 147.814 110.985 147.53 110.846L147.386 110.564C146.748 110.358 147.744 111.056 147.318 110.918C147.461 111.058 148.028 111.195 148.312 111.334C148.375 110.414 149.788 110.26 149.495 109.131C149.353 109.132 149.282 109.062 149.211 108.992C149.423 109.061 149.279 108.779 149.635 108.988L149.706 109.059C149.704 108.776 150.555 109.051 150.625 108.98C150.198 108.701 151.047 108.693 150.266 108.347L150.833 108.483C150.619 108.273 150.193 108.135 150.12 107.924C150.261 107.781 150.616 107.99 150.689 108.201C151.252 107.914 151.528 107.204 151.593 106.567L151.879 106.847C152.162 106.845 151.447 106.003 152.372 106.631C152.085 106.209 153.004 106.13 152.009 105.573C153.073 105.917 152.712 105.143 152.78 104.789C151.857 104.443 152.635 104.366 152.349 104.085C153.059 104.362 152.85 104.717 153.347 104.925C152.491 104.084 154.613 104.207 152.979 103.302C153.12 103.301 153.12 103.301 153.192 103.371C153.262 103.299 153.544 103.297 153.686 103.296C153.402 103.157 153.19 103.229 153.118 103.018C153.258 102.875 153.685 103.154 153.897 103.223C153.611 102.801 153.677 102.306 152.896 101.959C153.179 101.957 153.533 102.024 153.676 102.164C153.317 101.531 153.885 101.809 153.738 101.244C153.74 101.386 154.449 101.662 154.096 101.736C155.159 101.939 154.232 101.028 154.796 100.882L154.227 100.462C154.224 100.179 154.792 100.457 155.006 100.668C155.499 100.451 155.214 100.171 155.282 99.8165C155.423 99.8153 155.494 99.8854 155.424 99.9567L155.562 99.5312C155.419 99.391 155.134 99.1107 154.78 99.0431C154.715 99.6801 154.929 99.8904 154.576 99.9642Z" fill="#443730"/>
<path d="M150.208 101.841C150.35 101.84 150.491 101.839 150.491 101.839C150.35 101.84 150.208 101.841 150.208 101.841Z" fill="#443730"/>
<path d="M154.394 95.4401C153.402 95.1661 154.538 95.7217 154.185 95.7956C154.113 95.5841 153.546 95.4477 153.192 95.3801C154.399 96.0058 152.91 95.524 152.985 96.0183C152.56 95.8807 152.558 95.7392 152.062 95.5315C152.347 95.8118 152.421 96.1647 153.13 96.4413C153.063 96.7955 152.64 96.9407 152.712 97.1522C152.497 96.8005 152.003 96.8756 151.433 96.4563C152.215 96.9444 153.001 97.8567 153.927 98.6264C153.148 98.4211 153.076 98.3511 152.367 98.0745C151.732 98.2922 153.078 98.4925 152.656 98.779L152.867 98.7065C153.011 98.9881 153.721 99.2646 154.289 99.5424L154.355 99.0469C154.852 99.2546 154.713 99.5387 154.785 99.6088C155.354 100.028 155.279 99.5337 155.776 99.7414C155.42 99.5324 155.561 99.3898 155.488 99.1783L155.772 99.3172C156.195 99.172 155.414 98.8254 155.554 98.6827C155.696 98.6814 155.696 98.6815 155.767 98.7515C155.483 98.6126 155.056 98.3335 155.055 98.1921L155.056 98.3335C154.417 97.9856 154.129 97.4225 153.28 97.43L153.631 97.0733C154.34 97.3499 155.547 97.8342 155.479 98.1884L155.763 98.3273C156.258 98.2522 155.403 97.5526 154.625 97.4888C152.85 96.7266 154.83 96.7091 154.118 96.1497C154.685 96.2861 154.757 96.4976 155.113 96.7066C155.114 96.8481 155.185 96.9181 154.76 96.7805C154.906 97.3449 156.319 97.191 156.04 97.6177C155.688 97.833 155.328 97.0583 155.119 97.4137L156.398 98.1095C156.467 97.8968 156.251 97.5451 156.179 97.3336C155.531 95.9958 156.587 95.4915 156.587 95.4915C156.856 93.9334 157.054 92.3052 157.251 90.6771C157.105 90.1127 157.245 89.97 155.827 89.5583C155.474 89.6321 155.618 89.9137 155.121 89.7059C155.688 89.8424 155.902 90.0526 155.763 90.3367C155.268 90.2703 155.549 90.1264 155.408 90.1277L155.338 90.199C155.125 90.1302 154.912 90.0613 154.911 89.9199C154.064 90.0688 154.139 90.5632 155.133 90.9787C154.568 91.1251 154.352 90.632 153.926 90.4943C153.367 91.2064 153.301 91.702 153.095 92.4817C154.016 92.6857 153.592 92.6894 154.302 92.966L153.948 92.8984C154.089 92.8972 154.657 93.175 154.939 93.0311C154.093 93.3214 155.936 93.8708 156.294 94.3626L155.869 94.225C155.871 94.5078 155.872 94.6492 156.086 94.8595C155.098 95.0096 156.083 94.4352 154.879 94.2337L155.021 94.3739C154.596 94.2362 153.815 93.8896 153.601 93.6793C154.243 94.3101 153.18 94.1073 153.61 94.6692C153.113 94.4615 152.826 94.0397 152.754 93.8282C152.613 93.9709 152.97 94.3213 152.545 94.1837L153.183 94.3902C153.185 94.673 152.545 94.1837 152.19 94.1161C151.984 94.7543 154.177 94.8056 154.394 95.4401Z" fill="#443730"/>
<path d="M151.9 101.261C151.97 101.189 151.97 101.189 151.969 101.048C151.899 101.119 151.829 101.191 151.9 101.261Z" fill="#443730"/>
<path d="M151.179 99.7114C151.108 99.6413 150.966 99.6426 150.966 99.6426C151.037 99.5712 151.108 99.6413 151.179 99.7114Z" fill="#443730"/>
<path d="M150.397 99.2233C150.681 99.3622 150.681 99.3622 151.037 99.5712C150.753 99.4323 150.821 99.2195 150.397 99.2233Z" fill="#443730"/>
<path d="M140.644 115.857C140.787 115.997 140.789 116.279 141.002 116.348L140.928 115.995L140.644 115.857Z" fill="#443730"/>
<path d="M141.494 115.99L141.777 115.988L141.205 115.286C141.136 115.499 141.634 115.848 141.494 115.99Z" fill="#443730"/>
<path d="M142.056 115.561L141.557 115.071L141.703 115.635L142.056 115.561C142.129 115.773 142.27 115.771 142.341 115.841L142.056 115.561C142.056 115.561 142.127 115.631 142.056 115.561Z" fill="#443730"/>
<path d="M143.471 115.69C143.259 115.621 143.043 115.27 142.829 115.059C142.476 115.133 143.189 115.693 142.906 115.695C142.759 115.131 142.48 115.557 142.196 115.418C142.694 115.768 143.12 115.905 143.403 115.903L143.117 115.622C143.116 115.481 143.259 115.621 143.471 115.69Z" fill="#443730"/>
<path d="M143.458 114.134L143.816 114.626C143.531 114.487 143.321 114.701 142.893 114.281C142.894 114.422 143.108 114.633 143.251 114.773C142.967 114.634 142.683 114.495 142.97 114.917C143.605 114.84 143.607 114.982 144.03 114.837C144.101 114.907 144.101 114.907 144.031 114.978L144.455 114.974C143.814 114.485 143.953 114.201 143.458 114.134Z" fill="#443730"/>
<path d="M144.093 114.058C144.025 114.271 144.453 114.691 144.737 114.83L144.589 114.124C144.52 114.337 144.521 114.479 144.093 114.058Z" fill="#443730"/>
<path d="M144.234 113.915C144.518 114.054 145.227 114.331 144.728 113.84C144.659 114.053 144.017 113.422 144.234 113.915Z" fill="#443730"/>
<path d="M145.569 112.984L145.004 113.131C144.294 112.713 144.861 112.849 144.645 112.498C144.294 112.713 144.576 112.71 144.864 113.273C144.794 113.345 145.009 113.696 145.082 113.908C144.933 113.061 146.57 114.248 145.569 112.984Z" fill="#443730"/>
<path d="M144.439 113.136L144.724 113.416L144.58 113.135L144.439 113.136Z" fill="#443730"/>
<path d="M146.91 112.76C147.833 113.106 146.763 112.055 147.187 112.051C147.258 112.121 147.258 112.121 147.401 112.261L147.47 112.048L147.683 112.117C147.184 111.768 147.182 111.485 146.825 111.135C146.117 111 147.325 111.625 146.686 111.419C146.472 111.209 146.187 110.928 146.044 110.788C146.188 111.07 146.544 111.279 146.758 111.489C146.759 111.63 146.475 111.491 146.261 111.281C146.476 111.633 147.187 112.051 146.905 112.195C146.338 112.058 146.335 111.634 146.338 112.058C147.191 112.475 146.057 112.202 146.485 112.623C146.273 112.695 145.635 112.489 145.421 112.279C145.991 112.698 146.348 113.19 146.492 113.471L146.275 112.837L147.056 113.183C146.487 112.906 146.628 112.763 146.91 112.76Z" fill="#443730"/>
<path d="M144.997 112.282L144.854 112.142L144.57 112.003L144.997 112.282Z" fill="#443730"/>
<path d="M145.475 110.369C145.405 110.44 145.689 110.579 145.689 110.579L145.404 110.299L145.475 110.369Z" fill="#443730"/>
<path d="M146.042 110.505L146.609 110.642L146.323 110.361L146.042 110.505Z" fill="#443730"/>
<path d="M148.977 106.519C148.694 106.522 149.121 106.801 149.476 107.01C149.686 106.796 149.049 106.731 148.977 106.519Z" fill="#443730"/>
<path d="M149.728 103.472C149.303 103.476 149.731 103.896 149.661 103.968C149.944 103.965 149.942 103.682 149.728 103.472Z" fill="#443730"/>
<path d="M148.437 101.503C148.58 101.644 148.651 101.714 148.721 101.642L149.575 102.201C150.069 102.125 148.863 101.641 148.437 101.503Z" fill="#443730"/>
<path d="M148.849 100.086L149.064 100.437L149.134 100.366C149.49 100.575 149.632 100.715 149.917 100.854C149.844 100.642 149.559 100.362 148.849 100.086Z" fill="#443730"/>
<path d="M150.132 101.206C150.06 101.136 150.131 101.064 150.132 101.206C149.989 101.065 149.776 100.997 150.132 101.206Z" fill="#443730"/>
<path d="M150.129 100.923L150.058 100.853C150.059 100.994 150.059 100.994 150.129 100.923C150.202 101.134 150.272 101.063 150.129 100.923Z" fill="#443730"/>
<path d="M149.415 100.081L149.411 99.6563L149.199 99.7289C149.839 100.077 148.847 99.8027 149.415 100.081Z" fill="#443730"/>
<path d="M150.672 98.3723L151.239 98.5087C151.45 98.2947 150.312 97.5977 151.303 97.7303C150.879 97.7341 150.734 97.3111 150.382 97.5263C151.022 97.8742 150.954 98.2284 150.672 98.3723Z" fill="#443730"/>
<path d="M151.869 97.7253C152.011 97.8655 152.153 97.8642 152.364 97.7916C152.434 97.7203 152.22 97.51 151.938 97.5125C152.648 97.9305 151.442 97.4462 151.869 97.7253Z" fill="#443730"/>
<path d="M152.283 96.5902C152.213 96.6616 152.284 96.7317 152.426 96.7304C152.495 96.5177 151.786 96.3825 151.359 96.1034C151.007 96.1772 151.859 96.594 152.283 96.5902Z" fill="#443730"/>
<path d="M157.087 96.1234C156.521 95.987 156.593 96.1985 156.736 96.3387C156.664 96.2686 156.876 96.196 157.087 96.1234Z" fill="#443730"/>
<path d="M152.975 94.887L152.764 94.9596L153.543 95.1648L152.975 94.887Z" fill="#443730"/>
<path d="M152.891 93.4028L152.394 93.195L152.467 93.4065L152.891 93.4028Z" fill="#443730"/>
<path d="M153.031 93.2601L153.1 93.0473L152.889 93.1199C152.676 93.0511 153.102 93.1888 153.031 93.2601Z" fill="#443730"/>
<path d="M153.167 92.5517C153.238 92.6218 153.097 92.6231 153.025 92.553L153.311 92.8333L153.167 92.5517Z" fill="#443730"/>
<path d="M157.1 89.547C157.667 89.6834 157.382 89.4031 157.452 89.3317C157.38 89.2617 156.603 89.3393 157.1 89.547Z" fill="#443730"/>
</g>
<g opacity="0.88">
<path d="M102.964 148.93C103.035 149 102.965 149.072 102.966 149.213C102.966 149.213 103.036 149.142 102.964 148.93Z" fill="#443730"/>
<path d="M108.74 146.475L108.597 146.193C108.598 146.335 108.669 146.405 108.74 146.475Z" fill="#443730"/>
<path d="M103.265 151.049C103.195 151.12 103.196 151.262 103.269 151.473L103.265 151.049Z" fill="#443730"/>
<path d="M97.2545 151.031C97.1831 150.961 97.113 151.033 97.2545 151.031L97.1844 151.103C97.1143 151.174 97.1844 151.103 97.2545 151.031Z" fill="#443730"/>
<path d="M95.8102 155.64L95.8841 155.993C95.8828 155.852 95.8816 155.71 95.8102 155.64Z" fill="#443730"/>
<path d="M97.3871 150.04C97.317 150.111 97.3884 150.182 97.3896 150.323C97.3884 150.182 97.4585 150.11 97.3871 150.04Z" fill="#443730"/>
<path d="M102.892 148.86C102.964 148.93 102.964 148.93 102.894 149.001C102.964 148.93 102.892 148.86 102.892 148.86Z" fill="#443730"/>
<path d="M110.709 145.184C110.779 145.113 110.779 145.113 110.778 144.972C110.636 144.973 110.636 144.973 110.709 145.184Z" fill="#443730"/>
<path d="M99.1592 150.519C99.5909 151.364 98.9477 150.592 99.3094 151.508C99.3782 151.295 99.3769 151.154 99.5922 151.506C99.6673 152 99.3807 151.578 99.5284 152.284L99.5959 151.93C99.8813 152.21 99.9576 152.846 100.028 152.775C99.8062 151.716 100.666 152.981 100.735 152.768L100.736 152.91L101.164 153.33C101.164 153.33 101.164 153.33 101.235 153.4C101.164 153.33 101.234 153.259 101.163 153.189C101.449 153.611 101.735 153.891 101.945 153.677C101.799 153.112 102.507 153.248 102.432 152.753C102.433 152.895 102.363 152.966 102.15 152.897L101.932 152.263C102.144 152.19 102.22 152.826 102.217 152.402C101.785 151.557 101.935 152.546 101.722 152.477C101.65 152.265 101.718 152.052 101.717 151.911C101.436 152.055 101.08 151.846 101.3 152.763C101.158 152.623 101.013 152.2 101.083 152.129C101.088 152.694 100.725 151.637 100.73 152.203C100.439 151.357 100.936 151.564 100.861 151.07C101.432 151.631 101.426 150.924 101.635 150.568C101.922 151.131 101.999 151.767 102.214 152.119C102.641 152.398 102.352 151.693 102.348 151.269C102.632 151.408 102.781 152.255 103.134 152.181L103.138 152.606C103.639 153.379 103.134 152.181 103.418 152.32C103.275 152.18 103.131 151.899 103.061 151.97C102.917 151.688 102.986 151.476 102.986 151.476C102.841 151.053 102.696 150.63 102.909 150.698C103.055 151.263 103.194 150.979 103.408 151.189L103.409 151.33C103.478 151.118 103.619 151.116 103.688 150.904L103.689 151.045C103.687 150.762 103.469 150.128 103.682 150.197C103.826 150.478 103.904 151.255 104.042 150.971C104.188 151.394 103.976 151.467 103.763 151.398C103.976 151.467 104.405 152.029 104.124 152.173C104.41 152.594 104.263 151.889 104.405 152.029C104.263 151.889 104.261 151.747 104.189 151.536C104.548 152.169 104.612 151.39 104.325 150.969L104.329 151.393C104.112 150.9 104.109 150.476 103.965 150.194C104.467 150.967 104.243 149.626 104.672 150.188L104.385 149.766C104.881 149.832 104.659 148.774 104.938 148.347C104.941 148.63 105.444 149.545 105.019 149.407C105.443 149.403 105.592 150.25 105.948 150.601C106.374 150.738 105.658 149.755 105.584 149.402L105.445 149.686C105.152 148.557 106.293 149.537 106.285 148.689C106.429 148.97 106.286 148.83 106.288 148.971C106.716 149.392 106.356 148.759 106.425 148.546C106.637 148.473 106.992 148.682 107.21 149.317C107.493 149.314 106.995 148.965 106.992 148.682L107.135 148.822L106.916 148.047C107.2 148.185 107.555 148.394 107.985 148.956C108.335 148.6 107.335 147.477 107.473 147.052C107.828 147.261 107.689 147.545 107.833 147.826L108.043 147.612C108.332 148.317 107.977 148.108 108.409 148.953C108.117 147.965 108.546 148.527 108.47 147.891L108.399 147.821C108.181 147.187 108.678 147.395 108.818 147.252C108.963 147.675 108.752 147.747 108.824 147.959C109.18 148.168 109.458 147.6 109.167 146.754C109.38 146.823 109.664 146.962 109.738 147.314C110.161 147.169 109.234 146.258 109.658 146.254L109.946 146.818C110.799 147.376 110.148 145.755 110.859 146.173L110.5 145.54C110.714 145.75 110.927 145.819 111.141 146.029L111.143 146.312C111.643 146.803 110.926 145.678 111.352 145.957C111.21 145.816 110.782 145.396 110.639 145.256C110.222 146.108 109.016 145.624 108.742 146.616C108.813 146.686 108.884 146.756 108.956 146.826C108.813 146.686 108.816 146.969 108.6 146.617C108.531 146.83 107.889 146.199 107.748 146.201C107.965 146.694 107.254 146.276 107.826 146.978L107.398 146.557C107.542 146.839 107.757 147.191 107.829 147.402C107.688 147.403 107.544 147.122 107.471 146.91C106.834 146.845 106.273 147.274 105.923 147.772L105.848 147.278C105.636 147.209 105.786 148.198 105.353 147.212C105.286 147.707 104.576 147.289 105.08 148.346C104.435 147.432 104.301 148.282 104.021 148.567C104.523 149.341 103.812 148.923 103.957 149.346C103.598 148.712 103.88 148.568 103.663 148.075C103.886 149.275 102.388 147.804 103.04 149.566C102.969 149.496 102.897 149.426 102.897 149.426C102.827 149.497 102.612 149.145 102.471 149.147C102.544 149.499 102.757 149.568 102.617 149.711C102.476 149.712 102.329 149.148 102.186 149.008C102.12 149.503 101.77 149.86 102.059 150.564C101.916 150.424 101.63 150.003 101.628 149.861C101.493 150.57 101.204 149.865 100.926 150.433C101.066 150.29 100.707 149.657 101.063 149.866C100.418 148.953 100.501 150.295 100.003 149.946L100.15 150.652C100.01 150.795 99.7224 150.232 99.7199 149.949C99.223 149.741 99.2268 150.165 99.0153 150.238C98.9439 150.168 98.9427 150.026 98.9427 150.026L98.5898 150.1C98.591 150.242 98.5948 150.666 98.81 151.017C98.8764 150.522 98.8038 150.31 99.1592 150.519Z" fill="#443730"/>
<path d="M98.9502 150.875C98.9514 151.016 99.0215 150.945 98.9502 150.875V150.875Z" fill="#443730"/>
<path d="M95.7902 153.378C96.2232 154.364 96.0005 153.164 96.2145 153.374C96.1457 153.587 96.2921 154.151 96.436 154.433C96.212 153.091 96.7914 154.642 97.0705 154.215C97.2156 154.638 97.0755 154.781 97.2206 155.204C97.2882 154.849 97.5686 154.564 97.3496 153.788C97.6311 153.644 97.9866 153.853 98.1968 153.639C98.0591 154.065 98.4158 154.415 98.4921 155.051C98.4133 154.132 98.6148 152.929 98.6048 151.797C98.9652 152.572 99.0365 152.642 99.1842 153.348C99.8237 153.696 99.0365 152.642 99.4608 152.638L99.248 152.569C99.387 152.285 99.0265 151.511 98.9515 151.016L98.5297 151.303C98.3132 150.81 98.6661 150.736 98.6649 150.595C98.5172 149.889 98.3082 150.244 98.0917 149.751C98.2369 150.174 97.954 150.177 97.9553 150.318L97.8114 150.036C97.456 149.827 97.675 150.603 97.4635 150.676C97.3921 150.606 97.3921 150.606 97.3909 150.464C97.4647 150.817 97.4685 151.242 97.4697 151.383L97.5398 151.312C97.6174 152.089 97.3396 152.657 97.9115 153.359L97.4159 153.293C97.1969 152.517 96.8327 151.318 97.1143 151.174L97.0405 150.821C96.6838 150.471 96.6938 151.602 97.053 152.235C97.4234 154.141 96.3484 152.524 96.2858 153.444C96.0693 152.951 96.2082 152.667 96.1344 152.314C96.2045 152.243 96.2746 152.171 96.4197 152.594C96.6988 152.168 95.8403 151.044 96.3359 151.11C96.62 151.249 96.2733 152.03 96.6262 151.956L96.401 150.473C96.1895 150.546 96.1219 150.9 95.9817 151.043C95.356 152.25 94.3611 151.693 94.3611 151.693C92.9519 152.271 91.6128 152.778 90.2024 153.215C89.7807 153.502 89.6393 153.503 89.6518 154.917C89.7957 155.199 90.0773 155.055 90.081 155.479C90.076 154.913 90.2149 154.629 90.3564 154.628C90.4314 155.122 90.2174 154.912 90.2888 154.982L90.3601 155.052C90.3626 155.335 90.3639 155.476 90.2938 155.548C90.7243 156.251 91.2174 156.035 91.2787 154.973C91.6366 155.465 91.2862 155.822 91.2899 156.246C92.211 156.45 92.7041 156.234 93.5513 156.085C93.3311 155.167 93.475 155.449 93.47 154.883L93.6139 155.165C93.5413 154.953 93.465 154.318 93.2522 154.249C93.8942 154.88 93.4525 152.903 93.6602 152.407L93.7353 152.901C94.0169 152.757 94.0169 152.757 94.2259 152.402C94.8692 153.174 93.8742 152.617 94.3085 153.744L94.3773 153.532C94.4524 154.026 94.6001 154.732 94.5325 155.086C94.6664 154.236 95.2408 155.221 95.5174 154.512C95.5925 155.006 95.3147 155.574 95.2446 155.645C95.386 155.644 95.5237 155.219 95.7402 155.712L95.5224 155.077C95.804 154.933 95.6688 155.642 95.814 156.065C96.5887 155.704 95.4411 153.876 95.7902 153.378Z" fill="#443730"/>
<path d="M101.855 151.486C101.784 151.415 101.713 151.487 101.715 151.628C101.715 151.628 101.785 151.557 101.855 151.486Z" fill="#443730"/>
<path d="M101.163 153.189C101.234 153.259 101.235 153.4 101.235 153.4C101.305 153.329 101.234 153.259 101.163 153.189Z" fill="#443730"/>
<path d="M101.453 154.035C101.309 153.753 101.379 153.682 101.305 153.329C101.308 153.612 101.096 153.684 101.453 154.035Z" fill="#443730"/>
<path d="M118.964 143.061C118.891 142.849 118.819 142.638 118.747 142.568L118.68 142.922L118.964 143.061Z" fill="#443730"/>
<path d="M118.113 142.785L117.759 142.718L118.26 143.491C118.401 143.349 117.902 142.999 118.113 142.785Z" fill="#443730"/>
<path d="M117.194 142.864L117.122 142.653C117.193 142.723 117.194 142.864 117.194 142.864Z" fill="#443730"/>
<path d="M117.479 143.145L117.839 143.778L117.762 143.142L117.479 143.145C117.407 142.933 117.265 142.934 117.194 142.864L117.411 143.357C117.409 143.216 117.408 143.075 117.479 143.145Z" fill="#443730"/>
<path d="M116.062 142.733C116.204 142.873 116.419 143.225 116.563 143.506C116.918 143.574 116.274 142.802 116.628 142.869C116.705 143.505 116.984 143.078 117.269 143.359C116.841 142.938 116.414 142.659 116.132 142.662L116.347 143.013C116.348 143.155 116.204 142.873 116.062 142.733Z" fill="#443730"/>
<path d="M115.722 144.362L115.505 143.728C115.719 143.938 115.929 143.724 116.358 144.286C116.357 144.145 116.213 143.863 116.212 143.722C116.426 143.932 116.71 144.071 116.423 143.649C115.786 143.584 115.785 143.442 115.432 143.516C115.361 143.446 115.431 143.375 115.431 143.375L115.005 143.237C115.436 143.941 115.226 144.155 115.722 144.362Z" fill="#443730"/>
<path d="M115.155 144.226C115.296 144.083 115.008 143.52 114.652 143.311L114.587 143.948C114.727 143.805 114.798 143.734 115.155 144.226Z" fill="#443730"/>
<path d="M114.874 144.37C114.66 144.16 114.09 143.74 114.378 144.303C114.447 144.091 114.949 144.864 114.874 144.37Z" fill="#443730"/>
<path d="M113.322 144.808L113.889 144.944C114.39 145.576 113.892 145.227 114.037 145.65C114.39 145.576 114.176 145.366 114.1 144.872C114.242 144.87 114.097 144.447 114.024 144.236C113.96 145.014 112.744 143.399 113.322 144.808Z" fill="#443730"/>
<path d="M114.526 145.009L114.311 144.658L114.314 145.082L114.526 145.009Z" fill="#443730"/>
<path d="M112.048 144.678C111.265 144.048 111.983 145.315 111.558 145.177C111.558 145.177 111.486 145.107 111.485 144.965L111.416 145.178L111.273 145.038C111.631 145.53 111.492 145.814 111.709 146.307C112.278 146.726 111.42 145.602 111.919 146.093C111.992 146.305 112.207 146.656 112.28 146.868C112.206 146.515 112.062 146.233 111.918 145.952C112.058 145.809 112.202 146.091 112.275 146.302C112.201 145.949 111.77 145.246 112.053 145.243C112.48 145.522 112.484 145.947 112.551 145.592C111.909 144.962 112.904 145.519 112.616 144.955C112.899 144.953 113.327 145.373 113.471 145.655C113.042 145.093 112.824 144.459 112.822 144.176L112.828 144.883L112.257 144.322C112.472 144.674 112.331 144.675 112.048 144.678Z" fill="#443730"/>
<path d="M112.278 146.726L112.28 146.868C112.28 146.868 112.28 146.868 112.278 146.726Z" fill="#443730"/>
<path d="M113.684 145.724L113.756 145.935L113.899 146.076L113.684 145.724Z" fill="#443730"/>
<path d="M112.425 147.291C112.425 147.291 112.352 147.079 112.281 147.009L112.426 147.432L112.425 147.291Z" fill="#443730"/>
<path d="M111.928 147.083L111.571 146.733L111.715 147.014L111.928 147.083Z" fill="#443730"/>
<path d="M107.421 149.244C107.705 149.383 107.419 148.961 107.274 148.538C106.991 148.541 107.419 148.961 107.421 149.244Z" fill="#443730"/>
<path d="M104.965 151.317C105.25 151.597 105.174 150.961 105.315 150.96C105.101 150.75 104.962 151.034 104.965 151.317Z" fill="#443730"/>
<path d="M104.562 153.724C104.489 153.513 104.559 153.442 104.418 153.443L104.126 152.455C103.77 152.105 104.417 153.301 104.562 153.724Z" fill="#443730"/>
<path d="M103.154 154.444L103.22 153.948L103.079 153.95C102.934 153.527 102.932 153.385 102.859 153.032C102.861 153.315 102.865 153.739 103.154 154.444Z" fill="#443730"/>
<path d="M103.069 152.818L102.999 152.89C103.07 152.96 103.143 153.171 103.069 152.818Z" fill="#443730"/>
<path d="M102.929 152.961C102.929 152.961 103 153.031 102.929 152.961C103 153.031 102.999 152.89 102.929 152.961C102.927 152.82 102.927 152.82 102.929 152.961Z" fill="#443730"/>
<path d="M102.797 154.094L102.446 154.309L102.658 154.378C102.442 153.885 103.015 154.728 102.797 154.094Z" fill="#443730"/>
<path d="M100.467 154.468L100.179 153.905C99.8963 153.907 99.9789 155.25 99.5471 154.405C99.8324 154.686 99.5534 155.112 99.9075 155.18C99.9025 154.614 100.254 154.399 100.467 154.468Z" fill="#443730"/>
<path d="M99.1892 153.913C99.188 153.772 99.0453 153.632 98.9727 153.42C98.8313 153.422 98.8338 153.704 99.0478 153.915C98.7587 153.21 99.3356 154.478 99.1892 153.913Z" fill="#443730"/>
<path d="M97.9916 154.419C98.0616 154.348 98.1317 154.276 97.9891 154.136C97.7776 154.209 98.0666 154.913 98.0704 155.338C98.4271 155.688 98.2769 154.699 97.9916 154.419Z" fill="#443730"/>
<path d="M94.918 150.698C95.1345 151.191 95.2746 151.049 95.2734 150.907C95.2033 150.979 95.0606 150.839 94.918 150.698Z" fill="#443730"/>
<path d="M96.1569 154.86L96.2996 155L96.0806 154.224L96.1569 154.86Z" fill="#443730"/>
<path d="M94.8917 155.719L94.8967 156.285L95.1069 156.071L94.8917 155.719Z" fill="#443730"/>
<path d="M94.6088 155.722L94.3973 155.794L94.54 155.935C94.6827 156.075 94.5375 155.652 94.6088 155.722Z" fill="#443730"/>
<path d="M93.9743 155.939C94.0444 155.868 94.0457 156.01 94.0457 156.01L94.1833 155.584L93.9743 155.939Z" fill="#443730"/>
<path d="M89.6393 153.503C89.5642 153.009 89.4966 153.363 89.3539 153.223C89.3552 153.364 89.6443 154.069 89.6393 153.503Z" fill="#443730"/>
</g>
</svg>
