<svg width="251" height="73" viewBox="0 0 251 73" fill="none" xmlns="http://www.w3.org/2000/svg">
<g clip-path="url(#clip0_15_24)">
<path d="M1.63142 56.6146V28.7154H36.4651V27.0835H1.63142V1.63142H38.6675V0H0V58.246H38.9935V56.6146H1.63191H1.63142ZM70.4014 16.3152L55.9624 35.3228L41.849 16.3157H39.728L54.9832 36.5469L38.2591 58.2455H40.2171L55.9614 37.7695L71.7875 58.2455H73.8268L57.0219 36.5459L72.3584 16.3147H70.4009L70.4014 16.3152ZM78.722 72.6037V46.4995H78.8851C79.8643 50.3063 81.7949 53.3654 84.6773 55.6769C87.5597 57.988 91.2304 59.144 95.6899 59.144C98.5723 59.144 101.129 58.5594 103.358 57.3901C105.588 56.2209 107.451 54.6301 108.946 52.6178C110.442 50.6054 111.584 48.267 112.373 45.602C113.161 42.9375 113.556 40.1363 113.556 37.2001C113.556 34.0454 113.147 31.1356 112.332 28.4711C111.516 25.8061 110.333 23.4945 108.783 21.537C107.233 19.579 105.357 18.0558 103.154 16.9689C100.952 15.8809 98.4636 15.3369 95.6899 15.3369C93.5689 15.3369 91.5976 15.6498 89.7757 16.2751C87.9539 16.9008 86.3361 17.7841 84.9221 18.9264C83.4998 20.0774 82.2618 21.4391 81.2509 22.9643C80.2178 24.5144 79.429 26.2139 78.8851 28.0632H78.722V16.3152H77.0906V72.6037H78.722ZM95.6899 57.5933C90.5782 57.5933 86.4718 55.8395 83.372 52.3319C80.2722 48.8242 78.722 43.7796 78.722 37.1991C78.722 34.4797 79.103 31.8965 79.8643 29.4493C80.6257 27.0022 81.7268 24.8537 83.1678 23.0049C84.6092 21.1556 86.3905 19.6872 88.5111 18.5998C90.6321 17.5118 93.0254 16.9679 95.6899 16.9679C98.4093 16.9679 100.789 17.5118 102.828 18.5998C104.867 19.6872 106.554 21.1693 107.886 23.0456C109.218 24.9218 110.224 27.0703 110.904 29.49C111.584 31.9102 111.924 34.4797 111.924 37.1991C111.924 39.6467 111.611 42.0806 110.986 44.5003C110.36 46.9205 109.395 49.0959 108.09 51.027C106.785 52.9571 105.113 54.5342 103.073 55.7582C101.033 56.9818 98.5723 57.5933 95.6899 57.5933ZM122.529 58.246V34.5071C122.529 32.223 122.855 29.9928 123.508 27.8179C124.16 25.6425 125.167 23.7252 126.526 22.0668C127.886 20.408 129.612 19.1026 131.707 18.1508C133.8 17.199 136.288 16.8048 139.171 16.9679V15.3365C136.669 15.2826 134.48 15.5538 132.604 16.1522C130.727 16.7505 129.11 17.5662 127.75 18.5998C126.39 19.6329 125.303 20.8427 124.487 22.2298C123.672 23.6147 123.067 25.113 122.692 26.6756H122.529V16.3152H120.898V58.2465H122.529V58.246ZM141.21 37.6069H176.288C176.397 34.7245 176.112 31.9513 175.432 29.2863C174.752 26.6213 173.664 24.2554 172.169 22.1892C170.673 20.1225 168.743 18.4637 166.377 17.2127C164.011 15.9617 161.197 15.3365 157.934 15.3365C155.595 15.3365 153.311 15.8261 151.081 16.8053C148.851 17.7841 146.893 19.2113 145.207 21.0876C143.522 22.9638 142.162 25.2616 141.129 27.9814C140.096 30.7003 139.579 33.8001 139.579 37.2808C139.579 40.3806 139.932 43.2768 140.639 45.9687C141.346 48.6607 142.434 50.9996 143.902 52.9845C145.371 54.9694 147.261 56.5059 149.572 57.5933C151.883 58.6813 154.67 59.1978 157.934 59.1435C162.719 59.1435 166.744 57.797 170.007 55.1056C173.27 52.4131 175.201 48.62 175.799 43.7253H174.168C173.461 48.3483 171.652 51.8153 168.743 54.1263C165.833 56.4378 162.176 57.5933 157.77 57.5933C154.779 57.5933 152.25 57.0768 150.183 56.0437C148.117 55.0106 146.431 53.5961 145.126 51.8016C143.821 50.0066 142.855 47.8993 142.23 45.4791C141.604 43.0594 141.264 40.435 141.21 37.6069ZM174.657 35.9755H141.211C141.373 33.0388 141.917 30.4012 142.842 28.0627C143.766 25.7238 144.976 23.7252 146.472 22.0668C147.967 20.408 149.708 19.1438 151.693 18.2732C153.678 17.4031 155.813 16.9679 158.097 16.9679C160.816 16.9679 163.208 17.4712 165.276 18.4774C167.342 19.4836 169.069 20.8569 170.456 22.5971C171.842 24.3372 172.889 26.3632 173.596 28.6743C174.303 30.9858 174.657 33.4197 174.657 35.9755ZM210.143 28.7154H211.775C211.775 24.038 210.415 20.6391 207.696 18.518C204.976 16.397 201.278 15.3365 196.601 15.3365C193.99 15.3365 191.788 15.663 189.993 16.3157C188.199 16.9679 186.73 17.811 185.588 18.8441C184.446 19.8772 183.631 21.0195 183.141 22.2705C182.651 23.5215 182.406 24.7181 182.406 25.8599C182.406 28.144 182.814 29.9659 183.631 31.3256C184.446 32.6852 185.724 33.7458 187.464 34.5071C188.661 35.0506 190.02 35.5402 191.543 35.976C193.066 36.4108 194.834 36.873 196.846 37.3621C198.64 37.7979 200.408 38.2327 202.149 38.6675C203.889 39.1027 205.425 39.6873 206.757 40.4213C208.09 41.1557 209.178 42.0938 210.021 43.2361C210.863 44.3779 211.285 45.8737 211.285 47.7225C211.285 49.5175 210.864 51.0402 210.021 52.2907C209.185 53.5352 208.085 54.5799 206.799 55.3504C205.493 56.1387 204.038 56.7096 202.434 57.0631C200.83 57.4166 199.266 57.5933 197.743 57.5933C192.794 57.5933 189.001 56.4922 186.363 54.2898C183.726 52.087 182.407 48.62 182.407 43.8883H180.775C180.775 49.164 182.203 53.0252 185.058 55.4728C187.913 57.9199 192.142 59.1435 197.743 59.1435C199.538 59.1435 201.346 58.9393 203.168 58.5314C204.99 58.1236 206.622 57.4577 208.063 56.5328C209.491 55.621 210.692 54.3931 211.57 52.9439C212.468 51.475 212.917 49.6805 212.917 47.5595C212.917 45.5471 212.522 43.9157 211.734 42.6647C210.945 41.4142 209.912 40.3806 208.634 39.5649C207.356 38.7492 205.915 38.1103 204.31 37.6481C202.697 37.1831 201.079 36.7343 199.456 36.3016C197.459 35.7777 195.461 35.2612 193.46 34.7519C191.747 34.3167 190.157 33.8001 188.688 33.2018C187.274 32.6035 186.146 31.7471 185.303 30.6323C184.459 29.5174 184.038 27.9266 184.038 25.8599C184.038 25.4795 184.147 24.7994 184.364 23.8206C184.582 22.8414 185.099 21.8489 185.915 20.8427C186.73 19.8371 187.981 18.9396 189.667 18.1508C191.353 17.3625 193.664 16.9679 196.601 16.9679C198.613 16.9679 200.449 17.1858 202.107 17.6205C203.766 18.0558 205.194 18.7491 206.39 19.7009C207.587 20.6528 208.511 21.8626 209.164 23.331C209.817 24.7999 210.143 26.5943 210.143 28.7154ZM247.913 28.7154H249.545C249.545 24.038 248.185 20.6391 245.466 18.518C242.747 16.397 239.048 15.3365 234.371 15.3365C231.761 15.3365 229.558 15.663 227.764 16.3157C225.969 16.9679 224.5 17.811 223.359 18.8441C222.216 19.8772 221.401 21.0195 220.911 22.2705C220.421 23.5215 220.177 24.7181 220.177 25.8599C220.177 28.144 220.585 29.9659 221.401 31.3256C222.216 32.6852 223.495 33.7458 225.235 34.5071C226.431 35.0506 227.791 35.5402 229.313 35.976C230.836 36.4108 232.604 36.873 234.616 37.3621C236.411 37.7979 238.178 38.2327 239.919 38.6675C241.659 39.1027 243.195 39.6873 244.528 40.4213C245.86 41.1557 246.948 42.0938 247.791 43.2361C248.634 44.3779 249.055 45.8737 249.055 47.7225C249.055 49.5175 248.634 51.0402 247.791 52.2907C246.955 53.5351 245.855 54.5798 244.569 55.3504C243.263 56.1387 241.808 56.7096 240.204 57.0631C238.6 57.4166 237.036 57.5933 235.513 57.5933C230.564 57.5933 226.771 56.4922 224.134 54.2898C221.496 52.087 220.177 48.62 220.177 43.8883H218.546C218.546 49.164 219.973 53.0252 222.828 55.4728C225.683 57.9199 229.912 59.1435 235.513 59.1435C237.308 59.1435 239.117 58.9393 240.938 58.5314C242.76 58.1236 244.392 57.4577 245.833 56.5328C247.262 55.621 248.462 54.3931 249.341 52.9439C250.238 51.475 250.687 49.6805 250.687 47.5595C250.687 45.5471 250.293 43.9157 249.504 42.6647C248.716 41.4142 247.682 40.3806 246.404 39.5649C245.126 38.7492 243.685 38.1103 242.081 37.6481C240.467 37.1831 238.849 36.7343 237.227 36.3016C235.23 35.7777 233.231 35.2612 231.231 34.7519C229.517 34.3167 227.927 33.8001 226.458 33.2018C225.044 32.6035 223.916 31.7471 223.073 30.6323C222.23 29.5174 221.808 27.9266 221.808 25.8599C221.808 25.4795 221.917 24.7994 222.135 23.8206C222.352 22.8414 222.869 21.8489 223.685 20.8427C224.5 19.8371 225.751 18.9396 227.437 18.1508C229.123 17.3625 231.434 16.9679 234.372 16.9679C236.384 16.9679 238.219 17.1858 239.878 17.6205C241.537 18.0558 242.964 18.7491 244.161 19.7009C245.357 20.6528 246.282 21.8626 246.934 23.331C247.587 24.7999 247.914 26.5943 247.914 28.7154H247.913Z" fill="white"/>
</g>
<defs>
<clipPath id="clip0_15_24">
<rect width="250.687" height="73" fill="white"/>
</clipPath>
</defs>
</svg>
