<svg width="73" height="73" viewBox="0 0 73 73" fill="none" xmlns="http://www.w3.org/2000/svg">
<g clip-path="url(#clip0_15_14)">
<path d="M71.6233 33.2477L39.7508 1.37691C37.9164 -0.458644 34.9393 -0.458644 33.1026 1.37691L26.4842 7.99538L34.88 16.3912C36.8311 15.732 39.0684 16.1742 40.6236 17.7295C42.1863 19.2947 42.6254 21.5511 41.9502 23.5085L50.0415 31.6C51.9991 30.9257 54.2578 31.3619 55.8213 32.928C58.0065 35.1123 58.0065 38.6525 55.8213 40.8383C53.6356 43.0243 50.0954 43.0243 47.9085 40.8383C46.2649 39.1929 45.8588 36.7791 46.6909 34.7542L39.1451 27.2084L39.1442 47.0658C39.6913 47.3363 40.1909 47.6935 40.6236 48.1237C42.8088 50.308 42.8088 53.8485 40.6236 56.0359C38.4379 58.2208 34.896 58.2208 32.7134 56.0359C30.5283 53.8485 30.5283 50.3083 32.7134 48.124C33.2371 47.6001 33.8594 47.1852 34.5444 46.9032V26.8608C33.8584 26.5807 33.2357 26.1656 32.7134 25.64C31.0578 23.9867 30.6597 21.5574 31.5081 19.5245L23.2317 11.2473L1.3773 33.1003C-0.459102 34.9375 -0.459102 37.9148 1.3773 39.7507L33.2504 71.622C35.0853 73.4579 38.0618 73.4579 39.8991 71.622L71.623 39.8987C73.4588 38.0623 73.4588 35.0832 71.623 33.2477" fill="#DE4C36"/>
</g>
<defs>
<clipPath id="clip0_15_14">
<rect width="73" height="73" fill="white"/>
</clipPath>
</defs>
</svg>
