<svg width="85" height="85" viewBox="0 0 85 85" fill="none" xmlns="http://www.w3.org/2000/svg">
<path d="M81.4124 30.3394C80.491 28.1496 78.9604 26.5708 76.9848 25.7756L76.9582 25.7657C76.059 25.4134 75.1017 25.2332 74.1359 25.2344H74.0297C69.5074 25.3025 64.8905 29.1457 62.5431 34.7986C60.8215 38.9324 60.6239 43.3783 62.0151 46.6919C62.9349 48.8833 64.4688 50.4621 66.4527 51.2574L66.4743 51.2656C67.3736 51.6176 68.3309 51.7978 69.2966 51.7969C73.862 51.7969 78.527 47.9536 80.9177 42.2261C82.6177 38.0973 82.8053 33.6547 81.4124 30.3394ZM63.3433 54.7204C60.7352 53.1532 58.2698 51.6707 56.6595 49.0078C52.2169 41.6367 49.5341 37.1875 42.5 37.1875C35.4659 37.1875 32.7765 41.6367 28.3239 49.0078C26.7103 51.6741 24.2399 53.1582 21.6235 54.7321C18.6236 56.535 15.5241 58.3977 14.186 62.0633C13.6659 63.3847 13.4038 64.7936 13.4141 66.2137C13.4141 72.182 18.0625 77.0379 23.7734 77.0379C26.7202 77.0379 29.8563 76.0169 33.1749 74.9362C36.3657 73.8969 39.6645 72.8228 42.5166 72.8228C45.3688 72.8228 48.6592 73.8969 51.8384 74.9362C55.1504 76.0103 58.2715 77.0313 61.2266 77.0313C66.9292 77.0313 71.5693 72.1753 71.5693 66.2071C71.574 64.7859 71.3063 63.377 70.7808 62.0567C69.4427 58.3877 66.3415 56.5234 63.3433 54.7204ZM24.9023 31.3521C26.8779 33.8307 29.3848 35.1953 31.9613 35.1953C32.3131 35.1953 32.6643 35.1692 33.0122 35.1173C38.3861 34.3271 41.7347 27.7695 40.6356 20.1759C40.1758 16.9834 38.9473 14.0101 37.1875 11.8054C35.2152 9.33176 32.7051 7.96877 30.1302 7.96877C29.7784 7.96879 29.4272 7.99487 29.0793 8.0468C23.7054 8.83704 20.3568 15.3947 21.4559 22.9882C21.9141 26.1757 23.1426 29.1457 24.9023 31.3521ZM51.9895 35.1173C52.3373 35.1692 52.6886 35.1953 53.0403 35.1953C55.6186 35.1953 58.1237 33.8307 60.0993 31.3521C61.8574 29.1457 63.0793 26.1757 63.5441 22.9849C64.6432 15.3947 61.2946 8.83704 55.9207 8.04348C55.5728 7.99155 55.2216 7.96547 54.8698 7.96545C52.2949 7.96877 49.7848 9.33176 47.8125 11.8054C46.0527 14.0101 44.8242 16.9834 44.366 20.1792C43.267 27.7695 46.6155 34.3271 51.9895 35.1173ZM18.5257 51.2656L18.5489 51.2574C20.5295 50.4621 22.0618 48.885 22.9799 46.6952C24.3711 43.3749 24.1752 38.934 22.4569 34.8002C20.0779 29.0793 15.4146 25.2344 10.8541 25.2344C9.88836 25.233 8.93098 25.4132 8.03184 25.7657L8.0086 25.774C6.03301 26.5625 4.50069 28.1463 3.58262 30.3361C2.19141 33.6564 2.38731 38.0973 4.10557 42.2311C6.48457 47.952 11.148 51.7969 15.7084 51.7969C16.6725 51.7977 17.6281 51.6175 18.5257 51.2656Z" fill="#E73838"/>
</svg>
