<svg width="77" height="73" viewBox="0 0 77 73" fill="none" xmlns="http://www.w3.org/2000/svg">
<g clip-path="url(#clip0_15_12)">
<path d="M53.279 50.7768C56.1165 50.4842 58.2692 48.0479 58.1713 45.1239C58.0737 42.2003 55.6272 39.8611 52.6917 39.8611H52.4962C49.4625 39.9587 47.1143 42.4925 47.2122 45.5137C47.3101 46.9757 47.897 48.2426 48.7777 49.1198C45.4509 55.6497 40.3627 60.4252 32.7304 64.421C27.5443 67.1499 22.1627 68.1246 16.7811 67.4425C12.3777 66.8577 8.95296 64.9086 6.79995 61.6921C3.66895 56.9167 3.37549 51.7511 6.0175 46.5859C7.87676 42.8823 10.8119 40.1534 12.6712 38.789C12.2798 37.522 11.6926 35.378 11.3991 33.8188C-2.78919 44.052 -1.32131 57.8913 2.98412 64.421C6.21304 69.2943 12.7691 72.3155 20.01 72.3155C21.9669 72.3155 23.9237 72.1204 25.8809 71.6334C38.4058 69.1968 47.8973 61.7896 53.279 50.7768ZM70.5007 38.6917C63.0639 30.0177 52.1048 25.2423 39.5799 25.2423H38.0144C37.1338 23.488 35.2745 22.3183 33.2197 22.3183H33.0239C29.9908 22.4158 27.6425 24.9497 27.7402 27.9712C27.8381 30.8948 30.2843 33.2339 33.2197 33.2339H33.4153C35.568 33.1364 37.4272 31.7719 38.21 29.9202H39.9713C47.408 29.9202 54.4531 32.0642 60.8136 36.2551C65.7059 39.4713 69.2286 43.6622 71.1855 48.7299C72.8489 52.8233 72.751 56.8191 70.9897 60.2304C68.25 65.3957 63.6512 68.2221 57.5844 68.2221C53.6703 68.2221 49.9521 67.0524 47.995 66.1753C46.9187 67.1499 44.9616 68.7091 43.5916 69.6841C47.7994 71.6331 52.1048 72.7053 56.2144 72.7053C65.608 72.7053 72.5555 67.5397 75.1975 62.3745C78.035 56.7216 77.8392 46.9757 70.5007 38.6917ZM20.7927 52.4332C20.8907 55.3572 23.3368 57.696 26.2723 57.696H26.4681C29.5015 57.5988 31.8498 55.0646 31.7518 52.0434C31.6542 49.1194 29.2077 46.7806 26.2723 46.7806H26.0767C25.8809 46.7806 25.5872 46.7806 25.3919 46.8779C21.3799 40.2506 19.7165 33.0389 20.3037 25.242C20.6948 19.3943 22.652 14.3263 26.0767 10.1354C28.9143 6.5294 34.3938 4.77514 38.1124 4.67791C48.4842 4.48286 52.8873 17.3475 53.181 22.513C54.4531 22.8053 56.6058 23.4877 58.0737 23.975C56.8993 8.18672 47.1143 0 37.721 0C28.9143 0 20.7927 6.33494 17.5635 15.6911C13.0626 28.1659 15.998 40.1534 21.4776 49.6071C20.9886 50.2892 20.6948 51.3613 20.7927 52.4335V52.4332Z" fill="#764ABC"/>
</g>
<defs>
<clipPath id="clip0_15_12">
<rect width="76.8933" height="73" fill="white"/>
</clipPath>
</defs>
</svg>
