<svg width="73" height="73" viewBox="0 0 73 73" fill="none" xmlns="http://www.w3.org/2000/svg">
<g clip-path="url(#clip0_15_10)">
<path d="M72.9686 46.7756C72.759 45.0761 71.8979 43.6018 70.4022 42.3885C70.3836 42.3658 70.3631 42.3448 70.3409 42.3257L70.2654 42.2716L70.2411 42.2544L69.447 41.6841L69.4199 41.6642L69.3186 41.5929C69.2815 41.5712 69.2417 41.5544 69.2003 41.543C66.6881 40.0473 62.5291 38.9994 56.1658 41.245C54.6473 38.69 54.4748 36.6426 55.4914 33.5058C55.6725 32.9598 55.5042 32.599 54.9624 32.3652C53.8731 31.9018 52.3818 32.1385 51.3238 32.418C50.8305 32.5463 50.534 32.8257 50.4399 33.2492C49.7697 36.3859 47.8221 39.2517 45.9387 42.0178L45.8275 42.1803C44.6669 39.7194 44.9078 37.8131 45.7163 35.4249C45.8774 34.9487 45.7505 34.6322 45.3042 34.3955C44.0581 33.7525 42.1889 34.1945 41.4446 34.4141C40.5007 34.6892 39.4884 37.24 38.3578 40.294C38.0726 41.0625 37.8274 41.7198 37.6805 42.0263C37.3312 42.7392 36.9976 43.5519 36.644 44.4145C35.8456 46.3664 34.9459 48.5635 33.6598 49.9437C33.1922 48.91 33.9279 47.2803 34.6422 45.6991C35.4877 43.8299 36.2861 42.0634 35.3665 40.9356C35.2211 40.7573 35.0407 40.6106 34.8364 40.5047C34.6321 40.3988 34.4084 40.3358 34.1788 40.3197C33.8794 40.2969 33.5788 40.3457 33.302 40.4622C33.3975 39.6567 33.4018 39.0208 33.1665 38.2523C32.83 37.1558 31.956 36.5413 30.7527 36.5741C28.0123 36.654 25.694 38.6957 24.2297 40.3952C23.2545 41.5358 21.093 42.4056 19.1953 43.1684C18.4453 43.4863 17.7324 43.7715 17.1379 44.0566C16.1897 43.2553 14.985 42.4469 13.716 41.5929C10.1516 39.2004 6.11233 36.4872 5.9726 32.8086C5.77299 27.375 11.9609 23.5211 17.3617 20.7708C21.4552 18.6891 25.0139 17.309 28.2419 16.5547C32.7759 15.4954 36.6055 15.7092 39.6225 17.1878C41.2735 17.9962 42.0463 19.7542 41.5558 21.5621C40.2726 26.26 34.9559 29.4794 30.4091 30.928C27.6701 31.8006 25.339 32.1656 23.2802 32.0458C20.6995 31.8961 18.5922 30.6015 17.6911 30.0498C17.5467 29.9512 17.3941 29.8653 17.2348 29.7931L17.1935 29.7831C17.1119 29.7628 17.0263 29.7654 16.9461 29.7905C16.8658 29.8157 16.7941 29.8625 16.7387 29.9257C16.5533 30.1467 16.6189 30.496 16.6859 30.6728C17.5628 32.964 19.3735 34.4112 22.0668 34.9744C22.9483 35.1509 23.8455 35.2364 24.7444 35.2296C31.0478 35.2296 39.0906 31.5953 42.0449 28.6026C44.0595 26.5637 45.5266 24.4678 46.134 20.8535C46.7685 17.068 44.2021 14.4374 41.5872 13.2255C35.2325 10.2927 28.0152 11.4519 23.0791 12.9404C17.3047 14.6813 11.3307 17.8465 6.69119 21.6277C0.970959 26.2857 -1.09642 30.6101 0.543224 34.4953C2.22707 38.4775 6.33332 40.9684 10.3041 43.378C11.5873 44.155 12.8078 44.895 13.9071 45.6592C13.5763 45.8203 13.2384 45.9843 12.8948 46.1483C9.56129 47.7637 5.78012 49.5815 3.68279 52.5856C2.16006 54.7742 1.8749 56.9528 2.83588 59.0615C3.34916 60.1836 4.26166 60.945 5.52918 61.3243C6.18854 61.5111 6.87138 61.6018 7.55664 61.5937C10.0247 61.5937 12.7408 60.5957 14.2193 59.6732C16.8314 58.0336 18.5238 55.8322 19.2509 53.1303C19.8982 50.7264 19.7428 48.3382 18.8018 46.2067L22.0027 44.5927C20.4585 49.7255 21.6419 52.791 22.9422 54.4819C23.4213 55.105 24.2853 55.48 25.2506 55.4971C26.2158 55.5142 27.1041 55.1506 27.606 54.5318C28.5555 53.3556 29.257 51.9797 29.9029 50.6038C29.8687 51.5021 29.9115 52.4117 30.218 53.1831C30.4932 53.8774 30.9466 54.3379 31.5312 54.5147C32.1528 54.7044 32.8814 54.5447 33.5829 54.0656C36.7438 51.9027 38.9053 46.7114 40.6419 42.5382C40.8886 41.945 41.1252 41.3747 41.3548 40.8415C41.7844 42.3791 42.3821 43.8647 43.137 45.2714C43.3053 45.5765 43.291 45.7105 43.0629 45.9615C42.7193 46.3379 42.2402 46.7927 41.7326 47.2746C40.1956 48.7332 38.2822 50.5539 38.0256 52.1551C37.9258 52.7967 38.3678 53.3812 39.0536 53.5138C41.1167 53.9245 43.6018 53.3242 45.7034 51.9098C47.614 50.6266 48.3326 48.8373 47.8421 46.6074C47.3673 44.4601 48.4509 41.7939 51.0629 38.6772C51.4907 40.4637 52.061 41.908 52.848 43.1726L52.8266 43.1898C50.9246 44.8508 48.3183 47.1249 48.7232 49.8838C48.7572 50.1462 48.8455 50.3986 48.9825 50.6249C49.1195 50.8513 49.3021 51.0466 49.5188 51.1984C49.7504 51.3547 50.0118 51.4615 50.2866 51.5121C50.5614 51.5626 50.8436 51.5558 51.1157 51.4921C53.6065 50.9688 55.4814 49.9152 56.8445 48.2741C58.2075 46.633 57.7099 44.8137 57.2508 43.4022C60.8153 42.4355 63.9891 42.4598 66.9604 43.4735C68.6286 44.0438 69.8248 44.9805 70.5149 46.2737C71.3832 47.9005 70.9141 49.4019 69.1903 50.5012C68.6614 50.8391 68.4061 51.0458 68.3905 51.3067C68.387 51.3673 68.3981 51.4278 68.4229 51.4831C68.4477 51.5385 68.4855 51.587 68.533 51.6247C68.7326 51.7886 69.3486 52.0738 70.7416 51.1969C72.0248 50.3914 72.7776 49.2949 72.9701 47.9176C73.0088 47.5379 73.0083 47.1552 72.9686 46.7756ZM15.9759 50.3486L15.9616 50.5311C15.7392 52.6184 14.6784 54.4377 12.8035 55.9491C11.6258 56.8986 10.3469 57.4818 9.20342 57.593C8.40498 57.67 7.82469 57.5616 7.47965 57.2693C7.22158 57.0512 7.08328 56.7247 7.05192 56.2713C6.81809 52.6384 12.5155 49.0283 15.7221 47.8407C15.9509 48.6557 16.0368 49.5042 15.9759 50.3486ZM30.5687 40.1029C30.0412 43.1099 28.5028 48.7859 26.0847 50.9888C25.9692 51.0943 25.8722 51.1313 25.828 51.1214C25.7838 51.1114 25.7496 51.0586 25.714 50.9788C24.907 49.1082 25.205 45.9486 26.4269 43.4664C27.3664 41.553 28.7081 40.2854 30.208 39.9019C30.2703 39.8847 30.3345 39.8756 30.3991 39.8748C30.4496 39.8713 30.4998 39.8848 30.5417 39.9133C30.5593 39.9412 30.5708 39.9725 30.5755 40.0052C30.5802 40.0379 30.5779 40.0712 30.5687 40.1029ZM42.4726 51.0643C42.0178 51.5391 41.3947 51.475 41.5416 51.301L43.857 48.843C43.6703 49.6885 43.1185 50.3885 42.4726 51.0643ZM52.0781 48.9385C51.8579 49.047 51.6196 49.1142 51.3752 49.1367C51.3096 47.8435 52.5629 46.3878 53.799 45.4168C54.1312 46.7656 53.4511 48.1914 52.0781 48.9385Z" fill="#E740AE"/>
</g>
<defs>
<clipPath id="clip0_15_10">
<rect width="73" height="73" fill="white"/>
</clipPath>
</defs>
</svg>
