<svg width="75" height="73" viewBox="0 0 75 73" fill="none" xmlns="http://www.w3.org/2000/svg">
<path d="M2.1245 26.0956C2.1245 26.0956 0.36476 24.8271 2.47645 23.1334L7.3964 18.734C7.3964 18.734 8.80419 17.2529 10.2926 18.5434L55.694 52.917V69.3999C55.694 69.3999 55.672 71.9882 52.3505 71.7023L2.1245 26.0956Z" fill="#2489CA"/>
<path d="M13.8268 36.72L2.1245 47.3591C2.1245 47.3591 0.922007 48.2536 2.1245 49.8521L7.5577 54.794C7.5577 54.794 8.84818 56.1798 10.7546 54.6034L23.1608 45.1961L13.8268 36.72Z" fill="#1070B3"/>
<path d="M34.3718 36.8079L55.8333 20.4203L55.694 4.02539C55.694 4.02539 54.7775 0.447245 51.7199 2.30964L23.1608 28.3025L34.3718 36.8079Z" fill="#0877B9"/>
<path d="M52.3505 71.7243C53.597 73.0001 55.1074 72.5821 55.1074 72.5821L71.8323 64.3407C73.9733 62.8815 73.6727 61.0705 73.6727 61.0705V11.8563C73.6727 9.69332 71.4584 8.94543 71.4584 8.94543L56.9625 1.95778C53.795 6.49691e-05 51.7199 2.30973 51.7199 2.30973C51.7199 2.30973 54.3889 0.388675 55.694 4.02548V69.0993C55.694 69.5466 55.5987 69.9865 55.4081 70.3825C55.0268 71.1523 54.1982 71.8709 52.2112 71.5703L52.3505 71.7243Z" fill="#3C99D4"/>
</svg>
