<svg width="73" height="73" viewBox="0 0 73 73" fill="none" xmlns="http://www.w3.org/2000/svg">
<g clip-path="url(#clip0_15_16)">
<path d="M36.5 0L68.7599 18.25V54.75L36.5 73L4.24008 54.75V18.25L36.5 0Z" fill="white"/>
<path d="M62.999 53.4907L37.5646 67.8777V56.6722L53.4117 47.9548L62.999 53.4907ZM64.7388 51.9151V21.8269L55.4313 27.1985V46.5374L64.7388 51.9151ZM9.89758 53.4907L35.332 67.8777V56.6722L19.4849 47.9548L9.89758 53.4907ZM8.15775 51.9151V21.8269L17.4652 27.1985V46.5374L8.15775 51.9151ZM9.24666 19.8802L35.332 5.12207V15.9565L18.6211 25.1484L18.4933 25.2214L9.24666 19.8802ZM63.6499 19.8802L37.5646 5.12207V15.9565L54.2755 25.1484L54.4032 25.2214L63.6499 19.8802Z" fill="#8ED6FB"/>
<path d="M35.332 54.1234L19.6978 45.5277V28.4944L35.332 37.522V54.1234ZM37.5646 54.1234L53.1987 45.5277V28.4944L37.5646 37.522V54.1234ZM20.7563 26.5234L36.4513 17.8911L52.1463 26.5234L36.4513 35.5875L20.7563 26.5234Z" fill="#1C78C0"/>
</g>
<defs>
<clipPath id="clip0_15_16">
<rect width="73" height="73" fill="white"/>
</clipPath>
</defs>
</svg>
